<svg width="153" height="110" viewBox="0 0 153 110" fill="none" xmlns="http://www.w3.org/2000/svg">
<g filter="url(#filter0_d_2_2478)">
<rect x="20" y="10" width="113" height="70" rx="6" fill="#020202"/>
</g>
<path d="M61.1043 47.1432C59.9404 47.1432 59.1213 46.1974 59.1213 45.0797C59.1213 43.9189 59.9404 43.0161 61.1043 43.0161C62.2682 43.0161 63.0873 43.9619 63.0873 45.0797C63.0442 46.2404 62.2251 47.1432 61.1043 47.1432ZM61.0612 48.089C62.8717 48.089 64.1219 46.7133 64.1219 45.0797C64.1219 43.446 62.8717 42.0703 61.1043 42.0703C59.2937 42.0703 58.0436 43.446 58.0436 45.0797C58.0436 46.7563 59.2937 48.089 61.0612 48.089ZM65.372 48.003H66.3204L69.2518 43.747V48.003H70.2432V42.1993H69.2949L66.3635 46.4554V42.1993H65.372V48.003ZM74.9421 48.003H75.9767V46.3264L76.8819 45.3806L78.8649 48.003H80.115L77.5717 44.6928L79.9857 42.1993H78.7356L75.9767 45.1227V42.1993H74.9421V48.003ZM82.7015 45.6815L83.693 43.36L84.6845 45.6815H82.7015ZM80.6755 48.003H81.7101L82.3136 46.5843H85.0725L85.676 48.003H86.7537L84.2103 42.1563H83.262L80.6755 48.003ZM87.7021 48.003H88.8229V46.8853H87.7021V48.003ZM88.0039 46.1544H88.5643L88.866 42.4572V42.1563H87.7021V42.4572L88.0039 46.1544ZM72.6142 44.4348C73.0453 44.4348 73.3902 44.7787 73.3902 45.2086C73.3902 45.6385 73.0453 45.9825 72.6142 45.9825C72.1831 45.9825 71.8383 45.6385 71.8383 45.2086C71.8383 44.7787 72.1831 44.4348 72.6142 44.4348ZM51.0601 48.003H52.0947V43.8329L53.9052 46.5414H53.9483L55.802 43.7899V47.9601H56.8366V42.1993H55.7589L53.9914 44.9507L52.224 42.1993H51.1463V48.003H51.0601Z" fill="white"/>
<path d="M100.764 48.0885C102.187 48.0885 103.135 47.4007 103.135 46.1969C103.135 45.0792 102.316 44.6493 100.98 44.3913C100.16 44.2193 99.9881 44.0904 99.9881 43.8324C99.9881 43.6175 100.16 43.4455 100.592 43.4455C101.109 43.4455 101.669 43.6605 102.23 44.0044L103.049 42.8866C102.402 42.3707 101.626 42.1128 100.635 42.1128C99.2552 42.1128 98.3931 42.8866 98.3931 43.9614C98.3931 45.1651 99.3414 45.5091 100.592 45.81C101.368 45.982 101.583 46.1109 101.583 46.3689C101.583 46.6268 101.368 46.7988 100.936 46.7988C100.247 46.7988 99.6001 46.5409 99.0397 46.1109L98.1344 47.1857C98.7379 47.7876 99.7294 48.0885 100.764 48.0885ZM93.3925 46.5838V43.6175H94.0391C94.9875 43.6175 95.6341 44.1764 95.6341 45.1222C95.6341 46.068 94.9875 46.6268 94.0391 46.6268H93.3925V46.5838ZM91.7975 48.0025H93.996C96.1083 48.0025 97.3153 46.7558 97.3153 45.0792C97.3153 43.4025 96.1083 42.1988 94.0391 42.1988H91.7975V48.0025Z" fill="#62C2F4"/>
<path fill-rule="evenodd" clip-rule="evenodd" d="M98.9103 53.1621C98.5223 53.1621 98.2636 52.9472 98.2636 52.6462C98.2636 52.3453 98.5223 52.1303 98.9103 52.1303H99.6862V53.1621H98.9103ZM97.9188 54.3229H98.2636L98.9965 53.3771H99.6862V54.3229H99.9448V51.8724H98.9103C98.6085 51.8724 98.3498 51.9584 98.1774 52.1303C98.0481 52.2593 98.005 52.4313 98.005 52.6032C98.005 53.0331 98.2636 53.2481 98.6947 53.3341L97.9188 54.3229ZM95.246 54.3229H95.5047L96.9704 52.3023V54.3229H97.229V51.8724H96.9704L95.5047 53.893V51.8724H95.246V54.3229ZM92.444 54.3229H92.7027V53.2051H94.1252V54.3229H94.3839V51.8724H94.1252V52.9472H92.7027V51.8724H92.444V54.3229ZM90.0299 53.4201L90.5903 52.1733L91.1508 53.4201H90.0299ZM89.3402 54.3229H89.642L89.9437 53.678H91.2801L91.5818 54.3229H91.8836L90.7628 51.8294H90.461L89.3402 54.3229ZM87.1417 52.9901V52.1303H87.8745C88.2194 52.1303 88.4349 52.3023 88.4349 52.5172C88.4349 52.8182 88.2194 52.9472 87.8745 52.9472H87.1417V52.9901ZM87.1417 54.1079V53.2481H87.9176C88.3487 53.2481 88.5643 53.4201 88.5643 53.678C88.5643 53.9789 88.3487 54.1079 87.9607 54.1079H87.1417ZM86.8399 54.3229H87.9176C88.478 54.3229 88.8229 54.0649 88.8229 53.635C88.8229 53.2911 88.6074 53.1191 88.3056 53.0331C88.478 52.9472 88.6936 52.7752 88.6936 52.4743C88.6936 52.3023 88.6505 52.1733 88.5211 52.0873C88.3918 51.9584 88.1763 51.8724 87.8745 51.8724H86.8399V54.3229ZM83.9948 54.3229H84.2534L85.7191 52.3023V54.3229H85.9778V51.8724H85.7191L84.2534 53.893V51.8724H83.9948V54.3229ZM79.7702 54.3229H80.115L80.9772 53.1191L81.4514 53.635V54.2799H81.71V53.635L82.1842 53.1191L83.0464 54.3229H83.3913L82.3567 52.9042L83.305 51.8294H82.9602L81.6669 53.2911V51.8294H81.4083V53.2911L80.115 51.8294H79.7702L80.7185 52.9042L79.7702 54.3229ZM77.701 54.3659C78.0027 54.3659 78.2614 54.1939 78.4338 53.807L79.4253 51.8724H79.1235L78.3476 53.463L77.4423 51.8724H77.0975L78.1752 53.764C78.0458 54.0219 77.8303 54.1509 77.701 54.1509C77.5716 54.1509 77.4854 54.1509 77.3992 54.0649L77.2699 54.2799C77.3992 54.3229 77.5285 54.3659 77.701 54.3659ZM74.4247 54.3659C74.8127 54.3659 75.1576 54.1079 75.1576 52.3883V52.1303H76.1922V54.3229H76.4508V51.8724H74.8558V52.3023C74.8558 53.9789 74.5541 54.1079 74.3385 54.1079C74.2523 54.1079 74.1661 54.1079 74.123 54.0649L74.0799 54.2799C74.2092 54.3229 74.3385 54.3659 74.4247 54.3659ZM72.8728 54.3659C73.3039 54.3659 73.6057 54.1939 73.8643 53.9359L73.6919 53.764C73.4764 53.9789 73.2177 54.1079 72.9159 54.1079C72.3555 54.1079 71.9676 53.678 71.9676 53.0761C71.9676 52.5172 72.3555 52.0443 72.9159 52.0443C73.2608 52.0443 73.4764 52.1733 73.6919 52.3883L73.8643 52.1733C73.6057 51.9584 73.347 51.7864 72.9159 51.7864C72.1831 51.7864 71.6658 52.3453 71.6658 53.0761C71.6658 53.807 72.1831 54.3659 72.8728 54.3659ZM69.4242 54.0649V53.1191H70.157C70.545 53.1191 70.8036 53.2481 70.8036 53.592C70.8036 53.9359 70.545 54.1079 70.157 54.1079H69.4242V54.0649ZM69.1224 54.3229H70.157C70.7174 54.3229 71.0623 54.0649 71.0623 53.592C71.0623 53.0761 70.6312 52.8612 70.1139 52.8612H69.3811V52.0873H70.8899V51.8294H69.1224V54.3229ZM67.1394 54.1079C66.579 54.1079 66.1479 53.635 66.1479 53.0761C66.1479 52.5172 66.5359 52.0443 67.0963 52.0443C67.6567 52.0443 68.0878 52.5172 68.0878 53.0761C68.1309 53.678 67.6998 54.1079 67.1394 54.1079ZM67.1394 54.3659C67.8723 54.3659 68.3896 53.764 68.3896 53.0761C68.3896 52.3883 67.8723 51.7864 67.1394 51.7864C66.4066 51.7864 65.8893 52.3883 65.8893 53.0761C65.8893 53.807 66.4066 54.3659 67.1394 54.3659ZM64.0356 54.1079C63.4752 54.1079 63.0441 53.635 63.0441 53.0761C63.0441 52.5172 63.4321 52.0443 63.9925 52.0443C64.5529 52.0443 64.984 52.5172 64.984 53.0761C64.984 53.678 64.596 54.1079 64.0356 54.1079ZM64.0356 54.3659C64.7685 54.3659 65.2858 53.764 65.2858 53.0761C65.2858 52.3883 64.7685 51.7864 64.0356 51.7864C63.3028 51.7864 62.7855 52.3883 62.7855 53.0761C62.7855 53.807 63.2597 54.3659 64.0356 54.3659ZM59.6817 54.3229H59.9403V52.3453L60.8456 53.678L61.7509 52.3453V54.3229H62.0095V51.8724H61.7078L60.8025 53.2051L59.8972 51.8724H59.5955V54.3229H59.6817ZM57.2245 53.4201L57.7849 52.1733L58.3453 53.4201H57.2245ZM56.5348 54.3229H56.8366L57.1383 53.678H58.4747L58.7764 54.3229H59.0782L57.9574 51.8294H57.6987L56.5348 54.3229ZM55.1553 54.3659C55.5864 54.3659 55.8882 54.1939 56.1468 53.9359L55.9744 53.764C55.7588 53.9789 55.5002 54.1079 55.1984 54.1079C54.638 54.1079 54.2501 53.678 54.2501 53.0761C54.2501 52.5172 54.638 52.0443 55.1984 52.0443C55.5433 52.0443 55.7588 52.1733 55.9744 52.3883L56.1468 52.1733C55.8882 51.9584 55.6295 51.7864 55.1984 51.7864C54.4656 51.7864 53.9483 52.3453 53.9483 53.0761C53.9052 53.807 54.4656 54.3659 55.1553 54.3659ZM53.9052 55.9135H100.247C101.799 55.9135 103.049 54.6668 103.049 53.1191C103.049 51.5714 101.799 50.3247 100.247 50.3247H53.9052C52.3533 50.3247 51.1031 51.5714 51.1031 53.1191C51.1031 54.6668 52.3533 55.9135 53.9052 55.9135Z" fill="white"/>
<path d="M69.5967 37.384C69.4242 37.642 69.1656 37.9859 69.0794 38.2868C69.0363 38.4588 69.1225 38.6308 69.338 38.6308C69.6398 38.6308 70.0277 38.5018 70.3295 38.4588C73.0884 37.8139 75.2438 38.6738 77.9166 38.5448C80.891 38.4158 83.6069 36.6102 84.2966 33.6008C84.5983 32.1391 84.3828 30.5485 83.5637 29.1728C83.3913 28.8718 83.2189 28.6139 83.0033 28.3559C81.9687 27.1092 80.5893 26.3354 79.0805 26.1204C76.106 25.6905 73.4333 27.5391 72.2263 30.1616C71.1055 32.612 71.1917 34.9765 69.5967 37.384ZM68.4758 36.6532C69.9415 34.4177 69.8984 31.8812 71.0623 29.4737C72.528 26.3784 75.7611 24.2718 79.2529 24.7877C81.0635 25.0457 82.7447 25.9915 83.9948 27.4961C84.2966 27.8401 84.469 28.098 84.6846 28.4849C85.6329 30.1616 85.9347 32.0962 85.5467 33.8588C84.7708 37.47 81.4946 39.7485 77.8735 39.8775C75.3301 39.9635 73.0022 39.1896 70.545 39.7485C69.6829 39.9635 68.519 40.1784 67.9154 39.2756C67.2688 38.2868 67.9154 37.47 68.4758 36.6532Z" fill="#62C2F4"/>
<path d="M126.95 73.4309C126.95 73.7673 126.7 74.0364 126.389 74.0364C126.077 74.0364 125.828 73.7673 125.828 73.4309V72.3545C125.828 72.0182 126.077 71.7491 126.389 71.7491C126.7 71.7491 126.95 72.0182 126.95 72.3545V73.4309ZM126.389 70.8745C125.828 70.8745 125.08 71.2782 125.08 72.1527V73.4982C125.08 74.3728 125.828 74.7764 126.389 74.7764C126.95 74.7764 127.698 74.3728 127.698 73.4982V72.1527C127.76 71.2782 127.012 70.8745 126.389 70.8745ZM123.397 73.4309C123.397 73.7673 123.148 74.0364 122.837 74.0364C122.525 74.0364 122.276 73.7673 122.276 73.4309V72.3545C122.276 72.0182 122.525 71.7491 122.837 71.7491C123.148 71.7491 123.397 72.0182 123.397 72.3545V73.4309ZM122.837 70.8745C122.276 70.8745 121.528 71.2782 121.528 72.1527V73.4982C121.528 74.3728 122.276 74.7764 122.837 74.7764C123.397 74.7764 124.145 74.3728 124.145 73.4982V72.1527C124.208 71.2782 123.46 70.8745 122.837 70.8745ZM119.845 73.4309C119.845 73.7673 119.596 74.0364 119.284 74.0364C118.973 74.0364 118.723 73.7673 118.723 73.4309V72.3545C118.723 72.0182 118.973 71.7491 119.284 71.7491C119.596 71.7491 119.845 72.0182 119.845 72.3545V73.4309ZM119.284 70.8745C118.723 70.8745 117.976 71.2782 117.976 72.1527V73.4982C117.976 74.3728 118.723 74.7764 119.284 74.7764C119.845 74.7764 120.593 74.3728 120.593 73.4982V72.1527C120.655 71.2782 119.907 70.8745 119.284 70.8745ZM116.293 73.4309C116.293 73.7673 116.044 74.0364 115.732 74.0364C115.42 74.0364 115.171 73.7673 115.171 73.4309V72.3545C115.171 72.0182 115.42 71.7491 115.732 71.7491C116.044 71.7491 116.293 72.0182 116.293 72.3545V73.4309ZM115.732 70.8745C115.171 70.8745 114.423 71.2782 114.423 72.1527V73.4982C114.423 74.3728 115.171 74.7764 115.732 74.7764C116.293 74.7764 117.041 74.3728 117.041 73.4982V72.1527C117.103 71.2782 116.355 70.8745 115.732 70.8745ZM111.307 73.4309C111.307 73.7673 111.058 74.0364 110.746 74.0364C110.435 74.0364 110.186 73.7673 110.186 73.4309V72.3545C110.186 72.0182 110.435 71.7491 110.746 71.7491C111.058 71.7491 111.307 72.0182 111.307 72.3545V73.4309ZM110.746 70.8745C110.186 70.8745 109.438 71.2782 109.438 72.1527V73.4982C109.438 74.3728 110.186 74.7764 110.746 74.7764C111.307 74.7764 112.055 74.3728 112.055 73.4982V72.1527C112.117 71.2782 111.37 70.8745 110.746 70.8745ZM107.755 73.4309C107.755 73.7673 107.506 74.0364 107.194 74.0364C106.883 74.0364 106.633 73.7673 106.633 73.4309V72.3545C106.633 72.0182 106.883 71.7491 107.194 71.7491C107.506 71.7491 107.755 72.0182 107.755 72.3545V73.4309ZM107.194 70.8745C106.633 70.8745 105.885 71.2782 105.885 72.1527V73.4982C105.885 74.3728 106.633 74.7764 107.194 74.7764C107.755 74.7764 108.503 74.3728 108.503 73.4982V72.1527C108.565 71.2782 107.817 70.8745 107.194 70.8745ZM104.203 73.4309C104.203 73.7673 103.954 74.0364 103.642 74.0364C103.33 74.0364 103.081 73.7673 103.081 73.4309V72.3545C103.081 72.0182 103.33 71.7491 103.642 71.7491C103.954 71.7491 104.203 72.0182 104.203 72.3545V73.4309ZM103.642 70.8745C103.081 70.8745 102.333 71.2782 102.333 72.1527V73.4982C102.333 74.3728 103.081 74.7764 103.642 74.7764C104.203 74.7764 104.951 74.3728 104.951 73.4982V72.1527C105.013 71.2782 104.265 70.8745 103.642 70.8745ZM100.651 73.4309C100.651 73.7673 100.401 74.0364 100.09 74.0364C99.778 74.0364 99.5288 73.7673 99.5288 73.4309V72.3545C99.5288 72.0182 99.778 71.7491 100.09 71.7491C100.401 71.7491 100.651 72.0182 100.651 72.3545V73.4309ZM100.09 70.8745C99.5288 70.8745 98.7809 71.2782 98.7809 72.1527V73.4982C98.7809 74.3728 99.5288 74.7764 100.09 74.7764C100.651 74.7764 101.398 74.3728 101.398 73.4982V72.1527C101.461 71.2782 100.713 70.8745 100.09 70.8745ZM95.6649 73.4309C95.6649 73.7673 95.4156 74.0364 95.104 74.0364C94.7924 74.0364 94.5431 73.7673 94.5431 73.4309V72.3545C94.5431 72.0182 94.7924 71.7491 95.104 71.7491C95.4156 71.7491 95.6649 72.0182 95.6649 72.3545V73.4309ZM95.104 70.8745C94.5431 70.8745 93.7953 71.2782 93.7953 72.1527V73.4982C93.7953 74.3728 94.5431 74.7764 95.104 74.7764C95.6649 74.7764 96.4128 74.3728 96.4128 73.4982V72.1527C96.4751 71.2782 95.7272 70.8745 95.104 70.8745ZM92.1127 73.4309C92.1127 73.7673 91.8634 74.0364 91.5518 74.0364C91.2402 74.0364 90.9909 73.7673 90.9909 73.4309V72.3545C90.9909 72.0182 91.2402 71.7491 91.5518 71.7491C91.8634 71.7491 92.1127 72.0182 92.1127 72.3545V73.4309ZM91.5518 70.8745C90.9909 70.8745 90.243 71.2782 90.243 72.1527V73.4982C90.243 74.3728 90.9909 74.7764 91.5518 74.7764C92.1127 74.7764 92.8605 74.3728 92.8605 73.4982V72.1527C92.9228 71.2782 92.175 70.8745 91.5518 70.8745Z" fill="white"/>
<path d="M126.95 73.4309C126.95 73.7673 126.7 74.0364 126.389 74.0364C126.077 74.0364 125.828 73.7673 125.828 73.4309V72.3545C125.828 72.0182 126.077 71.7491 126.389 71.7491C126.7 71.7491 126.95 72.0182 126.95 72.3545V73.4309ZM126.389 70.8745C125.828 70.8745 125.08 71.2782 125.08 72.1527V73.4982C125.08 74.3728 125.828 74.7764 126.389 74.7764C126.95 74.7764 127.698 74.3728 127.698 73.4982V72.1527C127.76 71.2782 127.012 70.8745 126.389 70.8745ZM123.397 73.4309C123.397 73.7673 123.148 74.0364 122.837 74.0364C122.525 74.0364 122.276 73.7673 122.276 73.4309V72.3545C122.276 72.0182 122.525 71.7491 122.837 71.7491C123.148 71.7491 123.397 72.0182 123.397 72.3545V73.4309ZM122.837 70.8745C122.276 70.8745 121.528 71.2782 121.528 72.1527V73.4982C121.528 74.3728 122.276 74.7764 122.837 74.7764C123.397 74.7764 124.145 74.3728 124.145 73.4982V72.1527C124.208 71.2782 123.46 70.8745 122.837 70.8745ZM119.845 73.4309C119.845 73.7673 119.596 74.0364 119.284 74.0364C118.973 74.0364 118.723 73.7673 118.723 73.4309V72.3545C118.723 72.0182 118.973 71.7491 119.284 71.7491C119.596 71.7491 119.845 72.0182 119.845 72.3545V73.4309ZM119.284 70.8745C118.723 70.8745 117.976 71.2782 117.976 72.1527V73.4982C117.976 74.3728 118.723 74.7764 119.284 74.7764C119.845 74.7764 120.593 74.3728 120.593 73.4982V72.1527C120.655 71.2782 119.907 70.8745 119.284 70.8745ZM116.293 73.4309C116.293 73.7673 116.044 74.0364 115.732 74.0364C115.42 74.0364 115.171 73.7673 115.171 73.4309V72.3545C115.171 72.0182 115.42 71.7491 115.732 71.7491C116.044 71.7491 116.293 72.0182 116.293 72.3545V73.4309ZM115.732 70.8745C115.171 70.8745 114.423 71.2782 114.423 72.1527V73.4982C114.423 74.3728 115.171 74.7764 115.732 74.7764C116.293 74.7764 117.041 74.3728 117.041 73.4982V72.1527C117.103 71.2782 116.355 70.8745 115.732 70.8745ZM111.307 73.4309C111.307 73.7673 111.058 74.0364 110.746 74.0364C110.435 74.0364 110.186 73.7673 110.186 73.4309V72.3545C110.186 72.0182 110.435 71.7491 110.746 71.7491C111.058 71.7491 111.307 72.0182 111.307 72.3545V73.4309ZM110.746 70.8745C110.186 70.8745 109.438 71.2782 109.438 72.1527V73.4982C109.438 74.3728 110.186 74.7764 110.746 74.7764C111.307 74.7764 112.055 74.3728 112.055 73.4982V72.1527C112.117 71.2782 111.37 70.8745 110.746 70.8745ZM107.755 73.4309C107.755 73.7673 107.506 74.0364 107.194 74.0364C106.883 74.0364 106.633 73.7673 106.633 73.4309V72.3545C106.633 72.0182 106.883 71.7491 107.194 71.7491C107.506 71.7491 107.755 72.0182 107.755 72.3545V73.4309ZM107.194 70.8745C106.633 70.8745 105.885 71.2782 105.885 72.1527V73.4982C105.885 74.3728 106.633 74.7764 107.194 74.7764C107.755 74.7764 108.503 74.3728 108.503 73.4982V72.1527C108.565 71.2782 107.817 70.8745 107.194 70.8745ZM104.203 73.4309C104.203 73.7673 103.954 74.0364 103.642 74.0364C103.33 74.0364 103.081 73.7673 103.081 73.4309V72.3545C103.081 72.0182 103.33 71.7491 103.642 71.7491C103.954 71.7491 104.203 72.0182 104.203 72.3545V73.4309ZM103.642 70.8745C103.081 70.8745 102.333 71.2782 102.333 72.1527V73.4982C102.333 74.3728 103.081 74.7764 103.642 74.7764C104.203 74.7764 104.951 74.3728 104.951 73.4982V72.1527C105.013 71.2782 104.265 70.8745 103.642 70.8745ZM100.651 73.4309C100.651 73.7673 100.401 74.0364 100.09 74.0364C99.778 74.0364 99.5288 73.7673 99.5288 73.4309V72.3545C99.5288 72.0182 99.778 71.7491 100.09 71.7491C100.401 71.7491 100.651 72.0182 100.651 72.3545V73.4309ZM100.09 70.8745C99.5288 70.8745 98.7809 71.2782 98.7809 72.1527V73.4982C98.7809 74.3728 99.5288 74.7764 100.09 74.7764C100.651 74.7764 101.398 74.3728 101.398 73.4982V72.1527C101.461 71.2782 100.713 70.8745 100.09 70.8745ZM95.6649 73.4309C95.6649 73.7673 95.4156 74.0364 95.104 74.0364C94.7924 74.0364 94.5431 73.7673 94.5431 73.4309V72.3545C94.5431 72.0182 94.7924 71.7491 95.104 71.7491C95.4156 71.7491 95.6649 72.0182 95.6649 72.3545V73.4309ZM95.104 70.8745C94.5431 70.8745 93.7953 71.2782 93.7953 72.1527V73.4982C93.7953 74.3728 94.5431 74.7764 95.104 74.7764C95.6649 74.7764 96.4128 74.3728 96.4128 73.4982V72.1527C96.4751 71.2782 95.7272 70.8745 95.104 70.8745ZM92.1127 73.4309C92.1127 73.7673 91.8634 74.0364 91.5518 74.0364C91.2402 74.0364 90.9909 73.7673 90.9909 73.4309V72.3545C90.9909 72.0182 91.2402 71.7491 91.5518 71.7491C91.8634 71.7491 92.1127 72.0182 92.1127 72.3545V73.4309ZM91.5518 70.8745C90.9909 70.8745 90.243 71.2782 90.243 72.1527V73.4982C90.243 74.3728 90.9909 74.7764 91.5518 74.7764C92.1127 74.7764 92.8605 74.3728 92.8605 73.4982V72.1527C92.9228 71.2782 92.175 70.8745 91.5518 70.8745Z" fill="url(#paint0_linear_2_2478)"/>
<defs>
<filter id="filter0_d_2_2478" x="0" y="0" width="153" height="110" filterUnits="userSpaceOnUse" color-interpolation-filters="sRGB">
<feFlood flood-opacity="0" result="BackgroundImageFix"/>
<feColorMatrix in="SourceAlpha" type="matrix" values="0 0 0 0 0 0 0 0 0 0 0 0 0 0 0 0 0 0 127 0" result="hardAlpha"/>
<feOffset dy="10"/>
<feGaussianBlur stdDeviation="10"/>
<feComposite in2="hardAlpha" operator="out"/>
<feColorMatrix type="matrix" values="0 0 0 0 0 0 0 0 0 0 0 0 0 0 0 0 0 0 0.25 0"/>
<feBlend mode="normal" in2="BackgroundImageFix" result="effect1_dropShadow_2_2478"/>
<feBlend mode="normal" in="SourceGraphic" in2="effect1_dropShadow_2_2478" result="shape"/>
</filter>
<linearGradient id="paint0_linear_2_2478" x1="108.972" y1="70.8745" x2="108.972" y2="74.7764" gradientUnits="userSpaceOnUse">
<stop offset="0.130208" stop-color="#C4C4C4"/>
<stop offset="0.354167" stop-color="white"/>
<stop offset="0.494792" stop-color="#868686"/>
<stop offset="0.651042" stop-color="#CECECE" stop-opacity="0.402062"/>
<stop offset="0.833333" stop-color="white" stop-opacity="0"/>
<stop offset="0.942708" stop-color="#9B9B9B" stop-opacity="0.829161"/>
</linearGradient>
</defs>
</svg>
