<svg width="770" height="388" viewBox="0 0 770 388" fill="none" xmlns="http://www.w3.org/2000/svg">
<g opacity="0.7" clip-path="url(#clip0_804_85)">
<path d="M651.978 205.704C651.978 205.704 648.114 214.179 645.355 216.942C642.595 219.89 592.552 232.233 592.552 232.233L430.279 267.79L410.593 265.764L341.783 267.975C341.783 267.975 327.984 234.444 343.071 201.282C358.157 168.121 433.038 155.224 454.196 162.041C475.355 168.857 525.03 190.413 560.539 178.622C596.231 166.647 624.565 143.433 636.524 146.381C648.298 149.513 654.002 168.673 654.002 176.964C654.002 185.254 651.978 205.704 651.978 205.704Z" fill="#0045FF" stroke="white" stroke-width="2" stroke-miterlimit="10"/>
<path d="M302.962 251.762C304.434 217.679 327.248 189.86 353.926 189.676H382.995L382.443 201.835C393.85 213.073 400.657 231.128 399.738 251.394C398.818 271.659 390.538 289.714 378.212 300.952L377.66 313.296H348.59C322.097 313.664 301.675 286.029 302.962 251.762Z" fill="white" stroke="white" stroke-width="2" stroke-miterlimit="10"/>
<path d="M373.628 313.288C347.067 310.345 328.589 280.331 332.355 246.251C336.122 212.171 360.707 186.929 387.268 189.873C413.829 192.817 432.307 222.83 428.54 256.91C424.773 290.991 400.188 316.232 373.628 313.288Z" fill="white" stroke="white" stroke-width="2" stroke-miterlimit="10"/>
<path d="M343.071 272.765C342.519 271.291 342.151 269.633 341.783 267.974C341.415 266.316 341.047 264.658 340.863 263C340.311 259.316 340.127 255.631 340.311 251.762C340.679 243.472 342.519 235.55 345.647 228.733V228.549C346.383 227.075 347.119 225.601 347.855 224.127L348.039 223.943C348.775 222.469 349.695 221.179 350.614 219.89L350.798 219.706C358.71 208.099 370.117 200.73 382.627 200.73C393.298 200.73 402.866 206.072 409.673 214.916C410.041 215.468 410.593 216.021 410.961 216.758C411.329 217.311 411.881 218.047 412.249 218.6C412.617 219.153 412.985 219.89 413.353 220.443C413.721 220.995 414.089 221.732 414.457 222.469C414.457 222.469 414.457 222.469 414.457 222.653C414.824 223.39 415.008 223.943 415.376 224.68V224.864C415.744 225.601 415.928 226.154 416.296 226.891C416.296 226.891 416.296 227.075 416.48 227.075C416.664 227.812 417.032 228.365 417.216 229.101C417.216 229.286 417.216 229.286 417.4 229.47C417.584 230.023 417.768 230.76 417.952 231.496C417.952 231.681 417.952 231.681 418.136 231.865C418.32 232.418 418.504 233.155 418.688 233.707C418.688 233.891 418.688 234.076 418.872 234.26C419.056 234.813 419.24 235.55 419.24 236.102C419.24 236.287 419.24 236.471 419.424 236.655C419.608 237.208 419.608 237.945 419.792 238.497C419.792 238.682 419.792 238.866 419.976 239.234C420.16 239.787 420.16 240.34 420.16 241.077C420.16 241.261 420.16 241.629 420.344 241.813C420.344 242.366 420.528 242.919 420.528 243.472C420.528 243.84 420.528 244.024 420.528 244.393C420.528 244.945 420.528 245.498 420.712 246.051C420.712 246.419 420.712 246.604 420.712 246.972C420.712 247.525 420.712 248.262 420.712 248.814C420.712 248.999 420.712 249.367 420.712 249.551C420.712 250.472 420.712 251.394 420.712 252.315C420.712 253.42 420.528 254.526 420.528 255.631C420.528 255.815 420.528 256.184 420.528 256.368C420.344 257.289 420.344 258.21 420.16 259.131C420.16 259.316 420.16 259.5 420.16 259.5C419.792 261.711 419.424 263.921 418.872 266.132C416.112 276.818 410.777 286.029 403.785 292.662L403.601 292.846C402.682 293.583 401.946 294.504 401.026 295.057L400.842 295.241C394.402 300.399 386.675 303.531 378.764 303.531C370.669 303.531 363.309 300.584 357.238 295.241C350.614 289.345 345.831 281.792 343.071 272.765Z" fill="#0045FF" stroke="white" stroke-width="2" stroke-miterlimit="10"/>
<path d="M344.911 253.236C345.095 247.34 346.383 241.629 348.223 236.471L364.229 246.419C363.494 248.446 363.126 250.841 362.942 253.236C362.942 253.604 362.942 253.973 362.942 254.157L344.911 257.105C344.911 255.999 344.911 254.71 344.911 253.236Z" fill="#0045FF" stroke="white" stroke-width="2" stroke-miterlimit="10"/>
<path d="M373.244 234.997C371.588 235.918 370.116 237.208 368.645 238.682L357.422 221.364C361.285 217.126 365.885 213.81 370.852 211.968L373.244 234.997Z" fill="#0045FF" stroke="white" stroke-width="2" stroke-miterlimit="10"/>
<path d="M365.333 264.474C366.069 266.132 367.172 267.606 368.276 268.711L359.077 289.345C354.662 285.661 350.982 280.502 348.59 274.607L365.333 264.474Z" fill="#0045FF" stroke="white" stroke-width="2" stroke-miterlimit="10"/>
<path d="M392.378 242.55L408.569 231.312C410.961 236.839 412.249 243.287 412.433 250.104L394.218 250.657C394.218 247.525 393.482 244.945 392.378 242.55Z" fill="#0045FF" stroke="white" stroke-width="2" stroke-miterlimit="10"/>
<path d="M386.859 235.734C385.571 234.813 384.1 234.076 382.444 233.707L385.019 210.678C390.723 211.784 396.058 214.547 400.29 218.784L386.859 235.734Z" fill="#0045FF" stroke="white" stroke-width="2" stroke-miterlimit="10"/>
<path d="M376.188 273.133C376.74 273.133 377.292 273.317 377.844 273.317C379.5 273.317 381.156 272.949 382.628 272.396L391.459 292.109C387.043 294.688 382.076 296.346 376.74 296.346C375.268 296.346 373.981 296.162 372.509 295.978L376.188 273.133Z" fill="#0045FF" stroke="white" stroke-width="2" stroke-miterlimit="10"/>
<path d="M392.562 261.711L410.593 265.764C408.753 272.396 405.625 278.292 401.762 283.082L390.171 266.132C391.091 264.843 391.827 263.369 392.562 261.711Z" fill="#0045FF" stroke="white" stroke-width="2" stroke-miterlimit="10"/>
<path d="M574.889 217.311C575.625 188.755 586.296 165.357 598.807 165.357H627.876L625.484 269.08H596.599C583.904 269.08 574.337 245.867 574.889 217.311Z" fill="white" stroke="white" stroke-width="2" stroke-miterlimit="10"/>
<path d="M603.959 217.311C603.223 245.867 612.974 269.08 625.485 269.08C637.995 269.08 648.666 245.682 649.402 217.126C650.138 188.57 640.387 165.357 627.876 165.357C615.182 165.357 604.51 188.57 603.959 217.311Z" fill="white" stroke="white" stroke-width="2" stroke-miterlimit="10"/>
<path d="M608.926 234.813C608.742 233.523 608.558 232.233 608.374 230.944C608.19 229.654 608.006 228.18 608.006 226.891C607.822 223.759 607.638 220.627 607.822 217.311C608.006 210.31 608.926 203.862 610.214 197.966V197.782C610.582 196.492 610.95 195.203 611.318 194.097V193.913C611.686 192.808 612.054 191.518 612.422 190.413V190.228C616.101 180.464 621.437 174.384 627.324 174.384C632.292 174.384 636.891 178.806 640.019 186.175C640.203 186.728 640.387 187.096 640.571 187.649C640.755 188.202 640.939 188.755 641.123 189.123C641.307 189.676 641.491 190.228 641.675 190.781C641.859 191.334 642.043 191.886 642.227 192.439C642.411 192.992 642.595 193.545 642.595 194.097C642.595 194.097 642.595 194.097 642.595 194.282C642.779 194.834 642.779 195.387 642.963 195.94V196.124C643.147 196.677 643.147 197.229 643.331 197.782V197.966C643.515 198.519 643.515 199.072 643.699 199.624C643.699 199.808 643.699 199.808 643.699 199.993C643.699 200.545 643.883 201.098 643.883 201.651C643.883 201.835 643.883 201.835 643.883 202.019C643.883 202.572 644.067 203.125 644.067 203.493C644.067 203.677 644.067 203.862 644.067 204.046C644.067 204.599 644.251 204.967 644.251 205.52C644.251 205.704 644.251 205.888 644.251 206.072C644.251 206.625 644.251 206.994 644.435 207.546C644.435 207.73 644.435 207.915 644.435 208.099C644.435 208.652 644.435 209.02 644.435 209.573C644.435 209.757 644.435 210.125 644.435 210.31C644.435 210.862 644.435 211.231 644.435 211.784C644.435 211.968 644.435 212.336 644.435 212.521C644.435 213.073 644.435 213.626 644.435 213.994C644.435 214.179 644.435 214.363 644.435 214.731C644.435 215.468 644.435 216.205 644.435 216.942C644.435 217.863 644.435 218.784 644.251 219.706C644.251 219.89 644.251 220.074 644.251 220.443C644.251 221.179 644.067 221.916 644.067 222.653C644.067 222.838 644.067 222.838 644.067 223.022C643.883 224.864 643.699 226.706 643.515 228.549C642.227 237.576 639.651 245.314 636.523 250.841C636.523 250.841 636.523 251.025 636.339 251.025C635.971 251.762 635.603 252.315 635.051 252.867C635.051 252.867 635.051 252.867 635.051 253.052C631.924 257.473 628.428 260.052 624.748 260.052C620.885 260.052 617.573 257.473 614.629 253.052C612.606 248.63 610.398 242.366 608.926 234.813Z" fill="#0045FF" stroke="#0045FF" stroke-width="2" stroke-miterlimit="10"/>
<path d="M23.8608 232.049C25.3326 197.966 48.1465 170.147 74.8241 169.963H103.893C130.571 169.963 151.177 197.598 149.705 231.681C148.233 265.764 125.419 293.583 98.7419 293.767H69.6725C42.995 293.767 22.3889 266.132 23.8608 232.049Z" fill="white" stroke="white" stroke-width="2" stroke-miterlimit="10"/>
<path d="M565.69 18.708C565.69 18.708 578.569 22.5769 580.225 26.2615C581.881 30.1304 582.985 32.7097 582.985 32.7097L621.805 89.4533C621.805 89.4533 635.788 88.3479 640.203 100.323C644.619 112.298 642.963 128.511 642.963 128.511C642.963 128.511 653.082 153.935 653.634 172.726C654.186 191.702 651.978 205.704 651.978 205.704C651.978 205.704 654.738 171.068 646.643 160.383C638.547 149.513 621.805 157.619 615.366 177.148C608.926 196.677 601.383 232.786 601.383 232.786L430.279 267.975C430.279 267.975 438.926 222.653 427.519 196.677C416.112 170.7 363.309 172.358 353.558 219.337C343.807 266.316 347.118 274.975 347.118 274.975C347.118 274.975 310.874 282.529 200.852 280.871C90.8302 279.213 30.2999 266.316 14.1094 261.895C14.1094 261.895 10.2457 241.814 9.32581 230.023C8.22186 218.048 12.6375 209.941 12.6375 209.941C12.6375 209.941 13.7413 188.386 16.5011 180.833C19.2609 173.279 27.3561 161.857 27.3561 161.857C27.3561 161.857 35.4514 142.881 48.8821 131.09C62.3129 119.115 84.5748 107.324 89.9103 104.56C95.2458 101.797 102.237 100.323 112.54 93.1379C122.843 86.1371 186.501 41.737 206.556 29.9462C226.61 17.9711 269.662 12.0756 278.309 10.4175C286.956 8.75944 386.307 1.75861 420.896 1.75861C455.484 1.75861 526.318 3.60093 565.69 18.708Z" fill="#0045FF" stroke="white" stroke-width="2" stroke-miterlimit="10"/>
<path d="M447.389 36.0258C469.099 20.3661 488.049 17.9711 496.696 17.2341C505.16 32.3412 518.774 60.8972 521.534 90.3744C475.538 97.5595 424.207 105.666 424.207 105.666C424.207 105.666 412.248 109.903 408.017 105.666C408.017 105.666 405.809 104.008 404.705 101.428C403.785 98.6649 422.551 53.8964 447.389 36.0258Z" fill="#0045FF" stroke="white" stroke-width="2" stroke-miterlimit="10"/>
<path d="M511.415 17.2341C521.902 17.7868 536.805 19.4449 548.396 21.8399C560.723 24.6034 565.138 25.1561 567.346 27.1827C569.554 29.5777 590.528 55.9229 598.071 74.8989C598.071 74.8989 596.967 79.6889 592.184 79.6889C590.344 79.6889 567.714 83.1894 539.565 87.4267C534.781 70.8458 525.398 41.1843 511.415 17.2341Z" fill="#0045FF" stroke="white" stroke-width="2" stroke-miterlimit="10"/>
<path d="M580.041 80.6101C580.041 80.6101 571.026 45.0532 552.26 24.0507" stroke="#0045FF" stroke-width="2" stroke-miterlimit="10"/>
<path d="M520.982 115.983L536.253 113.219C536.253 113.219 539.932 114.325 538.829 118.194C537.725 121.878 535.701 121.51 535.701 121.51L523.006 123.536C523.006 123.536 519.878 123.905 519.326 120.773C518.774 117.825 517.854 117.272 520.982 115.983Z" stroke="white" stroke-width="2" stroke-miterlimit="10"/>
<path d="M598.623 102.534L610.398 100.323C610.398 100.323 613.341 101.244 612.422 104.376C611.502 107.508 610.03 107.14 610.03 107.14L600.279 108.798C600.279 108.798 597.887 108.982 597.519 106.587C596.967 104.008 596.231 103.639 598.623 102.534Z" stroke="white" stroke-width="2" stroke-miterlimit="10"/>
<path d="M504.792 15.576C504.792 15.576 526.686 56.2914 530.55 90.1902" stroke="white" stroke-width="2" stroke-miterlimit="10"/>
<path d="M535.516 97.191C535.516 97.191 545.452 114.14 545.82 119.852C546.188 125.563 545.084 194.834 543.06 207.546" stroke="white" stroke-width="2" stroke-miterlimit="10"/>
<path d="M426.783 59.4233C426.783 59.4233 434.51 81.7155 436.718 93.6906" stroke="white" stroke-width="2" stroke-miterlimit="10"/>
<path d="M429.91 121.325C429.91 121.325 438.374 149.329 438.742 170.516C439.11 191.702 439.478 231.312 439.478 231.312" stroke="white" stroke-width="2" stroke-miterlimit="10"/>
<path d="M599.175 82.4524C599.175 82.4524 617.205 99.0333 618.677 104.376C620.149 109.719 618.309 155.961 618.309 155.961" stroke="white" stroke-width="2" stroke-miterlimit="10"/>
<path d="M595.863 208.283C595.863 208.283 593.104 216.021 587.4 217.863C581.697 219.706 441.87 246.788 441.87 246.788" stroke="white" stroke-width="2" stroke-miterlimit="10"/>
<path d="M190.732 232.786C190.732 232.786 83.6543 234.26 43.914 221.916C43.914 221.916 47.7777 248.446 55.137 253.973C62.4963 259.316 116.035 264.843 141.977 265.764C171.414 266.685 188.157 263.737 188.157 263.737L190.732 232.786Z" fill="#0045FF" stroke="white" stroke-width="2" stroke-miterlimit="10"/>
<path d="M209.867 165.725L199.012 187.833C199.012 187.833 138.666 189.307 131.674 189.86C124.867 190.413 117.508 193.729 109.596 189.86C101.685 185.991 67.8323 181.569 63.9687 181.569C60.105 181.569 55.1375 185.07 55.1375 185.07C55.1375 185.07 63.9687 162.962 67.4644 160.935C70.9601 158.909 74.2718 159.462 75.7436 159.462C77.3995 159.462 148.969 153.935 209.867 165.725Z" fill="#0045FF" stroke="white" stroke-width="2" stroke-miterlimit="10"/>
<path d="M323.753 121.694C323.753 121.694 349.511 117.825 359.262 121.141C369.197 124.642 364.229 137.906 347.487 150.25C330.744 162.594 316.946 174.569 299.651 176.411C282.357 178.438 252.736 184.886 251.264 179.359C249.792 173.832 255.127 154.119 274.997 139.749C294.684 125.563 323.753 121.694 323.753 121.694Z" fill="#0045FF" stroke="white" stroke-width="2" stroke-miterlimit="10"/>
<path d="M117.324 93.5063L122.291 94.9802C122.291 94.9802 131.49 95.3487 146.025 95.7171C158.536 96.0856 175.278 96.6383 193.493 97.0068C218.882 97.7437 247.4 98.4806 273.341 98.8491C312.898 99.7702 346.015 100.139 350.982 99.4018C359.445 98.1122 369.012 94.9802 377.844 87.2424C382.811 82.8209 387.595 77.1096 391.826 69.1877C403.785 47.4482 433.774 20.7345 433.774 20.7345C386.307 15.2075 273.341 17.2341 260.462 17.7868C257.335 17.971 253.103 18.3395 248.688 19.2607C234.889 21.6557 217.042 27.1827 206.739 34.1835C204.9 35.4731 201.956 37.4997 198.276 39.8947C189.629 45.6059 176.75 54.2648 163.687 62.9237C155.96 68.0823 148.049 73.2408 141.058 77.8466C127.627 86.6897 117.324 93.5063 117.324 93.5063Z" fill="#0045FF" stroke="white" stroke-width="2" stroke-miterlimit="10"/>
<path d="M266.902 242.366C266.902 248.077 272.421 252.683 279.229 252.683C286.036 252.683 291.556 248.077 291.556 242.366C291.556 236.655 286.036 232.049 279.229 232.049C272.421 231.865 266.902 236.655 266.902 242.366Z" fill="white" stroke="white" stroke-width="2" stroke-miterlimit="10"/>
<path d="M11.1656 225.417C12.2695 230.391 15.5812 233.892 18.5249 233.155C21.6527 232.418 23.3085 227.996 22.2046 223.022C21.1007 218.048 17.789 214.547 14.8453 215.284C11.9016 216.021 10.2457 220.443 11.1656 225.417Z" fill="white" stroke="white" stroke-width="2" stroke-miterlimit="10"/>
<path d="M435.614 100.323C435.614 100.323 445.917 83.0051 452.357 81.8997C458.796 80.7943 486.394 79.6889 492.281 83.5578C498.169 87.4267 496.513 99.7703 494.489 103.086C492.281 106.403 483.634 107.876 476.091 107.324C468.547 106.771 443.158 108.982 443.158 108.982C443.158 108.982 428.071 119.852 422.552 118.746C417.216 117.641 410.225 105.85 415.008 99.2176C419.976 92.7694 427.519 94.4275 435.614 100.323Z" fill="#0045FF" stroke="white" stroke-width="2" stroke-miterlimit="10" stroke-linejoin="round"/>
<path d="M435.614 100.323L417.768 104.192" stroke="#0045FF" stroke-width="2" stroke-miterlimit="10" stroke-linejoin="round"/>
<path d="M565.69 18.708C565.69 18.708 578.569 22.5769 580.225 26.2615C581.881 30.1304 582.985 32.7097 582.985 32.7097L621.805 89.4533C621.805 89.4533 635.788 88.3479 640.203 100.323C644.619 112.298 642.963 128.511 642.963 128.511C642.963 128.511 653.082 153.935 653.634 172.726C654.186 191.702 651.978 205.704 651.978 205.704C651.978 205.704 654.738 171.068 646.643 160.383C638.547 149.513 621.805 157.619 615.366 177.148C608.926 196.677 601.383 232.786 601.383 232.786L430.279 267.975C430.279 267.975 438.926 222.653 427.519 196.677C416.112 170.7 363.309 172.358 353.558 219.337C343.807 266.316 347.118 274.975 347.118 274.975C347.118 274.975 310.874 282.529 200.852 280.871C90.8302 279.213 30.2998 266.316 14.1093 261.895C14.1093 261.895 10.2457 241.814 9.32578 230.023C8.22188 218.048 12.6374 209.941 12.6374 209.941C12.6374 209.941 13.7414 188.386 16.5011 180.833C19.2608 173.279 27.3561 161.857 27.3561 161.857C27.3561 161.857 35.4514 142.881 48.8821 131.09C62.3129 119.115 84.5748 107.324 89.9103 104.56C95.2458 101.797 102.237 100.323 112.54 93.1379C122.843 86.1371 186.501 41.7371 206.556 29.9462C226.61 17.9711 269.662 12.0756 278.309 10.4175C286.956 8.75944 386.307 1.75861 420.896 1.75861C455.484 1.75861 526.318 3.60093 565.69 18.708Z" stroke="white" stroke-width="2" stroke-miterlimit="10"/>
<path d="M68.0161 117.272C68.0161 117.272 78.8711 121.141 75.9273 125.194C72.9836 129.063 56.6091 139.564 49.2498 152.461C41.8905 165.357 40.4187 171.805 36.923 171.805C33.4273 171.805 26.068 165.357 26.9879 162.225C27.9078 158.725 33.4273 129.616 68.0161 117.272Z" fill="#0045FF" stroke="white" stroke-width="2" stroke-miterlimit="10"/>
<path d="M611.318 216.205C611.502 210.862 612.054 205.888 612.79 201.282L620.149 210.126C619.781 211.968 619.597 213.994 619.597 216.205C619.597 216.574 619.597 216.758 619.597 217.126L611.318 219.706C611.318 218.6 611.318 217.495 611.318 216.205Z" fill="#0045FF" stroke="white" stroke-width="2" stroke-miterlimit="10"/>
<path d="M624.381 199.993C623.645 200.73 622.909 201.835 622.357 203.309L617.206 187.833C619.045 183.965 621.069 181.201 623.461 179.543L624.381 199.993Z" fill="#0045FF" stroke="white" stroke-width="2" stroke-miterlimit="10"/>
<path d="M620.701 226.338C621.069 227.812 621.621 229.101 621.989 230.207L617.758 248.63C615.734 245.314 614.078 240.892 612.974 235.55L620.701 226.338Z" fill="#0045FF" stroke="white" stroke-width="2" stroke-miterlimit="10"/>
<path d="M633.212 206.625L640.571 196.492C641.675 201.467 642.227 207.178 642.411 213.257L634.132 213.81C633.948 211.231 633.58 208.836 633.212 206.625Z" fill="#0045FF" stroke="white" stroke-width="2" stroke-miterlimit="10"/>
<path d="M630.636 200.545C630.084 199.624 629.348 199.072 628.612 198.703L629.9 178.253C632.476 179.174 634.868 181.754 636.892 185.623L630.636 200.545Z" fill="#0045FF" stroke="white" stroke-width="2" stroke-miterlimit="10"/>
<path d="M625.669 233.892C625.853 233.892 626.221 234.076 626.405 234.076C627.141 234.076 627.877 233.707 628.613 233.155L632.66 250.841C630.636 253.236 628.245 254.526 626.037 254.526C625.301 254.526 624.749 254.341 624.197 254.157L625.669 233.892Z" fill="#0045FF" stroke="white" stroke-width="2" stroke-miterlimit="10"/>
<path d="M633.212 223.759L641.491 227.259C640.571 233.155 639.283 238.313 637.444 242.735L632.108 227.628C632.66 226.522 632.844 225.233 633.212 223.759Z" fill="#0045FF" stroke="white" stroke-width="2" stroke-miterlimit="10"/>
</g>
<path d="M436.116 354.149L435.717 345.049L437.157 344.741C437.526 344.35 437.825 343.862 438.055 343.278C438.29 342.684 438.475 342.007 438.609 341.246C438.741 340.477 438.839 339.629 438.905 338.701C438.976 337.764 439.03 336.761 439.065 335.692L439.279 329.004L452.386 326.206L453.109 341.335L455.92 340.735L456.319 349.835L452.187 350.718L451.936 345.265L440.069 347.798L440.32 353.251L436.116 354.149ZM441.55 343.803L449.024 342.208L448.481 330.644L443.168 331.779L443.009 334.85C442.954 336.87 442.829 338.616 442.634 340.09C442.438 341.564 442.077 342.802 441.55 343.803ZM467.668 342.277C465.882 342.658 464.31 342.582 462.953 342.049C461.604 341.514 460.538 340.585 459.753 339.263C458.969 337.94 458.529 336.306 458.435 334.359C458.345 332.435 458.612 330.679 459.236 329.089C459.867 327.497 460.806 326.169 462.052 325.105C463.304 324.031 464.808 323.307 466.563 322.932C468.35 322.55 469.919 322.631 471.269 323.174C472.618 323.709 473.685 324.638 474.469 325.96C475.261 327.281 475.707 328.922 475.805 330.885C475.9 332.799 475.628 334.548 474.987 336.134C474.354 337.718 473.415 339.046 472.171 340.118C470.925 341.182 469.424 341.902 467.668 342.277ZM467.292 338.777C468.283 338.565 469.096 338.112 469.73 337.417C470.369 336.712 470.832 335.852 471.117 334.836C471.409 333.811 471.529 332.716 471.477 331.55C471.418 330.426 471.212 329.441 470.859 328.595C470.504 327.741 469.999 327.112 469.345 326.708C468.697 326.295 467.897 326.19 466.944 326.394C465.952 326.606 465.134 327.068 464.488 327.782C463.848 328.487 463.386 329.351 463.103 330.374C462.817 331.39 462.704 332.48 462.764 333.644C462.815 334.769 463.017 335.755 463.37 336.601C463.724 337.448 464.228 338.073 464.882 338.476C465.536 338.88 466.339 338.98 467.292 338.777ZM497.9 335.798C496.709 336.044 495.539 336.075 494.389 335.893C493.247 335.709 492.203 335.236 491.259 334.475C490.313 333.705 489.534 332.584 488.923 331.109C488.32 329.633 487.968 327.733 487.867 325.409C487.776 323.288 487.908 321.363 488.263 319.632C488.616 317.894 489.171 316.368 489.928 315.055C490.683 313.733 491.618 312.657 492.732 311.826C493.846 310.988 495.119 310.416 496.551 310.11C498.07 309.785 499.445 309.805 500.675 310.168C501.903 310.523 502.914 311.155 503.709 312.063C504.51 312.962 505.03 314.069 505.27 315.384L501.043 316.287C500.819 315.355 500.37 314.677 499.695 314.253C499.02 313.83 498.163 313.729 497.124 313.95C495.432 314.312 494.14 315.353 493.248 317.074C492.354 318.788 491.956 321.009 492.053 323.737L492.189 323.449C492.545 322.648 493.01 321.936 493.585 321.311C494.159 320.686 494.813 320.164 495.546 319.744C496.288 319.323 497.079 319.022 497.922 318.842C499.378 318.531 500.705 318.618 501.903 319.103C503.1 319.58 504.065 320.378 504.797 321.498C505.538 322.615 505.942 323.986 506.009 325.609C506.08 327.216 505.79 328.73 505.139 330.153C504.494 331.567 503.554 332.772 502.318 333.768C501.082 334.764 499.609 335.441 497.9 335.798ZM497.297 332.223C498.178 332.034 498.963 331.641 499.65 331.041C500.343 330.432 500.877 329.697 501.253 328.835C501.636 327.971 501.8 327.063 501.745 326.112C501.695 325.259 501.473 324.528 501.08 323.921C500.685 323.306 500.163 322.866 499.514 322.601C498.865 322.336 498.127 322.292 497.301 322.468C496.64 322.61 496.026 322.876 495.459 323.269C494.893 323.662 494.403 324.141 493.988 324.706C493.58 325.263 493.27 325.872 493.058 326.535C492.845 327.198 492.755 327.875 492.788 328.568C492.835 329.405 493.056 330.132 493.451 330.747C493.852 331.353 494.382 331.795 495.043 332.074C495.711 332.351 496.462 332.401 497.297 332.223ZM514.61 328.428L514.498 329.81C514.442 330.859 514.295 331.943 514.057 333.064C513.828 334.191 513.586 335.235 513.33 336.195C513.074 337.155 512.865 337.911 512.703 338.464L509.822 339.08C509.904 338.576 510.018 337.873 510.162 336.97C510.316 336.073 510.456 335.072 510.583 333.966C510.717 332.86 510.788 331.746 510.795 330.625L510.832 329.234L514.61 328.428ZM519.856 330.764L519.712 327.487L527.708 317.174C528.471 316.163 529.105 315.275 529.608 314.509C530.117 313.734 530.495 313.015 530.74 312.354C530.984 311.685 531.09 311.003 531.057 310.311C531.02 309.52 530.817 308.877 530.447 308.379C530.078 307.882 529.586 307.547 528.973 307.373C528.366 307.19 527.677 307.181 526.906 307.345C526.111 307.515 525.418 307.836 524.827 308.308C524.235 308.771 523.783 309.354 523.471 310.054C523.166 310.745 523.034 311.513 523.075 312.361L518.907 313.251C518.831 311.662 519.121 310.205 519.776 308.88C520.432 307.555 521.366 306.437 522.579 305.528C523.793 304.619 525.198 303.994 526.796 303.653C528.418 303.306 529.852 303.317 531.099 303.684C532.355 304.05 533.343 304.708 534.064 305.657C534.793 306.604 535.188 307.779 535.248 309.182C535.284 310.12 535.147 311.08 534.838 312.059C534.535 313.029 533.974 314.161 533.156 315.456C532.336 316.742 531.178 318.335 529.682 320.234L525.734 325.509L525.734 325.682L536.255 323.436L536.434 327.225L519.856 330.764ZM549.304 324.823C547.729 325.159 546.305 325.155 545.029 324.81C543.76 324.455 542.735 323.818 541.954 322.898C541.174 321.979 540.727 320.831 540.615 319.456L544.865 318.548C544.989 319.551 545.456 320.295 546.268 320.78C547.087 321.263 548.036 321.39 549.114 321.16C549.988 320.973 550.749 320.605 551.397 320.055C552.053 319.504 552.555 318.829 552.903 318.03C553.249 317.223 553.405 316.351 553.369 315.412C553.323 314.467 553.087 313.669 552.661 313.02C552.232 312.362 551.664 311.899 550.956 311.631C550.249 311.362 549.45 311.322 548.561 311.512C547.844 311.665 547.142 311.959 546.453 312.394C545.77 312.82 545.229 313.31 544.828 313.865L540.84 314.037L541.52 300.855L555.548 297.86L555.739 301.646L545.324 303.87L544.934 310.657L545.075 310.627C545.504 309.976 546.119 309.383 546.918 308.851C547.718 308.318 548.61 307.946 549.594 307.736C551.058 307.424 552.38 307.503 553.559 307.976C554.736 308.441 555.683 309.23 556.398 310.345C557.12 311.451 557.511 312.803 557.573 314.403C557.663 316.055 557.368 317.607 556.691 319.061C556.02 320.504 555.048 321.737 553.776 322.757C552.511 323.768 551.02 324.457 549.304 324.823ZM581.168 312.477L585.938 297.693L589.374 296.959L582.891 317.307L579.915 317.942L571.887 300.693L575.299 299.964L581.168 312.477ZM574.236 300.191L575.086 318.973L570.953 319.855L570.104 301.073L574.236 300.191ZM587.897 316.238L587.048 297.456L591.133 296.584L591.983 315.366L587.897 316.238Z" fill="#B7D80F"/>
<path d="M710.412 185.643L701.429 184.134L701.429 182.661C701.123 182.218 700.709 181.823 700.186 181.477C699.654 181.123 699.031 180.801 698.314 180.511C697.59 180.222 696.781 179.948 695.887 179.69C694.986 179.425 694.016 179.163 692.978 178.906L686.482 177.3L686.482 163.898L701.429 166.349L701.429 163.475L710.412 164.984L710.412 169.21L705.027 168.317L705.027 180.451L710.412 181.345L710.412 185.643ZM701.429 178.169L701.429 170.526L690.007 168.643L690.007 174.076L692.978 174.873C694.942 175.348 696.624 175.835 698.024 176.334C699.425 176.833 700.56 177.445 701.429 178.169ZM705.39 152.307C705.39 154.134 704.987 155.656 704.182 156.871C703.377 158.079 702.246 158.928 700.789 159.419C699.333 159.91 697.642 159.998 695.718 159.684C693.819 159.37 692.157 158.743 690.732 157.801C689.307 156.851 688.204 155.656 687.424 154.215C686.635 152.766 686.24 151.144 686.24 149.349C686.24 147.522 686.647 146.005 687.46 144.797C688.265 143.59 689.396 142.741 690.853 142.25C692.31 141.751 694.008 141.658 695.948 141.972C697.839 142.278 699.493 142.91 700.91 143.868C702.327 144.817 703.43 146.013 704.218 147.454C704.999 148.894 705.39 150.512 705.39 152.307ZM701.888 151.945C701.888 150.931 701.614 150.041 701.067 149.277C700.512 148.504 699.767 147.872 698.833 147.381C697.892 146.882 696.845 146.536 695.694 146.343C694.583 146.166 693.577 146.162 692.676 146.331C691.766 146.5 691.046 146.862 690.515 147.417C689.975 147.965 689.706 148.725 689.706 149.699C689.706 150.713 689.987 151.611 690.551 152.392C691.106 153.164 691.855 153.796 692.797 154.287C693.73 154.778 694.773 155.116 695.924 155.302C697.034 155.487 698.041 155.495 698.942 155.326C699.844 155.157 700.56 154.794 701.091 154.239C701.623 153.684 701.888 152.919 701.888 151.945ZM705.027 130.626L701.792 130.083L693.376 120.11C692.547 119.152 691.81 118.347 691.167 117.695C690.515 117.035 689.891 116.516 689.295 116.138C688.691 115.759 688.047 115.514 687.363 115.401C686.582 115.272 685.91 115.337 685.347 115.594C684.783 115.852 684.353 116.262 684.055 116.826C683.749 117.381 683.596 118.053 683.596 118.842C683.596 119.655 683.765 120.4 684.103 121.076C684.433 121.752 684.908 122.315 685.528 122.766C686.14 123.209 686.864 123.499 687.701 123.635L687.701 127.897C686.132 127.64 684.767 127.052 683.608 126.135C682.449 125.217 681.552 124.07 680.916 122.694C680.28 121.317 679.962 119.812 679.962 118.178C679.962 116.52 680.272 115.119 680.892 113.976C681.511 112.825 682.361 111.996 683.439 111.489C684.518 110.974 685.749 110.833 687.134 111.066C688.06 111.227 688.969 111.562 689.863 112.069C690.748 112.568 691.738 113.352 692.833 114.423C693.919 115.494 695.235 116.959 696.781 118.818L701.115 123.78L701.284 123.816L701.284 113.059L705.027 113.674L705.027 130.626ZM699.944 88.7365L686.482 80.985L686.482 77.4715L705.027 88.0603L705.027 91.1029L686.482 95.3529L686.482 91.8636L699.944 88.7365ZM686.482 92.9502L705.027 96.0411L705.027 100.267L686.482 97.1761L686.482 92.9502ZM705.027 82.941L686.482 79.8501L686.482 75.6725L705.027 78.7634L705.027 82.941Z" fill="#B3D40D"/>
<path d="M1.2802 360.34C0.66665 360.897 0.620516 361.846 1.17716 362.459L10.2481 372.458C10.8048 373.071 11.7534 373.117 12.367 372.561C12.9805 372.004 13.0266 371.055 12.47 370.442L4.4069 361.554L13.2943 353.491C13.9079 352.935 13.954 351.986 13.3974 351.372C12.8407 350.759 11.8921 350.713 11.2786 351.269L1.2802 360.34ZM318.592 377.896C319.206 377.339 319.252 376.391 318.695 375.777L309.624 365.779C309.068 365.165 308.119 365.119 307.505 365.676C306.892 366.232 306.846 367.181 307.402 367.794L315.465 376.682L306.578 384.745C305.964 385.302 305.918 386.25 306.475 386.864C307.032 387.477 307.98 387.523 308.594 386.967L318.592 377.896ZM2.21522 362.95L317.511 378.283L317.657 375.287L2.36095 359.953L2.21522 362.95Z" fill="white"/>
<path d="M355.608 375.984C355.165 376.685 355.375 377.611 356.075 378.054L367.49 385.262C368.19 385.704 369.117 385.495 369.559 384.794C370.001 384.094 369.792 383.167 369.092 382.725L358.945 376.318L365.352 366.171C365.794 365.471 365.585 364.545 364.885 364.102C364.184 363.66 363.258 363.869 362.816 364.57L355.608 375.984ZM676.315 305.71C676.758 305.01 676.548 304.083 675.848 303.641L664.433 296.433C663.733 295.991 662.806 296.2 662.364 296.901C661.922 297.601 662.131 298.528 662.831 298.97L672.978 305.377L666.571 315.523C666.129 316.224 666.338 317.15 667.038 317.592C667.739 318.035 668.665 317.825 669.108 317.125L676.315 305.71ZM357.206 378.248L675.378 306.373L674.717 303.446L356.545 375.322L357.206 378.248Z" fill="white"/>
<path d="M715.1 262.976C715.685 263.562 716.634 263.564 717.221 262.979L726.784 253.45C727.371 252.866 727.373 251.916 726.788 251.329C726.203 250.742 725.253 250.741 724.667 251.325L716.166 259.795L707.696 251.295C707.111 250.708 706.162 250.706 705.575 251.291C704.988 251.876 704.986 252.826 705.571 253.413L715.1 262.976ZM717.689 1.1218C717.105 0.534972 716.155 0.533268 715.568 1.11801L706.005 10.6469C705.418 11.2316 705.416 12.1813 706.001 12.7682C706.586 13.355 707.536 13.3567 708.122 12.772L716.623 4.30188L725.093 12.8023C725.678 13.3891 726.628 13.3908 727.214 12.8061C727.801 12.2214 727.803 11.2716 727.218 10.6848L717.689 1.1218ZM717.662 261.919L718.127 2.18324L715.127 2.17789L714.662 261.914L717.662 261.919Z" fill="white"/>
<path d="M89.8457 356.934L91.8096 348.04L93.2807 348.115C93.7384 347.832 94.1534 347.438 94.5256 346.933C94.9063 346.42 95.2596 345.814 95.5854 345.113C95.9117 344.404 96.2261 343.61 96.5288 342.731C96.8399 341.844 97.1504 340.889 97.4605 339.865L99.3944 333.459L112.779 334.14L109.571 348.944L112.441 349.09L110.477 357.985L106.257 357.77L107.423 352.437L95.3045 351.82L94.1384 357.153L89.8457 356.934ZM97.7664 348.343L105.399 348.732L107.861 337.42L102.435 337.144L101.488 340.07C100.914 342.007 100.342 343.662 99.7723 345.036C99.2027 346.409 98.5341 347.512 97.7664 348.343ZM123.394 353.613C121.569 353.52 120.07 353.041 118.897 352.175C117.732 351.31 116.941 350.137 116.525 348.657C116.109 347.177 116.106 345.484 116.518 343.579C116.928 341.698 117.639 340.07 118.652 338.695C119.673 337.32 120.923 336.28 122.402 335.573C123.889 334.859 125.529 334.548 127.321 334.639C129.146 334.732 130.641 335.215 131.805 336.088C132.97 336.953 133.761 338.126 134.177 339.606C134.601 341.086 134.608 342.787 134.195 344.709C133.794 346.582 133.079 348.202 132.05 349.568C131.029 350.935 129.78 351.975 128.3 352.69C126.822 353.396 125.186 353.704 123.394 353.613ZM123.933 350.134C124.946 350.186 125.848 349.958 126.64 349.45C127.44 348.935 128.109 348.223 128.647 347.316C129.193 346.4 129.592 345.373 129.843 344.233C130.077 343.133 130.132 342.128 130.009 341.219C129.886 340.302 129.561 339.564 129.033 339.006C128.514 338.439 127.768 338.131 126.795 338.082C125.783 338.03 124.872 338.266 124.063 338.789C123.264 339.304 122.594 340.02 122.056 340.935C121.518 341.843 121.128 342.867 120.884 344.007C120.643 345.107 120.584 346.111 120.707 347.02C120.83 347.929 121.155 348.663 121.683 349.222C122.21 349.781 122.961 350.085 123.933 350.134ZM145.065 354.353L145.772 351.149L156.16 343.252C157.159 342.472 158 341.778 158.684 341.168C159.376 340.55 159.927 339.954 160.335 339.378C160.743 338.794 161.021 338.164 161.168 337.486C161.337 336.713 161.307 336.038 161.078 335.462C160.849 334.887 160.461 334.436 159.914 334.11C159.375 333.776 158.711 333.589 157.923 333.549C157.111 333.508 156.359 333.639 155.667 333.942C154.975 334.237 154.388 334.683 153.906 335.279C153.433 335.867 153.107 336.576 152.927 337.405L148.671 337.188C149.008 335.634 149.664 334.301 150.64 333.19C151.615 332.079 152.806 331.241 154.213 330.676C155.62 330.111 157.139 329.87 158.771 329.953C160.427 330.037 161.81 330.418 162.92 331.095C164.038 331.773 164.823 332.663 165.275 333.766C165.734 334.869 165.812 336.106 165.509 337.477C165.301 338.394 164.921 339.285 164.369 340.151C163.826 341.01 162.992 341.959 161.867 342.998C160.743 344.029 159.213 345.269 157.277 346.718L152.101 350.794L152.056 350.961L162.8 351.508L161.995 355.215L145.065 354.353ZM172.452 352.362L171.987 353.668C171.662 354.667 171.24 355.677 170.72 356.699C170.208 357.729 169.705 358.674 169.21 359.535C168.714 360.397 168.317 361.074 168.018 361.566L165.076 361.417C165.285 360.952 165.576 360.302 165.949 359.466C166.33 358.639 166.724 357.708 167.131 356.673C167.546 355.639 167.902 354.581 168.199 353.5L168.593 352.166L172.452 352.362ZM185.162 356.733C183.949 356.663 182.81 356.391 181.746 355.918C180.69 355.445 179.804 354.719 179.088 353.74C178.373 352.752 177.91 351.467 177.701 349.885C177.499 348.303 177.65 346.377 178.152 344.105C178.612 342.033 179.237 340.207 180.027 338.627C180.817 337.039 181.747 335.709 182.817 334.635C183.888 333.553 185.069 332.755 186.36 332.24C187.652 331.717 189.03 331.493 190.493 331.568C192.044 331.647 193.367 332.02 194.462 332.689C195.556 333.349 196.37 334.22 196.904 335.303C197.445 336.379 197.662 337.583 197.554 338.915L193.237 338.695C193.262 337.737 193.003 336.967 192.46 336.383C191.918 335.799 191.116 335.48 190.055 335.426C188.326 335.338 186.809 336.011 185.503 337.443C184.197 338.868 183.239 340.91 182.628 343.571L182.834 343.328C183.385 342.647 184.018 342.078 184.734 341.623C185.451 341.168 186.217 340.832 187.034 340.616C187.859 340.4 188.702 340.314 189.562 340.358C191.049 340.434 192.309 340.86 193.341 341.638C194.374 342.408 195.1 343.428 195.519 344.699C195.946 345.97 195.982 347.398 195.627 348.984C195.281 350.554 194.61 351.943 193.614 353.149C192.626 354.348 191.406 355.269 189.955 355.913C188.504 356.556 186.906 356.83 185.162 356.733ZM185.503 353.123C186.403 353.169 187.263 352.991 188.081 352.59C188.908 352.18 189.614 351.608 190.199 350.872C190.793 350.136 191.186 349.302 191.379 348.369C191.55 347.531 191.525 346.768 191.302 346.08C191.079 345.384 190.689 344.824 190.13 344.4C189.571 343.977 188.87 343.744 188.026 343.701C187.35 343.667 186.688 343.766 186.04 343.999C185.391 344.232 184.794 344.568 184.248 345.008C183.71 345.44 183.253 345.948 182.876 346.534C182.5 347.119 182.238 347.751 182.091 348.428C181.92 349.25 181.946 350.008 182.168 350.705C182.399 351.394 182.798 351.958 183.364 352.398C183.938 352.838 184.651 353.08 185.503 353.123ZM218.977 353.026L227.403 339.975L230.912 340.154L219.394 358.137L216.355 357.982L213.053 339.244L216.538 339.422L218.977 353.026ZM215.453 339.367L211.423 357.731L207.203 357.516L211.233 339.152L215.453 339.367ZM224.507 358.397L228.536 340.033L232.708 340.245L228.679 358.609L224.507 358.397Z" fill="#B3D40D"/>
<defs>
<clipPath id="clip0_804_85">
<rect width="646.884" height="313.379" fill="white" transform="matrix(-1 0 0 1 654.922 1.02167)"/>
</clipPath>
</defs>
</svg>
