<svg width="153" height="110" viewBox="0 0 153 110" fill="none" xmlns="http://www.w3.org/2000/svg">
<g filter="url(#filter0_d_2_2398)">
<g clip-path="url(#clip0_2_2398)">
<path fill-rule="evenodd" clip-rule="evenodd" d="M123 75.7002C123 78.0508 121.04 80 118.676 80H14.324C11.9602 80 10 78.0508 10 75.7002L10 14.2998C10 11.9492 11.9602 10 14.324 10L118.676 10C121.04 10 123 11.9492 123 14.2998V75.7002Z" fill="url(#paint0_linear_2_2398)"/>
<path d="M118.676 10L39.2302 10L81.0864 80H118.734C121.098 80 123.058 78.0508 123.058 75.7002V14.2998C123 11.9492 121.04 10 118.676 10Z" fill="url(#paint1_linear_2_2398)"/>
<path fill-rule="evenodd" clip-rule="evenodd" d="M35.8287 38.0916C35.8287 39.2955 34.8486 40.2128 33.6955 40.2128H22.972C21.7613 40.2128 20.8389 39.2382 20.8389 38.0916V30.524C20.8389 29.3201 21.819 28.4028 22.972 28.4028H33.6955C34.9062 28.4028 35.8287 29.3774 35.8287 30.524V38.0916Z" fill="url(#paint2_linear_2_2398)"/>
<path d="M35.8287 32.1295V31.8428H33.0614V28.403H32.7731V31.8428H30.5246C30.2364 30.9256 29.4292 30.2376 28.3915 30.1229V28.3457H28.1032V30.0656C27.0078 30.0656 26.0853 30.8109 25.7971 31.7855H23.8369V28.3457H23.5486V31.7855H20.7812V32.0722H23.5486V35.9706H20.7812V36.2573H23.5486V40.213H23.8369V36.2573H25.7971C26.0277 37.3465 27.0078 38.1491 28.1608 38.1491V40.213H28.4491V38.1491C29.5445 38.0345 30.4093 37.2892 30.6399 36.2573H32.8307V40.213H33.0614V36.2573H35.8287V35.9706H34.2144V32.0722H35.8287V32.1295ZM25.7971 35.9706H23.8369V32.0722H25.7971C25.7971 32.2441 25.7394 32.3588 25.7394 32.5308C25.7394 33.1041 25.97 33.6774 26.3159 34.0787C25.9124 34.5373 25.7394 35.0533 25.7394 35.6266C25.7394 35.7986 25.7971 35.9133 25.7971 35.9706ZM28.2185 37.9198C27.0078 37.9198 26.0277 36.9452 26.0277 35.7413C26.0277 35.168 26.2583 34.652 26.6042 34.2507L26.6619 34.136L26.6042 34.0787C26.2006 33.6774 26.0277 33.1614 26.0277 32.5881C26.0277 31.3842 27.0078 30.4096 28.2185 30.4096C29.4292 30.4096 30.4093 31.3842 30.4093 32.5881C30.4093 33.1614 30.1787 33.6774 29.8328 34.0787L29.7175 34.1934L29.8328 34.308C30.2364 34.7093 30.4093 35.2253 30.4093 35.7986C30.4093 36.9452 29.4292 37.9198 28.2185 37.9198ZM33.9262 35.9706H30.6976C30.6976 35.8559 30.6976 35.7986 30.6976 35.6839C30.6976 35.1106 30.467 34.5373 30.121 34.136C30.5246 33.6774 30.6976 33.1614 30.6976 32.5881C30.6976 32.4161 30.6976 32.3015 30.6399 32.1295H33.9262V35.9706Z" fill="url(#paint3_linear_2_2398)"/>
<path d="M21.4155 48.4115L21.0696 48.0675L22.1073 46.9209H22.9721V52.1379H22.3956V47.5515C22.3956 47.4369 22.3956 47.3795 22.3956 47.3795L21.4155 48.4115Z" fill="#D6D6D6"/>
<path d="M24.125 52.1378V51.3352C24.125 51.2206 24.125 51.1632 24.125 51.1632C24.125 51.1632 24.1827 51.1059 24.2403 51.0486L26.7194 48.8127C26.777 48.7554 26.8347 48.698 26.8347 48.6407C26.8347 48.5834 26.8347 48.5261 26.8347 48.4114V47.7234C26.8347 47.6661 26.8347 47.6088 26.8347 47.5514L26.777 47.4941C26.7194 47.4368 26.7194 47.4368 26.6617 47.4368C26.6617 47.4368 26.6041 47.4368 26.4888 47.4368H25.1628C25.0474 47.4368 24.9898 47.4368 24.9898 47.4368C24.9898 47.4368 24.9321 47.4368 24.8745 47.4941C24.8168 47.5514 24.8168 47.5514 24.8168 47.5514C24.8168 47.5514 24.8168 47.6088 24.8168 47.7234V47.8381H24.1827V47.5514C24.1827 47.3795 24.2403 47.2648 24.3556 47.1501L24.5286 46.9781C24.6439 46.8635 24.7592 46.8062 24.8745 46.8062H26.777C26.8923 46.8062 27.0077 46.8635 27.123 46.9781L27.2959 47.1501C27.4112 47.2648 27.4689 47.3795 27.4689 47.5514V48.5834C27.4689 48.698 27.4689 48.7554 27.4689 48.8127C27.4689 48.87 27.4112 48.9274 27.3536 48.9847L24.9321 51.2779C24.8745 51.3352 24.8168 51.3926 24.8168 51.4499C24.8168 51.5072 24.8168 51.5645 24.8168 51.6219V51.6792H27.5842V52.1952H24.125V52.1378Z" fill="#D6D6D6"/>
<path d="M31.6779 49.5005L31.9662 49.7298C32.0238 49.7871 32.0815 49.8444 32.0815 49.8444C32.0815 49.9018 32.0815 49.9591 32.0815 50.0738V51.4497C32.0815 51.5643 32.0815 51.6217 32.0815 51.679C32.0815 51.7363 32.0238 51.7937 31.9662 51.851L31.8509 51.9657C31.7355 52.0803 31.6202 52.1376 31.5049 52.1376H29.3718C29.2565 52.1376 29.1412 52.0803 29.0258 51.9657L28.8529 51.851C28.7376 51.7363 28.6799 51.6217 28.6799 51.507V51.2204H29.3141V51.335C29.3141 51.3924 29.3141 51.4497 29.3141 51.507L29.3718 51.5643C29.4294 51.6217 29.4294 51.6217 29.4871 51.6217C29.4871 51.6217 29.5447 51.6217 29.66 51.6217H31.159C31.2743 51.6217 31.332 51.6217 31.332 51.6217C31.332 51.6217 31.3896 51.6217 31.4473 51.5643C31.5049 51.507 31.5049 51.507 31.5049 51.507C31.5049 51.507 31.5049 51.4497 31.5049 51.335V50.1884C31.5049 50.0738 31.4473 49.9591 31.3896 49.9018L31.2743 49.7871C31.2167 49.7298 31.159 49.6724 31.1014 49.6724C31.0437 49.6724 30.9861 49.6724 30.9284 49.6724H29.7177V49.2138H30.8131C30.9284 49.2138 30.9861 49.2138 30.9861 49.2138C31.0437 49.2138 31.0437 49.1565 31.159 49.0991L31.2743 48.9845C31.332 48.9272 31.3896 48.8698 31.3896 48.8698C31.3896 48.8698 31.3896 48.7552 31.3896 48.6978V47.7806C31.3896 47.7232 31.3896 47.6659 31.3896 47.6086L31.332 47.5512C31.2743 47.4939 31.2743 47.4939 31.2167 47.4939C31.2167 47.4939 31.159 47.4939 31.0437 47.4939H29.833C29.7177 47.4939 29.66 47.4939 29.66 47.4939C29.66 47.4939 29.6024 47.4939 29.5447 47.5512C29.4871 47.6086 29.4871 47.6086 29.4871 47.6086C29.4871 47.6086 29.4871 47.6659 29.4871 47.7806V47.8952H28.8529V47.6086C28.8529 47.4366 28.9105 47.3219 29.0258 47.2073L29.1988 47.0353C29.3141 46.9206 29.4294 46.8633 29.5447 46.8633H31.332C31.4473 46.8633 31.5626 46.9206 31.6779 47.0353L31.8509 47.2073C31.9662 47.3219 32.0238 47.4366 32.0238 47.6086V48.8125C32.0238 48.8698 32.0238 48.9272 32.0238 48.9845C32.0238 48.9845 31.9662 49.0418 31.9085 49.0991L31.6779 49.2711C31.6202 49.3285 31.5049 49.3858 31.4473 49.3858V49.4431C31.5626 49.3858 31.6202 49.4431 31.6779 49.5005Z" fill="#D6D6D6"/>
<path d="M35.8288 48.9272H36.463V50.4177H37.1548V50.9337H36.463V52.1376H35.8288V50.9337H33.1768V50.3031L35.7135 46.8633H36.4053L33.9262 50.1884C33.8686 50.2457 33.8109 50.3031 33.8109 50.3031V50.3604H35.8288V48.9272Z" fill="#D6D6D6"/>
<path d="M45.1109 48.6979H46.7828C46.8981 48.6979 47.0134 48.7553 47.1287 48.8699L47.3017 49.0419C47.417 49.1566 47.4747 49.2712 47.4747 49.3859V51.4498C47.4747 51.6218 47.417 51.7364 47.3017 51.7938L47.1287 51.9657C47.0134 52.0804 46.8981 52.1377 46.7828 52.1377H44.592C44.4767 52.1377 44.3614 52.0804 44.2461 51.9657L44.0155 51.8511C43.9002 51.7364 43.8425 51.6218 43.8425 51.5071V51.2205H44.4767V51.3351C44.4767 51.3924 44.4767 51.4498 44.4767 51.5071L44.5344 51.5644C44.592 51.6218 44.592 51.6218 44.6497 51.6218C44.6497 51.6218 44.7073 51.6218 44.8226 51.6218H46.4946C46.6099 51.6218 46.6675 51.6218 46.6675 51.6218C46.6675 51.6218 46.7252 51.6218 46.7828 51.5644C46.8405 51.5071 46.8405 51.5071 46.8405 51.5071C46.8405 51.5071 46.8405 51.4498 46.8405 51.3351V49.5579C46.8405 49.5006 46.8405 49.4432 46.8405 49.3859L46.7828 49.3286C46.7252 49.2712 46.7252 49.2712 46.6675 49.2712C46.6675 49.2712 46.6099 49.2712 46.4946 49.2712H45.0532C44.9379 49.2712 44.8226 49.3286 44.7073 49.4432C44.592 49.5579 44.5344 49.6152 44.5344 49.7299H43.9002V46.978H47.4747V47.494H44.592V49.0992C44.592 49.0419 44.6497 48.9846 44.765 48.8699C44.9379 48.7553 45.0532 48.6979 45.1109 48.6979Z" fill="#D6D6D6"/>
<path d="M52.6059 47.8952H51.9717V47.7806C51.9717 47.7232 51.9717 47.6659 51.9717 47.6086L51.914 47.5512C51.8564 47.4939 51.8564 47.4939 51.7987 47.4939C51.7987 47.4939 51.7411 47.4939 51.6258 47.4939H49.8385C49.7232 47.4939 49.6656 47.4939 49.6656 47.4939C49.6656 47.4939 49.6079 47.4939 49.5503 47.5512C49.4926 47.6086 49.4926 47.6086 49.4926 47.6086C49.4926 47.6086 49.4926 47.6659 49.4926 47.7806V49.2711H49.5503L49.6079 49.2138C49.7809 49.0418 49.8962 48.9272 50.0115 48.9272H52.0294C52.1447 48.9272 52.26 48.9845 52.3753 49.0992L52.5482 49.2711C52.6635 49.3858 52.7212 49.5005 52.7212 49.6725V51.5643C52.7212 51.7363 52.6635 51.851 52.5482 51.9083L52.3753 52.0803C52.26 52.195 52.1447 52.2523 52.0294 52.2523H49.6079C49.4926 52.2523 49.3773 52.195 49.262 52.0803L48.9737 51.851C48.8584 51.7363 48.8008 51.6217 48.8008 51.507V47.6086C48.8008 47.4366 48.8584 47.3219 48.9737 47.2073L49.1467 47.0353C49.262 46.9206 49.3773 46.8633 49.4926 46.8633H51.8564C51.9717 46.8633 52.087 46.9206 52.2023 47.0353L52.3753 47.2073C52.4906 47.3219 52.5482 47.4366 52.5482 47.6086V47.8952H52.6059ZM52.087 51.335V49.7871C52.087 49.7298 52.087 49.6725 52.087 49.6151L52.0294 49.5578C51.9717 49.5005 51.9717 49.5005 51.914 49.5005C51.914 49.5005 51.8564 49.5005 51.7411 49.5005H50.0691C49.9538 49.5005 49.8962 49.5005 49.8962 49.5005C49.8385 49.5005 49.7809 49.5578 49.7232 49.6151C49.6079 49.6725 49.5503 49.7298 49.5503 49.7871V51.335C49.5503 51.3924 49.5503 51.4497 49.5503 51.507L49.6079 51.5643C49.6656 51.6217 49.6656 51.6217 49.7232 51.6217C49.7232 51.6217 49.7809 51.6217 49.8962 51.6217H51.7987C51.9141 51.6217 51.9717 51.6217 51.9717 51.6217C51.9717 51.6217 52.0294 51.6217 52.087 51.5643C52.1447 51.507 52.1447 51.507 52.1447 51.507C52.0294 51.4497 52.087 51.3924 52.087 51.335Z" fill="#D6D6D6"/>
<path d="M54.1624 52.1379L56.6415 47.6089C56.6991 47.5515 56.7568 47.4942 56.7568 47.4369H53.5282V46.9209H57.3909V47.4942L54.9119 52.1379H54.1624Z" fill="#D6D6D6"/>
<path d="M58.6017 49.8444L58.9476 49.5578C59.0052 49.5005 59.1206 49.4431 59.1782 49.4431V49.3858C59.1206 49.3858 59.0629 49.3285 58.9476 49.2711L58.717 49.0991C58.6593 49.0418 58.6017 48.9272 58.6017 48.8698V47.6086C58.6017 47.4366 58.6593 47.3219 58.7746 47.2073L58.9476 47.0353C59.0629 46.9206 59.1782 46.8633 59.2935 46.8633H61.5996C61.7149 46.8633 61.8303 46.9206 61.9456 47.0353L62.1185 47.2073C62.2338 47.3219 62.2915 47.4366 62.2915 47.6086V48.8698C62.2915 48.9845 62.2338 49.0418 62.1762 49.0991L61.9456 49.2711C61.8879 49.3285 61.7726 49.3858 61.7149 49.3858V49.4431C61.7726 49.4431 61.8303 49.5005 61.9456 49.5578L62.2915 49.8444C62.3491 49.9018 62.4068 50.0164 62.4068 50.1311V51.4497C62.4068 51.6217 62.3491 51.7363 62.2338 51.7937C62.1762 51.851 62.1185 51.851 62.0609 51.9657C61.9456 52.0803 61.8303 52.1376 61.7149 52.1376H59.2359C59.1206 52.1376 59.0053 52.0803 58.8899 51.9657C58.8323 51.9083 58.7746 51.851 58.717 51.7937C58.6017 51.679 58.544 51.5643 58.544 51.4497V50.1311C58.4864 50.0164 58.544 49.9018 58.6017 49.8444ZM61.1961 49.7871H59.6971C59.6394 49.7871 59.5818 49.7871 59.5241 49.7871C59.5241 49.7871 59.4665 49.8444 59.4088 49.8444L59.2359 49.9591C59.1782 50.0164 59.1206 50.0738 59.1206 50.0738C59.1206 50.0738 59.1206 50.1311 59.1206 50.2457V51.2777C59.1206 51.335 59.1206 51.3924 59.1206 51.4497L59.1782 51.507C59.2359 51.5643 59.2359 51.5643 59.2935 51.5643C59.2935 51.5643 59.3512 51.5643 59.4665 51.5643H61.369C61.4843 51.5643 61.542 51.5643 61.542 51.5643C61.542 51.5643 61.5996 51.5643 61.6573 51.507C61.7149 51.4497 61.7149 51.4497 61.7149 51.4497C61.7149 51.4497 61.7149 51.3924 61.7149 51.2777V50.2457C61.7149 50.1884 61.7149 50.1311 61.7149 50.0738C61.7149 50.0738 61.6573 50.0164 61.5996 49.9591L61.4267 49.8444C61.369 49.7871 61.3114 49.7871 61.3114 49.7871C61.3114 49.7871 61.2537 49.7871 61.1961 49.7871ZM61.3114 47.4366H59.5818C59.4665 47.4366 59.4088 47.4366 59.4088 47.4366C59.4088 47.4366 59.3512 47.4366 59.2935 47.4939C59.2359 47.5512 59.2359 47.5512 59.2359 47.5512C59.2359 47.5512 59.2359 47.6086 59.2359 47.7232V48.6978C59.2359 48.7552 59.2359 48.8125 59.2359 48.8698C59.2359 48.8698 59.2935 48.9272 59.3512 48.9845L59.5241 49.1565C59.5818 49.2138 59.6394 49.2138 59.6394 49.2138C59.6394 49.2138 59.7547 49.2138 59.8124 49.2138H61.0808C61.1961 49.2138 61.2537 49.2138 61.2537 49.2138C61.2537 49.2138 61.3114 49.1565 61.369 49.1565L61.542 48.9845C61.5996 48.9272 61.6573 48.8698 61.6573 48.8698C61.6573 48.8698 61.6573 48.8125 61.6573 48.6978V47.7232C61.6573 47.6659 61.6573 47.6086 61.6573 47.5512L61.5996 47.4939C61.542 47.4366 61.542 47.4366 61.4843 47.4366C61.4267 47.4366 61.369 47.4366 61.3114 47.4366Z" fill="#D6D6D6"/>
<path d="M69.3829 51.1632H70.0171V51.2779C70.0171 51.3352 70.0171 51.3926 70.0171 51.4499L70.0747 51.5072C70.1324 51.5645 70.1324 51.5645 70.19 51.5645C70.19 51.5645 70.2477 51.5645 70.363 51.5645H72.1502C72.2655 51.5645 72.3232 51.5645 72.3232 51.5645C72.3232 51.5645 72.3809 51.5645 72.4385 51.5072C72.4962 51.4499 72.4962 51.4499 72.4962 51.4499C72.4962 51.4499 72.4962 51.3926 72.4962 51.2779V49.7873H72.4385L72.3809 49.8446C72.2079 50.0166 72.0926 50.1313 71.9773 50.1313H69.9594C69.8441 50.1313 69.7288 50.074 69.6135 49.9593L69.4405 49.7873C69.3252 49.6727 69.2676 49.558 69.2676 49.4433V47.5514C69.2676 47.3795 69.3252 47.2648 69.4405 47.1501L69.6135 46.9781C69.7288 46.8635 69.8441 46.8062 69.9594 46.8062H72.3809C72.4962 46.8062 72.6115 46.8635 72.7268 46.9781L72.8997 47.1501C73.015 47.2648 73.0727 47.3795 73.0727 47.5514V51.4499C73.0727 51.6219 73.015 51.7365 72.8997 51.7939L72.7268 51.9659C72.6115 52.0805 72.4962 52.1378 72.3809 52.1378H70.0171C69.9018 52.1378 69.7865 52.0805 69.6711 51.9659L69.4982 51.7939C69.3829 51.6792 69.3252 51.5645 69.3252 51.4499V51.1632H69.3829ZM69.9018 47.7808V49.3287C69.9018 49.386 69.9018 49.4433 69.9018 49.5007C69.9018 49.558 69.9594 49.558 69.9594 49.558C70.0171 49.6153 70.0171 49.6153 70.0747 49.6153C70.0747 49.6153 70.1324 49.6153 70.2477 49.6153H71.9196C72.0349 49.6153 72.0926 49.6153 72.0926 49.6153C72.1502 49.6153 72.2079 49.558 72.2655 49.5007C72.3809 49.4433 72.4385 49.386 72.4385 49.3287V47.7808C72.4385 47.7234 72.4385 47.6661 72.4385 47.6088L72.3809 47.5514C72.3232 47.4941 72.3232 47.4941 72.2655 47.4941C72.2655 47.4941 72.2079 47.4941 72.0926 47.4941H70.19C70.0747 47.4941 70.0171 47.4941 70.0171 47.4941C70.0171 47.4941 69.9594 47.4941 69.9018 47.5514C69.8441 47.6088 69.8441 47.6088 69.8441 47.6088C69.9018 47.6088 69.9018 47.6661 69.9018 47.7808Z" fill="#D6D6D6"/>
<path d="M75.2059 46.9209H78.1462C78.2615 46.9209 78.3768 46.9782 78.4921 47.0929L78.6651 47.2649C78.7804 47.3795 78.838 47.4942 78.838 47.6662V51.5646C78.838 51.7366 78.7804 51.8513 78.6651 51.9086L78.4921 52.0806C78.3768 52.1952 78.2615 52.2526 78.1462 52.2526H75.2059C75.0906 52.2526 74.9753 52.1952 74.86 52.0806L74.687 51.9086C74.5717 51.7939 74.514 51.6793 74.514 51.5646V47.6662C74.514 47.4942 74.5717 47.3795 74.687 47.2649L74.86 47.0929C74.9753 46.9782 75.0906 46.9209 75.2059 46.9209ZM78.2615 51.3353V47.7808C78.2615 47.7235 78.2615 47.6662 78.2615 47.6089L78.2038 47.5515C78.1462 47.4942 78.1462 47.4942 78.0885 47.4942C78.0885 47.4942 78.0309 47.4942 77.9156 47.4942H75.4941C75.3788 47.4942 75.3212 47.4942 75.3212 47.4942C75.3212 47.4942 75.2635 47.4942 75.2059 47.5515C75.1482 47.6089 75.1482 47.6089 75.1482 47.6089C75.1482 47.6089 75.1482 47.6662 75.1482 47.7808V51.3353C75.1482 51.3926 75.1482 51.45 75.1482 51.5073L75.2059 51.5646C75.2635 51.6219 75.2635 51.6219 75.3212 51.6219C75.3212 51.6219 75.3788 51.6219 75.4941 51.6219H77.9156C78.0309 51.6219 78.0885 51.6219 78.0885 51.6219C78.0885 51.6219 78.1462 51.6219 78.2038 51.5646C78.2615 51.5073 78.2615 51.5073 78.2615 51.5073C78.2615 51.45 78.2615 51.3926 78.2615 51.3353Z" fill="#D6D6D6"/>
<path d="M80.337 48.4115L79.9911 48.0675L81.0288 46.9209H81.8936V52.1379H81.3171V47.5515C81.3171 47.4369 81.3171 47.3795 81.3171 47.3795L80.337 48.4115Z" fill="#D6D6D6"/>
<path d="M83.0466 52.1378V51.3352C83.0466 51.2206 83.0466 51.1632 83.0466 51.1632C83.0466 51.1632 83.1043 51.1059 83.1619 51.0486L85.641 48.8127C85.6987 48.7554 85.7563 48.698 85.7563 48.6407C85.7563 48.5834 85.7563 48.5261 85.7563 48.4114V47.7234C85.7563 47.6661 85.7563 47.6088 85.7563 47.5514L85.6987 47.4941C85.641 47.4368 85.641 47.4368 85.5834 47.4368C85.5834 47.4368 85.5257 47.4368 85.4104 47.4368H84.0844C83.9691 47.4368 83.9114 47.4368 83.9114 47.4368C83.9114 47.4368 83.8538 47.4368 83.7961 47.4941C83.7385 47.5514 83.7385 47.5514 83.7385 47.5514C83.7385 47.5514 83.7385 47.6088 83.7385 47.7234V47.8381H83.1043V47.5514C83.1043 47.3795 83.1619 47.2648 83.2772 47.1501L83.4502 46.9781C83.5655 46.8635 83.6808 46.8062 83.7961 46.8062H85.6987C85.814 46.8062 85.9293 46.8635 86.0446 46.9781L86.2176 47.1501C86.3329 47.2648 86.3905 47.3795 86.3905 47.5514V48.5834C86.3905 48.698 86.3905 48.7554 86.3905 48.8127C86.3905 48.87 86.3329 48.9274 86.2752 48.9847L83.7961 51.2206C83.7385 51.2779 83.6808 51.3352 83.6808 51.3926C83.6808 51.4499 83.6808 51.5072 83.6808 51.5645V51.6219H86.4482V52.1378H83.0466Z" fill="#D6D6D6"/>
<path d="M96.2492 49.5007L96.5375 49.73C96.5951 49.7873 96.6528 49.8446 96.6528 49.8446C96.6528 49.902 96.6528 49.9593 96.6528 50.074V51.4499C96.6528 51.5645 96.6528 51.6219 96.6528 51.6792C96.6528 51.7365 96.5951 51.7939 96.5375 51.8512L96.4221 51.9659C96.3068 52.0805 96.1915 52.1378 96.0762 52.1378H93.9431C93.8278 52.1378 93.7124 52.0805 93.5971 51.9659L93.4242 51.7939C93.3089 51.6792 93.2512 51.5645 93.2512 51.4499V51.1632H93.8854V51.2779C93.8854 51.3352 93.8854 51.3926 93.8854 51.4499L93.9431 51.5072C94.0007 51.5645 94.0007 51.5645 94.0584 51.5645C94.0584 51.5645 94.116 51.5645 94.2313 51.5645H95.7303C95.8456 51.5645 95.9033 51.5645 95.9033 51.5645C95.9033 51.5645 95.9609 51.5645 96.0186 51.5072C96.0762 51.4499 96.0762 51.4499 96.0762 51.4499C96.0762 51.4499 96.0762 51.3926 96.0762 51.2779V50.1313C96.0762 50.0166 96.0186 49.902 95.9609 49.8446L95.8456 49.73C95.788 49.6727 95.7303 49.6153 95.6727 49.6153C95.615 49.6153 95.5573 49.6153 95.4997 49.6153H94.289V49.1567H95.3844C95.4997 49.1567 95.5573 49.1567 95.5573 49.1567C95.615 49.1567 95.615 49.0994 95.7303 49.042L95.8456 48.9274C95.9033 48.87 95.9609 48.8127 95.9609 48.8127C95.9609 48.8127 95.9609 48.698 95.9609 48.6407V47.7234C95.9609 47.6661 95.9609 47.6088 95.9609 47.5514L95.9033 47.4941C95.8456 47.4368 95.8456 47.4368 95.788 47.4368C95.788 47.4368 95.7303 47.4368 95.615 47.4368H94.4043C94.289 47.4368 94.2313 47.4368 94.2313 47.4368C94.2313 47.4368 94.1737 47.4368 94.116 47.4941C94.0584 47.5514 94.0584 47.5514 94.0584 47.5514C94.0584 47.5514 94.0584 47.6088 94.0584 47.7234V47.8381H93.4242V47.5514C93.4242 47.3795 93.4818 47.2648 93.5971 47.1501L93.7701 46.9781C93.8854 46.8635 94.0007 46.8062 94.116 46.8062H95.9033C96.0186 46.8062 96.1339 46.8635 96.2492 46.9781L96.4221 47.1501C96.5374 47.2648 96.5951 47.3795 96.5951 47.5514V48.7554C96.5951 48.8127 96.5951 48.87 96.5951 48.9274C96.5951 48.9847 96.5374 48.9847 96.4798 49.042L96.2492 49.214C96.1915 49.2713 96.0762 49.3287 96.0186 49.3287V49.386C96.0762 49.386 96.1915 49.4433 96.2492 49.5007Z" fill="#D6D6D6"/>
<path d="M100.4 48.9272H101.034V50.4177H101.726V50.9337H101.034V52.1376H100.4V50.9337H97.7482V50.3031L100.285 46.8633H100.977L98.4977 50.1884C98.44 50.2457 98.3824 50.3031 98.3824 50.3031V50.3604H100.4V48.9272Z" fill="#D6D6D6"/>
<path d="M104.09 48.6979H105.762C105.877 48.6979 105.992 48.7553 106.108 48.8699L106.281 49.0419C106.396 49.1566 106.454 49.2712 106.454 49.3859V51.4498C106.454 51.6218 106.396 51.7364 106.281 51.7938L106.108 51.9657C105.992 52.0804 105.877 52.1377 105.762 52.1377H103.513C103.398 52.1377 103.283 52.0804 103.167 51.9657L102.994 51.7938C102.879 51.6791 102.822 51.5644 102.822 51.4498V51.1631H103.456V51.2778C103.456 51.3351 103.456 51.3924 103.456 51.4498L103.513 51.5071C103.571 51.5644 103.571 51.5644 103.629 51.5644C103.629 51.5644 103.686 51.5644 103.802 51.5644H105.474C105.589 51.5644 105.647 51.5644 105.647 51.5644C105.647 51.5644 105.704 51.5644 105.762 51.5071C105.819 51.4498 105.819 51.4498 105.819 51.4498C105.819 51.4498 105.819 51.3924 105.819 51.2778V49.5579C105.819 49.5006 105.819 49.4432 105.819 49.3859L105.762 49.3286C105.704 49.2712 105.704 49.2712 105.647 49.2712C105.647 49.2712 105.589 49.2712 105.474 49.2712H104.032C103.917 49.2712 103.802 49.3286 103.686 49.4432C103.571 49.5579 103.513 49.6152 103.513 49.7299H102.879V46.978H106.396V47.494H103.513V49.0992H103.571C103.571 49.0419 103.629 48.9846 103.744 48.8699C103.859 48.7553 103.975 48.6979 104.09 48.6979Z" fill="#D6D6D6"/>
<path d="M111.527 47.8955H110.893V47.7808C110.893 47.7235 110.893 47.6662 110.893 47.6089L110.835 47.5515C110.778 47.4942 110.778 47.4942 110.72 47.4942C110.72 47.4942 110.662 47.4942 110.547 47.4942H108.76C108.645 47.4942 108.587 47.4942 108.587 47.4942C108.587 47.4942 108.529 47.4942 108.472 47.5515C108.414 47.6089 108.414 47.6089 108.414 47.6089C108.414 47.6089 108.414 47.6662 108.414 47.7808V49.2714H108.472L108.529 49.2141C108.702 49.0421 108.818 48.9274 108.933 48.9274H110.951C111.066 48.9274 111.181 48.9848 111.297 49.0994L111.47 49.2714C111.585 49.3861 111.643 49.5007 111.643 49.6727V51.5646C111.643 51.7366 111.585 51.8513 111.47 51.9086L111.297 52.0806C111.181 52.1952 111.066 52.2526 110.951 52.2526H108.529C108.414 52.2526 108.299 52.1952 108.183 52.0806L108.01 51.9086C107.895 51.7939 107.837 51.6793 107.837 51.5646V47.6662C107.837 47.4942 107.895 47.3795 108.01 47.2649L108.183 47.0929C108.299 46.9782 108.414 46.9209 108.529 46.9209H110.893C111.008 46.9209 111.124 46.9782 111.239 47.0929L111.412 47.2649C111.527 47.3795 111.585 47.4942 111.585 47.6662V47.8955H111.527ZM111.008 51.3353V49.7874C111.008 49.7301 111.008 49.6727 111.008 49.6154L110.951 49.5581C110.893 49.5007 110.893 49.5007 110.835 49.5007C110.835 49.5007 110.778 49.5007 110.662 49.5007H108.99C108.875 49.5007 108.818 49.5007 108.818 49.5007C108.76 49.5007 108.702 49.5581 108.645 49.6154C108.529 49.6727 108.472 49.7301 108.472 49.7874V51.3353C108.472 51.3926 108.472 51.45 108.472 51.5073L108.529 51.5646C108.587 51.6219 108.587 51.6219 108.645 51.6219C108.645 51.6219 108.702 51.6219 108.818 51.6219H110.72C110.835 51.6219 110.893 51.6219 110.893 51.6219C110.893 51.6219 110.951 51.6219 111.008 51.5646C111.066 51.5073 111.066 51.5073 111.066 51.5073C111.008 51.45 111.008 51.3926 111.008 51.3353Z" fill="#D6D6D6"/>
<path d="M24.125 68.4195C24.125 68.3048 24.125 68.1902 24.125 68.1328V64.9224H24.6439V69.2794H24.125L21.8189 65.7823C21.8765 65.897 21.8765 65.9543 21.8765 66.069V69.2794H21.3577V64.9224H21.8765L24.125 68.4195Z" fill="#D6D6D6"/>
<path d="M27.8149 68.9354C27.8149 68.9928 27.7573 69.0501 27.642 69.1074C27.5843 69.1648 27.5267 69.1647 27.469 69.1647C27.469 69.1647 27.4114 69.1647 27.2961 69.1647H26.2007C26.0854 69.1647 26.0277 69.1074 25.9124 69.0501L25.7394 68.9354C25.6241 68.8781 25.5665 68.7634 25.5665 68.6488V67.9035C25.5665 67.7888 25.6241 67.6742 25.7394 67.6168L25.9124 67.5022C26.0277 67.4449 26.0854 67.3875 26.2007 67.3875H27.2961C27.3537 67.3875 27.4114 67.3875 27.469 67.3875C27.469 67.3875 27.5267 67.3875 27.5267 67.4449C27.5843 67.5022 27.5843 67.5022 27.5843 67.5595V66.8142C27.5843 66.7569 27.5843 66.6996 27.5843 66.6996C27.5843 66.6996 27.5843 66.6422 27.5267 66.6422C27.469 66.6422 27.469 66.5849 27.4114 66.5849C27.4114 66.5849 27.3537 66.5849 27.2384 66.5849H26.2007C26.143 66.5849 26.0854 66.5849 26.0277 66.5849C26.0277 66.5849 25.9701 66.6422 25.8547 66.6996L25.4512 66.4129L25.6241 66.2983C25.6818 66.2409 25.7394 66.1836 25.7971 66.1836C25.7971 66.1836 25.8547 66.1836 25.9701 66.1836H27.4114C27.5267 66.1836 27.5843 66.2409 27.6996 66.2983L27.8726 66.4129C27.9879 66.4702 28.0456 66.5849 28.0456 66.6996V68.5341C28.0456 68.5915 28.0456 68.6488 28.0456 68.6488C28.0456 68.6488 28.0456 68.7061 28.1032 68.7061C28.1609 68.7634 28.1609 68.7634 28.1609 68.7634C28.1609 68.7634 28.1609 68.8208 28.1609 68.8781V69.1647H27.9303C27.8726 69.1647 27.8149 69.1647 27.7573 69.1647C27.7573 69.1647 27.6996 69.1074 27.642 69.1074C27.8726 69.0501 27.8149 68.9928 27.8149 68.9354ZM26.2007 68.0182V68.4768C26.2007 68.5341 26.2007 68.5914 26.2007 68.5914C26.2007 68.5914 26.2007 68.6488 26.2583 68.6488C26.316 68.7061 26.316 68.7061 26.3736 68.7061C26.3736 68.7061 26.4313 68.7061 26.5466 68.7061H27.2961C27.3537 68.7061 27.4114 68.7061 27.469 68.7061C27.469 68.7061 27.5267 68.6488 27.642 68.6488C27.6996 68.5915 27.7573 68.5915 27.7573 68.5341C27.7573 68.5341 27.7573 68.4768 27.7573 68.4195V68.0182C27.7573 67.9608 27.7573 67.9035 27.7573 67.9035C27.7573 67.9035 27.7573 67.8462 27.6996 67.8462C27.642 67.7888 27.642 67.7888 27.5843 67.7888C27.5843 67.7888 27.5267 67.7888 27.4114 67.7888H26.4889C26.4313 67.7888 26.3736 67.7888 26.316 67.7888C26.316 67.7888 26.2583 67.7888 26.2007 67.8462C26.143 67.9035 26.143 67.9035 26.143 67.9035C26.2583 67.9608 26.2007 67.9608 26.2007 68.0182Z" fill="#D6D6D6"/>
<path d="M31.6199 66.4129C31.6775 66.3556 31.6775 66.3556 31.7928 66.2983L31.9081 66.2409C31.9658 66.1836 32.0235 66.1836 32.0811 66.1836C32.0811 66.1836 32.1388 66.1836 32.2541 66.1836H33.2342C33.3495 66.1836 33.4071 66.2409 33.5224 66.2983L33.6954 66.4129C33.8107 66.4702 33.8684 66.5849 33.8684 66.6996V69.2221H33.3495V66.8142C33.3495 66.7569 33.3495 66.6996 33.3495 66.6996C33.3495 66.6996 33.3495 66.6422 33.2918 66.6422C33.2342 66.6422 33.2342 66.5849 33.1765 66.5849C33.1765 66.5849 33.1189 66.5849 33.0036 66.5849H32.3117C32.2541 66.5849 32.1964 66.5849 32.1388 66.5849C32.1388 66.5849 32.0811 66.6422 31.9658 66.6422C31.8505 66.6996 31.7928 66.7569 31.7928 66.8142V69.2221H31.274V66.8142C31.274 66.7569 31.274 66.6996 31.274 66.6996C31.274 66.6996 31.274 66.6422 31.2163 66.6422C31.1587 66.6422 31.1587 66.5849 31.101 66.5849C31.101 66.5849 31.0433 66.5849 30.9857 66.5849H30.3515C30.2939 66.5849 30.2362 66.5849 30.1786 66.5849C30.1786 66.5849 30.1209 66.6422 30.0056 66.6422C29.9479 66.6996 29.8903 66.6996 29.8903 66.7569C29.8903 66.7569 29.8903 66.8142 29.8903 66.8716V69.2221H29.3714V66.8142C29.3714 66.7569 29.3714 66.6996 29.3714 66.6996C29.3714 66.6996 29.3714 66.6422 29.3138 66.6422C29.2561 66.6422 29.2561 66.5849 29.2561 66.5849C29.2561 66.5849 29.2561 66.5276 29.2561 66.4702V66.1836H29.4867C29.5444 66.1836 29.602 66.1836 29.6597 66.1836C29.6597 66.1836 29.7173 66.2409 29.775 66.2409C29.8326 66.2983 29.8903 66.3556 29.8903 66.4129C29.8903 66.3556 29.9479 66.2983 30.0056 66.2409C30.0632 66.1836 30.1209 66.1836 30.1786 66.1836C30.1786 66.1836 30.2362 66.1836 30.3515 66.1836H31.274C31.3893 66.1836 31.4469 66.2409 31.5622 66.2983C31.5622 66.2983 31.6199 66.3556 31.6199 66.4129Z" fill="#D6D6D6"/>
<path d="M36.8665 68.649L37.2701 68.9356L37.0971 69.0503C37.0395 69.1076 36.9818 69.165 36.9241 69.165C36.9241 69.165 36.8665 69.165 36.7512 69.165H35.0793C34.9639 69.165 34.9063 69.1076 34.791 69.0503L34.618 68.9356C34.5027 68.8783 34.4451 68.7636 34.4451 68.649V66.6424C34.4451 66.5278 34.5027 66.4131 34.618 66.3558L34.791 66.2411C34.9063 66.1838 34.9639 66.1265 35.0793 66.1265H36.5206C36.5782 66.1265 36.6935 66.1838 36.8088 66.2411L36.9818 66.3558C37.0971 66.4131 37.1548 66.5278 37.1548 66.6424V67.9037H35.0216V68.477C35.0216 68.5343 35.0216 68.5917 35.0216 68.5917C35.0216 68.5917 35.0216 68.649 35.0793 68.649C35.1369 68.7063 35.1369 68.7063 35.1946 68.7063C35.1946 68.7063 35.2522 68.7063 35.3675 68.7063H36.5206C36.5782 68.7063 36.6359 68.7063 36.6935 68.7063C36.6935 68.7636 36.7512 68.7063 36.8665 68.649ZM36.6359 67.5597V66.8144C36.6359 66.7571 36.6359 66.6998 36.6359 66.6998C36.6359 66.6998 36.6359 66.6424 36.5782 66.6424C36.5206 66.6424 36.5206 66.5851 36.4629 66.5851C36.4629 66.5851 36.4053 66.5851 36.3476 66.5851H35.3675C35.3099 66.5851 35.2522 66.5851 35.1946 66.5851C35.1946 66.5851 35.1369 66.5851 35.0793 66.6424C35.0216 66.6998 35.0216 66.6998 35.0216 66.6998C35.0216 66.6998 35.0216 66.7571 35.0216 66.8144V67.5597H36.6359Z" fill="#D6D6D6"/>
<path d="M41.7093 67.2154H40.2103C40.095 67.2154 40.0374 67.158 39.9221 67.1007L39.7491 66.986C39.6338 66.9287 39.6338 66.8141 39.6338 66.7567V65.4955C39.6338 65.3808 39.6914 65.2661 39.8067 65.2088L39.9797 65.0942C40.095 65.0368 40.1527 64.9795 40.268 64.9795H41.9399C42.0552 64.9795 42.1129 65.0368 42.2282 65.0942L42.4011 65.2088C42.5164 65.2661 42.5741 65.3808 42.5741 65.4955V65.7248H42.0552V65.6101C42.0552 65.5528 42.0552 65.4955 42.0552 65.4955C42.0552 65.4955 42.0552 65.4381 41.9976 65.4381C41.9399 65.4381 41.9399 65.3808 41.8823 65.3808C41.8823 65.3808 41.8246 65.3808 41.7669 65.3808H40.5562C40.4986 65.3808 40.4409 65.3808 40.4409 65.3808C40.4409 65.3808 40.3833 65.3808 40.3256 65.4381C40.268 65.4955 40.268 65.4955 40.268 65.4955C40.268 65.4955 40.268 65.5528 40.268 65.6101V66.5847C40.268 66.6421 40.268 66.6994 40.268 66.6994C40.268 66.6994 40.268 66.7567 40.3256 66.7567C40.3833 66.8141 40.3833 66.8141 40.4409 66.8141C40.4409 66.8141 40.4986 66.8141 40.5562 66.8141H42.0552C42.1705 66.8141 42.2282 66.8714 42.3435 66.9287L42.5164 67.0434C42.6317 67.1007 42.6894 67.2154 42.6894 67.33V68.6486C42.6894 68.7633 42.6317 68.8779 42.5164 68.9353L42.3435 69.0499C42.2282 69.1073 42.1705 69.1646 42.0552 69.1646H40.268C40.1527 69.1646 40.095 69.1073 39.9797 69.0499L39.8067 68.9353C39.6914 68.8779 39.6338 68.7633 39.6338 68.6486V68.4193H40.1527V68.534C40.1527 68.5913 40.1527 68.6486 40.1527 68.6486C40.1527 68.6486 40.1527 68.7059 40.2103 68.7059C40.268 68.7633 40.268 68.7633 40.3256 68.7633C40.3256 68.7633 40.3833 68.7633 40.4986 68.7633H41.7093C41.767 68.7633 41.8246 68.7633 41.8823 68.7633C41.8823 68.7633 41.9399 68.7633 41.9976 68.7059C42.0552 68.6486 42.0552 68.6486 42.0552 68.6486C42.0552 68.6486 42.0552 68.5913 42.0552 68.534V67.502C42.0552 67.4447 42.0552 67.3874 42.0552 67.3874C42.0552 67.3874 42.0552 67.33 41.9976 67.33C41.9399 67.2727 41.9399 67.2727 41.8823 67.2727C41.8246 67.2154 41.767 67.2154 41.7093 67.2154Z" fill="#D6D6D6"/>
<path d="M44.9954 69.2221H44.0153C43.9 69.2221 43.8423 69.1648 43.727 69.1074L43.5541 68.9928C43.4388 68.9354 43.3811 68.8208 43.3811 68.7061V66.1836H43.9V68.5915C43.9 68.6488 43.9 68.7061 43.9 68.7061C43.9 68.7061 43.9 68.7634 43.9576 68.7634C44.0153 68.8208 44.0153 68.8208 44.0729 68.8208C44.0729 68.8208 44.1306 68.8208 44.2459 68.8208H44.9377C44.9954 68.8208 45.053 68.8208 45.1107 68.8208C45.1107 68.8208 45.1684 68.7634 45.2837 68.7634C45.3413 68.7061 45.399 68.7061 45.399 68.6488C45.399 68.6488 45.399 68.5915 45.399 68.5341V66.1836H45.9178V68.5915C45.9178 68.6488 45.9178 68.7061 45.9178 68.7061C45.9178 68.7061 45.9178 68.7634 45.9755 68.7634C46.0332 68.8208 46.0331 68.8208 46.0331 68.8208C46.0331 68.8208 46.0331 68.8781 46.0331 68.9354V69.2221H45.8025C45.7449 69.2221 45.6872 69.2221 45.6296 69.2221C45.6296 69.2221 45.5719 69.1648 45.5143 69.1648C45.4566 69.1074 45.399 69.0501 45.399 68.9928C45.399 69.0501 45.3413 69.1074 45.2837 69.1648C45.226 69.2221 45.1684 69.2221 45.1107 69.2221C45.1107 69.2221 45.053 69.2221 44.9954 69.2221Z" fill="#D6D6D6"/>
<path d="M46.7827 66.1265H47.0133C47.071 66.1265 47.1286 66.1265 47.1863 66.1265C47.1863 66.1265 47.2439 66.1838 47.3016 66.1838C47.3592 66.2411 47.4169 66.2985 47.4169 66.3558C47.4169 66.2985 47.4745 66.2411 47.5322 66.1838C47.5899 66.1265 47.6475 66.1265 47.7052 66.1265C47.7052 66.1265 47.7628 66.1265 47.8781 66.1265H48.4546C48.5699 66.1265 48.6276 66.1838 48.7429 66.2411L48.9159 66.3558L48.5123 66.6424L48.4546 66.5851C48.397 66.5851 48.397 66.5278 48.3393 66.5278C48.3393 66.5278 48.2817 66.5278 48.1664 66.5278H47.8781C47.8205 66.5278 47.7628 66.5278 47.7052 66.5278C47.7052 66.5278 47.6475 66.5851 47.5322 66.5851C47.5322 66.6998 47.4745 66.6998 47.4745 66.7571C47.4745 66.7571 47.4745 66.8144 47.4745 66.8718V69.2223H46.9557V66.8144C46.9557 66.7571 46.9557 66.6998 46.9557 66.6998C46.9557 66.6998 46.9557 66.6424 46.898 66.6424C46.8404 66.6424 46.8404 66.5851 46.8404 66.5851C46.8404 66.5851 46.8404 66.5278 46.8404 66.4704V66.1265H46.7827Z" fill="#D6D6D6"/>
<path d="M49.3772 66.1265H49.6078C49.6655 66.1265 49.7231 66.1265 49.7808 66.1265C49.7808 66.1265 49.8384 66.1838 49.8961 66.1838C49.9537 66.2411 50.0114 66.2985 50.0114 66.3558C50.0114 66.2985 50.069 66.2411 50.1267 66.1838C50.1843 66.1265 50.242 66.1265 50.2996 66.1265C50.2996 66.1265 50.3573 66.1265 50.4726 66.1265H51.568C51.6833 66.1265 51.741 66.1838 51.8563 66.2411L52.0292 66.3558C52.1445 66.4131 52.2022 66.5278 52.2022 66.6424V69.165H51.6833V66.7571C51.6833 66.6998 51.6833 66.6424 51.6833 66.6424C51.6833 66.6424 51.6833 66.5851 51.6257 66.5851C51.568 66.5851 51.568 66.5278 51.5104 66.5278C51.5104 66.5278 51.4527 66.5278 51.3374 66.5278H50.5303C50.4726 66.5278 50.4149 66.5278 50.3573 66.5278C50.3573 66.5278 50.2996 66.5851 50.1843 66.5851C50.1267 66.6424 50.069 66.6424 50.069 66.6998C50.069 66.6998 50.069 66.7571 50.069 66.8144V69.165H49.5502V66.7571C49.5502 66.6998 49.5502 66.6424 49.5502 66.6424C49.5502 66.6424 49.5502 66.5851 49.4925 66.5851C49.4348 66.5851 49.4348 66.5278 49.4348 66.5278C49.4348 66.5278 49.4348 66.4704 49.4348 66.4131V66.1265H49.3772Z" fill="#D6D6D6"/>
<path d="M55.0847 68.9354C55.0847 68.9928 55.027 69.0501 54.9117 69.1074C54.8541 69.1648 54.7964 69.1647 54.7388 69.1647C54.7388 69.1647 54.6811 69.1647 54.5658 69.1647H53.4704C53.3551 69.1647 53.2974 69.1074 53.1821 69.0501L53.0092 68.9354C52.8939 68.8781 52.8362 68.7634 52.8362 68.6488V67.9035C52.8362 67.7888 52.8939 67.6742 53.0092 67.6168L53.1821 67.5022C53.2974 67.4449 53.3551 67.3875 53.4704 67.3875H54.5658C54.6235 67.3875 54.6811 67.3875 54.7388 67.3875C54.7388 67.3875 54.7964 67.3875 54.7964 67.4449C54.8541 67.5022 54.8541 67.5022 54.8541 67.5595V66.8142C54.8541 66.7569 54.8541 66.6996 54.8541 66.6996C54.8541 66.6996 54.8541 66.6422 54.7964 66.6422C54.7388 66.6422 54.7388 66.5849 54.6811 66.5849C54.6811 66.5849 54.6235 66.5849 54.5658 66.5849H53.5281C53.4704 66.5849 53.4127 66.5849 53.3551 66.5849C53.3551 66.5849 53.2974 66.6422 53.1821 66.6996L52.7786 66.4129L52.9515 66.2983C53.0092 66.2409 53.0668 66.1836 53.1245 66.1836C53.1245 66.1836 53.1821 66.1836 53.2974 66.1836H54.7388C54.8541 66.1836 54.9117 66.2409 55.027 66.2983L55.2 66.4129C55.3153 66.4702 55.3729 66.5849 55.3729 66.6996V68.5341C55.3729 68.5915 55.3729 68.6488 55.3729 68.6488C55.3729 68.6488 55.373 68.7061 55.4306 68.7061C55.4883 68.7634 55.4883 68.7634 55.4883 68.7634C55.4883 68.7634 55.4883 68.8208 55.4883 68.8781V69.1647H55.2576C55.2 69.1647 55.1423 69.1647 55.0847 69.1647C55.0847 69.1647 55.027 69.1074 54.9694 69.1074C55.1423 69.0501 55.0847 68.9928 55.0847 68.9354ZM53.4704 68.0182V68.4768C53.4704 68.5341 53.4704 68.5914 53.4704 68.5914C53.4704 68.5914 53.4704 68.6488 53.5281 68.6488C53.5857 68.7061 53.5857 68.7061 53.6434 68.7061C53.6434 68.7061 53.701 68.7061 53.8163 68.7061H54.5658C54.6235 68.7061 54.6811 68.7061 54.7388 68.7061C54.7388 68.7061 54.7964 68.6488 54.9117 68.6488C54.9694 68.5915 55.027 68.5915 55.027 68.5341C55.027 68.5341 55.027 68.4768 55.027 68.4195V68.0182C55.027 67.9608 55.027 67.9035 55.027 67.9035C55.027 67.9035 55.027 67.8462 54.9694 67.8462C54.9117 67.7888 54.9117 67.7888 54.8541 67.7888C54.8541 67.7888 54.7964 67.7888 54.7388 67.7888H53.8163C53.7587 67.7888 53.701 67.7888 53.6434 67.7888C53.6434 67.7888 53.5857 67.7888 53.5281 67.8462C53.4704 67.9035 53.4704 67.9035 53.4704 67.9035C53.4704 67.9608 53.4704 67.9608 53.4704 68.0182Z" fill="#D6D6D6"/>
<path d="M58.8898 66.4129C58.9475 66.3556 58.9475 66.3556 59.0628 66.2983L59.1781 66.2409C59.2357 66.1836 59.2934 66.1836 59.351 66.1836C59.351 66.1836 59.4087 66.1836 59.524 66.1836H60.5041C60.6194 66.1836 60.6771 66.2409 60.7924 66.2983L60.9653 66.4129C61.0806 66.4702 61.1383 66.5849 61.1383 66.6996V69.2221H60.6194V66.8142C60.6194 66.7569 60.6194 66.6996 60.6194 66.6996C60.6194 66.6996 60.6194 66.6422 60.5618 66.6422C60.5041 66.6422 60.5041 66.5849 60.4464 66.5849C60.4464 66.5849 60.3888 66.5849 60.2735 66.5849H59.5817C59.524 66.5849 59.4663 66.5849 59.4087 66.5849C59.4087 66.5849 59.351 66.6422 59.2357 66.6422C59.0628 66.6996 59.0051 66.7569 59.0051 66.8142V69.2221H58.4862V66.8142C58.4862 66.7569 58.4862 66.6996 58.4862 66.6996C58.4862 66.6996 58.4862 66.6422 58.4286 66.6422C58.3709 66.6422 58.3709 66.5849 58.3133 66.5849C58.3133 66.5849 58.2556 66.5849 58.198 66.5849H57.5638C57.5061 66.5849 57.4485 66.5849 57.3908 66.5849C57.3908 66.5849 57.3332 66.6422 57.2179 66.6422C57.1602 66.6996 57.1026 66.6996 57.1026 66.7569C57.1026 66.7569 57.1026 66.8142 57.1026 66.8716V69.2221H56.5837V66.8142C56.5837 66.7569 56.5837 66.6996 56.5837 66.6996C56.5837 66.6996 56.5837 66.6422 56.526 66.6422C56.4684 66.6422 56.4684 66.5849 56.4684 66.5849C56.4684 66.5849 56.4684 66.5276 56.4684 66.4702V66.1836H56.699C56.7567 66.1836 56.8143 66.1836 56.872 66.1836C56.872 66.1836 56.9296 66.2409 56.9873 66.2409C57.0449 66.2983 57.1026 66.3556 57.1026 66.4129C57.1026 66.3556 57.1602 66.2983 57.2179 66.2409C57.2755 66.1836 57.3332 66.1836 57.3908 66.1836C57.3908 66.1836 57.4485 66.1836 57.5638 66.1836H58.4286C58.5439 66.1836 58.6015 66.2409 58.7169 66.2983C58.8322 66.2983 58.8898 66.3556 58.8898 66.4129Z" fill="#D6D6D6"/>
<path d="M64.0785 68.649L64.4821 68.9356L64.3092 69.0503C64.2515 69.1076 64.1939 69.165 64.1362 69.165C64.1362 69.165 64.0785 69.165 63.9632 69.165H62.2913C62.176 69.165 62.1183 69.1076 62.003 69.0503L61.8301 68.9356C61.7148 68.8783 61.6571 68.7636 61.6571 68.649V66.6424C61.6571 66.5278 61.7148 66.4131 61.8301 66.3558L62.003 66.2411C62.1183 66.1838 62.176 66.1265 62.2913 66.1265H63.7326C63.7903 66.1265 63.9056 66.1838 64.0209 66.2411L64.1939 66.3558C64.3092 66.4131 64.3668 66.5278 64.3668 66.6424V67.9037H62.2336V68.477C62.2336 68.5343 62.2336 68.5917 62.2336 68.5917C62.2336 68.5917 62.2336 68.649 62.2913 68.649C62.3489 68.7063 62.3489 68.7063 62.4066 68.7063C62.4066 68.7063 62.4643 68.7063 62.5796 68.7063H63.7903C63.8479 68.7063 63.9056 68.7063 63.9632 68.7063C63.9632 68.7636 64.0209 68.7063 64.0785 68.649ZM63.9056 67.5597V66.8144C63.9056 66.7571 63.9056 66.6998 63.9056 66.6998C63.9056 66.6998 63.9056 66.6424 63.8479 66.6424C63.7903 66.6424 63.7903 66.5851 63.7326 66.5851C63.7326 66.5851 63.675 66.5851 63.5597 66.5851H62.5796C62.5219 66.5851 62.4643 66.5851 62.4066 66.5851C62.4066 66.5851 62.3489 66.5851 62.2913 66.6424C62.2336 66.6998 62.2336 66.6998 62.2336 66.6998C62.2336 66.6998 62.2336 66.7571 62.2336 66.8144V67.5597H63.9056Z" fill="#D6D6D6"/>
<path d="M88.0045 17.5679H88.754C89.1576 17.5679 89.4458 17.6825 89.6188 17.8545C89.7918 18.0265 89.9071 18.3705 89.9071 18.7718C89.9071 19.3451 89.6765 19.7464 89.2152 19.8611C89.6765 19.9757 89.9647 20.3197 89.9647 21.0077C89.9647 21.3517 89.8494 21.6383 89.6765 21.8676C89.5035 22.0396 89.2729 22.1543 88.927 22.1543H88.0045V17.5679ZM88.6387 18.0838V19.6891C88.8693 19.6891 89.0423 19.6318 89.1576 19.5171C89.2729 19.4024 89.3305 19.1731 89.3305 18.9438C89.3305 18.6571 89.2729 18.4278 89.2152 18.3132C89.0423 18.1412 88.8693 18.0838 88.6387 18.0838ZM88.6387 20.0904V21.6956C88.8693 21.6956 89.0423 21.6383 89.1576 21.5236C89.2729 21.409 89.3305 21.237 89.3305 20.9503C89.3305 20.6064 89.2729 20.4344 89.1576 20.3197C89.0423 20.2051 88.8693 20.1477 88.6387 20.0904Z" fill="#D6D6D6"/>
<path d="M92.5592 22.1543H91.9826V21.753C91.8097 22.0397 91.6367 22.1543 91.4061 22.1543C91.1755 22.1543 91.0025 22.0397 90.8872 21.8677C90.7143 21.6957 90.6566 21.2371 90.6566 20.6064C90.6566 20.0331 90.7143 19.5745 90.8296 19.3452C90.9449 19.0585 91.1755 18.9438 91.4638 18.9438C91.5791 18.9438 91.6944 19.0012 91.8097 19.0585C91.8673 19.1158 91.9826 19.2305 92.0403 19.3452V19.0012H92.6168V22.1543H92.5592ZM91.5791 21.6957C91.752 21.6957 91.8097 21.581 91.8673 21.409C91.925 21.2371 91.925 20.9504 91.925 20.4918C91.925 20.0904 91.925 19.8611 91.8673 19.6891C91.8097 19.5171 91.752 19.4598 91.5791 19.4598C91.4061 19.4598 91.3485 19.5171 91.2908 19.6891C91.2332 19.8611 91.2331 20.0904 91.2331 20.4918C91.2331 20.9504 91.2332 21.2371 91.2908 21.409C91.3485 21.6384 91.4638 21.6957 91.5791 21.6957Z" fill="#D6D6D6"/>
<path d="M93.9427 19.0012V19.2878C94.1157 19.0585 94.2886 18.9438 94.5769 18.9438C95.0381 18.9438 95.2687 19.1732 95.2687 19.6891V22.1543H94.6922V19.8611C94.6922 19.5745 94.5769 19.4025 94.3463 19.4025C94.231 19.4025 94.1157 19.4598 94.058 19.5171C94.0004 19.5745 93.9427 19.6891 93.9427 19.8611V22.1543H93.3662V19.0012H93.9427Z" fill="#D6D6D6"/>
<path d="M98.2092 22.1542H97.575L96.7102 20.4916V22.1542H96.1337V17.4531H96.7102V20.377L97.4597 19.0584H98.0939L97.2867 20.4916L98.2092 22.1542Z" fill="#D6D6D6"/>
<path d="M102.36 22.1543H101.899L100.746 19.0011V22.1543H100.169V17.5679H100.688L101.841 20.721V17.5679H102.36V22.1543Z" fill="#D6D6D6"/>
<path d="M105.127 22.1543H104.551V21.753C104.378 22.0397 104.205 22.1543 103.974 22.1543C103.744 22.1543 103.571 22.0397 103.455 21.8677C103.283 21.6957 103.225 21.2371 103.225 20.6064C103.225 20.0331 103.283 19.5745 103.398 19.3452C103.513 19.0585 103.744 18.9438 104.032 18.9438C104.147 18.9438 104.263 19.0012 104.378 19.0585C104.436 19.1158 104.551 19.2305 104.609 19.3452V19.0012H105.185V22.1543H105.127ZM104.147 21.6957C104.32 21.6957 104.378 21.581 104.436 21.409C104.493 21.2371 104.493 20.9504 104.493 20.4918C104.493 20.0904 104.493 19.8611 104.436 19.6891C104.378 19.5171 104.32 19.4598 104.147 19.4598C103.974 19.4598 103.917 19.5171 103.859 19.6891C103.801 19.8611 103.801 20.0904 103.801 20.4918C103.801 20.9504 103.801 21.2371 103.859 21.409C103.917 21.6384 104.032 21.6957 104.147 21.6957Z" fill="#D6D6D6"/>
<path d="M109.221 22.1543H108.644V19.8611C108.644 19.5745 108.529 19.4025 108.298 19.4025C108.068 19.4025 107.895 19.5745 107.895 19.9758V22.1543H107.318V19.8038C107.318 19.6891 107.261 19.5745 107.203 19.5171C107.145 19.4598 107.03 19.4025 106.972 19.4025C106.684 19.4025 106.569 19.5745 106.569 19.9185V22.1543H105.992V19.0012H106.569V19.2878C106.742 19.0585 106.972 18.9438 107.203 18.9438C107.491 18.9438 107.664 19.0585 107.837 19.3452C108.01 19.1158 108.298 18.9438 108.529 18.9438C108.99 18.9438 109.221 19.1732 109.221 19.6891V22.1543Z" fill="#D6D6D6"/>
<path d="M111.931 20.7209H110.605C110.605 21.0649 110.605 21.2942 110.662 21.4662C110.72 21.6382 110.835 21.7528 111.008 21.7528C111.123 21.7528 111.239 21.6955 111.296 21.5808C111.354 21.4662 111.354 21.2942 111.354 21.1222H111.873C111.873 21.8675 111.527 22.2115 110.95 22.2115C110.316 22.2115 109.97 21.6955 109.97 20.6635C109.97 19.5169 110.316 19.001 111.008 19.001C111.239 19.001 111.469 19.1156 111.7 19.2876C111.873 19.4596 111.988 19.8609 111.988 20.4916V20.7209H111.931ZM111.354 20.2622C111.354 19.9756 111.354 19.7463 111.296 19.5743C111.239 19.4596 111.181 19.345 111.008 19.345C110.835 19.345 110.72 19.4023 110.72 19.5743C110.662 19.6889 110.662 19.9183 110.662 20.2622H111.354Z" fill="#D6D6D6"/>
<path d="M23.0294 22.326C22.7988 22.4407 22.6259 22.498 22.3953 22.498C21.9917 22.498 21.6458 22.326 21.2998 22.0394C21.0116 21.6954 20.8386 21.0647 20.8386 20.0328C20.8386 18.9435 21.0116 18.1982 21.2998 17.7969C21.5881 17.3956 21.9917 17.2236 22.3953 17.2236C22.5682 17.2236 22.7412 17.2236 22.9718 17.281V17.9116C22.7988 17.8543 22.6835 17.7969 22.5106 17.7969C22.2223 17.7969 21.9917 17.9116 21.8187 18.1982C21.6458 18.4849 21.5305 19.0009 21.5305 19.8035C21.5305 20.2621 21.5305 20.6634 21.5881 20.9501C21.6458 21.2367 21.7034 21.4087 21.8764 21.5807C22.0493 21.7527 22.2223 21.81 22.4529 21.81C22.5682 21.81 22.7412 21.7527 22.9718 21.6954V22.326H23.0294Z" fill="#D6D6D6"/>
<path d="M25.3356 19.4019C25.0474 19.4019 24.8168 19.4592 24.7015 19.5739C24.5862 19.6886 24.5285 19.9179 24.5285 20.2619V22.3831H23.8367V18.8859H24.5285V19.4019C24.7015 19.0006 24.9897 18.8286 25.3356 18.8286H25.3933V19.4019H25.3356Z" fill="#D6D6D6"/>
<path d="M28.0453 20.7781H26.5464C26.5464 21.1794 26.5464 21.4661 26.604 21.6381C26.6617 21.8101 26.777 21.9247 27.0076 21.9247C27.1806 21.9247 27.2382 21.8674 27.2959 21.7527C27.3535 21.6381 27.3535 21.4661 27.3535 21.2368H27.93C27.93 22.0394 27.5841 22.498 26.8923 22.498C26.1428 22.498 25.7969 21.9247 25.7969 20.7781C25.7969 19.5169 26.2004 18.8862 26.9499 18.8862C27.2382 18.8862 27.4688 19.0009 27.6994 19.2302C27.93 19.4595 27.9877 19.9182 27.9877 20.6061V20.7781H28.0453ZM27.4112 20.2622C27.4112 19.9182 27.4112 19.6889 27.3535 19.5169C27.2959 19.3449 27.1806 19.2875 27.0652 19.2875C26.8923 19.2875 26.777 19.3449 26.7193 19.5169C26.6617 19.6889 26.6617 19.9182 26.6617 20.2622H27.4112Z" fill="#D6D6D6"/>
<path d="M30.4091 17.1089H31.0433V22.4406H30.4091V21.9819C30.2362 22.3259 30.0056 22.4979 29.7173 22.4979C29.5443 22.4979 29.3714 22.4406 29.2561 22.3259C29.0831 22.2113 29.0255 22.0393 28.9678 21.8673C28.9102 21.638 28.9102 21.294 28.9102 20.8353C28.9102 20.262 28.9102 19.9181 28.9678 19.6314C29.0255 19.4021 29.0831 19.2301 29.2561 19.0581C29.3714 18.9434 29.5443 18.8861 29.775 18.8861C30.0632 18.8861 30.2938 19.0581 30.4091 19.3448V17.1089ZM30.4091 20.606C30.4091 20.1474 30.4091 19.8607 30.3515 19.6887C30.2938 19.5167 30.1785 19.4021 30.0056 19.4021C29.8326 19.4021 29.7173 19.5167 29.6596 19.6887C29.602 19.8607 29.5443 20.2047 29.5443 20.606C29.5443 21.0647 29.602 21.4086 29.6596 21.5806C29.7173 21.7526 29.8326 21.8673 30.0056 21.8673C30.1785 21.8673 30.2938 21.7526 30.3515 21.5806C30.4091 21.4086 30.4091 21.0647 30.4091 20.606Z" fill="#D6D6D6"/>
<path d="M31.9082 17.8542C31.9082 17.7396 31.9659 17.6822 32.0235 17.6249C32.0812 17.5676 32.1965 17.5103 32.2541 17.5103C32.3694 17.5103 32.4271 17.5676 32.4847 17.6249C32.5424 17.6822 32.6 17.7969 32.6 17.8542C32.6 17.9689 32.5424 18.0262 32.4847 18.0836C32.4271 18.1409 32.3118 18.1982 32.2541 18.1982C32.1388 18.1982 32.0812 18.1409 32.0235 18.0836C31.9659 18.0262 31.9082 17.9116 31.9082 17.8542ZM31.9659 18.8862H32.6V22.3833H31.9659V18.8862Z" fill="#D6D6D6"/>
<path d="M34.7331 19.4022H34.3295V22.3834H33.6377V19.4022H33.2341V18.8862H33.6377V17.9116H34.3295V18.8862H34.7331V19.4022Z" fill="#D6D6D6"/>
<path d="M39.1146 22.326C38.884 22.4407 38.7111 22.498 38.4805 22.498C38.0769 22.498 37.731 22.326 37.3851 22.0394C37.0968 21.6954 36.9238 21.0647 36.9238 20.0328C36.9238 18.9435 37.0968 18.1982 37.3851 17.7969C37.6733 17.3956 38.0769 17.2236 38.4805 17.2236C38.6534 17.2236 38.8264 17.2236 39.057 17.281V17.9116C38.884 17.8543 38.7687 17.7969 38.5958 17.7969C38.3075 17.7969 38.0769 17.9116 37.9039 18.1982C37.731 18.4849 37.6157 19.0009 37.6157 19.8035C37.6157 20.2621 37.6157 20.6634 37.6733 20.9501C37.731 21.2367 37.7886 21.4087 37.9616 21.5807C38.1345 21.7527 38.3075 21.81 38.5381 21.81C38.6534 21.81 38.8264 21.7527 39.057 21.6954V22.326H39.1146Z" fill="#D6D6D6"/>
<path d="M42.0549 22.4404H41.363V22.0391C41.1901 22.3831 40.9595 22.4977 40.7288 22.4977C40.4982 22.4977 40.3253 22.3831 40.0947 22.1538C39.9217 21.9244 39.8064 21.4658 39.8064 20.7205C39.8064 20.0325 39.864 19.5739 39.9794 19.2873C40.0947 19.0006 40.3253 18.8286 40.6712 18.8286C40.8442 18.8286 40.9595 18.8859 41.0171 18.9433C41.1324 19.0006 41.1901 19.1153 41.3054 19.2873V18.8859H41.9972V22.4404H42.0549ZM41.0171 21.9244C41.1901 21.9244 41.3054 21.8098 41.363 21.6378C41.4207 21.4085 41.4207 21.1218 41.4207 20.6058C41.4207 20.2045 41.4207 19.8606 41.363 19.6886C41.3054 19.5166 41.1901 19.4019 41.0171 19.4019C40.8441 19.4019 40.7288 19.4592 40.6712 19.6312C40.6135 19.8032 40.5559 20.0899 40.5559 20.4912C40.5559 21.0072 40.5559 21.3511 40.6135 21.5231C40.7288 21.8098 40.8441 21.9244 41.0171 21.9244Z" fill="#D6D6D6"/>
<path d="M44.4763 19.4019C44.188 19.4019 43.9574 19.4592 43.8421 19.5739C43.7268 19.6886 43.6691 19.9179 43.6691 20.2619V22.3831H42.9773V18.8859H43.6691V19.4019C43.8421 19.0006 44.1304 18.8286 44.4763 18.8286H44.5339V19.4019H44.4763Z" fill="#D6D6D6"/>
<path d="M46.4941 17.1089H47.1283V22.4406H46.4941V21.9819C46.3211 22.3259 46.0905 22.4979 45.8023 22.4979C45.6293 22.4979 45.4563 22.4406 45.341 22.3259C45.2257 22.2113 45.1104 22.0393 45.0528 21.8673C44.9951 21.638 44.9951 21.294 44.9951 20.8353C44.9951 20.262 44.9951 19.9181 45.0528 19.6314C45.1104 19.4021 45.1681 19.2301 45.341 19.0581C45.4563 18.9434 45.6293 18.8861 45.8599 18.8861C46.1482 18.8861 46.3788 19.0581 46.4941 19.3448V17.1089ZM46.4941 20.606C46.4941 20.1474 46.4941 19.8607 46.4364 19.6887C46.3788 19.5167 46.2635 19.4021 46.0905 19.4021C45.9176 19.4021 45.8023 19.5167 45.7446 19.6887C45.687 19.8607 45.6293 20.2047 45.6293 20.606C45.6293 21.0647 45.687 21.4086 45.7446 21.5806C45.8023 21.7526 45.9176 21.8673 46.0905 21.8673C46.2635 21.8673 46.3788 21.7526 46.4364 21.5806C46.4941 21.4086 46.4941 21.0647 46.4941 20.606Z" fill="#D6D6D6"/>
<path d="M23.3179 56.3228C23.3179 56.8388 23.2602 57.2401 23.0873 57.4694C22.9143 57.6987 22.6837 57.8707 22.3378 57.8707C21.9918 57.8707 21.7612 57.7561 21.5883 57.4694C21.4153 57.1828 21.3577 56.8388 21.3577 56.3228C21.3577 55.8068 21.4153 55.4055 21.5883 55.1762C21.7612 54.9469 21.9918 54.7749 22.3378 54.7749C22.6837 54.7749 22.9143 54.8896 23.0873 55.1762C23.2602 55.4629 23.3179 55.8068 23.3179 56.3228ZM21.7612 56.3228C21.7612 56.7241 21.8189 57.0108 21.8765 57.1828C21.9342 57.3548 22.1072 57.4694 22.2801 57.4694C22.4531 57.4694 22.626 57.3548 22.6837 57.1828C22.7413 57.0108 22.799 56.7241 22.799 56.3228C22.799 55.9215 22.7413 55.6349 22.6837 55.4629C22.626 55.2909 22.4531 55.1762 22.2801 55.1762C22.1072 55.1762 21.9342 55.2909 21.8765 55.4629C21.8189 55.6349 21.7612 55.9215 21.7612 56.3228Z" fill="#D6D6D6"/>
<path d="M25.105 57.8132H24.6438V55.864C24.6438 55.6347 24.6438 55.4627 24.6438 55.2907C24.5862 55.348 24.5862 55.348 24.5285 55.4053C24.4709 55.4627 24.3555 55.5773 24.0673 55.8066L23.8367 55.52L24.7015 54.832H25.105V57.8132Z" fill="#D6D6D6"/>
<path d="M28.1607 57.8134H26.1428V57.4694L26.8923 56.7241C27.1229 56.4948 27.2959 56.3228 27.3535 56.2082C27.4112 56.0935 27.4688 56.0362 27.5265 55.9215C27.5841 55.8642 27.5841 55.7495 27.5841 55.6349C27.5841 55.5202 27.5265 55.4055 27.4688 55.2909C27.4112 55.2335 27.2959 55.1762 27.1229 55.1762C27.0076 55.1762 26.8923 55.1762 26.777 55.2335C26.6617 55.2909 26.5464 55.3482 26.4311 55.4629L26.1428 55.1762C26.3158 55.0616 26.4887 54.9469 26.604 54.8896C26.777 54.8322 26.95 54.7749 27.1229 54.7749C27.4112 54.7749 27.6418 54.8322 27.8148 55.0042C27.9877 55.1762 28.0454 55.3482 28.0454 55.5775C28.0454 55.6922 28.0454 55.8642 27.9877 55.9788C27.9301 56.0935 27.8724 56.2082 27.7571 56.3801C27.6418 56.4948 27.4688 56.6668 27.2382 56.8961L26.7194 57.4121H28.1607V57.8134Z" fill="#D6D6D6"/>
<path d="M30.4092 55.5202C30.4092 55.6922 30.3515 55.8642 30.2362 55.9788C30.1209 56.0935 29.948 56.2082 29.775 56.2082C30.0056 56.2655 30.1786 56.3228 30.2939 56.4375C30.4092 56.5521 30.4668 56.7241 30.4668 56.8961C30.4668 57.1828 30.3515 57.4121 30.1786 57.5841C29.948 57.7561 29.6597 57.8134 29.3138 57.8134C28.9679 57.8134 28.6796 57.7561 28.449 57.6414V57.2401C28.5643 57.2974 28.7372 57.3548 28.8525 57.4121C28.9679 57.4694 29.1408 57.4694 29.2561 57.4694C29.4867 57.4694 29.6597 57.4121 29.775 57.3548C29.8903 57.2974 29.948 57.1254 29.948 56.9534C29.948 56.7815 29.8903 56.6668 29.775 56.6095C29.6597 56.5521 29.4291 56.4948 29.1985 56.4948H28.9102V56.0935H29.1985C29.6597 56.0935 29.8903 55.9215 29.8903 55.5775C29.8903 55.4629 29.8326 55.3482 29.775 55.2909C29.7173 55.2335 29.5444 55.1762 29.4291 55.1762C29.3138 55.1762 29.1985 55.1762 29.0832 55.2335C28.9679 55.2909 28.8525 55.3482 28.7372 55.4055L28.5066 55.0616C28.7949 54.8322 29.0832 54.7749 29.4867 54.7749C29.775 54.7749 30.0056 54.8322 30.1786 54.9469C30.3515 55.1189 30.4092 55.2909 30.4092 55.5202Z" fill="#D6D6D6"/>
<path d="M93.9428 58.5586H96.0183C96.0759 58.5586 96.1913 58.6159 96.2489 58.6733L96.3642 58.7879C96.4219 58.8452 96.4795 58.9599 96.4795 59.0746V61.7691C96.4795 61.8837 96.4219 61.9411 96.3642 62.0557L96.2489 62.1704C96.1913 62.2277 96.0759 62.285 96.0183 62.285H93.9428C93.8851 62.285 93.7698 62.2277 93.7122 62.1704L93.5969 62.0557C93.5392 61.9984 93.4816 61.8837 93.4816 61.7691V59.0746C93.4816 58.9599 93.5392 58.9026 93.5969 58.7879L93.7122 58.6733C93.7698 58.6159 93.8851 58.5586 93.9428 58.5586ZM96.076 61.6544V59.1319C96.076 59.0746 96.076 59.0172 96.076 59.0172C96.076 59.0172 96.0759 58.9599 96.0183 58.9599C95.9606 58.9599 95.9606 58.9026 95.9606 58.9026C95.9606 58.9026 95.903 58.9026 95.8453 58.9026H94.1734C94.1157 58.9026 94.0581 58.9026 94.0581 58.9026C94.0581 58.9026 94.0004 58.9026 94.0004 58.9599C93.9428 58.9599 93.9428 59.0172 93.9428 59.0172C93.9428 59.0172 93.9428 59.0746 93.9428 59.1319V61.6544C93.9428 61.7117 93.9428 61.7691 93.9428 61.7691C93.9428 61.7691 93.9428 61.8264 94.0004 61.8264C94.0581 61.8264 94.0581 61.8837 94.0581 61.8837C94.0581 61.8837 94.1157 61.8837 94.1734 61.8837H95.8453C95.903 61.8837 95.9606 61.8837 95.9606 61.8837C95.9606 61.8837 96.0183 61.8837 96.0183 61.8264C96.0183 61.7691 96.076 61.7691 96.076 61.7691C96.076 61.7117 96.076 61.7117 96.076 61.6544Z" fill="#D6D6D6"/>
<path d="M97.5174 59.6481L97.2867 59.4188L98.0362 58.6162H98.6704V62.2853H98.2669V59.0748C98.2669 59.0175 98.2669 58.9602 98.2669 58.9602L97.5174 59.6481Z" fill="#D6D6D6"/>
<path d="M101.611 58.5586H102.014L99.2468 62.6864H98.8433L101.611 58.5586Z" fill="#D6D6D6"/>
<path d="M102.303 60.6225L102.533 60.3932C102.591 60.3358 102.648 60.3358 102.706 60.3358C102.648 60.3358 102.591 60.3358 102.533 60.2785L102.36 60.1638C102.303 60.1065 102.303 60.0492 102.303 59.9918V59.0746C102.303 58.9599 102.36 58.9026 102.418 58.7879L102.533 58.6733C102.591 58.6159 102.706 58.5586 102.764 58.5586H104.378C104.436 58.5586 104.551 58.6159 104.609 58.6733L104.724 58.7879C104.782 58.8452 104.839 58.9599 104.839 59.0746V59.9918C104.839 60.0492 104.839 60.1065 104.782 60.1638L104.609 60.2785C104.551 60.3358 104.493 60.3358 104.436 60.3358C104.493 60.3358 104.551 60.3358 104.609 60.3932L104.839 60.6225C104.897 60.6798 104.897 60.7371 104.897 60.8518V61.7691C104.897 61.8837 104.839 61.9411 104.782 62.0557C104.782 62.0557 104.724 62.1131 104.666 62.1704C104.609 62.2277 104.493 62.285 104.436 62.285H102.706C102.648 62.285 102.533 62.2277 102.475 62.1704C102.418 62.1131 102.36 62.1131 102.36 62.0557C102.303 61.9984 102.245 61.8837 102.245 61.7691V60.8518C102.245 60.7371 102.303 60.6798 102.303 60.6225ZM104.147 60.5651H103.11C103.052 60.5651 102.994 60.5651 102.994 60.5651C102.994 60.5651 102.937 60.5651 102.879 60.6225L102.764 60.7371C102.706 60.7945 102.706 60.7945 102.706 60.7945C102.706 60.7945 102.706 60.8518 102.706 60.9091V61.6544C102.706 61.7117 102.706 61.7691 102.706 61.7691C102.706 61.7691 102.706 61.8264 102.764 61.8264C102.821 61.8264 102.821 61.8837 102.821 61.8837C102.821 61.8837 102.879 61.8837 102.937 61.8837H104.263C104.32 61.8837 104.378 61.8837 104.378 61.8837C104.378 61.8837 104.436 61.8837 104.436 61.8264C104.493 61.8264 104.493 61.7691 104.493 61.7691C104.493 61.7691 104.493 61.7117 104.493 61.6544V60.9091C104.493 60.8518 104.493 60.7945 104.493 60.7945L104.436 60.7371L104.32 60.6225C104.263 60.5651 104.263 60.5651 104.205 60.5651C104.263 60.5651 104.205 60.5651 104.147 60.5651ZM104.205 58.9599H102.994C102.937 58.9599 102.879 58.9599 102.879 58.9599C102.879 58.9599 102.821 58.9599 102.821 59.0172C102.764 59.0172 102.764 59.0746 102.764 59.0746C102.764 59.0746 102.764 59.1319 102.764 59.1892V59.8772C102.764 59.9345 102.764 59.9918 102.764 59.9918L102.821 60.0492L102.937 60.1638C102.994 60.1638 102.994 60.2212 102.994 60.2212C102.994 60.2212 103.052 60.2212 103.11 60.2212H103.974C104.032 60.2212 104.09 60.2212 104.09 60.2212C104.09 60.2212 104.147 60.2212 104.147 60.1638L104.263 60.0492C104.32 59.9918 104.32 59.9918 104.32 59.9918C104.32 59.9918 104.32 59.9345 104.32 59.8772V59.1892C104.32 59.1319 104.32 59.0746 104.32 59.0746C104.32 59.0746 104.32 59.0172 104.263 59.0172C104.205 59.0172 104.205 58.9599 104.205 58.9599C104.32 58.9599 104.32 58.9599 104.205 58.9599Z" fill="#D6D6D6"/>
<path d="M106.454 58.5586H108.529C108.587 58.5586 108.702 58.6159 108.76 58.6733L108.875 58.7879C108.933 58.8452 108.99 58.9599 108.99 59.0746V61.7691C108.99 61.8837 108.933 61.9411 108.875 62.0557L108.76 62.1704C108.702 62.2277 108.587 62.285 108.529 62.285H106.454C106.396 62.285 106.281 62.2277 106.223 62.1704L106.108 62.0557C106.05 61.9984 105.992 61.8837 105.992 61.7691V59.0746C105.992 58.9599 106.05 58.9026 106.108 58.7879L106.223 58.6733C106.281 58.6159 106.396 58.5586 106.454 58.5586ZM108.587 61.6544V59.1319C108.587 59.0746 108.587 59.0172 108.587 59.0172C108.587 59.0172 108.587 58.9599 108.529 58.9599C108.471 58.9599 108.471 58.9026 108.471 58.9026C108.471 58.9026 108.414 58.9026 108.356 58.9026H106.684C106.626 58.9026 106.569 58.9026 106.569 58.9026C106.569 58.9026 106.511 58.9026 106.511 58.9599C106.454 58.9599 106.454 59.0172 106.454 59.0172C106.454 59.0172 106.454 59.0746 106.454 59.1319V61.6544C106.454 61.7117 106.454 61.7691 106.454 61.7691C106.454 61.7691 106.454 61.8264 106.511 61.8264C106.569 61.8264 106.569 61.8837 106.569 61.8837C106.569 61.8837 106.626 61.8837 106.684 61.8837H108.356C108.414 61.8837 108.471 61.8837 108.471 61.8837C108.471 61.8837 108.529 61.8837 108.529 61.8264C108.587 61.8264 108.587 61.7691 108.587 61.7691C108.587 61.7117 108.587 61.7117 108.587 61.6544Z" fill="#D6D6D6"/>
<path d="M84.0265 59.5331L84.4877 58.1572H84.6607L84.1418 59.7051H83.9112L83.3923 58.1572H83.5653L84.0265 59.5331Z" fill="#D6D6D6"/>
<path d="M84.776 59.648L85.2949 58.1001H85.5255L86.0444 59.648H85.8714L85.7561 59.304H85.0066L84.8913 59.648H84.776ZM85.4678 58.2721V58.3294L85.1796 59.1894H85.8138L85.5255 58.3294C85.4678 58.3294 85.4678 58.2721 85.4678 58.2721Z" fill="#D6D6D6"/>
<path d="M87.3703 59.5332V59.7051H86.4479V58.1572H86.6208V59.5332H87.3703Z" fill="#D6D6D6"/>
<path d="M87.601 58.1572H87.7739V59.7051H87.601V58.1572Z" fill="#D6D6D6"/>
<path d="M88.2351 59.6478V58.1572H89.0423C89.0999 58.1572 89.0999 58.1572 89.1576 58.2146L89.3882 58.3865C89.4459 58.4439 89.4459 58.4439 89.4459 58.5012V59.4185C89.4459 59.4758 89.4459 59.4758 89.3882 59.5331L89.1576 59.7051C89.0999 59.7625 89.0999 59.7625 89.0423 59.7625H88.2351V59.6478ZM89.2152 59.3038V58.5012C89.2152 58.4439 89.2152 58.4439 89.1576 58.3865L89.0423 58.2719C88.9846 58.2146 88.9846 58.2146 88.927 58.2146H88.3504V59.4185H88.927C88.9846 59.4185 88.9846 59.4185 89.0423 59.3612L89.1576 59.2465C89.2152 59.3612 89.2152 59.3038 89.2152 59.3038Z" fill="#D6D6D6"/>
<path d="M83.7383 60.7373H84.8913V60.9093H84.3725V62.2852H84.1995V60.9093H83.7383V60.7373Z" fill="#D6D6D6"/>
<path d="M86.102 60.7373H86.275V62.2852H86.102V61.5973H85.2949V62.2852H85.1219V60.7373H85.2949V61.4253H86.102V60.7373Z" fill="#D6D6D6"/>
<path d="M86.6786 60.7373H87.4857C87.5434 60.7373 87.5434 60.7373 87.601 60.7946L87.6587 60.852C87.7163 60.9093 87.7163 60.9093 87.7163 60.9666V61.4826C87.7163 61.5399 87.7163 61.5399 87.6587 61.5973L87.601 61.6546C87.5434 61.6546 87.5434 61.7119 87.4857 61.7119H87.3704L87.601 62.0559C87.601 62.0559 87.601 62.1132 87.6587 62.1132C87.6587 62.1132 87.6587 62.1132 87.7163 62.1706C87.7163 62.1706 87.774 62.1706 87.774 62.2279V62.2852V62.3425H87.7163H87.6587C87.6587 62.3425 87.6587 62.3425 87.601 62.3425H87.5434C87.4857 62.3425 87.4857 62.2852 87.4857 62.2852L87.1975 61.8266H86.9092V62.4572H86.6786V60.7373ZM86.9092 60.9093V61.5399H87.4281H87.4857C87.4857 61.5399 87.4857 61.5399 87.5434 61.5399C87.5434 61.5399 87.5434 61.5399 87.5434 61.4826V61.024V60.9666C87.5434 60.9666 87.5434 60.9666 87.4857 60.9666C87.4857 60.9666 87.4857 60.9666 87.4281 60.9666H86.9092V60.9093Z" fill="#D6D6D6"/>
<path d="M89.1576 60.7373H89.3306V62.0559C89.3306 62.1132 89.3306 62.1132 89.2729 62.1705L89.2153 62.2279C89.1576 62.2852 89.1576 62.2852 89.0999 62.2852H88.4081C88.3504 62.2852 88.3504 62.2852 88.2928 62.2279L88.2351 62.1705C88.1775 62.1132 88.1775 62.1132 88.1775 62.0559V60.7373H88.3504V61.9986V62.0559C88.3504 62.0559 88.3504 62.0559 88.4081 62.0559C88.4081 62.0559 88.4081 62.0559 88.4658 62.0559H89.0423H89.0999C89.0999 62.0559 89.0999 62.0559 89.1576 62.0559C89.1576 62.0559 89.1576 62.0559 89.1576 61.9986V60.7373Z" fill="#D6D6D6"/>
<path fill-rule="evenodd" clip-rule="evenodd" d="M90.4261 59.3042V61.1388L91.8675 60.2215L90.4261 59.3042Z" fill="#D6D6D6"/>
</g>
</g>
<defs>
<filter id="filter0_d_2_2398" x="0" y="0" width="153" height="110" filterUnits="userSpaceOnUse" color-interpolation-filters="sRGB">
<feFlood flood-opacity="0" result="BackgroundImageFix"/>
<feColorMatrix in="SourceAlpha" type="matrix" values="0 0 0 0 0 0 0 0 0 0 0 0 0 0 0 0 0 0 127 0" result="hardAlpha"/>
<feOffset dx="10" dy="10"/>
<feGaussianBlur stdDeviation="10"/>
<feComposite in2="hardAlpha" operator="out"/>
<feColorMatrix type="matrix" values="0 0 0 0 0 0 0 0 0 0 0 0 0 0 0 0 0 0 0.25 0"/>
<feBlend mode="normal" in2="BackgroundImageFix" result="effect1_dropShadow_2_2398"/>
<feBlend mode="normal" in="SourceGraphic" in2="effect1_dropShadow_2_2398" result="shape"/>
</filter>
<linearGradient id="paint0_linear_2_2398" x1="45.5443" y1="98.1219" x2="88.1315" y2="-11.0568" gradientUnits="userSpaceOnUse">
<stop stop-color="#070707"/>
<stop offset="1" stop-color="#404040"/>
</linearGradient>
<linearGradient id="paint1_linear_2_2398" x1="122.146" y1="43.5686" x2="-47.7025" y2="49.2623" gradientUnits="userSpaceOnUse">
<stop/>
<stop offset="0.258" stop-color="#020202"/>
<stop offset="0.38" stop-color="#0A0A0A"/>
<stop offset="0.4735" stop-color="#171717"/>
<stop offset="0.5526" stop-color="#292929"/>
<stop offset="0.6224" stop-color="#414141"/>
<stop offset="0.6858" stop-color="#5E5E5E"/>
<stop offset="0.7443" stop-color="#818181"/>
<stop offset="0.799" stop-color="#AAAAAA"/>
<stop offset="0.8486" stop-color="#D7D7D7"/>
<stop offset="0.8871" stop-color="white"/>
</linearGradient>
<linearGradient id="paint2_linear_2_2398" x1="28.3213" y1="25.1949" x2="28.3213" y2="55.0761" gradientUnits="userSpaceOnUse">
<stop stop-color="#FFCA3F"/>
<stop offset="0.0969388" stop-color="#CA7C22"/>
<stop offset="0.1888" stop-color="#FDDB7A"/>
<stop offset="0.4201" stop-color="#FFAD45"/>
<stop offset="0.5538" stop-color="#A95F0D"/>
<stop offset="0.6562" stop-color="#FFAD45"/>
<stop offset="0.7903" stop-color="#FFFF9B"/>
<stop offset="0.868" stop-color="#FFED7C"/>
<stop offset="1" stop-color="#FFCA3F"/>
</linearGradient>
<linearGradient id="paint3_linear_2_2398" x1="28.3213" y1="17.9526" x2="28.3213" y2="55.366" gradientUnits="userSpaceOnUse">
<stop stop-color="#FFCA3F"/>
<stop offset="0.0969388" stop-color="#CA7C22"/>
<stop offset="0.1888" stop-color="#FDDB7A"/>
<stop offset="0.4201" stop-color="#FFAD45"/>
<stop offset="0.5538" stop-color="#A95F0D"/>
<stop offset="0.6562" stop-color="#FFAD45"/>
<stop offset="0.7903" stop-color="#FFFF9B"/>
<stop offset="0.868" stop-color="#FFED7C"/>
<stop offset="1" stop-color="#FFCA3F"/>
</linearGradient>
<clipPath id="clip0_2_2398">
<rect x="10" y="10" width="113" height="70" rx="6" fill="white"/>
</clipPath>
</defs>
</svg>
