<svg width="408" height="542" viewBox="0 0 408 542" fill="none" xmlns="http://www.w3.org/2000/svg">
<g filter="url(#filter0_d_2_245)">
<g filter="url(#filter1_d_2_245)">
<path d="M129.714 402C113.304 402 100 388.685 100 372.261L100 89.7391C100 73.3147 113.304 60 129.714 60L278.286 60C294.696 60 308 73.3147 308 89.7391L308 372.261C308 388.685 294.696 402 278.286 402L129.714 402Z" fill="#26C074"/>
</g>
<path d="M138.733 384C125.626 384 115 373.359 115 360.233L115 101.767C115 88.6408 125.626 78 138.733 78L269.267 78C282.374 78 293 88.6408 293 101.767L293 360.233C293 373.359 282.374 384 269.267 384L138.733 384Z" fill="#4CC98B"/>
<path d="M216.665 273.549L216.665 327L203.488 327L203.488 273.752C203.488 269.167 202.734 265.374 201.225 262.374C199.683 259.373 197.57 257.148 194.888 255.699C192.172 254.249 189.054 253.524 185.534 253.524C182.047 253.524 178.929 254.249 176.179 255.699C173.43 257.148 171.267 259.357 169.691 262.323C168.082 265.29 167.277 269.032 167.277 273.549L167.277 295.597L257 295.597L257 311.172L154 311.172L154 273.549C154 265.695 155.408 259.137 158.225 253.878C161.041 248.586 164.83 244.624 169.591 241.995C174.352 239.332 179.649 238 185.483 238C191.384 238 196.699 239.348 201.426 242.045C206.12 244.709 209.842 248.687 212.591 253.98C215.307 259.239 216.665 265.762 216.665 273.549ZM225.315 272.791L238.542 272.791L238.542 327L225.315 327L225.315 272.791Z" fill="white"/>
<path d="M109 188L109 176L308 176L308 188L109 188Z" fill="#26C074"/>
</g>
<defs>
<filter id="filter0_d_2_245" x="0" y="0" width="408" height="542" filterUnits="userSpaceOnUse" color-interpolation-filters="sRGB">
<feFlood flood-opacity="0" result="BackgroundImageFix"/>
<feColorMatrix in="SourceAlpha" type="matrix" values="0 0 0 0 0 0 0 0 0 0 0 0 0 0 0 0 0 0 127 0" result="hardAlpha"/>
<feOffset dy="40"/>
<feGaussianBlur stdDeviation="50"/>
<feComposite in2="hardAlpha" operator="out"/>
<feColorMatrix type="matrix" values="0 0 0 0 0 0 0 0 0 0 0 0 0 0 0 0 0 0 0.25 0"/>
<feBlend mode="normal" in2="BackgroundImageFix" result="effect1_dropShadow_2_245"/>
<feBlend mode="normal" in="SourceGraphic" in2="effect1_dropShadow_2_245" result="shape"/>
</filter>
<filter id="filter1_d_2_245" x="80" y="50" width="248" height="382" filterUnits="userSpaceOnUse" color-interpolation-filters="sRGB">
<feFlood flood-opacity="0" result="BackgroundImageFix"/>
<feColorMatrix in="SourceAlpha" type="matrix" values="0 0 0 0 0 0 0 0 0 0 0 0 0 0 0 0 0 0 127 0" result="hardAlpha"/>
<feOffset dy="10"/>
<feGaussianBlur stdDeviation="10"/>
<feColorMatrix type="matrix" values="0 0 0 0 0 0 0 0 0 0 0 0 0 0 0 0 0 0 0.1 0"/>
<feBlend mode="normal" in2="BackgroundImageFix" result="effect1_dropShadow_2_245"/>
<feBlend mode="normal" in="SourceGraphic" in2="effect1_dropShadow_2_245" result="shape"/>
</filter>
</defs>
</svg>
