<svg width="69" height="68" viewBox="0 0 69 68" fill="none" xmlns="http://www.w3.org/2000/svg">
<path d="M39.5757 23.8283L35.5807 19.8333L21.4141 34L35.5807 48.1667L39.5757 44.1717L32.2657 36.8333L59.6641 36.8333L59.6641 31.1667L32.2657 31.1667L39.5757 23.8283ZM14.3307 59.5L53.9974 59.5C57.1424 59.5 59.6641 56.95 59.6641 53.8333L59.6641 42.5L53.9974 42.5L53.9974 53.8333L14.3307 53.8333L14.3307 14.1667L53.9974 14.1667L53.9974 25.5L59.6641 25.5L59.6641 14.1667C59.6641 11.05 57.1424 8.49999 53.9974 8.49999L14.3307 8.49999C11.2141 8.49999 8.66407 11.05 8.66407 14.1667L8.66407 53.8333C8.66407 56.95 11.2141 59.5 14.3307 59.5Z" fill="white"/>
</svg>
