<svg width="173" height="71" viewBox="0 0 173 71" fill="none" xmlns="http://www.w3.org/2000/svg">
<path d="M12.3291 70.7011H15.3949V58.2202L20.944 66.4076H21.0453L26.6449 58.17V70.7011H29.7612V53.2277H26.4422L21.0453 61.4899L15.6484 53.2277H12.3291V70.7011ZM77.8623 60.04C79.152 60.04 80.1977 61.0702 80.1977 62.3408C80.1977 63.6119 79.152 64.642 77.8623 64.642C76.572 64.642 75.5264 63.6119 75.5264 62.3408C75.5264 61.0702 76.572 60.04 77.8623 60.04ZM124.672 65.1844H126.369L127.307 54.1014V53.2277H123.709V54.1014L124.672 65.1844ZM123.835 70.7011H127.206V67.2813H123.835V70.7011ZM102.451 70.7011H105.644L107.468 66.4824H115.855L117.653 70.7011H120.947L113.144 53.1028H110.255L102.451 70.7011ZM108.609 63.7615L111.648 56.7722L114.714 63.7615H108.609ZM84.998 70.7011H88.1146V65.6337L90.8765 62.838L96.9317 70.7011H100.707L93.0045 60.7411L100.377 53.2277H96.552L88.1146 62.014V53.2277H84.998V70.7011ZM55.8066 70.7011H58.7456L67.69 57.9704V70.7011H70.7557V53.2277H67.8416L58.8723 65.9832V53.2277H55.8066V70.7011ZM42.7583 71.0004C48.2057 71.0004 52.0571 66.8816 52.0571 61.9643C52.0571 56.9969 48.2567 52.9277 42.8093 52.9277C37.3615 52.9277 33.5101 57.0465 33.5101 61.9643C33.5101 66.9317 37.311 71.0004 42.7583 71.0004ZM42.8093 68.1797C39.2874 68.1797 36.7791 65.3589 36.7791 61.9643C36.7791 58.5196 39.2365 55.7485 42.7583 55.7485C46.2804 55.7485 48.7887 58.5692 48.7887 61.9643C48.7887 65.409 46.3307 68.1797 42.8093 68.1797Z" fill="white"/>
<path d="M136.35 70.7011H142.914C149.132 70.7011 152.759 66.9568 152.759 61.9142C152.759 56.8218 149.181 53.2277 143.012 53.2277H136.35V70.7011ZM141.137 66.4076V57.4709H143.086C145.949 57.4709 147.848 59.1435 147.848 61.9392C147.848 64.8101 145.949 66.4076 143.086 66.4076H141.137ZM162.954 71.0004C167.15 71.0004 169.939 68.8788 169.939 65.3093C169.939 61.9893 167.471 60.6913 163.497 59.8177C161.104 59.2684 160.511 58.9189 160.511 58.1198C160.511 57.4462 161.079 56.9467 162.239 56.9467C163.769 56.9467 165.496 57.5461 167.075 58.6691L169.469 55.2494C167.594 53.7267 165.298 52.9277 162.363 52.9277C158.217 52.9277 155.675 55.2745 155.675 58.5196C155.675 62.164 158.513 63.2122 162.189 64.0609C164.534 64.6101 165.101 65.0097 165.101 65.7336C165.101 66.5325 164.41 66.9815 163.128 66.9815C161.129 66.9815 159.229 66.2576 157.526 64.8849L154.861 68.1049C156.983 70.0269 159.895 71.0004 162.954 71.0004Z" fill="white"/>
<path d="M65.1787 36.5054C69.708 29.7029 69.6117 21.9121 73.1093 14.5664C77.6313 5.06896 87.5039 -1.30476 98.3117 0.2272C103.877 1.0158 109.09 3.87103 112.923 8.43725C113.805 9.48782 114.405 10.3321 115.089 11.5135C118.07 16.6615 118.946 22.4868 117.742 27.9155C115.306 38.8933 105.239 45.8259 94.2124 46.2621C86.4537 46.5693 79.2355 44.1771 71.6834 45.897C68.9832 46.5112 65.4735 47.2464 63.5976 44.5139C61.5353 41.5091 63.5045 39.0206 65.1787 36.5054ZM68.606 38.7324C68.068 39.5403 67.2441 40.6262 66.974 41.4824C66.7935 42.0549 67.168 42.4845 67.7593 42.4838C68.6841 42.4825 69.837 42.1466 70.7662 41.9363C79.2078 40.0139 85.8852 42.5771 94.1492 42.1656C103.299 41.7098 111.679 36.2578 113.719 27.0566C114.709 22.5929 113.981 17.7905 111.517 13.5334C110.983 12.6119 110.456 11.8488 109.77 11.03C106.602 7.25731 102.309 4.89994 97.7323 4.25146C88.5327 2.94788 80.4268 8.55872 76.7082 16.6242C73.2159 24.1983 73.5096 31.3678 68.606 38.7324Z" fill="white"/>
</svg>
