<svg width="33" height="21" viewBox="0 0 33 21" fill="none" xmlns="http://www.w3.org/2000/svg">
<g clip-path="url(#clip0_2_1961)">
<path d="M32.3305 17.6597V17.3093H32.4654V17.2381H32.128V17.3093H32.263V17.6597H32.3305ZM32.9948 17.6597V17.2381H32.891L32.7716 17.5283L32.6522 17.2381H32.5484V17.6597H32.6211V17.3421L32.7353 17.6159H32.8131L32.9273 17.3421V17.6597H32.9948ZM0 10.5027C0 16.2907 4.46367 21.0055 9.95502 21.0055C12.2595 21.0055 14.3824 20.1677 16.0692 18.7713C13.91 16.7398 12.5346 13.7937 12.5346 10.5027C12.5346 7.21173 13.91 4.27119 16.0692 2.23416C14.3772 0.83781 12.2595 0 9.95502 0C4.46367 0 0 4.70926 0 10.5027ZM19.9048 10.5027C19.9048 7.35958 18.5813 4.5395 16.5 2.61199C14.4187 4.5395 13.0952 7.35411 13.0952 10.5027C13.0952 13.6514 14.4187 16.466 16.5 18.3935C18.5813 16.4605 19.9048 13.6459 19.9048 10.5027ZM23.045 0C20.7405 0 18.6228 0.83781 16.9308 2.22868C19.09 4.26023 20.4602 7.21173 20.4602 10.4973C20.4602 13.7828 19.09 16.7343 16.9308 18.7658C18.6176 20.1567 20.7405 20.9945 23.045 20.9945C28.5311 20.9945 33 16.2853 33 10.4918C33 4.6983 28.5363 0 23.045 0Z" fill="white"/>
</g>
<defs>
<clipPath id="clip0_2_1961">
<rect width="33" height="21" fill="white"/>
</clipPath>
</defs>
</svg>
