<svg width="103" height="30" viewBox="0 0 103 30" fill="none" xmlns="http://www.w3.org/2000/svg">
<g clip-path="url(#clip0_2_1026)">
<path fill-rule="evenodd" clip-rule="evenodd" d="M27.9816 0.427735V0.440552C27.9689 0.440552 23.9888 0.427735 22.9274 4.28556C21.9545 7.82298 19.2126 17.5893 19.1368 17.8585H18.3787C18.3787 17.8585 15.5737 7.87424 14.5881 4.27275C13.5267 0.414918 9.53397 0.427735 9.53397 0.427735H0.436523V29.778H9.53397V12.3473H9.91303H10.2921L15.5989 29.778H21.9166L27.2234 12.3601H27.9816V29.778H37.079V0.427735H27.9816Z" fill="white"/>
<path fill-rule="evenodd" clip-rule="evenodd" d="M61.2124 0.427734C61.2124 0.427734 58.5463 0.671252 57.2954 3.50374L50.8514 17.8585H50.0933V0.427734H40.9958V29.778H49.5879C49.5879 29.778 52.3803 29.5217 53.6312 26.702L59.9489 12.3473H60.707V29.778H69.8044V0.427734H61.2124Z" fill="white"/>
<path fill-rule="evenodd" clip-rule="evenodd" d="M73.8477 13.7571V29.778H82.9451V20.4218H92.8007C97.0967 20.4218 100.736 17.6405 102.088 13.7571H73.8477Z" fill="white"/>
<path fill-rule="evenodd" clip-rule="evenodd" d="M92.801 0.427734H72.5718C73.5826 6.01582 77.7144 10.5017 83.0591 11.9628C84.2721 12.296 85.5483 12.4754 86.8623 12.4754H102.454C102.593 11.809 102.657 11.1297 102.657 10.4248C102.657 4.90077 98.2468 0.427734 92.801 0.427734Z" fill="white"/>
</g>
<defs>
<clipPath id="clip0_2_1026">
<rect width="102.22" height="29.3503" fill="white" transform="translate(0.436523 0.427734)"/>
</clipPath>
</defs>
</svg>
