<svg width="773" height="690" viewBox="0 0 773 690" fill="none" xmlns="http://www.w3.org/2000/svg">
<g filter="url(#filter0_d_2_1715)">
<rect x="240.646" y="48.0159" width="508.125" height="314.768" rx="34" transform="rotate(29.0539 240.646 48.0159)" fill="#020202"/>
<path d="M321.107 283.783C316.532 281.242 315.378 275.735 317.819 271.342C320.354 266.779 325.545 265.019 330.12 267.56C334.695 270.102 335.849 275.608 333.408 280.002C330.704 284.471 325.513 286.231 321.107 283.783ZM318.873 287.407C325.99 291.361 333.908 288.683 337.475 282.261C341.043 275.84 339.133 267.702 332.185 263.843C325.068 259.889 317.15 262.567 313.583 268.988C309.921 275.579 311.925 283.547 318.873 287.407ZM336.006 296.483L339.733 298.554L360.55 288.225L351.256 304.955L355.154 307.12L367.827 284.307L364.1 282.236L343.283 292.564L352.577 275.834L348.679 273.669L336.006 296.483ZM373.624 317.381L377.691 319.641L381.352 313.05L386.976 311.309L389.044 325.948L393.958 328.678L391.189 310.111L406.123 305.582L401.209 302.852L383.981 308.318L390.365 296.827L386.298 294.568L373.624 317.381ZM409.195 325.2L418.162 318.24L416.989 329.531L409.195 325.2ZM396.161 329.901L400.228 332.161L405.698 327.902L416.543 333.927L415.817 340.821L420.053 343.175L422.824 314.638L419.096 312.567L396.161 329.901ZM423.781 345.246L428.187 347.693L430.628 343.3L426.222 340.852L423.781 345.246ZM429.004 338.638L431.207 339.862L440.467 325.988L441.124 324.805L436.549 322.263L435.892 323.446L429.004 338.638ZM372.265 298.272C373.96 299.213 374.565 301.318 373.626 303.008C372.687 304.698 370.58 305.297 368.886 304.355C367.191 303.414 366.587 301.309 367.526 299.619C368.464 297.929 370.571 297.33 372.265 298.272ZM279.748 265.229L283.814 267.489L292.921 251.097L294.123 265.697L294.293 265.791L307.588 259.023L298.481 275.415L302.548 277.675L315.128 255.03L310.892 252.677L297.936 259.632L296.997 244.957L292.76 242.604L280.087 265.417L279.748 265.229Z" fill="white"/>
<path d="M474.941 374.108C480.533 377.214 485.763 376.581 488.391 371.85C490.832 367.456 488.551 363.977 483.862 360.045C481.018 357.58 480.621 356.697 481.185 355.683C481.654 354.838 482.707 354.539 484.402 355.48C486.435 356.61 488.169 358.678 489.621 361.254L495.281 358.649C493.866 355.209 491.379 352.501 487.482 350.336C482.059 347.323 476.98 348.482 474.633 352.707C472.005 357.439 474.982 360.862 479.239 364.774C481.913 367.145 482.479 368.123 481.915 369.137C481.352 370.15 480.129 370.356 478.435 369.414C475.724 367.908 473.745 365.482 472.481 362.568L466.576 364.816C467.634 368.5 470.874 371.848 474.941 374.108ZM449.25 352.095L455.728 340.435L458.27 341.847C461.998 343.918 463.319 347.527 461.254 351.245C459.188 354.963 455.426 355.747 451.698 353.676L449.156 352.264L449.25 352.095ZM439.882 354.189L448.525 358.99C456.828 363.603 464.295 361.338 467.956 354.747C471.618 348.157 469.502 340.789 461.368 336.27L452.556 331.375L439.882 354.189Z" fill="#62C2F4"/>
<path fill-rule="evenodd" clip-rule="evenodd" d="M456.57 390.001C455.045 389.154 454.498 387.744 455.155 386.561C455.812 385.378 457.298 385.098 458.823 385.945L461.873 387.64L459.62 391.695L456.57 390.001ZM450.138 392.398L451.494 393.151L456.44 391.034L459.151 392.54L457.085 396.258L458.102 396.823L463.453 387.19L459.387 384.931C458.2 384.272 456.996 384.045 455.943 384.345C455.153 384.569 454.608 385.151 454.232 385.827C453.293 387.517 453.841 388.927 455.347 390.206L450.138 392.398ZM439.632 386.562L440.649 387.127L450.822 382.385L446.41 390.327L447.427 390.892L452.778 381.26L451.761 380.695L441.588 385.437L446 377.494L444.983 376.929L439.632 386.562ZM428.618 380.443L429.634 381.008L432.075 376.614L437.667 379.721L435.226 384.114L436.243 384.679L441.594 375.047L440.577 374.482L438.23 378.707L432.639 375.6L434.986 371.375L433.969 370.811L428.618 380.443ZM421.1 371.622L426.025 367.946L425.506 374.07L421.1 371.622ZM416.417 373.665L417.603 374.324L420.198 372.448L425.451 375.366L425.229 378.56L426.415 379.219L427.454 366.97L426.268 366.311L416.417 373.665ZM410.685 363.625L412.563 360.246L415.444 361.846C416.799 362.599 417.271 363.746 416.802 364.591C416.144 365.774 415.016 365.81 413.66 365.057L410.779 363.456L410.685 363.625ZM408.244 368.019L410.122 364.639L413.172 366.334C414.867 367.275 415.339 368.422 414.775 369.436C414.118 370.619 412.989 370.655 411.464 369.808L408.244 368.019ZM406.589 368.205L410.825 370.559C413.028 371.782 414.947 371.521 415.886 369.832C416.637 368.48 416.165 367.333 415.167 366.336C416.032 366.375 417.255 366.169 417.912 364.986C418.288 364.31 418.4 363.709 418.079 363.089C417.853 362.3 417.193 361.491 416.007 360.832L411.94 358.573L406.589 368.205ZM395.405 361.992L396.422 362.557L406.596 357.815L402.183 365.758L403.2 366.322L408.551 356.69L407.534 356.125L397.361 360.867L401.773 352.924L400.756 352.36L395.405 361.992ZM378.799 352.767L380.154 353.52L386.172 350.671L386.91 353.734L385.501 356.269L386.518 356.834L387.926 354.299L390.917 353.307L391.677 359.921L393.033 360.674L392.064 352.838L398.139 350.684L396.783 349.931L388.508 352.853L391.7 347.107L390.683 346.542L387.491 352.288L385.6 343.718L384.244 342.965L385.625 349.261L378.799 352.767ZM370.571 348.417C371.757 349.076 373.15 348.965 374.672 347.82L382.794 342.381L381.608 341.722L375.085 346.28L375 338.051L373.644 337.298L373.75 347.087C372.678 347.818 371.549 347.854 371.041 347.572C370.532 347.29 370.193 347.101 370.042 346.575L369.065 347.138C369.479 347.589 369.894 348.04 370.571 348.417ZM357.693 341.263C359.218 342.11 361.137 341.849 364.892 335.089L365.455 334.075L369.522 336.335L364.734 344.953L365.751 345.518L371.102 335.886L364.833 332.403L363.894 334.092C360.232 340.683 358.765 340.531 357.917 340.06C357.578 339.872 357.24 339.684 357.164 339.421L356.525 340.172C356.94 340.623 357.354 341.074 357.693 341.263ZM351.593 337.874C353.287 338.815 354.849 338.798 356.429 338.349L356.127 337.296C354.81 337.671 353.512 337.613 352.325 336.954C350.123 335.73 349.536 333.193 350.851 330.827C352.071 328.63 354.629 327.619 356.832 328.842C358.187 329.595 358.753 330.573 359.131 331.889L360.278 331.42C359.731 330.011 359.09 328.77 357.395 327.828C354.514 326.228 351.26 327.295 349.665 330.168C348.069 333.041 348.882 336.367 351.593 337.874ZM338.694 329.16L340.759 325.442L343.64 327.042C345.165 327.89 345.9 328.961 345.149 330.313C344.398 331.665 343.006 331.776 341.481 330.929L338.6 329.329L338.694 329.16ZM336.944 329.515L341.011 331.774C343.214 332.998 345.133 332.737 346.166 330.878C347.292 328.85 346.067 327.064 344.034 325.934L341.153 324.334L342.843 321.292L348.774 324.587L349.337 323.573L342.389 319.713L336.944 329.515ZM329.619 324.339C327.416 323.116 326.754 320.315 327.975 318.119C329.195 315.922 331.753 314.91 333.956 316.134C336.159 317.358 336.82 320.158 335.6 322.355C334.455 324.815 331.822 325.563 329.619 324.339ZM329.056 325.353C331.936 326.954 335.284 325.718 336.786 323.014C338.288 320.31 337.569 316.814 334.689 315.214C331.808 313.614 328.46 314.85 326.958 317.554C325.362 320.427 326.175 323.753 329.056 325.353ZM317.418 317.562C315.216 316.338 314.554 313.538 315.774 311.341C316.995 309.144 319.552 308.132 321.755 309.356C323.958 310.58 324.62 313.38 323.4 315.577C322.085 317.943 319.621 318.785 317.418 317.562ZM316.855 318.576C319.736 320.176 323.084 318.94 324.586 316.236C326.088 313.532 325.369 310.036 322.488 308.436C319.607 306.836 316.26 308.072 314.757 310.776C313.162 313.649 313.805 316.881 316.855 318.576ZM299.834 308.899L300.851 309.463L305.17 301.69L305.818 308.906L312.287 305.644L307.968 313.417L308.985 313.982L314.336 304.35L313.15 303.691L306.681 306.952L306.033 299.737L304.847 299.078L299.496 308.71L299.834 308.899ZM292.147 299.984L297.073 296.307L296.553 302.432L292.147 299.984ZM287.464 302.027L288.651 302.686L291.245 300.81L296.498 303.728L296.276 306.922L297.462 307.581L298.501 295.332L297.485 294.767L287.464 302.027ZM281.948 299.183C283.643 300.125 285.204 300.108 286.784 299.659L286.482 298.606C285.165 298.98 283.867 298.922 282.681 298.263C280.478 297.04 279.892 294.503 281.206 292.137C282.427 289.94 284.984 288.928 287.187 290.152C288.543 290.905 289.108 291.883 289.486 293.198L290.633 292.73C290.086 291.32 289.445 290.079 287.75 289.138C284.87 287.538 281.616 288.605 280.02 291.478C278.254 294.256 279.237 297.677 281.948 299.183ZM273.654 302.537L455.815 403.734C461.915 407.123 469.552 404.953 472.931 398.869C476.311 392.785 474.12 385.155 468.019 381.766L285.859 280.568C279.759 277.179 272.122 279.35 268.742 285.434C265.363 291.517 267.554 299.148 273.654 302.537Z" fill="white"/>
<path d="M375.801 263.968C374.56 264.605 372.792 265.393 371.796 266.387C371.251 266.969 371.215 267.833 372.062 268.304C373.248 268.963 375.055 269.303 376.335 269.793C388.588 273.283 395.183 281.37 405.971 286.699C417.944 292.688 432.563 291.521 441.846 281.198C446.224 276.111 448.85 269.388 448.635 262.191C448.614 260.632 448.5 259.241 448.216 257.757C446.871 250.597 443.139 244.543 437.677 240.403C426.924 232.218 412.381 233.648 401.91 241.32C392.153 248.505 387.328 257.988 375.801 263.968ZM372.992 258.648C383.635 253.061 389.004 242.996 398.837 236.075C411.357 227.108 428.666 225.888 441.266 235.541C447.819 240.508 452.362 247.898 453.991 256.542C454.426 258.553 454.54 259.944 454.543 261.935C454.609 270.597 451.571 278.86 446.197 284.942C435.26 297.442 417.406 299.244 402.891 291.844C392.705 286.628 385.245 278.503 374.366 275.334C370.507 274.296 365.463 272.599 365.062 267.732C364.679 262.433 369.005 260.635 372.992 258.648Z" fill="#62C2F4"/>
<path d="M522.532 530.906C521.797 532.228 520.23 532.741 519.005 532.061C517.78 531.381 517.388 529.778 518.122 528.456L520.473 524.225C521.207 522.903 522.775 522.389 524 523.07C525.225 523.75 525.617 525.353 524.882 526.675L522.532 530.906ZM525.91 519.632C523.705 518.407 519.884 518.361 517.974 521.799L515.036 527.088C513.126 530.525 515.184 533.745 517.389 534.97C519.594 536.195 523.415 536.241 525.325 532.803L528.263 527.515C530.417 524.213 528.359 520.993 525.91 519.632ZM508.568 523.149C507.834 524.471 506.266 524.984 505.042 524.304C503.817 523.623 503.424 522.021 504.159 520.699L506.51 516.468C507.244 515.146 508.812 514.632 510.036 515.313C511.261 515.993 511.654 517.595 510.919 518.918L508.568 523.149ZM511.946 511.875C509.741 510.65 505.92 510.604 504.011 514.041L501.072 519.33C499.163 522.768 501.221 525.988 503.426 527.213C505.63 528.438 509.451 528.484 511.361 525.046L514.299 519.757C516.454 516.456 514.396 513.236 511.946 511.875ZM494.605 515.391C493.871 516.714 492.303 517.227 491.078 516.547C489.853 515.866 489.461 514.264 490.196 512.942L492.546 508.711C493.281 507.389 494.848 506.875 496.073 507.556C497.298 508.236 497.69 509.838 496.956 511.16L494.605 515.391ZM497.983 504.118C495.778 502.893 491.957 502.847 490.047 506.284L487.109 511.573C485.199 515.011 487.257 518.231 489.462 519.456C491.667 520.68 495.488 520.727 497.398 517.289L500.336 512C502.491 508.698 500.433 505.479 497.983 504.118ZM480.642 507.634C479.907 508.956 478.34 509.47 477.115 508.789C475.89 508.109 475.498 506.507 476.232 505.185L478.583 500.954C479.317 499.631 480.885 499.118 482.11 499.798C483.335 500.479 483.727 502.081 482.992 503.403L480.642 507.634ZM484.02 496.361C481.815 495.136 477.994 495.089 476.084 498.527L473.146 503.816C471.236 507.254 473.294 510.474 475.499 511.698C477.704 512.923 481.525 512.97 483.435 509.532L486.373 504.243C488.527 500.941 486.469 497.722 484.02 496.361ZM461.044 496.747C460.31 498.069 458.742 498.583 457.517 497.902C456.292 497.222 455.9 495.62 456.635 494.297L458.985 490.066C459.72 488.744 461.287 488.231 462.512 488.911C463.737 489.592 464.129 491.194 463.395 492.516L461.044 496.747ZM464.422 485.473C462.217 484.249 458.396 484.202 456.486 487.64L453.548 492.929C451.638 496.366 453.696 499.586 455.901 500.811C458.106 502.036 461.927 502.082 463.837 498.645L466.775 493.356C468.93 490.054 466.872 486.834 464.422 485.473ZM447.081 488.99C446.346 490.312 444.779 490.825 443.554 490.145C442.329 489.465 441.937 487.862 442.671 486.54L445.022 482.309C445.756 480.987 447.324 480.473 448.549 481.154C449.774 481.834 450.166 483.436 449.431 484.759L447.081 488.99ZM450.459 477.716C448.254 476.491 444.433 476.445 442.523 479.883L439.585 485.172C437.675 488.609 439.733 491.829 441.938 493.054C444.143 494.279 447.964 494.325 449.874 490.887L452.812 485.598C454.966 482.297 452.908 479.077 450.459 477.716ZM433.117 481.233C432.383 482.555 430.815 483.068 429.591 482.388C428.366 481.707 427.973 480.105 428.708 478.783L431.059 474.552C431.793 473.23 433.361 472.716 434.585 473.397C435.81 474.077 436.203 475.679 435.468 477.002L433.117 481.233ZM436.495 469.959C434.291 468.734 430.469 468.688 428.56 472.125L425.621 477.414C423.712 480.852 425.77 484.072 427.975 485.297C430.179 486.521 434 486.568 435.91 483.13L438.848 477.841C441.003 474.54 438.945 471.32 436.495 469.959ZM419.154 473.475C418.42 474.798 416.852 475.311 415.627 474.631C414.402 473.95 414.01 472.348 414.745 471.026L417.095 466.795C417.83 465.472 419.397 464.959 420.622 465.639C421.847 466.32 422.239 467.922 421.505 469.244L419.154 473.475ZM422.532 462.202C420.327 460.977 416.506 460.93 414.596 464.368L411.658 469.657C409.748 473.095 411.806 476.315 414.011 477.539C416.216 478.764 420.037 478.811 421.947 475.373L424.885 470.084C427.04 466.782 424.982 463.563 422.532 462.202ZM399.556 462.588C398.822 463.91 397.254 464.424 396.03 463.743C394.805 463.063 394.412 461.461 395.147 460.138L397.498 455.907C398.232 454.585 399.8 454.072 401.024 454.752C402.249 455.433 402.642 457.035 401.907 458.357L399.556 462.588ZM402.934 451.314C400.73 450.09 396.908 450.043 394.999 453.481L392.06 458.77C390.151 462.208 392.209 465.427 394.414 466.652C396.618 467.877 400.439 467.923 402.349 464.486L405.287 459.197C407.442 455.895 405.384 452.675 402.934 451.314ZM385.593 454.831C384.859 456.153 383.291 456.667 382.066 455.986C380.841 455.306 380.449 453.703 381.184 452.381L383.534 448.15C384.269 446.828 385.836 446.315 387.061 446.995C388.286 447.675 388.678 449.278 387.944 450.6L385.593 454.831ZM388.971 443.557C386.766 442.332 382.945 442.286 381.035 445.724L378.097 451.013C376.187 454.45 378.245 457.67 380.45 458.895C382.655 460.12 386.476 460.166 388.386 456.728L391.324 451.44C393.479 448.138 391.421 444.918 388.971 443.557Z" fill="white"/>
<path d="M522.532 530.906C521.797 532.228 520.23 532.741 519.005 532.061C517.78 531.381 517.388 529.778 518.122 528.456L520.473 524.225C521.207 522.903 522.775 522.389 524 523.07C525.225 523.75 525.617 525.353 524.882 526.675L522.532 530.906ZM525.91 519.632C523.705 518.407 519.884 518.361 517.974 521.799L515.036 527.088C513.126 530.525 515.184 533.745 517.389 534.97C519.594 536.195 523.415 536.241 525.325 532.803L528.263 527.515C530.417 524.213 528.359 520.993 525.91 519.632ZM508.568 523.149C507.834 524.471 506.266 524.984 505.042 524.304C503.817 523.623 503.424 522.021 504.159 520.699L506.51 516.468C507.244 515.146 508.812 514.632 510.036 515.313C511.261 515.993 511.654 517.595 510.919 518.918L508.568 523.149ZM511.946 511.875C509.741 510.65 505.92 510.604 504.011 514.041L501.072 519.33C499.163 522.768 501.221 525.988 503.426 527.213C505.63 528.438 509.451 528.484 511.361 525.046L514.299 519.757C516.454 516.456 514.396 513.236 511.946 511.875ZM494.605 515.391C493.871 516.714 492.303 517.227 491.078 516.547C489.853 515.866 489.461 514.264 490.196 512.942L492.546 508.711C493.281 507.389 494.848 506.875 496.073 507.556C497.298 508.236 497.69 509.838 496.956 511.16L494.605 515.391ZM497.983 504.118C495.778 502.893 491.957 502.847 490.047 506.284L487.109 511.573C485.199 515.011 487.257 518.231 489.462 519.456C491.667 520.68 495.488 520.727 497.398 517.289L500.336 512C502.491 508.698 500.433 505.479 497.983 504.118ZM480.642 507.634C479.907 508.956 478.34 509.47 477.115 508.789C475.89 508.109 475.498 506.507 476.232 505.185L478.583 500.954C479.317 499.631 480.885 499.118 482.11 499.798C483.335 500.479 483.727 502.081 482.992 503.403L480.642 507.634ZM484.02 496.361C481.815 495.136 477.994 495.089 476.084 498.527L473.146 503.816C471.236 507.254 473.294 510.474 475.499 511.698C477.704 512.923 481.525 512.97 483.435 509.532L486.373 504.243C488.527 500.941 486.469 497.722 484.02 496.361ZM461.044 496.747C460.31 498.069 458.742 498.583 457.517 497.902C456.292 497.222 455.9 495.62 456.635 494.297L458.985 490.066C459.72 488.744 461.287 488.231 462.512 488.911C463.737 489.592 464.129 491.194 463.395 492.516L461.044 496.747ZM464.422 485.473C462.217 484.249 458.396 484.202 456.486 487.64L453.548 492.929C451.638 496.366 453.696 499.586 455.901 500.811C458.106 502.036 461.927 502.082 463.837 498.645L466.775 493.356C468.93 490.054 466.872 486.834 464.422 485.473ZM447.081 488.99C446.346 490.312 444.779 490.825 443.554 490.145C442.329 489.465 441.937 487.862 442.671 486.54L445.022 482.309C445.756 480.987 447.324 480.473 448.549 481.154C449.774 481.834 450.166 483.436 449.431 484.759L447.081 488.99ZM450.459 477.716C448.254 476.491 444.433 476.445 442.523 479.883L439.585 485.172C437.675 488.609 439.733 491.829 441.938 493.054C444.143 494.279 447.964 494.325 449.874 490.887L452.812 485.598C454.966 482.297 452.908 479.077 450.459 477.716ZM433.117 481.233C432.383 482.555 430.815 483.068 429.591 482.388C428.366 481.707 427.973 480.105 428.708 478.783L431.059 474.552C431.793 473.23 433.361 472.716 434.585 473.397C435.81 474.077 436.203 475.679 435.468 477.002L433.117 481.233ZM436.495 469.959C434.291 468.734 430.469 468.688 428.56 472.125L425.621 477.414C423.712 480.852 425.77 484.072 427.975 485.297C430.179 486.521 434 486.568 435.91 483.13L438.848 477.841C441.003 474.54 438.945 471.32 436.495 469.959ZM419.154 473.475C418.42 474.798 416.852 475.311 415.627 474.631C414.402 473.95 414.01 472.348 414.745 471.026L417.095 466.795C417.83 465.472 419.397 464.959 420.622 465.639C421.847 466.32 422.239 467.922 421.505 469.244L419.154 473.475ZM422.532 462.202C420.327 460.977 416.506 460.93 414.596 464.368L411.658 469.657C409.748 473.095 411.806 476.315 414.011 477.539C416.216 478.764 420.037 478.811 421.947 475.373L424.885 470.084C427.04 466.782 424.982 463.563 422.532 462.202ZM399.556 462.588C398.822 463.91 397.254 464.424 396.03 463.743C394.805 463.063 394.412 461.461 395.147 460.138L397.498 455.907C398.232 454.585 399.8 454.072 401.024 454.752C402.249 455.433 402.642 457.035 401.907 458.357L399.556 462.588ZM402.934 451.314C400.73 450.09 396.908 450.043 394.999 453.481L392.06 458.77C390.151 462.208 392.209 465.427 394.414 466.652C396.618 467.877 400.439 467.923 402.349 464.486L405.287 459.197C407.442 455.895 405.384 452.675 402.934 451.314ZM385.593 454.831C384.859 456.153 383.291 456.667 382.066 455.986C380.841 455.306 380.449 453.703 381.184 452.381L383.534 448.15C384.269 446.828 385.836 446.315 387.061 446.995C388.286 447.675 388.678 449.278 387.944 450.6L385.593 454.831ZM388.971 443.557C386.766 442.332 382.945 442.286 381.035 445.724L378.097 451.013C376.187 454.45 378.245 457.67 380.45 458.895C382.655 460.12 386.476 460.166 388.386 456.728L391.324 451.44C393.479 448.138 391.421 444.918 388.971 443.557Z" fill="url(#paint0_linear_2_1715)"/>
</g>
<defs>
<filter id="filter0_d_2_1715" x="0.0117188" y="0.242737" width="772.592" height="697.467" filterUnits="userSpaceOnUse" color-interpolation-filters="sRGB">
<feFlood flood-opacity="0" result="BackgroundImageFix"/>
<feColorMatrix in="SourceAlpha" type="matrix" values="0 0 0 0 0 0 0 0 0 0 0 0 0 0 0 0 0 0 127 0" result="hardAlpha"/>
<feOffset dy="40"/>
<feGaussianBlur stdDeviation="50"/>
<feComposite in2="hardAlpha" operator="out"/>
<feColorMatrix type="matrix" values="0 0 0 0 0 0 0 0 0 0 0 0 0 0 0 0 0 0 0.4 0"/>
<feBlend mode="normal" in2="BackgroundImageFix" result="effect1_dropShadow_2_1715"/>
<feBlend mode="normal" in="SourceGraphic" in2="effect1_dropShadow_2_1715" result="shape"/>
</filter>
<linearGradient id="paint0_linear_2_1715" x1="457.447" y1="481.599" x2="448.927" y2="496.936" gradientUnits="userSpaceOnUse">
<stop offset="0.130208" stop-color="#C4C4C4"/>
<stop offset="0.354167" stop-color="white"/>
<stop offset="0.494792" stop-color="#868686"/>
<stop offset="0.651042" stop-color="#CECECE" stop-opacity="0.402062"/>
<stop offset="0.833333" stop-color="white" stop-opacity="0"/>
<stop offset="0.942708" stop-color="#9B9B9B" stop-opacity="0.829161"/>
</linearGradient>
</defs>
</svg>
