<svg width="35" height="11" viewBox="0 0 35 11" fill="none" xmlns="http://www.w3.org/2000/svg">
<g clip-path="url(#clip0_2_1959)">
<path d="M13.3388 0.222222L8.7785 10.8889H5.70033L3.4202 2.33333C3.30619 1.77778 3.19218 1.66667 2.73616 1.44444C2.16612 1 1.02606 0.666667 0 0.555556L0.114007 0.222222H4.90228C5.47231 0.222222 6.04235 0.666667 6.15635 1.33333L7.29642 7.44444L10.2606 0.222222H13.3388ZM24.9674 7.33333C24.9674 4.55556 20.9772 4.33333 20.9772 3.11111C20.9772 2.77778 21.3192 2.33333 22.2313 2.22222C22.6873 2.22222 23.7134 2.11111 24.9674 2.66667L25.4235 0.444444C24.8534 0.222222 23.9414 0 22.9153 0C20.0651 0 18.127 1.44444 18.127 3.55556C18.127 5.11111 19.4951 6 20.6352 6.44445C21.7752 7 22.1173 7.33333 22.1173 7.77778C22.1173 8.44444 21.2052 8.77778 20.4072 8.77778C19.0391 8.77778 18.127 8.44444 17.557 8.11111L17.101 10.4444C17.785 10.7778 18.9251 11 20.2932 11C23.0293 11 24.9674 9.55556 24.9674 7.33333ZM32.3778 10.8889H35L32.7199 0.222222H30.3257C29.7557 0.222222 29.2997 0.555556 29.0717 1L24.8534 10.8889H27.8176L28.3876 9.33333H32.0358L32.3778 10.8889ZM29.1857 7.11111L30.6677 3.11111L31.5798 7.11111H29.1857ZM17.329 0.222222L14.9349 10.8889H12.0847L14.4788 0.222222H17.329Z" fill="white"/>
</g>
<defs>
<clipPath id="clip0_2_1959">
<rect width="35" height="11" fill="white"/>
</clipPath>
</defs>
</svg>
