<svg width="688" height="684" viewBox="0 0 688 684" fill="none" xmlns="http://www.w3.org/2000/svg">
<rect width="348" height="356.237" rx="21" fill="#838A8F"/>
<g clip-path="url(#clip0_0_1)">
<path fill-rule="evenodd" clip-rule="evenodd" d="M215.991 281.003C213.072 279.556 210.153 275.216 208.694 272.322C208.694 269.429 208.694 267.982 211.612 262.195C226.207 234.705 232.045 210.109 232.045 179.726C232.045 150.79 226.207 127.641 213.072 100.152C211.612 92.9179 208.694 88.5775 208.694 87.1307C208.694 84.2371 211.612 79.8966 214.531 78.4498C217.45 75.5562 223.288 77.003 226.207 79.8966C227.666 81.3434 230.585 85.6839 232.045 90.0243C242.261 108.833 248.099 129.088 251.018 150.79C252.477 163.812 253.937 189.854 252.477 201.429C249.558 224.577 243.721 243.386 233.504 263.641C227.666 275.216 224.748 281.003 220.369 281.003C220.369 281.003 218.91 281.003 217.45 281.003C218.91 281.003 217.45 281.003 215.991 281.003ZM176.585 260.748C172.207 259.301 167.829 253.514 169.288 249.173C169.288 247.726 172.207 243.386 175.126 237.599C185.342 215.897 191.18 192.748 188.261 169.599C186.802 149.343 182.423 137.769 173.666 118.96C167.829 107.386 167.829 105.939 172.207 101.599C175.126 97.2583 183.883 95.8115 188.261 100.152C191.18 103.046 199.937 121.854 204.315 131.982C215.991 166.705 214.531 204.322 199.937 239.046C189.721 256.407 183.883 262.195 176.585 260.748ZM135.721 239.046C132.802 237.599 129.883 234.705 129.883 230.365C129.883 228.918 129.883 226.024 134.261 218.79C147.396 191.301 147.396 165.258 134.261 137.769C128.423 127.641 128.423 124.748 132.802 120.407C135.721 117.514 137.18 117.514 140.099 117.514C145.937 117.514 148.856 120.407 154.694 130.535C161.991 147.897 164.91 160.918 164.91 179.726C164.91 198.535 161.991 210.109 153.234 227.471C148.856 237.599 145.937 240.492 141.558 240.492C140.099 240.492 137.18 240.492 135.721 239.046ZM97.7746 220.237C96.3151 218.79 93.3962 215.897 91.9368 213.003C91.9368 210.109 91.9368 207.216 96.3151 201.429C100.694 192.748 102.153 188.407 102.153 178.28C102.153 168.152 100.694 163.812 96.3151 156.577C94.8557 153.684 91.9368 150.79 91.9368 149.343C90.4773 143.556 94.8557 137.769 100.694 136.322C105.072 134.875 109.45 137.769 113.829 145.003C126.964 165.258 126.964 192.748 113.829 213.003C109.45 220.237 103.612 221.684 97.7746 220.237Z" fill="white"/>
</g>
<g filter="url(#filter0_d_0_1)">
<rect x="224.986" y="115" width="428.76" height="265.604" rx="34" transform="rotate(29.0539 224.986 115)" fill="#020202"/>
<path d="M292.883 313.943C289.023 311.798 288.049 307.152 290.108 303.444C292.247 299.594 296.627 298.109 300.488 300.254C304.349 302.398 305.322 307.045 303.263 310.752C300.981 314.523 296.601 316.008 292.883 313.943ZM290.997 317C297.003 320.337 303.684 318.077 306.694 312.658C309.705 307.24 308.093 300.373 302.231 297.116C296.225 293.78 289.544 296.04 286.534 301.458C283.444 307.02 285.135 313.744 290.997 317ZM305.454 324.658L308.6 326.406L326.165 317.691L318.323 331.808L321.611 333.634L332.306 314.384L329.16 312.637L311.595 321.352L319.437 307.235L316.149 305.408L305.454 324.658ZM337.197 342.293L340.628 344.199L343.718 338.638L348.463 337.169L350.208 349.521L354.355 351.825L352.019 336.158L364.62 332.336L360.474 330.033L345.936 334.645L351.323 324.949L347.891 323.042L337.197 342.293ZM367.212 348.891L374.778 343.018L373.789 352.545L367.212 348.891ZM356.214 352.857L359.645 354.764L364.261 351.17L373.412 356.254L372.8 362.072L376.375 364.058L378.712 339.978L375.566 338.231L356.214 352.857ZM379.52 365.805L383.238 367.87L385.297 364.163L381.58 362.098L379.52 365.805ZM383.927 360.23L385.786 361.262L393.6 349.555L394.154 348.557L390.294 346.412L389.739 347.41L383.927 360.23ZM336.051 326.168C337.481 326.962 337.991 328.739 337.198 330.164C336.406 331.59 334.629 332.096 333.199 331.301C331.769 330.507 331.259 328.731 332.051 327.305C332.843 325.879 334.621 325.374 336.051 326.168ZM257.983 298.286L261.415 300.193L269.099 286.361L270.114 298.681L270.257 298.76L281.475 293.05L273.791 306.882L277.223 308.788L287.838 289.68L284.263 287.694L273.331 293.564L272.538 281.181L268.964 279.195L258.269 298.445L257.983 298.286Z" fill="white"/>
<path d="M422.691 390.159C427.409 392.78 431.823 392.246 434.041 388.253C436.1 384.546 434.176 381.611 430.219 378.293C427.819 376.213 427.484 375.467 427.96 374.612C428.356 373.899 429.245 373.646 430.674 374.441C432.39 375.394 433.853 377.139 435.078 379.313L439.854 377.115C438.66 374.212 436.562 371.927 433.273 370.1C428.698 367.558 424.412 368.536 422.432 372.101C420.214 376.093 422.725 378.982 426.317 382.283C428.574 384.284 429.052 385.108 428.576 385.964C428.101 386.82 427.069 386.993 425.639 386.198C423.352 384.928 421.682 382.88 420.616 380.422L415.632 382.319C416.525 385.427 419.259 388.252 422.691 390.159ZM401.013 371.585L406.479 361.746L408.624 362.937C411.77 364.685 412.885 367.73 411.142 370.867C409.399 374.004 406.224 374.666 403.079 372.919L400.934 371.727L401.013 371.585ZM393.109 373.351L400.401 377.402C407.407 381.295 413.708 379.383 416.797 373.822C419.887 368.261 418.101 362.044 411.238 358.231L403.803 354.101L393.109 373.351Z" fill="#62C2F4"/>
<path fill-rule="evenodd" clip-rule="evenodd" d="M407.189 403.57C405.902 402.855 405.44 401.665 405.995 400.667C406.549 399.669 407.803 399.432 409.09 400.147L411.664 401.577L409.763 404.999L407.189 403.57ZM401.761 405.593L402.905 406.228L407.079 404.441L409.367 405.712L407.624 408.85L408.482 409.326L412.997 401.198L409.566 399.292C408.565 398.736 407.548 398.544 406.659 398.797C405.993 398.986 405.533 399.477 405.216 400.048C404.424 401.474 404.886 402.663 406.157 403.743L401.761 405.593ZM392.896 400.668L393.754 401.144L402.339 397.143L398.616 403.845L399.474 404.322L403.989 396.194L403.131 395.717L394.547 399.719L398.27 393.017L397.412 392.54L392.896 400.668ZM383.602 395.505L384.46 395.981L386.52 392.274L391.238 394.895L389.179 398.603L390.037 399.079L394.552 390.951L393.694 390.475L391.714 394.04L386.995 391.418L388.976 387.853L388.118 387.377L383.602 395.505ZM377.259 388.062L381.415 384.959L380.976 390.127L377.259 388.062ZM373.308 389.785L374.308 390.341L376.498 388.759L380.93 391.221L380.743 393.916L381.744 394.472L382.621 384.136L381.62 383.58L373.308 389.785ZM368.471 381.314L370.055 378.462L372.486 379.812C373.63 380.448 374.028 381.415 373.632 382.128C373.077 383.127 372.125 383.157 370.981 382.522L368.55 381.171L368.471 381.314ZM366.411 385.021L367.996 382.169L370.569 383.599C371.999 384.394 372.397 385.361 371.922 386.217C371.368 387.215 370.415 387.245 369.128 386.531L366.411 385.021ZM365.014 385.178L368.589 387.164C370.448 388.197 372.067 387.977 372.859 386.551C373.493 385.41 373.095 384.442 372.252 383.601C372.983 383.634 374.015 383.461 374.569 382.462C374.886 381.892 374.981 381.385 374.71 380.861C374.519 380.195 373.962 379.513 372.961 378.957L369.53 377.05L365.014 385.178ZM355.577 379.936L356.435 380.412L365.02 376.411L361.297 383.113L362.155 383.59L366.67 375.462L365.812 374.985L357.228 378.986L360.951 372.284L360.093 371.808L355.577 379.936ZM341.565 372.151L342.709 372.787L347.787 370.383L348.409 372.968L347.221 375.106L348.078 375.583L349.267 373.444L351.79 372.607L352.432 378.188L353.576 378.824L352.758 372.212L357.884 370.394L356.74 369.759L349.758 372.224L352.451 367.376L351.593 366.899L348.9 371.747L347.303 364.516L346.16 363.881L347.325 369.193L341.565 372.151ZM334.622 368.481C335.623 369.037 336.798 368.943 338.083 367.978L344.936 363.388L343.936 362.832L338.431 366.678L338.359 359.734L337.215 359.098L337.304 367.358C336.4 367.976 335.448 368.006 335.019 367.768C334.59 367.53 334.304 367.371 334.176 366.927L333.351 367.401C333.701 367.782 334.051 368.163 334.622 368.481ZM323.756 362.444C325.043 363.159 326.662 362.939 329.83 357.235L330.306 356.379L333.737 358.286L329.697 365.558L330.555 366.035L335.071 357.907L329.78 354.968L328.988 356.394C325.898 361.955 324.66 361.827 323.945 361.43C323.659 361.271 323.373 361.112 323.309 360.89L322.77 361.523C323.12 361.904 323.47 362.285 323.756 362.444ZM318.608 359.584C320.038 360.379 321.356 360.364 322.689 359.985L322.434 359.097C321.323 359.413 320.227 359.364 319.227 358.808C317.368 357.776 316.873 355.635 317.982 353.638C319.012 351.785 321.17 350.931 323.029 351.964C324.173 352.599 324.65 353.424 324.969 354.534L325.937 354.139C325.475 352.949 324.934 351.902 323.504 351.108C321.074 349.758 318.328 350.658 316.981 353.082C315.634 355.506 316.32 358.313 318.608 359.584ZM307.724 352.232L309.467 349.094L311.898 350.445C313.184 351.16 313.805 352.064 313.171 353.205C312.537 354.346 311.362 354.439 310.076 353.724L307.645 352.374L307.724 352.232ZM306.248 352.531L309.679 354.437C311.538 355.47 313.157 355.25 314.029 353.681C314.979 351.97 313.946 350.463 312.23 349.51L309.799 348.159L311.225 345.593L316.229 348.373L316.705 347.517L310.842 344.261L306.248 352.531ZM300.067 348.164C298.208 347.131 297.649 344.769 298.679 342.915C299.709 341.061 301.867 340.207 303.726 341.24C305.585 342.273 306.143 344.636 305.113 346.489C304.147 348.565 301.925 349.197 300.067 348.164ZM299.591 349.02C302.022 350.37 304.847 349.327 306.114 347.045C307.382 344.764 306.775 341.814 304.344 340.464C301.914 339.114 299.089 340.157 297.821 342.438C296.475 344.862 297.161 347.669 299.591 349.02ZM289.772 342.445C287.913 341.412 287.354 339.049 288.384 337.196C289.414 335.342 291.572 334.488 293.431 335.521C295.29 336.554 295.848 338.916 294.819 340.77C293.71 342.766 291.631 343.478 289.772 342.445ZM289.296 343.3C291.727 344.651 294.552 343.608 295.819 341.326C297.087 339.045 296.48 336.095 294.049 334.745C291.619 333.394 288.794 334.438 287.526 336.719C286.18 339.143 286.723 341.871 289.296 343.3ZM274.934 335.135L275.792 335.612L279.436 329.052L279.983 335.141L285.441 332.389L281.797 338.948L282.655 339.424L287.171 331.297L286.17 330.741L280.711 333.493L280.164 327.404L279.164 326.848L274.648 334.976L274.934 335.135ZM268.448 327.613L272.604 324.51L272.165 329.678L268.448 327.613ZM264.496 329.336L265.497 329.892L267.686 328.31L272.119 330.772L271.932 333.467L272.932 334.023L273.809 323.687L272.952 323.211L264.496 329.336ZM259.842 326.937C261.271 327.731 262.589 327.717 263.922 327.338L263.667 326.45C262.556 326.766 261.461 326.717 260.46 326.161C258.601 325.128 258.106 322.987 259.215 320.991C260.245 319.137 262.404 318.284 264.262 319.316C265.406 319.952 265.883 320.777 266.202 321.887L267.17 321.492C266.708 320.302 266.167 319.255 264.738 318.461C262.307 317.11 259.561 318.011 258.215 320.435C256.725 322.78 257.554 325.666 259.842 326.937ZM252.843 329.767L406.552 415.158C411.699 418.018 418.143 416.186 420.995 411.053C423.847 405.919 421.997 399.48 416.85 396.621L263.141 311.23C257.994 308.37 251.55 310.202 248.698 315.335C245.847 320.469 247.696 326.907 252.843 329.767Z" fill="white"/>
<path d="M339.036 297.222C337.989 297.76 336.497 298.424 335.657 299.264C335.197 299.755 335.166 300.484 335.881 300.881C336.882 301.437 338.406 301.724 339.486 302.138C349.826 305.082 355.391 311.906 364.493 316.403C374.597 321.456 386.932 320.472 394.765 311.761C398.459 307.469 400.675 301.796 400.494 295.723C400.476 294.407 400.38 293.234 400.14 291.981C399.006 285.94 395.856 280.831 391.248 277.338C382.174 270.431 369.902 271.638 361.067 278.112C352.834 284.174 348.763 292.176 339.036 297.222ZM336.665 292.733C345.646 288.019 350.177 279.526 358.474 273.686C369.039 266.12 383.644 265.09 394.275 273.235C399.805 277.427 403.639 283.662 405.013 290.956C405.38 292.653 405.477 293.826 405.479 295.507C405.535 302.816 402.971 309.789 398.436 314.92C389.208 325.468 374.143 326.989 361.895 320.744C353.3 316.343 347.005 309.487 337.825 306.813C334.569 305.937 330.312 304.505 329.974 300.399C329.651 295.927 333.301 294.41 336.665 292.733Z" fill="#62C2F4"/>
<path d="M462.848 522.466C462.228 523.582 460.905 524.015 459.872 523.441C458.838 522.867 458.507 521.515 459.127 520.399L461.11 516.829C461.73 515.713 463.053 515.28 464.086 515.854C465.12 516.428 465.451 517.78 464.831 518.896L462.848 522.466ZM465.698 512.954C463.837 511.92 460.613 511.881 459.002 514.782L456.522 519.244C454.911 522.145 456.648 524.862 458.508 525.896C460.368 526.929 463.593 526.968 465.204 524.067L467.683 519.605C469.502 516.819 467.765 514.102 465.698 512.954ZM451.065 515.921C450.445 517.036 449.123 517.47 448.089 516.895C447.056 516.321 446.725 514.969 447.345 513.854L449.328 510.283C449.948 509.168 451.27 508.735 452.304 509.309C453.338 509.883 453.669 511.235 453.049 512.351L451.065 515.921ZM453.916 506.408C452.055 505.374 448.831 505.335 447.219 508.236L444.74 512.699C443.129 515.6 444.865 518.316 446.726 519.35C448.586 520.384 451.81 520.423 453.422 517.522L455.901 513.059C457.719 510.273 455.983 507.556 453.916 506.408ZM439.283 509.375C438.663 510.491 437.34 510.924 436.307 510.35C435.273 509.776 434.942 508.424 435.562 507.308L437.546 503.738C438.165 502.622 439.488 502.189 440.522 502.763C441.555 503.337 441.886 504.689 441.266 505.805L439.283 509.375ZM442.133 499.862C440.273 498.829 437.048 498.79 435.437 501.69L432.958 506.153C431.346 509.054 433.083 511.771 434.943 512.804C436.804 513.838 440.028 513.877 441.639 510.976L444.119 506.514C445.937 503.728 444.2 501.011 442.133 499.862ZM427.501 502.83C426.881 503.945 425.558 504.379 424.525 503.804C423.491 503.23 423.16 501.878 423.78 500.763L425.763 497.192C426.383 496.077 427.706 495.643 428.739 496.218C429.773 496.792 430.104 498.144 429.484 499.259L427.501 502.83ZM430.351 493.317C428.49 492.283 425.266 492.244 423.655 495.145L421.175 499.608C419.564 502.508 421.301 505.225 423.161 506.259C425.021 507.292 428.246 507.332 429.857 504.431L432.336 499.968C434.155 497.182 432.418 494.465 430.351 493.317ZM410.964 493.643C410.344 494.758 409.021 495.192 407.988 494.618C406.954 494.043 406.623 492.691 407.243 491.576L409.227 488.006C409.846 486.89 411.169 486.457 412.203 487.031C413.236 487.605 413.567 488.957 412.947 490.073L410.964 493.643ZM413.814 484.13C411.954 483.096 408.729 483.057 407.118 485.958L404.639 490.421C403.027 493.322 404.764 496.039 406.624 497.072C408.485 498.106 411.709 498.145 413.32 495.244L415.8 490.781C417.618 487.995 415.881 485.278 413.814 484.13ZM399.182 487.097C398.562 488.213 397.239 488.646 396.205 488.072C395.172 487.498 394.841 486.146 395.461 485.03L397.444 481.46C398.064 480.344 399.387 479.911 400.42 480.485C401.454 481.059 401.785 482.411 401.165 483.527L399.182 487.097ZM402.032 477.584C400.171 476.551 396.947 476.512 395.336 479.413L392.856 483.875C391.245 486.776 392.982 489.493 394.842 490.526C396.702 491.56 399.927 491.599 401.538 488.698L404.017 484.236C405.836 481.45 404.099 478.733 402.032 477.584ZM387.399 480.552C386.779 481.667 385.457 482.101 384.423 481.526C383.39 480.952 383.059 479.6 383.678 478.485L385.662 474.914C386.282 473.799 387.604 473.365 388.638 473.94C389.671 474.514 390.002 475.866 389.383 476.981L387.399 480.552ZM390.249 471.039C388.389 470.005 385.165 469.966 383.553 472.867L381.074 477.33C379.462 480.231 381.199 482.947 383.06 483.981C384.92 485.014 388.144 485.054 389.756 482.153L392.235 477.69C394.053 474.904 392.316 472.187 390.249 471.039ZM375.617 474.006C374.997 475.122 373.674 475.555 372.641 474.981C371.607 474.407 371.276 473.055 371.896 471.939L373.879 468.369C374.499 467.253 375.822 466.82 376.856 467.394C377.889 467.968 378.22 469.32 377.6 470.436L375.617 474.006ZM378.467 464.493C376.607 463.46 373.382 463.421 371.771 466.321L369.292 470.784C367.68 473.685 369.417 476.402 371.277 477.435C373.138 478.469 376.362 478.508 377.973 475.607L380.453 471.144C382.271 468.358 380.534 465.642 378.467 464.493ZM359.08 464.819C358.46 465.935 357.138 466.368 356.104 465.794C355.071 465.22 354.74 463.868 355.359 462.752L357.343 459.182C357.963 458.066 359.285 457.633 360.319 458.207C361.352 458.781 361.683 460.133 361.064 461.249L359.08 464.819ZM361.93 455.306C360.07 454.273 356.846 454.234 355.234 457.135L352.755 461.597C351.143 464.498 352.88 467.215 354.741 468.249C356.601 469.282 359.825 469.321 361.437 466.42L363.916 461.958C365.734 459.172 363.997 456.455 361.93 455.306ZM347.298 458.274C346.678 459.389 345.355 459.823 344.322 459.248C343.288 458.674 342.957 457.322 343.577 456.207L345.56 452.636C346.18 451.521 347.503 451.088 348.537 451.662C349.57 452.236 349.901 453.588 349.281 454.703L347.298 458.274ZM350.148 448.761C348.288 447.727 345.063 447.688 343.452 450.589L340.973 455.052C339.361 457.953 341.098 460.669 342.958 461.703C344.819 462.736 348.043 462.776 349.654 459.875L352.134 455.412C353.952 452.626 352.215 449.909 350.148 448.761Z" fill="white"/>
<path d="M462.848 522.466C462.228 523.582 460.905 524.015 459.872 523.441C458.838 522.867 458.507 521.515 459.127 520.399L461.11 516.829C461.73 515.713 463.053 515.28 464.086 515.854C465.12 516.428 465.451 517.78 464.831 518.896L462.848 522.466ZM465.698 512.954C463.837 511.92 460.613 511.881 459.002 514.782L456.522 519.244C454.911 522.145 456.648 524.862 458.508 525.896C460.368 526.929 463.593 526.968 465.204 524.067L467.683 519.605C469.502 516.819 467.765 514.102 465.698 512.954ZM451.065 515.921C450.445 517.036 449.123 517.47 448.089 516.895C447.056 516.321 446.725 514.969 447.345 513.854L449.328 510.283C449.948 509.168 451.27 508.735 452.304 509.309C453.338 509.883 453.669 511.235 453.049 512.351L451.065 515.921ZM453.916 506.408C452.055 505.374 448.831 505.335 447.219 508.236L444.74 512.699C443.129 515.6 444.865 518.316 446.726 519.35C448.586 520.384 451.81 520.423 453.422 517.522L455.901 513.059C457.719 510.273 455.983 507.556 453.916 506.408ZM439.283 509.375C438.663 510.491 437.34 510.924 436.307 510.35C435.273 509.776 434.942 508.424 435.562 507.308L437.546 503.738C438.165 502.622 439.488 502.189 440.522 502.763C441.555 503.337 441.886 504.689 441.266 505.805L439.283 509.375ZM442.133 499.862C440.273 498.829 437.048 498.79 435.437 501.69L432.958 506.153C431.346 509.054 433.083 511.771 434.943 512.804C436.804 513.838 440.028 513.877 441.639 510.976L444.119 506.514C445.937 503.728 444.2 501.011 442.133 499.862ZM427.501 502.83C426.881 503.945 425.558 504.379 424.525 503.804C423.491 503.23 423.16 501.878 423.78 500.763L425.763 497.192C426.383 496.077 427.706 495.643 428.739 496.218C429.773 496.792 430.104 498.144 429.484 499.259L427.501 502.83ZM430.351 493.317C428.49 492.283 425.266 492.244 423.655 495.145L421.175 499.608C419.564 502.508 421.301 505.225 423.161 506.259C425.021 507.292 428.246 507.332 429.857 504.431L432.336 499.968C434.155 497.182 432.418 494.465 430.351 493.317ZM410.964 493.643C410.344 494.758 409.021 495.192 407.988 494.618C406.954 494.043 406.623 492.691 407.243 491.576L409.227 488.006C409.846 486.89 411.169 486.457 412.203 487.031C413.236 487.605 413.567 488.957 412.947 490.073L410.964 493.643ZM413.814 484.13C411.954 483.096 408.729 483.057 407.118 485.958L404.639 490.421C403.027 493.322 404.764 496.039 406.624 497.072C408.485 498.106 411.709 498.145 413.32 495.244L415.8 490.781C417.618 487.995 415.881 485.278 413.814 484.13ZM399.182 487.097C398.562 488.213 397.239 488.646 396.205 488.072C395.172 487.498 394.841 486.146 395.461 485.03L397.444 481.46C398.064 480.344 399.387 479.911 400.42 480.485C401.454 481.059 401.785 482.411 401.165 483.527L399.182 487.097ZM402.032 477.584C400.171 476.551 396.947 476.512 395.336 479.413L392.856 483.875C391.245 486.776 392.982 489.493 394.842 490.526C396.702 491.56 399.927 491.599 401.538 488.698L404.017 484.236C405.836 481.45 404.099 478.733 402.032 477.584ZM387.399 480.552C386.779 481.667 385.457 482.101 384.423 481.526C383.39 480.952 383.059 479.6 383.678 478.485L385.662 474.914C386.282 473.799 387.604 473.365 388.638 473.94C389.671 474.514 390.002 475.866 389.383 476.981L387.399 480.552ZM390.249 471.039C388.389 470.005 385.165 469.966 383.553 472.867L381.074 477.33C379.462 480.231 381.199 482.947 383.06 483.981C384.92 485.014 388.144 485.054 389.756 482.153L392.235 477.69C394.053 474.904 392.316 472.187 390.249 471.039ZM375.617 474.006C374.997 475.122 373.674 475.555 372.641 474.981C371.607 474.407 371.276 473.055 371.896 471.939L373.879 468.369C374.499 467.253 375.822 466.82 376.856 467.394C377.889 467.968 378.22 469.32 377.6 470.436L375.617 474.006ZM378.467 464.493C376.607 463.46 373.382 463.421 371.771 466.321L369.292 470.784C367.68 473.685 369.417 476.402 371.277 477.435C373.138 478.469 376.362 478.508 377.973 475.607L380.453 471.144C382.271 468.358 380.534 465.642 378.467 464.493ZM359.08 464.819C358.46 465.935 357.138 466.368 356.104 465.794C355.071 465.22 354.74 463.868 355.359 462.752L357.343 459.182C357.963 458.066 359.285 457.633 360.319 458.207C361.352 458.781 361.683 460.133 361.064 461.249L359.08 464.819ZM361.93 455.306C360.07 454.273 356.846 454.234 355.234 457.135L352.755 461.597C351.143 464.498 352.88 467.215 354.741 468.249C356.601 469.282 359.825 469.321 361.437 466.42L363.916 461.958C365.734 459.172 363.997 456.455 361.93 455.306ZM347.298 458.274C346.678 459.389 345.355 459.823 344.322 459.248C343.288 458.674 342.957 457.322 343.577 456.207L345.56 452.636C346.18 451.521 347.503 451.088 348.537 451.662C349.57 452.236 349.901 453.588 349.281 454.703L347.298 458.274ZM350.148 448.761C348.288 447.727 345.063 447.688 343.452 450.589L340.973 455.052C339.361 457.953 341.098 460.669 342.958 461.703C344.819 462.736 348.043 462.776 349.654 459.875L352.134 455.412C353.952 452.626 352.215 449.909 350.148 448.761Z" fill="url(#paint0_linear_0_1)"/>
</g>
<defs>
<filter id="filter0_d_0_1" x="8.22739" y="67.2268" width="679.338" height="615.947" filterUnits="userSpaceOnUse" color-interpolation-filters="sRGB">
<feFlood flood-opacity="0" result="BackgroundImageFix"/>
<feColorMatrix in="SourceAlpha" type="matrix" values="0 0 0 0 0 0 0 0 0 0 0 0 0 0 0 0 0 0 127 0" result="hardAlpha"/>
<feOffset dy="40"/>
<feGaussianBlur stdDeviation="50"/>
<feComposite in2="hardAlpha" operator="out"/>
<feColorMatrix type="matrix" values="0 0 0 0 0 0 0 0 0 0 0 0 0 0 0 0 0 0 0.4 0"/>
<feBlend mode="normal" in2="BackgroundImageFix" result="effect1_dropShadow_0_1"/>
<feBlend mode="normal" in="SourceGraphic" in2="effect1_dropShadow_0_1" result="shape"/>
</filter>
<linearGradient id="paint0_linear_0_1" x1="407.929" y1="480.861" x2="400.739" y2="493.803" gradientUnits="userSpaceOnUse">
<stop offset="0.130208" stop-color="#C4C4C4"/>
<stop offset="0.354167" stop-color="white"/>
<stop offset="0.494792" stop-color="#868686"/>
<stop offset="0.651042" stop-color="#CECECE" stop-opacity="0.402062"/>
<stop offset="0.833333" stop-color="white" stop-opacity="0"/>
<stop offset="0.942708" stop-color="#9B9B9B" stop-opacity="0.829161"/>
</linearGradient>
<clipPath id="clip0_0_1">
<rect width="162" height="204" fill="white" transform="translate(91.9386 77)"/>
</clipPath>
</defs>
</svg>
