<svg width="412" height="422" viewBox="0 0 412 422" fill="none" xmlns="http://www.w3.org/2000/svg">
<rect width="412" height="421.751" rx="43" fill="#838A8F"/>
<g clip-path="url(#clip0_2_1037)">
<path fill-rule="evenodd" clip-rule="evenodd" d="M254.899 319.004C251.584 317.358 248.268 312.422 246.611 309.131C246.611 305.84 246.611 304.195 249.926 297.614C266.503 266.351 273.133 238.379 273.133 203.826C273.133 170.918 266.503 144.592 251.584 113.33C249.926 105.103 246.611 100.167 246.611 98.5213C246.611 95.2305 249.926 90.2944 253.241 88.649C256.557 85.3582 263.187 87.0036 266.503 90.2944C268.16 91.9398 271.476 96.8759 273.133 101.812C284.737 123.202 291.367 146.238 294.683 170.918C296.34 185.727 297.998 215.344 296.34 228.507C293.025 254.833 286.394 276.223 274.791 299.259C268.16 312.422 264.845 319.004 259.872 319.004C259.872 319.004 258.214 319.004 256.557 319.004C258.214 319.004 256.557 319.004 254.899 319.004ZM210.142 295.968C205.169 294.323 200.196 287.741 201.854 282.805C201.854 281.16 205.169 276.223 208.485 269.642C220.088 244.961 226.719 218.635 223.403 192.309C221.746 169.273 216.773 156.11 206.827 134.72C200.196 121.557 200.196 119.911 205.169 114.975C208.485 110.039 218.43 108.394 223.403 113.33C226.719 116.621 236.665 138.011 241.638 149.528C254.899 189.018 253.241 231.798 236.665 271.287C225.061 291.032 218.43 297.613 210.142 295.968ZM163.728 271.287C160.412 269.642 157.097 266.351 157.097 261.415C157.097 259.77 157.097 256.479 162.07 248.252C176.989 216.989 176.989 187.372 162.07 156.11C155.439 144.592 155.439 141.301 160.412 136.365C163.728 133.075 165.385 133.075 168.701 133.075C175.331 133.075 178.647 136.365 185.277 147.883C193.566 167.628 196.881 182.436 196.881 203.826C196.881 225.216 193.566 238.379 183.62 258.124C178.647 269.642 175.331 272.933 170.358 272.933C168.701 272.933 165.385 272.933 163.728 271.287ZM120.629 249.897C118.971 248.252 115.656 244.961 113.998 241.67C113.998 238.379 113.998 235.089 118.971 228.507C123.944 218.635 125.602 213.699 125.602 202.181C125.602 190.663 123.944 185.727 118.971 177.5C117.313 174.209 113.998 170.918 113.998 169.273C112.34 162.692 117.313 156.11 123.944 154.465C128.917 152.819 133.89 156.11 138.863 164.337C153.782 187.372 153.782 218.635 138.863 241.67C133.89 249.897 127.259 251.543 120.629 249.897Z" fill="white"/>
</g>
<defs>
<clipPath id="clip0_2_1037">
<rect width="184" height="232" fill="white" transform="translate(114 87)"/>
</clipPath>
</defs>
</svg>
