<svg width="327" height="350" viewBox="0 0 327 350" fill="none" xmlns="http://www.w3.org/2000/svg">
<rect width="202.557" height="207.351" rx="22" fill="#bababa"/>
<g clip-path="url(#clip0_0_1)">
<path fill-rule="evenodd" clip-rule="evenodd" d="M125.319 156.836C123.689 156.027 122.059 153.6 121.244 151.982C121.244 150.364 121.244 149.555 122.874 146.319C131.024 130.95 134.284 117.197 134.284 100.21C134.284 84.0307 131.024 71.0876 123.689 55.7177C122.874 51.673 121.244 49.2462 121.244 48.4372C121.244 46.8193 122.874 44.3925 124.504 43.5835C126.134 41.9657 129.394 42.7746 131.024 44.3925C131.839 45.2014 133.469 47.6283 134.284 50.0551C139.989 60.5714 143.249 71.8966 144.879 84.0307C145.694 91.3112 146.509 105.872 145.694 112.344C144.064 125.287 140.804 135.803 135.099 147.128C131.839 153.6 130.209 156.836 127.764 156.836C127.764 156.836 126.949 156.836 126.134 156.836C126.949 156.836 126.134 156.836 125.319 156.836ZM103.315 145.51C100.87 144.702 98.4251 141.466 99.2401 139.039C99.2401 138.23 100.87 135.803 102.5 132.567C108.205 120.433 111.465 107.49 109.835 94.547C109.02 83.2218 106.575 76.7503 101.685 66.234C98.4251 59.7624 98.4251 58.9535 100.87 56.5267C102.5 54.0998 107.39 53.2909 109.835 55.7177C111.465 57.3356 116.355 67.8519 118.799 73.5145C125.319 92.9291 124.504 113.962 116.355 133.376C110.65 143.084 107.39 146.319 103.315 145.51ZM80.4956 133.376C78.8657 132.567 77.2357 130.95 77.2357 128.523C77.2357 127.714 77.2357 126.096 79.6807 122.051C87.0154 106.681 87.0154 92.1202 79.6807 76.7503C76.4208 71.0876 76.4208 69.4698 78.8657 67.0429C80.4956 65.425 81.3106 65.425 82.9406 65.425C86.2005 65.425 87.8304 67.0429 91.0903 72.7055C95.1652 82.4129 96.7952 89.6934 96.7952 100.21C96.7952 110.726 95.1652 117.197 90.2753 126.905C87.8304 132.567 86.2005 134.185 83.7555 134.185C82.9406 134.185 81.3106 134.185 80.4956 133.376ZM59.3063 122.86C58.4913 122.051 56.8614 120.433 56.0464 118.815C56.0464 117.197 56.0464 115.58 58.4913 112.344C60.9362 107.49 61.7512 105.063 61.7512 99.4007C61.7512 93.7381 60.9362 91.3112 58.4913 87.2665C57.6763 85.6486 56.0464 84.0307 56.0464 83.2218C55.2314 79.986 57.6763 76.7503 60.9362 75.9413C63.3812 75.1324 65.8261 76.7503 68.271 80.795C75.6058 92.1202 75.6058 107.49 68.271 118.815C65.8261 122.86 62.5662 123.669 59.3063 122.86Z" fill="white"/>
</g>
<g filter="url(#filter0_d_0_1)">
<g clip-path="url(#clip1_0_1)">
<path fill-rule="evenodd" clip-rule="evenodd" d="M241.197 314.957C239.116 318.807 234.176 320.263 230.3 318.168L59.2035 225.677C55.3278 223.582 53.8399 218.651 55.9213 214.801L110.292 114.222C112.374 110.371 117.314 108.916 121.189 111.011L292.286 203.502C296.162 205.597 297.65 210.527 295.568 214.377L241.197 314.957Z" fill="url(#paint0_linear_0_1)"/>
<path d="M292.286 203.502L162.026 133.086L168.668 284.85L230.395 318.219C234.271 320.314 239.211 318.858 241.292 315.008L295.663 214.429C297.65 210.527 296.162 205.597 292.286 203.502Z" fill="url(#paint1_linear_0_1)"/>
<path fill-rule="evenodd" clip-rule="evenodd" d="M131.573 176.088C130.507 178.06 128.088 178.694 126.197 177.672L108.615 168.167C106.63 167.094 105.98 164.68 106.995 162.802L113.697 150.405C114.763 148.433 117.182 147.799 119.073 148.821L136.655 158.326C138.64 159.399 139.289 161.813 138.274 163.691L131.573 176.088Z" fill="url(#paint2_linear_0_1)"/>
<path d="M136.853 166.321L137.106 165.851L132.569 163.399L135.615 157.764L135.142 157.508L132.096 163.143L128.41 161.15C128.749 159.392 128.035 157.55 126.435 156.442L128.009 153.531L127.536 153.275L126.013 156.093C124.217 155.122 122.045 155.525 120.709 156.866L117.495 155.129L120.541 149.494L120.069 149.238L117.023 154.873L112.485 152.42L112.231 152.89L116.769 155.343L113.317 161.729L108.779 159.276L108.525 159.745L113.063 162.198L109.56 168.678L110.033 168.934L113.536 162.454L116.749 164.191C116.163 166.18 117.059 168.363 118.95 169.385L117.122 172.766L117.595 173.022L119.423 169.641C121.32 170.424 123.398 169.97 124.69 168.484L128.282 170.425L124.779 176.905L125.157 177.11L128.66 170.63L133.197 173.083L133.451 172.613L130.804 171.182L134.257 164.796L136.903 166.227L136.853 166.321ZM117.003 163.722L113.789 161.984L117.241 155.598L120.455 157.336C120.303 157.617 120.107 157.754 119.955 158.036C119.447 158.975 119.318 160.118 119.529 161.082C118.462 161.476 117.721 162.168 117.213 163.107C117.061 163.389 117.054 163.628 117.003 163.722ZM119.247 169.061C117.262 167.988 116.518 165.522 117.584 163.55C118.092 162.611 118.927 161.97 119.85 161.62L120.046 161.483L120.002 161.338C119.696 160.323 119.869 159.324 120.377 158.385C121.443 156.413 123.913 155.685 125.898 156.758C127.883 157.831 128.627 160.297 127.561 162.269C127.053 163.208 126.218 163.849 125.296 164.199L125.005 164.285L125.093 164.575C125.399 165.59 125.226 166.589 124.718 167.528C123.703 169.406 121.233 170.134 119.247 169.061ZM130.332 170.927L125.038 168.065C125.14 167.877 125.191 167.783 125.292 167.596C125.8 166.656 125.929 165.513 125.717 164.549C126.785 164.155 127.526 163.463 128.033 162.524C128.186 162.243 128.287 162.055 128.345 161.722L133.733 164.635L130.332 170.927Z" fill="url(#paint3_linear_0_1)"/>
<path d="M98.8029 180.217L98.5403 179.347L101.257 178.389L102.675 179.155L98.0554 187.701L97.1101 187.19L101.171 179.677C101.273 179.489 101.324 179.395 101.324 179.395L98.8029 180.217Z" fill="#D6D6D6"/>
<path d="M99.9457 188.723L100.656 187.408C100.758 187.22 100.809 187.126 100.809 187.126C100.809 187.126 100.954 187.083 101.099 187.041L107.144 185.575C107.289 185.533 107.435 185.49 107.485 185.396C107.536 185.302 107.587 185.208 107.688 185.02L108.298 183.893C108.348 183.799 108.399 183.705 108.45 183.612L108.406 183.467C108.362 183.322 108.362 183.322 108.268 183.27C108.268 183.27 108.173 183.219 107.984 183.117L105.81 181.942C105.621 181.84 105.526 181.789 105.526 181.789C105.526 181.789 105.432 181.737 105.287 181.78C105.141 181.823 105.141 181.823 105.141 181.823C105.141 181.823 105.091 181.917 104.989 182.105L104.888 182.293L103.848 181.731L104.102 181.261C104.254 180.979 104.45 180.843 104.741 180.757L105.176 180.628C105.467 180.543 105.707 180.551 105.896 180.653L109.015 182.34C109.204 182.442 109.343 182.638 109.43 182.928L109.561 183.363C109.649 183.653 109.642 183.892 109.49 184.174L108.576 185.864C108.474 186.052 108.424 186.146 108.373 186.24C108.322 186.334 108.177 186.376 108.031 186.419L102.031 188.03C101.885 188.072 101.74 188.115 101.689 188.209C101.638 188.303 101.588 188.397 101.537 188.491L101.486 188.585L106.024 191.037L105.567 191.883L99.895 188.817L99.9457 188.723Z" fill="#D6D6D6"/>
<path d="M114.664 191.097L114.934 191.728C114.978 191.873 115.022 192.018 115.022 192.018C114.971 192.112 114.92 192.206 114.819 192.394L113.6 194.648C113.499 194.836 113.448 194.929 113.397 195.023C113.346 195.117 113.201 195.16 113.056 195.203L112.765 195.288C112.475 195.374 112.235 195.366 112.046 195.264L108.548 193.373C108.359 193.271 108.221 193.075 108.133 192.785L107.951 192.443C107.864 192.153 107.871 191.915 107.972 191.727L108.226 191.257L109.266 191.819L109.164 192.007C109.114 192.101 109.063 192.195 109.012 192.289L109.056 192.434C109.099 192.579 109.099 192.579 109.194 192.63C109.194 192.63 109.289 192.681 109.478 192.783L111.935 194.112C112.124 194.214 112.219 194.265 112.219 194.265C112.219 194.265 112.313 194.316 112.459 194.273C112.604 194.231 112.604 194.231 112.604 194.231C112.604 194.231 112.655 194.137 112.756 193.949L113.772 192.071C113.873 191.883 113.88 191.644 113.836 191.499L113.749 191.209C113.705 191.064 113.661 190.919 113.567 190.868C113.472 190.817 113.378 190.766 113.283 190.714L111.298 189.641L111.704 188.89L113.5 189.861C113.689 189.963 113.784 190.014 113.784 190.014C113.878 190.065 113.929 189.971 114.169 189.98L114.46 189.894C114.605 189.851 114.75 189.808 114.75 189.808C114.75 189.808 114.852 189.621 114.903 189.527L115.715 188.024C115.766 187.93 115.816 187.836 115.867 187.742L115.823 187.597C115.78 187.452 115.78 187.452 115.685 187.401C115.685 187.401 115.591 187.35 115.401 187.248L113.416 186.175C113.227 186.073 113.133 186.022 113.133 186.022C113.133 186.022 113.038 185.97 112.893 186.013C112.748 186.056 112.748 186.056 112.748 186.056C112.748 186.056 112.697 186.15 112.595 186.338L112.494 186.526L111.454 185.964L111.708 185.494C111.86 185.212 112.056 185.076 112.347 184.99L112.783 184.862C113.073 184.776 113.313 184.784 113.502 184.886L116.433 186.47C116.622 186.573 116.76 186.769 116.847 187.059L116.979 187.494C117.066 187.784 117.059 188.023 116.907 188.305L115.841 190.277C115.79 190.371 115.739 190.464 115.689 190.558C115.689 190.558 115.543 190.601 115.398 190.644L114.868 190.721C114.722 190.764 114.482 190.756 114.388 190.705L114.337 190.799C114.577 190.807 114.621 190.952 114.664 191.097Z" fill="#D6D6D6"/>
<path d="M121.978 193.837L123.018 194.399L121.698 196.841L122.832 197.454L122.376 198.299L121.241 197.686L120.175 199.658L119.135 199.096L120.201 197.124L115.853 194.773L116.412 193.74L123.617 190.354L124.751 190.967L117.742 194.217C117.597 194.26 117.451 194.303 117.451 194.303L117.401 194.396L120.709 196.185L121.978 193.837Z" fill="#D6D6D6"/>
<path d="M137.4 201.688L140.142 203.17C140.331 203.272 140.469 203.469 140.557 203.759L140.688 204.194C140.775 204.484 140.768 204.723 140.667 204.91L138.839 208.291C138.687 208.573 138.491 208.71 138.251 208.701L137.815 208.83C137.525 208.915 137.285 208.907 137.096 208.805L133.504 206.863C133.315 206.761 133.176 206.565 133.089 206.275L132.812 205.883C132.725 205.593 132.732 205.354 132.833 205.166L133.087 204.696L134.127 205.258L134.025 205.446C133.975 205.54 133.924 205.634 133.873 205.728L133.917 205.873C133.961 206.018 133.961 206.018 134.055 206.069C134.055 206.069 134.15 206.12 134.339 206.222L137.08 207.704C137.269 207.806 137.364 207.858 137.364 207.858C137.364 207.858 137.458 207.909 137.603 207.866C137.749 207.823 137.749 207.823 137.749 207.823C137.749 207.823 137.799 207.729 137.901 207.541L139.475 204.63C139.526 204.536 139.576 204.442 139.627 204.348L139.583 204.203C139.54 204.058 139.54 204.058 139.445 204.007C139.445 204.007 139.35 203.956 139.161 203.854L136.798 202.576C136.609 202.474 136.369 202.466 136.079 202.552C135.788 202.637 135.643 202.68 135.541 202.868L134.501 202.306L136.938 197.798L142.799 200.966L142.342 201.811L137.616 199.256L136.194 201.886C136.245 201.792 136.39 201.749 136.681 201.664C137.066 201.629 137.306 201.637 137.4 201.688Z" fill="#D6D6D6"/>
<path d="M150.4 207.017L149.36 206.455L149.462 206.267C149.512 206.173 149.563 206.079 149.614 205.985L149.57 205.84C149.526 205.695 149.526 205.695 149.432 205.644C149.432 205.644 149.337 205.593 149.148 205.491L146.218 203.907C146.029 203.804 145.934 203.753 145.934 203.753C145.934 203.753 145.84 203.702 145.694 203.745C145.549 203.788 145.549 203.788 145.549 203.788C145.549 203.788 145.498 203.882 145.397 204.07L144.077 206.511L144.171 206.562L144.317 206.52C144.753 206.391 145.043 206.306 145.232 206.408L148.541 208.196C148.73 208.298 148.868 208.495 148.956 208.785L149.087 209.22C149.174 209.51 149.167 209.749 149.015 210.03L147.34 213.129C147.188 213.411 146.991 213.548 146.752 213.54L146.316 213.668C146.025 213.754 145.785 213.745 145.596 213.643L141.626 211.497C141.437 211.395 141.299 211.199 141.211 210.909L140.942 210.277C140.854 209.987 140.861 209.749 140.963 209.561L144.415 203.175C144.567 202.893 144.763 202.756 145.054 202.671L145.49 202.542C145.78 202.457 146.02 202.465 146.209 202.567L150.085 204.662C150.274 204.764 150.412 204.96 150.5 205.25L150.631 205.686C150.718 205.976 150.711 206.214 150.559 206.496L150.305 206.966L150.4 207.017ZM146.503 212.192L147.874 209.656C147.925 209.562 147.975 209.468 148.026 209.374L147.982 209.229C147.939 209.084 147.939 209.084 147.844 209.033C147.844 209.033 147.749 208.982 147.56 208.88L144.819 207.398C144.63 207.296 144.535 207.245 144.535 207.245C144.441 207.194 144.296 207.236 144.15 207.279C143.911 207.271 143.765 207.314 143.714 207.408L142.344 209.943C142.293 210.037 142.242 210.131 142.191 210.225L142.235 210.37C142.279 210.515 142.279 210.515 142.374 210.566C142.374 210.566 142.468 210.617 142.657 210.719L145.777 212.406C145.966 212.508 146.06 212.559 146.06 212.559C146.06 212.559 146.155 212.61 146.3 212.567C146.445 212.524 146.445 212.524 146.445 212.524C146.307 212.328 146.452 212.286 146.503 212.192Z" fill="#D6D6D6"/>
<path d="M149.195 215.346L157.27 210.124C157.416 210.082 157.561 210.039 157.612 209.945L152.318 207.083L152.775 206.238L159.109 209.662L158.601 210.601L150.424 216.01L149.195 215.346Z" fill="#D6D6D6"/>
<path d="M158.505 215.524L159.326 215.361C159.471 215.318 159.711 215.327 159.805 215.378L159.856 215.284C159.761 215.233 159.718 215.088 159.579 214.892L159.354 214.406C159.31 214.261 159.317 214.022 159.368 213.928L160.484 211.862C160.637 211.58 160.833 211.443 161.123 211.358L161.559 211.229C161.85 211.144 162.09 211.152 162.279 211.254L166.06 213.298C166.249 213.4 166.387 213.596 166.475 213.886L166.606 214.321C166.694 214.611 166.687 214.85 166.534 215.132L165.417 217.198C165.316 217.386 165.171 217.429 165.025 217.472L164.495 217.549C164.35 217.592 164.11 217.583 164.015 217.532L163.964 217.626C164.059 217.677 164.103 217.822 164.241 218.019L164.554 218.795C164.598 218.94 164.591 219.179 164.49 219.366L163.322 221.526C163.17 221.808 162.974 221.945 162.734 221.937C162.589 221.979 162.494 221.928 162.298 222.065C162.007 222.151 161.768 222.142 161.578 222.04L157.514 219.843C157.325 219.741 157.186 219.545 157.099 219.254C157.055 219.109 157.011 218.964 156.968 218.819C156.88 218.529 156.887 218.291 156.989 218.103L158.156 215.943C158.163 215.704 158.359 215.567 158.505 215.524ZM162.809 217.73L160.351 216.401C160.257 216.35 160.162 216.299 160.068 216.248C160.068 216.248 159.923 216.291 159.828 216.24L159.443 216.274C159.298 216.317 159.152 216.36 159.152 216.36C159.152 216.36 159.102 216.454 159 216.642L158.086 218.332C158.035 218.426 157.985 218.52 157.934 218.614L157.978 218.759C158.021 218.904 158.021 218.904 158.116 218.955C158.116 218.955 158.21 219.006 158.4 219.108L161.519 220.794C161.708 220.897 161.803 220.948 161.803 220.948C161.803 220.948 161.897 220.999 162.042 220.956C162.188 220.913 162.188 220.913 162.188 220.913C162.188 220.913 162.238 220.819 162.34 220.631L163.254 218.941C163.305 218.847 163.355 218.753 163.406 218.659C163.406 218.659 163.362 218.514 163.319 218.369L163.136 218.028C163.093 217.883 162.998 217.832 162.998 217.832C162.998 217.832 162.904 217.781 162.809 217.73ZM165.08 213.982L162.244 212.449C162.055 212.346 161.96 212.295 161.96 212.295C161.96 212.295 161.866 212.244 161.72 212.287C161.575 212.33 161.575 212.33 161.575 212.33C161.575 212.33 161.524 212.424 161.423 212.612L160.56 214.208C160.509 214.302 160.458 214.396 160.407 214.49C160.407 214.49 160.451 214.635 160.495 214.78L160.626 215.215C160.67 215.36 160.765 215.411 160.765 215.411C160.765 215.411 160.954 215.513 161.048 215.564L163.128 216.689C163.317 216.791 163.411 216.842 163.411 216.842C163.411 216.842 163.557 216.799 163.651 216.85L164.087 216.722C164.232 216.679 164.378 216.636 164.378 216.636C164.378 216.636 164.428 216.542 164.53 216.354L165.393 214.758C165.444 214.664 165.494 214.57 165.545 214.476L165.501 214.331C165.458 214.186 165.458 214.186 165.363 214.135C165.269 214.084 165.174 214.033 165.08 213.982Z" fill="#D6D6D6"/>
<path d="M175.014 227.24L176.054 227.802L175.952 227.99C175.901 228.084 175.851 228.177 175.8 228.271L175.844 228.416C175.887 228.561 175.887 228.561 175.982 228.613C175.982 228.613 176.076 228.664 176.266 228.766L179.196 230.35C179.385 230.452 179.48 230.503 179.48 230.503C179.48 230.503 179.574 230.554 179.719 230.511C179.865 230.469 179.865 230.469 179.865 230.469C179.865 230.469 179.915 230.375 180.017 230.187L181.337 227.745L181.242 227.694L181.097 227.737C180.661 227.865 180.371 227.951 180.182 227.849L176.873 226.06C176.684 225.958 176.546 225.762 176.458 225.472L176.327 225.037C176.239 224.747 176.246 224.508 176.348 224.32L178.023 221.221C178.175 220.939 178.371 220.803 178.662 220.717L179.098 220.589C179.389 220.503 179.628 220.511 179.817 220.613L183.788 222.76C183.977 222.862 184.115 223.058 184.203 223.348L184.334 223.783C184.421 224.073 184.414 224.312 184.262 224.594L180.81 230.98C180.658 231.261 180.462 231.398 180.222 231.39L179.786 231.518C179.495 231.604 179.255 231.596 179.066 231.493L175.191 229.398C175.002 229.296 174.863 229.1 174.776 228.81L174.645 228.375C174.557 228.085 174.564 227.846 174.666 227.658L174.919 227.189L175.014 227.24ZM178.86 222.159L177.489 224.694C177.438 224.788 177.388 224.882 177.337 224.976C177.286 225.07 177.381 225.121 177.381 225.121C177.424 225.266 177.424 225.266 177.519 225.317C177.519 225.317 177.613 225.368 177.803 225.471L180.544 226.953C180.733 227.055 180.827 227.106 180.827 227.106C180.922 227.157 181.067 227.114 181.213 227.071C181.452 227.08 181.598 227.037 181.648 226.943L183.019 224.407C183.07 224.313 183.121 224.219 183.171 224.126L183.128 223.98C183.084 223.835 183.084 223.835 182.989 223.784C182.989 223.784 182.895 223.733 182.706 223.631L179.586 221.945C179.397 221.843 179.303 221.791 179.303 221.791C179.303 221.791 179.208 221.74 179.063 221.783C178.918 221.826 178.918 221.826 178.918 221.826C179.012 221.877 178.961 221.971 178.86 222.159Z" fill="#D6D6D6"/>
<path d="M188.318 225.452L193.139 228.058C193.328 228.16 193.466 228.356 193.554 228.646L193.685 229.081C193.773 229.371 193.766 229.61 193.614 229.892L190.161 236.278C190.009 236.559 189.813 236.696 189.573 236.688L189.137 236.816C188.847 236.902 188.607 236.894 188.418 236.791L183.597 234.185C183.408 234.083 183.27 233.887 183.182 233.597L183.051 233.162C182.963 232.872 182.97 232.633 183.072 232.445L186.524 226.059C186.676 225.777 186.872 225.641 187.163 225.555L187.599 225.427C187.889 225.341 188.129 225.349 188.318 225.452ZM189.419 235.391L192.567 229.569C192.617 229.475 192.668 229.381 192.719 229.287L192.675 229.142C192.631 228.997 192.631 228.997 192.537 228.946C192.537 228.946 192.442 228.895 192.253 228.792L188.283 226.646C188.094 226.544 188 226.493 188 226.493C188 226.493 187.905 226.442 187.76 226.485C187.614 226.527 187.614 226.527 187.614 226.527C187.614 226.527 187.564 226.621 187.462 226.809L184.315 232.632C184.264 232.726 184.213 232.819 184.162 232.913L184.206 233.058C184.25 233.203 184.25 233.203 184.344 233.254C184.344 233.254 184.439 233.306 184.628 233.408L188.598 235.554C188.787 235.656 188.882 235.707 188.882 235.707C188.882 235.707 188.976 235.758 189.122 235.716C189.267 235.673 189.267 235.673 189.267 235.673C189.318 235.579 189.368 235.485 189.419 235.391Z" fill="#D6D6D6"/>
<path d="M195.411 232.441L195.149 231.571L197.866 230.613L199.283 231.379L194.664 239.925L193.718 239.414L197.78 231.901C197.881 231.713 197.932 231.619 197.932 231.619L195.411 232.441Z" fill="#D6D6D6"/>
<path d="M196.554 240.947L197.265 239.632C197.366 239.444 197.417 239.35 197.417 239.35C197.417 239.35 197.562 239.308 197.708 239.265L203.752 237.8C203.898 237.757 204.043 237.714 204.094 237.62C204.145 237.526 204.195 237.432 204.297 237.244L204.906 236.117C204.957 236.024 205.008 235.93 205.058 235.836L205.015 235.691C204.971 235.546 204.971 235.546 204.876 235.495C204.876 235.495 204.782 235.443 204.593 235.341L202.418 234.166C202.229 234.064 202.135 234.013 202.135 234.013C202.135 234.013 202.04 233.962 201.895 234.004C201.75 234.047 201.75 234.047 201.75 234.047C201.75 234.047 201.699 234.141 201.597 234.329L201.496 234.517L200.456 233.955L200.71 233.485C200.862 233.203 201.058 233.067 201.349 232.981L201.785 232.853C202.075 232.767 202.315 232.775 202.504 232.877L205.624 234.564C205.813 234.666 205.951 234.862 206.039 235.152L206.17 235.587C206.257 235.877 206.25 236.116 206.098 236.398L205.184 238.088C205.083 238.276 205.032 238.37 204.981 238.464C204.931 238.558 204.785 238.601 204.64 238.643L198.595 240.109C198.45 240.151 198.305 240.194 198.254 240.288C198.203 240.382 198.152 240.476 198.102 240.57L198.051 240.664L202.588 243.117L202.131 243.962L196.554 240.947Z" fill="#D6D6D6"/>
<path d="M220.537 248.329L220.806 248.96C220.85 249.105 220.894 249.25 220.894 249.25C220.843 249.344 220.792 249.438 220.691 249.626L219.472 251.88C219.371 252.068 219.32 252.162 219.269 252.255C219.218 252.349 219.073 252.392 218.928 252.435L218.637 252.521C218.347 252.606 218.107 252.598 217.918 252.496L214.42 250.605C214.231 250.503 214.093 250.307 214.005 250.017L213.874 249.582C213.786 249.292 213.793 249.053 213.895 248.865L214.149 248.395L215.189 248.957L215.087 249.145C215.036 249.239 214.986 249.333 214.935 249.427L214.979 249.572C215.022 249.717 215.022 249.717 215.117 249.768C215.117 249.768 215.211 249.819 215.4 249.921L217.858 251.25C218.047 251.352 218.142 251.403 218.142 251.403C218.142 251.403 218.236 251.454 218.382 251.412C218.527 251.369 218.527 251.369 218.527 251.369C218.527 251.369 218.578 251.275 218.679 251.087L219.695 249.209C219.796 249.021 219.803 248.782 219.759 248.637L219.672 248.347C219.628 248.202 219.584 248.057 219.49 248.006C219.395 247.955 219.301 247.904 219.206 247.853L217.221 246.78L217.627 246.028L219.423 246.999C219.612 247.101 219.707 247.152 219.707 247.152C219.801 247.204 219.852 247.11 220.092 247.118L220.383 247.032C220.528 246.989 220.673 246.947 220.673 246.947C220.673 246.947 220.775 246.759 220.825 246.665L221.638 245.162C221.688 245.068 221.739 244.975 221.79 244.881L221.746 244.736C221.702 244.591 221.702 244.591 221.608 244.539C221.608 244.539 221.513 244.488 221.324 244.386L219.339 243.313C219.15 243.211 219.056 243.16 219.056 243.16C219.056 243.16 218.961 243.109 218.816 243.151C218.671 243.194 218.671 243.194 218.671 243.194C218.671 243.194 218.62 243.288 218.518 243.476L218.417 243.664L217.377 243.102L217.631 242.632C217.783 242.35 217.979 242.214 218.27 242.128L218.706 242C218.996 241.914 219.236 241.922 219.425 242.025L222.355 243.609C222.544 243.711 222.683 243.907 222.77 244.197L222.902 244.632C222.989 244.922 222.982 245.161 222.83 245.443L221.764 247.415C221.713 247.509 221.662 247.603 221.611 247.697C221.561 247.79 221.466 247.739 221.321 247.782L220.79 247.86C220.645 247.902 220.405 247.894 220.311 247.843L220.26 247.937C220.355 247.988 220.493 248.184 220.537 248.329Z" fill="#D6D6D6"/>
<path d="M227.85 251.069L228.89 251.631L227.57 254.073L228.705 254.686L228.248 255.531L227.113 254.918L226.047 256.89L225.007 256.328L226.074 254.356L221.725 252.005L222.284 250.972L229.489 247.586L230.623 248.199L223.614 251.449C223.469 251.492 223.323 251.534 223.323 251.534L223.273 251.628L226.581 253.417L227.85 251.069Z" fill="#D6D6D6"/>
<path d="M234.103 253.964L236.844 255.446C237.033 255.548 237.172 255.744 237.259 256.034L237.391 256.469C237.478 256.759 237.471 256.998 237.37 257.186L235.542 260.567C235.39 260.848 235.194 260.985 234.954 260.977L234.518 261.105C234.227 261.191 233.987 261.183 233.798 261.08L230.112 259.087C229.923 258.985 229.784 258.789 229.697 258.499L229.566 258.064C229.478 257.774 229.485 257.535 229.587 257.347L229.84 256.878L230.88 257.44L230.779 257.628C230.728 257.722 230.677 257.816 230.626 257.909L230.67 258.054C230.714 258.199 230.714 258.199 230.808 258.251C230.808 258.251 230.903 258.302 231.092 258.404L233.833 259.886C234.022 259.988 234.117 260.039 234.117 260.039C234.117 260.039 234.212 260.09 234.357 260.047C234.502 260.005 234.502 260.005 234.502 260.005C234.502 260.005 234.553 259.911 234.654 259.723L236.177 256.905C236.228 256.812 236.279 256.718 236.33 256.624L236.286 256.479C236.242 256.334 236.242 256.334 236.148 256.283C236.148 256.283 236.053 256.231 235.864 256.129L233.501 254.852C233.312 254.75 233.072 254.741 232.781 254.827C232.491 254.913 232.345 254.955 232.244 255.143L231.204 254.581L233.641 250.073L239.407 253.19L238.95 254.036L234.224 251.481L232.802 254.11L232.897 254.161C232.948 254.067 233.093 254.025 233.384 253.939C233.674 253.853 233.914 253.862 234.103 253.964Z" fill="#D6D6D6"/>
<path d="M247.008 259.241L245.968 258.679L246.07 258.491C246.121 258.397 246.171 258.303 246.222 258.209L246.178 258.064C246.135 257.919 246.135 257.919 246.04 257.868C246.04 257.868 245.946 257.817 245.756 257.715L242.826 256.131C242.637 256.029 242.543 255.978 242.543 255.978C242.543 255.978 242.448 255.927 242.303 255.969C242.157 256.012 242.157 256.012 242.157 256.012C242.157 256.012 242.107 256.106 242.005 256.294L240.685 258.736L240.78 258.787L240.925 258.744C241.361 258.615 241.651 258.53 241.841 258.632L245.149 260.421C245.338 260.523 245.476 260.719 245.564 261.009L245.695 261.444C245.783 261.734 245.776 261.973 245.623 262.255L243.948 265.354C243.796 265.635 243.6 265.772 243.36 265.764L242.924 265.892C242.633 265.978 242.394 265.97 242.205 265.867L238.234 263.721C238.045 263.619 237.907 263.423 237.82 263.133L237.688 262.698C237.601 262.408 237.608 262.169 237.709 261.981L241.161 255.595C241.314 255.313 241.51 255.177 241.8 255.091L242.236 254.963C242.527 254.877 242.767 254.885 242.956 254.987L246.831 257.083C247.02 257.185 247.159 257.381 247.246 257.671L247.377 258.106C247.465 258.396 247.458 258.635 247.306 258.917L247.103 259.292L247.008 259.241ZM243.111 264.416L244.482 261.88C244.533 261.786 244.584 261.693 244.634 261.599L244.591 261.454C244.547 261.309 244.547 261.309 244.452 261.257C244.452 261.257 244.358 261.206 244.169 261.104L241.427 259.622C241.238 259.52 241.144 259.469 241.144 259.469C241.049 259.418 240.904 259.461 240.759 259.503C240.519 259.495 240.374 259.538 240.323 259.632L238.952 262.168C238.901 262.261 238.851 262.355 238.8 262.449L238.844 262.594C238.887 262.739 238.887 262.739 238.982 262.79C238.982 262.79 239.076 262.841 239.265 262.944L242.385 264.63C242.574 264.732 242.668 264.783 242.668 264.783C242.668 264.783 242.763 264.834 242.908 264.792C243.054 264.749 243.054 264.749 243.054 264.749C243.01 264.604 243.061 264.51 243.111 264.416Z" fill="#D6D6D6"/>
<path d="M85.5283 215.394C85.6298 215.206 85.7313 215.018 85.7821 214.924L88.625 209.665L89.4758 210.125L85.6175 217.262L84.7668 216.802L84.0824 209.03C84.0754 209.269 84.0246 209.362 83.9231 209.55L81.0802 214.809L80.2294 214.349L84.0876 207.212L84.9384 207.672L85.5283 215.394Z" fill="#D6D6D6"/>
<path d="M91.1213 219.509C91.0705 219.603 90.9252 219.646 90.6854 219.638C90.5401 219.681 90.4456 219.629 90.351 219.578C90.351 219.578 90.2565 219.527 90.0674 219.425L88.2714 218.454C88.0823 218.352 88.0386 218.207 87.9003 218.011L87.7182 217.67C87.5799 217.474 87.5869 217.235 87.6885 217.047L88.3484 215.826C88.45 215.638 88.646 215.501 88.8859 215.51L89.271 215.475C89.5108 215.484 89.6561 215.441 89.8452 215.543L91.6412 216.514C91.7357 216.565 91.8303 216.616 91.9248 216.667C91.9248 216.667 92.0193 216.718 91.9685 216.812C92.0123 216.957 92.0123 216.957 91.9615 217.051L92.6215 215.83C92.6723 215.736 92.723 215.642 92.723 215.642C92.723 215.642 92.7738 215.548 92.6793 215.497C92.5847 215.446 92.6355 215.352 92.541 215.301C92.541 215.301 92.4465 215.25 92.2574 215.148L90.5559 214.228C90.4614 214.177 90.3668 214.126 90.2723 214.075C90.2723 214.075 90.127 214.118 89.8872 214.109L89.4793 213.282L89.8644 213.248C90.0097 213.205 90.155 213.162 90.2495 213.213C90.2495 213.213 90.3441 213.264 90.5331 213.366L92.8963 214.644C93.0854 214.746 93.1292 214.891 93.2675 215.087L93.4495 215.428C93.5878 215.624 93.5808 215.863 93.4793 216.051L91.8547 219.056C91.804 219.15 91.7532 219.244 91.7532 219.244C91.7532 219.244 91.7024 219.338 91.797 219.389C91.8407 219.534 91.8407 219.534 91.8407 219.534C91.8407 219.534 91.79 219.628 91.7392 219.722L91.4854 220.192L91.1073 219.987C91.0127 219.936 90.9182 219.885 90.8237 219.834C90.8237 219.834 90.7799 219.689 90.6854 219.638C91.1143 219.748 91.0705 219.603 91.1213 219.509ZM89.2867 216.576L88.8806 217.327C88.8298 217.421 88.7791 217.515 88.7791 217.515C88.7791 217.515 88.7283 217.609 88.8228 217.66C88.8666 217.805 88.8666 217.805 88.9611 217.856C88.9611 217.856 89.0556 217.907 89.2447 218.009L90.4736 218.674C90.5681 218.725 90.6626 218.776 90.7572 218.827C90.7572 218.827 90.9025 218.784 91.0915 218.886C91.2368 218.844 91.3313 218.895 91.3821 218.801C91.3821 218.801 91.4329 218.707 91.4836 218.613L91.839 217.956C91.8898 217.862 91.9405 217.768 91.9405 217.768C91.9405 217.768 91.9913 217.674 91.8968 217.623C91.853 217.478 91.853 217.478 91.7585 217.427C91.7585 217.427 91.6639 217.376 91.4749 217.273L89.9624 216.456C89.8679 216.405 89.7734 216.354 89.6788 216.303C89.6788 216.303 89.5843 216.251 89.439 216.294C89.2937 216.337 89.2937 216.337 89.2937 216.337C89.432 216.533 89.3375 216.482 89.2867 216.576Z" fill="#D6D6D6"/>
<path d="M99.5937 218.75C99.739 218.707 99.739 218.707 99.9789 218.715L100.219 218.724C100.364 218.681 100.459 218.732 100.553 218.783C100.553 218.783 100.648 218.834 100.837 218.936L102.444 219.805C102.633 219.907 102.676 220.052 102.815 220.248L102.997 220.589C103.135 220.786 103.128 221.024 103.027 221.212L100.793 225.344L99.9421 224.884L102.074 220.94C102.125 220.846 102.176 220.752 102.176 220.752C102.176 220.752 102.227 220.658 102.132 220.607C102.037 220.556 102.088 220.462 101.994 220.411C101.994 220.411 101.899 220.36 101.71 220.258L100.576 219.645C100.481 219.594 100.387 219.543 100.292 219.491C100.292 219.491 100.147 219.534 99.9579 219.432C99.718 219.424 99.5727 219.467 99.522 219.56L97.3898 223.505L96.539 223.045L98.6712 219.101C98.722 219.007 98.7727 218.913 98.7727 218.913C98.7727 218.913 98.8235 218.819 98.729 218.768C98.6345 218.717 98.6852 218.623 98.5907 218.572C98.5907 218.572 98.4962 218.521 98.4016 218.469L97.3618 217.907C97.2673 217.856 97.1728 217.805 97.0782 217.754C97.0782 217.754 96.9329 217.797 96.7439 217.695C96.5986 217.737 96.5041 217.686 96.4533 217.78C96.4533 217.78 96.4025 217.874 96.3518 217.968L94.2703 221.818L93.4196 221.359L95.5518 217.414C95.6025 217.32 95.6533 217.226 95.6533 217.226C95.6533 217.226 95.7041 217.133 95.6095 217.081C95.515 217.03 95.5658 216.936 95.5658 216.936C95.5658 216.936 95.6165 216.843 95.6673 216.749L95.9211 216.279L96.2993 216.483C96.3938 216.535 96.4883 216.586 96.5828 216.637C96.5828 216.637 96.6266 216.782 96.7211 216.833C96.7649 216.978 96.8087 217.123 96.7579 217.217C96.8087 217.123 96.954 217.08 97.0992 217.037C97.2445 216.994 97.3391 217.046 97.4336 217.097C97.4336 217.097 97.5281 217.148 97.7172 217.25L99.2296 218.068C99.4187 218.17 99.4625 218.315 99.6008 218.511C99.6008 218.511 99.6445 218.656 99.5937 218.75Z" fill="#D6D6D6"/>
<path d="M106.216 227.062L106.624 227.89L106.239 227.924C106.094 227.967 105.948 228.01 105.854 227.959C105.854 227.959 105.759 227.908 105.57 227.805L102.829 226.324C102.64 226.221 102.596 226.076 102.458 225.88L102.276 225.539C102.137 225.343 102.144 225.104 102.246 224.916L104.023 221.629C104.124 221.442 104.32 221.305 104.56 221.313L104.945 221.279C105.185 221.287 105.33 221.244 105.52 221.346L107.883 222.624C107.977 222.675 108.116 222.871 108.254 223.067L108.436 223.408C108.574 223.604 108.567 223.843 108.466 224.031L107.349 226.097L103.851 224.206L103.344 225.146C103.293 225.239 103.242 225.333 103.242 225.333C103.242 225.333 103.191 225.427 103.286 225.478C103.33 225.623 103.33 225.623 103.424 225.674C103.424 225.674 103.519 225.726 103.708 225.828L105.598 226.85C105.693 226.901 105.787 226.952 105.882 227.003C105.831 227.097 105.976 227.054 106.216 227.062ZM106.803 225.074L107.463 223.853C107.513 223.759 107.564 223.665 107.564 223.665C107.564 223.665 107.615 223.571 107.52 223.52C107.426 223.469 107.477 223.375 107.382 223.324C107.382 223.324 107.288 223.273 107.193 223.222L105.586 222.353C105.492 222.302 105.397 222.251 105.302 222.2C105.302 222.2 105.208 222.149 105.063 222.191C104.917 222.234 104.917 222.234 104.917 222.234C104.917 222.234 104.867 222.328 104.816 222.422L104.156 223.643L106.803 225.074Z" fill="#D6D6D6"/>
<path d="M115.426 229.007L112.968 227.678C112.779 227.576 112.735 227.431 112.597 227.235L112.415 226.894C112.276 226.698 112.378 226.51 112.429 226.416L113.546 224.35C113.647 224.162 113.843 224.026 114.083 224.034L114.468 223.999C114.708 224.008 114.853 223.965 115.042 224.067L117.784 225.549C117.973 225.651 118.016 225.796 118.155 225.992L118.337 226.333C118.475 226.529 118.468 226.768 118.366 226.956L118.163 227.332L117.313 226.872L117.414 226.684C117.465 226.59 117.516 226.496 117.516 226.496C117.516 226.496 117.567 226.402 117.472 226.351C117.377 226.3 117.428 226.206 117.334 226.155C117.334 226.155 117.239 226.104 117.145 226.053L115.16 224.98C115.065 224.929 114.97 224.878 114.97 224.878C114.97 224.878 114.876 224.827 114.731 224.869C114.585 224.912 114.585 224.912 114.585 224.912C114.585 224.912 114.535 225.006 114.484 225.1L113.621 226.696C113.57 226.79 113.519 226.884 113.519 226.884C113.519 226.884 113.468 226.978 113.563 227.029C113.607 227.174 113.607 227.174 113.701 227.225C113.701 227.225 113.796 227.277 113.89 227.328L116.348 228.656C116.537 228.758 116.581 228.903 116.719 229.1L116.901 229.441C117.04 229.637 117.033 229.876 116.931 230.064L115.763 232.224C115.662 232.411 115.466 232.548 115.226 232.54L114.841 232.574C114.601 232.566 114.456 232.609 114.267 232.507L111.336 230.923C111.147 230.82 111.103 230.675 110.965 230.479L110.783 230.138C110.645 229.942 110.652 229.703 110.753 229.515L110.956 229.14L111.807 229.599L111.706 229.787C111.655 229.881 111.604 229.975 111.604 229.975C111.604 229.975 111.553 230.069 111.648 230.12C111.692 230.265 111.692 230.265 111.786 230.316C111.786 230.316 111.881 230.367 112.07 230.47L114.055 231.543C114.149 231.594 114.244 231.645 114.338 231.696C114.338 231.696 114.433 231.747 114.578 231.704C114.724 231.661 114.724 231.661 114.724 231.661C114.724 231.661 114.774 231.568 114.825 231.474L115.739 229.783C115.79 229.689 115.84 229.595 115.84 229.595C115.84 229.595 115.891 229.501 115.797 229.45C115.753 229.305 115.753 229.305 115.658 229.254C115.615 229.109 115.52 229.058 115.426 229.007Z" fill="#D6D6D6"/>
<path d="M119.037 235.207L117.43 234.338C117.241 234.236 117.197 234.091 117.059 233.895L116.877 233.554C116.739 233.357 116.746 233.119 116.847 232.931L119.081 228.799L119.932 229.258L117.799 233.203C117.749 233.297 117.698 233.391 117.698 233.391C117.698 233.391 117.647 233.484 117.742 233.536C117.785 233.681 117.785 233.681 117.88 233.732C117.88 233.732 117.974 233.783 118.163 233.885L119.298 234.498C119.392 234.549 119.487 234.6 119.581 234.652C119.581 234.652 119.727 234.609 119.916 234.711C120.061 234.668 120.156 234.719 120.206 234.625C120.206 234.625 120.257 234.531 120.308 234.437L122.389 230.587L123.24 231.047L121.108 234.991C121.057 235.085 121.006 235.179 121.006 235.179C121.006 235.179 120.956 235.273 121.05 235.324C121.094 235.469 121.094 235.469 121.094 235.469C121.094 235.469 121.043 235.563 120.992 235.657L120.739 236.126L120.36 235.922C120.266 235.871 120.171 235.82 120.077 235.769C120.077 235.769 120.033 235.624 119.939 235.573C119.895 235.428 119.851 235.283 119.902 235.189C119.851 235.283 119.706 235.325 119.56 235.368C119.415 235.411 119.321 235.36 119.226 235.309C119.226 235.309 119.132 235.258 119.037 235.207Z" fill="#D6D6D6"/>
<path d="M124.709 231.719L125.087 231.924C125.181 231.975 125.276 232.026 125.37 232.077C125.37 232.077 125.414 232.222 125.509 232.273C125.552 232.418 125.596 232.563 125.545 232.657C125.596 232.563 125.742 232.521 125.887 232.478C126.032 232.435 126.127 232.486 126.221 232.537C126.221 232.537 126.316 232.588 126.505 232.69L127.45 233.201C127.639 233.304 127.683 233.449 127.821 233.645L128.003 233.986L127.088 234.098L127.044 233.953C126.949 233.902 127 233.808 126.906 233.757C126.906 233.757 126.811 233.705 126.622 233.603L126.149 233.348C126.055 233.297 125.96 233.246 125.866 233.194C125.866 233.194 125.721 233.237 125.531 233.135C125.43 233.323 125.335 233.272 125.285 233.366C125.285 233.366 125.234 233.46 125.183 233.554L123.102 237.404L122.251 236.944L124.383 233C124.434 232.906 124.485 232.812 124.485 232.812C124.485 232.812 124.535 232.718 124.441 232.667C124.346 232.616 124.397 232.522 124.397 232.522C124.397 232.522 124.448 232.428 124.499 232.334L124.803 231.771L124.709 231.719Z" fill="#D6D6D6"/>
<path d="M128.962 234.019L129.341 234.223C129.435 234.275 129.53 234.326 129.624 234.377C129.624 234.377 129.668 234.522 129.762 234.573C129.806 234.718 129.85 234.863 129.799 234.957C129.85 234.863 129.995 234.82 130.141 234.777C130.286 234.734 130.38 234.786 130.475 234.837C130.475 234.837 130.569 234.888 130.758 234.99L132.554 235.961C132.744 236.063 132.787 236.208 132.926 236.404L133.108 236.745C133.246 236.941 133.239 237.18 133.137 237.368L130.904 241.5L130.053 241.04L132.185 237.096C132.236 237.002 132.287 236.908 132.287 236.908C132.287 236.908 132.337 236.814 132.243 236.763C132.148 236.712 132.199 236.618 132.105 236.567C132.105 236.567 132.01 236.516 131.821 236.414L130.498 235.698C130.403 235.647 130.309 235.596 130.214 235.545C130.214 235.545 130.069 235.588 129.88 235.486C129.734 235.529 129.64 235.477 129.589 235.571C129.589 235.571 129.538 235.665 129.488 235.759L127.406 239.61L126.555 239.15L128.688 235.205C128.738 235.111 128.789 235.018 128.789 235.018C128.789 235.018 128.84 234.924 128.745 234.873C128.651 234.821 128.702 234.728 128.702 234.728C128.702 234.728 128.752 234.634 128.803 234.54L129.057 234.07L128.962 234.019Z" fill="#D6D6D6"/>
<path d="M135.833 243.679C135.782 243.773 135.637 243.816 135.397 243.808C135.252 243.851 135.157 243.8 135.063 243.748C135.063 243.748 134.968 243.697 134.779 243.595L132.983 242.624C132.794 242.522 132.75 242.377 132.612 242.181L132.43 241.84C132.292 241.644 132.299 241.405 132.4 241.217L133.06 239.996C133.162 239.808 133.358 239.672 133.598 239.68L133.983 239.645C134.223 239.654 134.368 239.611 134.557 239.713L136.353 240.684C136.448 240.735 136.542 240.786 136.637 240.837C136.637 240.837 136.731 240.888 136.68 240.982C136.724 241.127 136.724 241.127 136.673 241.221L137.333 240C137.384 239.906 137.435 239.812 137.435 239.812C137.435 239.812 137.486 239.719 137.391 239.667C137.297 239.616 137.347 239.522 137.253 239.471C137.253 239.471 137.158 239.42 137.064 239.369L135.362 238.449C135.268 238.398 135.173 238.347 135.079 238.296C135.079 238.296 134.933 238.339 134.694 238.331L134.286 237.503L134.671 237.469C134.816 237.426 134.961 237.383 135.056 237.434C135.056 237.434 135.15 237.485 135.34 237.588L137.703 238.865C137.892 238.967 137.936 239.112 138.074 239.308L138.256 239.65C138.394 239.846 138.387 240.085 138.286 240.272L136.661 243.278C136.61 243.371 136.56 243.465 136.56 243.465C136.56 243.465 136.509 243.559 136.603 243.61C136.647 243.755 136.647 243.755 136.647 243.755C136.647 243.755 136.596 243.849 136.546 243.943L136.292 244.413L135.914 244.208C135.819 244.157 135.725 244.106 135.63 244.055C135.63 244.055 135.586 243.91 135.492 243.859C135.826 243.918 135.782 243.773 135.833 243.679ZM133.999 240.746L133.592 241.497C133.542 241.591 133.491 241.685 133.491 241.685C133.491 241.685 133.44 241.779 133.535 241.83C133.578 241.975 133.578 241.975 133.673 242.026C133.673 242.026 133.768 242.077 133.957 242.18L135.185 242.844C135.28 242.895 135.375 242.946 135.469 242.997C135.469 242.997 135.614 242.954 135.803 243.057C135.949 243.014 136.043 243.065 136.094 242.971C136.094 242.971 136.145 242.877 136.196 242.783L136.551 242.126C136.602 242.032 136.652 241.938 136.652 241.938C136.652 241.938 136.703 241.844 136.609 241.793C136.565 241.648 136.565 241.648 136.47 241.597C136.47 241.597 136.376 241.546 136.281 241.495L134.769 240.677C134.674 240.626 134.58 240.575 134.485 240.524C134.485 240.524 134.391 240.473 134.245 240.515C134.1 240.558 134.1 240.558 134.1 240.558C134.049 240.652 134.049 240.652 133.999 240.746Z" fill="#D6D6D6"/>
<path d="M144.306 242.92C144.451 242.877 144.451 242.877 144.691 242.886L144.931 242.894C145.076 242.851 145.17 242.902 145.265 242.953C145.265 242.953 145.36 243.004 145.549 243.106L147.156 243.975C147.345 244.077 147.388 244.222 147.527 244.419L147.709 244.76C147.847 244.956 147.84 245.195 147.739 245.382L145.505 249.515L144.654 249.055L146.786 245.11C146.837 245.017 146.888 244.923 146.888 244.923C146.888 244.923 146.939 244.829 146.844 244.778C146.749 244.726 146.8 244.633 146.706 244.581C146.706 244.581 146.611 244.53 146.422 244.428L145.288 243.815C145.193 243.764 145.099 243.713 145.004 243.662C145.004 243.662 144.859 243.704 144.67 243.602C144.335 243.543 144.19 243.586 144.139 243.68L142.007 247.624L141.156 247.164L143.289 243.22C143.339 243.126 143.39 243.032 143.39 243.032C143.39 243.032 143.441 242.938 143.346 242.887C143.252 242.836 143.303 242.742 143.208 242.691C143.208 242.691 143.114 242.64 143.019 242.589L141.979 242.026C141.885 241.975 141.79 241.924 141.696 241.873C141.696 241.873 141.55 241.916 141.361 241.814C141.216 241.857 141.121 241.805 141.071 241.899C141.071 241.899 141.02 241.993 140.969 242.087L138.888 245.938L138.037 245.478L140.169 241.533C140.22 241.44 140.271 241.346 140.271 241.346C140.271 241.346 140.321 241.252 140.227 241.201C140.132 241.149 140.183 241.056 140.183 241.056C140.183 241.056 140.234 240.962 140.285 240.868L140.539 240.398L140.917 240.603C141.011 240.654 141.106 240.705 141.2 240.756C141.2 240.756 141.244 240.901 141.339 240.952C141.382 241.097 141.426 241.242 141.375 241.336C141.426 241.242 141.571 241.199 141.717 241.156C141.862 241.114 141.957 241.165 142.051 241.216C142.051 241.216 142.146 241.267 142.335 241.369L143.753 242.136C143.942 242.238 143.985 242.383 144.124 242.579C144.313 242.681 144.356 242.826 144.306 242.92Z" fill="#D6D6D6"/>
<path d="M150.833 251.181L151.241 252.009L150.856 252.043C150.711 252.086 150.566 252.129 150.471 252.078C150.471 252.078 150.377 252.027 150.187 251.924L147.446 250.442C147.257 250.34 147.213 250.195 147.075 249.999L146.893 249.658C146.755 249.462 146.762 249.223 146.863 249.035L148.64 245.748C148.742 245.56 148.938 245.424 149.177 245.432L149.563 245.397C149.802 245.406 149.948 245.363 150.137 245.465L152.5 246.743C152.594 246.794 152.733 246.99 152.871 247.186L153.053 247.527C153.191 247.723 153.184 247.962 153.083 248.15L151.966 250.216L148.468 248.325L147.961 249.264C147.91 249.358 147.859 249.452 147.859 249.452C147.859 249.452 147.808 249.546 147.903 249.597C147.947 249.742 147.947 249.742 148.041 249.793C148.041 249.793 148.136 249.844 148.325 249.947L150.31 251.02C150.405 251.071 150.499 251.122 150.594 251.173C150.543 251.267 150.688 251.224 150.833 251.181ZM151.514 249.244L152.174 248.023C152.225 247.929 152.276 247.835 152.276 247.835C152.276 247.835 152.327 247.741 152.232 247.69C152.138 247.639 152.188 247.545 152.094 247.494C152.094 247.494 151.999 247.443 151.81 247.341L150.203 246.472C150.109 246.421 150.014 246.37 149.92 246.319C149.92 246.319 149.825 246.268 149.68 246.31C149.535 246.353 149.535 246.353 149.535 246.353C149.535 246.353 149.484 246.447 149.433 246.541L148.773 247.762L151.514 249.244Z" fill="#D6D6D6"/>
<path d="M235.295 188.713L236.524 189.377C237.186 189.735 237.557 190.178 237.688 190.613C237.82 191.048 237.704 191.714 237.349 192.371C236.841 193.31 236.108 193.763 235.25 193.542C235.905 194.139 236.073 194.958 235.463 196.085C235.159 196.648 234.716 197.016 234.229 197.238C233.793 197.367 233.314 197.35 232.747 197.043L231.234 196.226L235.295 188.713ZM235.878 190.12L234.457 192.75C234.835 192.954 235.169 193.014 235.46 192.928C235.751 192.842 236.048 192.518 236.251 192.142C236.505 191.673 236.614 191.246 236.621 191.007C236.489 190.572 236.256 190.325 235.878 190.12ZM234.102 193.407L232.68 196.037C233.058 196.241 233.393 196.3 233.683 196.215C233.974 196.129 234.221 195.899 234.474 195.429C234.779 194.866 234.837 194.533 234.749 194.243C234.662 193.953 234.429 193.705 234.102 193.407Z" fill="#D6D6D6"/>
<path d="M238.702 200.263L237.757 199.752L238.112 199.094C237.574 199.411 237.189 199.445 236.811 199.241C236.433 199.036 236.251 198.695 236.214 198.311C236.083 197.876 236.395 197.074 236.953 196.041C237.461 195.102 237.961 194.402 238.354 194.128C238.796 193.761 239.276 193.777 239.749 194.033C239.938 194.135 240.076 194.331 240.214 194.527C240.258 194.672 240.346 194.962 240.339 195.201L240.643 194.638L241.589 195.149L238.796 200.314L238.702 200.263ZM237.501 198.643C237.785 198.796 237.981 198.659 238.227 198.429C238.474 198.198 238.728 197.728 239.134 196.977C239.49 196.32 239.693 195.944 239.75 195.611C239.808 195.279 239.764 195.133 239.481 194.98C239.197 194.827 239.052 194.87 238.805 195.1C238.558 195.331 238.355 195.707 238 196.364C237.594 197.115 237.34 197.585 237.282 197.918C237.174 198.344 237.312 198.541 237.501 198.643Z" fill="#D6D6D6"/>
<path d="M243.763 196.324L243.509 196.793C243.995 196.571 244.381 196.537 244.853 196.792C245.609 197.201 245.785 197.781 245.328 198.626L243.145 202.664L242.199 202.153L244.23 198.397C244.484 197.927 244.447 197.543 244.069 197.339C243.88 197.237 243.64 197.228 243.495 197.271C243.35 197.314 243.153 197.451 243.001 197.733L240.971 201.489L240.025 200.978L242.817 195.813L243.763 196.324Z" fill="#D6D6D6"/>
<path d="M247.966 205.27L246.926 204.708L246.98 201.218L245.508 203.942L244.563 203.431L248.726 195.73L249.671 196.241L247.082 201.03L249.478 199.535L250.518 200.097L247.926 201.729L247.966 205.27Z" fill="#D6D6D6"/>
<path d="M254.772 208.95L254.016 208.541L254.917 202.354L252.125 207.519L251.18 207.008L255.241 199.495L256.092 199.955L255.19 206.142L257.982 200.977L258.833 201.437L254.772 208.95Z" fill="#D6D6D6"/>
<path d="M259.309 211.402L258.364 210.891L258.719 210.234C258.182 210.55 257.797 210.585 257.418 210.38C257.04 210.176 256.858 209.835 256.822 209.451C256.69 209.016 257.002 208.213 257.56 207.18C258.068 206.241 258.569 205.541 258.961 205.268C259.404 204.9 259.883 204.917 260.356 205.172C260.545 205.275 260.683 205.471 260.822 205.667C260.865 205.812 260.953 206.102 260.946 206.341L261.25 205.777L262.196 206.288L259.404 211.453L259.309 211.402ZM258.108 209.782C258.392 209.936 258.588 209.799 258.835 209.568C259.081 209.338 259.335 208.868 259.741 208.117C260.097 207.459 260.3 207.084 260.358 206.751C260.415 206.418 260.372 206.273 260.088 206.12C259.804 205.967 259.659 206.009 259.412 206.24C259.166 206.471 258.962 206.846 258.607 207.504C258.201 208.255 257.947 208.724 257.889 209.057C257.781 209.484 257.919 209.68 258.108 209.782Z" fill="#D6D6D6"/>
<path d="M266.021 215.031L265.075 214.52L267.106 210.763C267.36 210.294 267.323 209.91 266.945 209.705C266.567 209.501 266.131 209.629 265.776 210.287L263.847 213.855L262.901 213.344L264.983 209.494C265.084 209.306 265.091 209.067 265.048 208.922C265.004 208.777 264.865 208.581 264.771 208.53C264.298 208.274 263.957 208.454 263.652 209.017L261.672 212.68L260.727 212.169L263.519 207.004L264.465 207.515L264.211 207.984C264.697 207.762 265.177 207.779 265.555 207.983C266.028 208.239 266.21 208.58 266.24 209.202C266.726 208.98 267.351 208.954 267.729 209.158C268.486 209.567 268.661 210.147 268.204 210.992L266.021 215.031Z" fill="#D6D6D6"/>
<path d="M271.733 215.085L269.559 213.909C269.254 214.473 269.051 214.848 268.993 215.181C268.935 215.514 269.023 215.804 269.306 215.957C269.496 216.06 269.735 216.068 269.931 215.931C270.127 215.794 270.28 215.513 270.432 215.231L271.283 215.691C270.623 216.912 269.751 217.169 268.806 216.658C267.766 216.095 267.656 214.944 268.57 213.253C269.585 211.375 270.609 210.836 271.743 211.45C272.121 211.654 272.398 212.046 272.624 212.532C272.755 212.967 272.589 213.727 272.03 214.76L271.827 215.136L271.733 215.085ZM271.194 213.822C271.447 213.353 271.65 212.977 271.708 212.644C271.715 212.405 271.722 212.166 271.439 212.013C271.155 211.86 270.915 211.851 270.763 212.133C270.567 212.27 270.364 212.646 270.059 213.209L271.194 213.822Z" fill="#D6D6D6"/>
<path d="M124.548 138.918C124.069 138.901 123.734 138.842 123.356 138.637C122.694 138.28 122.28 137.691 121.966 136.915C121.798 136.096 122.073 134.91 122.987 133.22C123.951 131.435 124.895 130.368 125.723 129.966C126.551 129.564 127.365 129.64 128.027 129.998C128.31 130.151 128.594 130.304 128.921 130.603L128.363 131.636C128.13 131.388 127.992 131.192 127.708 131.039C127.235 130.783 126.756 130.767 126.218 131.083C125.681 131.399 125.035 132.142 124.324 133.457C123.918 134.208 123.563 134.866 123.403 135.386C123.244 135.907 123.186 136.24 123.318 136.675C123.449 137.11 123.682 137.357 124.06 137.562C124.249 137.664 124.583 137.723 125.012 137.834L124.454 138.867L124.548 138.918Z" fill="#D6D6D6"/>
<path d="M130.919 136.172C130.446 135.917 130.017 135.806 129.726 135.892C129.436 135.978 129.138 136.302 128.834 136.866L126.955 140.34L125.821 139.727L128.918 133.998L130.052 134.612L129.595 135.457C130.234 134.953 130.859 134.927 131.426 135.233L131.521 135.284L131.013 136.223L130.919 136.172Z" fill="#D6D6D6"/>
<path d="M134.143 140.828L131.685 139.499C131.33 140.157 131.076 140.626 131.018 140.959C130.96 141.292 131.048 141.582 131.426 141.786C131.71 141.94 131.855 141.897 132.051 141.76C132.247 141.623 132.399 141.342 132.602 140.966L133.548 141.477C132.837 142.792 131.864 143.236 130.729 142.623C129.5 141.959 129.441 140.713 130.456 138.835C131.573 136.769 132.793 136.094 134.022 136.758C134.495 137.013 134.771 137.406 134.946 137.986C135.121 138.566 134.81 139.368 134.201 140.495L134.048 140.777L134.143 140.828ZM133.56 139.421C133.865 138.857 134.068 138.481 134.125 138.149C134.183 137.816 134.045 137.62 133.856 137.517C133.572 137.364 133.332 137.356 133.086 137.586C132.839 137.817 132.636 138.193 132.331 138.756L133.56 139.421Z" fill="#D6D6D6"/>
<path d="M141.268 136.913L142.307 137.475L137.586 146.208L136.546 145.646L136.952 144.895C136.364 145.305 135.834 145.383 135.361 145.127C135.078 144.974 134.845 144.727 134.757 144.437C134.575 144.095 134.633 143.763 134.691 143.43C134.799 143.003 135.104 142.44 135.51 141.688C136.018 140.749 136.322 140.186 136.671 139.767C136.968 139.443 137.215 139.212 137.651 139.084C137.942 138.998 138.276 139.057 138.654 139.262C139.127 139.517 139.352 140.003 139.288 140.575L141.268 136.913ZM138.171 142.641C138.577 141.89 138.831 141.42 138.889 141.088C138.946 140.755 138.859 140.465 138.575 140.311C138.292 140.158 138.001 140.244 137.754 140.474C137.507 140.705 137.108 141.217 136.753 141.875C136.347 142.626 136.137 143.241 136.079 143.573C136.021 143.906 136.109 144.196 136.392 144.35C136.676 144.503 136.966 144.417 137.213 144.187C137.46 143.956 137.765 143.392 138.171 142.641Z" fill="#D6D6D6"/>
<path d="M143.066 139.462C143.167 139.274 143.312 139.232 143.458 139.189C143.603 139.146 143.843 139.154 143.937 139.205C144.126 139.307 144.17 139.452 144.214 139.598C144.258 139.743 144.251 139.981 144.2 140.075C144.098 140.263 143.953 140.306 143.808 140.349C143.662 140.392 143.423 140.383 143.328 140.332C143.139 140.23 143.095 140.085 143.052 139.94C143.008 139.795 143.015 139.556 143.066 139.462ZM142.246 141.204L143.286 141.766L140.189 147.494L139.15 146.932L142.246 141.204Z" fill="#D6D6D6"/>
<path d="M146.327 144.502L145.665 144.144L143.025 149.027L141.891 148.414L144.53 143.531L143.869 143.173L144.326 142.328L144.987 142.685L145.85 141.089L146.985 141.702L146.122 143.299L146.783 143.656L146.327 144.502Z" fill="#D6D6D6"/>
<path d="M150.922 153.175C150.442 153.158 150.108 153.099 149.729 152.894C149.068 152.537 148.653 151.948 148.34 151.172C148.171 150.353 148.446 149.167 149.36 147.476C150.325 145.692 151.268 144.625 152.096 144.223C152.924 143.821 153.738 143.897 154.4 144.254C154.684 144.408 154.967 144.561 155.294 144.859L154.736 145.892C154.503 145.645 154.365 145.449 154.081 145.296C153.609 145.04 153.129 145.024 152.592 145.34C152.054 145.656 151.408 146.399 150.698 147.714C150.291 148.465 149.936 149.123 149.777 149.643C149.617 150.164 149.56 150.497 149.691 150.932C149.822 151.367 150.055 151.614 150.433 151.818C150.622 151.921 150.957 151.98 151.385 152.091L150.827 153.124L150.922 153.175Z" fill="#D6D6D6"/>
<path d="M155.641 155.968L154.507 155.355L154.862 154.698C154.274 155.108 153.794 155.091 153.416 154.887C153.038 154.683 152.856 154.341 152.681 153.761C152.601 153.233 152.818 152.379 153.478 151.158C154.087 150.031 154.587 149.331 155.03 148.964C155.473 148.596 156.004 148.519 156.571 148.826C156.854 148.979 156.993 149.175 157.036 149.32C157.175 149.516 157.168 149.755 157.204 150.139L157.56 149.482L158.694 150.095L155.547 155.917L155.641 155.968ZM154.397 154.203C154.68 154.357 154.971 154.271 155.218 154.04C155.515 153.716 155.769 153.246 156.226 152.401C156.581 151.744 156.886 151.18 156.944 150.847C157.001 150.515 156.914 150.225 156.63 150.071C156.347 149.918 156.107 149.91 155.86 150.14C155.613 150.371 155.265 150.789 154.909 151.447C154.453 152.292 154.148 152.855 154.09 153.188C154.025 153.76 154.113 154.05 154.397 154.203Z" fill="#D6D6D6"/>
<path d="M162.302 153.137C161.829 152.882 161.4 152.771 161.11 152.857C160.819 152.943 160.522 153.267 160.217 153.831L158.339 157.305L157.204 156.692L160.301 150.964L161.435 151.577L160.978 152.422C161.617 151.918 162.242 151.892 162.81 152.198L162.904 152.249L162.396 153.188L162.302 153.137Z" fill="#D6D6D6"/>
<path d="M167.641 151.169L168.681 151.732L163.96 160.465L162.92 159.903L163.326 159.152C162.738 159.562 162.207 159.639 161.735 159.384C161.451 159.231 161.218 158.983 161.131 158.693C161.043 158.403 161.006 158.019 161.064 157.687C161.173 157.26 161.477 156.696 161.884 155.945C162.391 155.006 162.696 154.442 163.044 154.024C163.342 153.699 163.589 153.469 164.024 153.34C164.315 153.255 164.649 153.314 165.028 153.519C165.5 153.774 165.726 154.26 165.661 154.832L167.641 151.169ZM164.544 156.898C164.95 156.147 165.204 155.677 165.262 155.344C165.32 155.012 165.232 154.721 164.949 154.568C164.665 154.415 164.375 154.501 164.128 154.731C163.881 154.962 163.482 155.474 163.126 156.132C162.72 156.883 162.51 157.497 162.452 157.83C162.395 158.163 162.482 158.453 162.766 158.606C163.049 158.76 163.34 158.674 163.587 158.443C163.834 158.213 164.138 157.649 164.544 156.898Z" fill="#D6D6D6"/>
<path d="M94.9165 194.863C94.4596 195.708 94.0097 196.314 93.5231 196.537C93.0364 196.759 92.506 196.836 91.9388 196.53C91.3717 196.223 91.0951 195.831 91.0653 195.208C91.0356 194.585 91.2457 193.971 91.7025 193.125C92.1594 192.28 92.6093 191.674 93.096 191.452C93.5826 191.229 94.1131 191.152 94.6802 191.459C95.2474 191.765 95.524 192.157 95.5537 192.78C95.5835 193.403 95.3734 194.018 94.9165 194.863ZM92.3642 193.483C92.0089 194.141 91.8496 194.661 91.7918 194.994C91.734 195.327 91.9161 195.668 92.1997 195.821C92.4833 195.975 92.8684 195.94 93.1152 195.709C93.362 195.479 93.7104 195.06 94.0658 194.403C94.4211 193.746 94.5804 193.225 94.6382 192.892C94.696 192.559 94.5139 192.218 94.2303 192.065C93.9467 191.912 93.5616 191.946 93.3148 192.177C93.068 192.407 92.7196 192.826 92.3642 193.483Z" fill="#D6D6D6"/>
<path d="M96.5269 198.889L95.7707 198.48L97.4968 195.287C97.6998 194.911 97.8521 194.63 98.0044 194.348C97.8591 194.391 97.8591 194.391 97.7138 194.433C97.5685 194.476 97.278 194.562 96.6022 194.682L96.478 194.008L98.5051 193.648L99.1668 194.005L96.5269 198.889Z" fill="#D6D6D6"/>
<path d="M101.537 201.597L98.2283 199.808L98.5329 199.245L100.422 198.688C101.003 198.517 101.439 198.389 101.635 198.252C101.831 198.115 101.976 198.072 102.172 197.936C102.318 197.893 102.419 197.705 102.521 197.517C102.622 197.329 102.629 197.09 102.636 196.852C102.592 196.707 102.454 196.51 102.171 196.357C101.982 196.255 101.792 196.153 101.553 196.144C101.313 196.136 101.073 196.128 100.782 196.213L100.564 195.488C100.949 195.454 101.334 195.419 101.574 195.428C101.908 195.487 102.242 195.546 102.526 195.7C102.999 195.955 103.326 196.254 103.457 196.689C103.588 197.124 103.531 197.456 103.328 197.832C103.226 198.02 103.074 198.302 102.878 198.438C102.682 198.575 102.486 198.712 102.144 198.891C101.854 198.977 101.418 199.105 100.837 199.277L99.529 199.662L101.892 200.939L101.537 201.597Z" fill="#D6D6D6"/>
<path d="M107.254 199.833C107.102 200.115 106.855 200.346 106.564 200.431C106.274 200.517 105.889 200.551 105.605 200.398C105.933 200.696 106.165 200.944 106.253 201.234C106.34 201.524 106.283 201.856 106.13 202.138C105.877 202.608 105.484 202.881 105.049 203.01C104.518 203.087 103.995 202.925 103.428 202.619C102.86 202.312 102.438 201.963 102.162 201.571L102.517 200.913C102.656 201.109 102.888 201.357 103.027 201.553C103.165 201.749 103.449 201.902 103.638 202.004C104.016 202.209 104.35 202.268 104.59 202.276C104.83 202.285 105.077 202.054 105.229 201.772C105.381 201.491 105.388 201.252 105.25 201.055C105.112 200.859 104.784 200.561 104.406 200.357L103.933 200.101L104.289 199.444L104.761 199.699C105.518 200.108 106.048 200.031 106.353 199.467C106.454 199.279 106.461 199.041 106.417 198.896C106.374 198.75 106.141 198.503 105.952 198.401C105.763 198.299 105.574 198.197 105.334 198.188C105.094 198.18 104.854 198.172 104.614 198.164L104.541 197.396C105.217 197.276 105.74 197.437 106.402 197.795C106.874 198.05 107.202 198.349 107.384 198.69C107.515 199.125 107.457 199.458 107.254 199.833Z" fill="#D6D6D6"/>
<path d="M208.734 261.122L212.137 262.962C212.232 263.013 212.37 263.209 212.414 263.354L212.501 263.644C212.545 263.789 212.538 264.028 212.437 264.216L210.051 268.63C209.949 268.818 209.804 268.861 209.608 268.997L209.317 269.083C209.172 269.126 208.932 269.117 208.837 269.066L205.434 267.227C205.34 267.176 205.202 266.979 205.158 266.834L205.07 266.544C205.027 266.399 205.034 266.16 205.135 265.973L207.521 261.559C207.623 261.371 207.768 261.328 207.964 261.191L208.255 261.106C208.4 261.063 208.64 261.071 208.734 261.122ZM209.49 268.084L211.724 263.952C211.775 263.858 211.826 263.764 211.826 263.764C211.826 263.764 211.876 263.671 211.782 263.619C211.687 263.568 211.738 263.474 211.738 263.474C211.738 263.474 211.644 263.423 211.549 263.372L208.808 261.89C208.713 261.839 208.619 261.788 208.619 261.788C208.619 261.788 208.524 261.737 208.473 261.831C208.379 261.78 208.328 261.874 208.328 261.874C208.328 261.874 208.277 261.968 208.227 262.062L205.993 266.194C205.942 266.288 205.891 266.381 205.891 266.381C205.891 266.381 205.841 266.475 205.935 266.526C206.03 266.578 205.979 266.671 205.979 266.671C205.979 266.671 206.073 266.723 206.168 266.774L208.909 268.256C209.004 268.307 209.098 268.358 209.098 268.358C209.098 268.358 209.193 268.409 209.244 268.315C209.294 268.221 209.389 268.272 209.389 268.272C209.44 268.178 209.44 268.178 209.49 268.084Z" fill="#D6D6D6"/>
<path d="M213.631 266.075L213.456 265.495L215.395 264.844L216.435 265.407L213.186 271.417L212.524 271.059L215.367 265.8C215.418 265.706 215.469 265.612 215.469 265.612L213.631 266.075Z" fill="#D6D6D6"/>
<path d="M221.306 267.919L221.968 268.276L213.776 272.585L213.114 272.227L221.306 267.919Z" fill="#D6D6D6"/>
<path d="M220.613 271.913L221.195 271.742C221.34 271.699 221.434 271.75 221.529 271.801C221.434 271.75 221.34 271.699 221.296 271.554L221.114 271.213C221.07 271.068 221.121 270.974 221.172 270.88L221.984 269.377C222.086 269.189 222.231 269.147 222.427 269.01L222.718 268.924C222.863 268.881 223.103 268.89 223.197 268.941L225.844 270.372C225.939 270.423 226.077 270.619 226.121 270.764L226.208 271.054C226.252 271.199 226.245 271.438 226.143 271.626L225.331 273.128C225.28 273.222 225.23 273.316 225.084 273.359L224.699 273.393C224.554 273.436 224.459 273.385 224.365 273.334C224.459 273.385 224.554 273.436 224.598 273.581L224.773 274.161C224.816 274.306 224.766 274.4 224.664 274.588L223.852 276.091C223.75 276.278 223.605 276.321 223.409 276.458C223.409 276.458 223.264 276.501 223.118 276.544C222.973 276.586 222.733 276.578 222.639 276.527L219.803 274.994C219.708 274.943 219.57 274.747 219.526 274.602C219.482 274.457 219.388 274.406 219.439 274.312C219.395 274.167 219.402 273.928 219.504 273.74L220.316 272.237C220.417 272.05 220.563 272.007 220.613 271.913ZM223.689 273.454L221.988 272.534C221.893 272.483 221.798 272.432 221.798 272.432C221.798 272.432 221.704 272.381 221.559 272.424L221.268 272.509C221.123 272.552 221.123 272.552 221.123 272.552C221.123 272.552 221.072 272.646 221.021 272.74L220.361 273.961C220.311 274.055 220.26 274.149 220.26 274.149C220.26 274.149 220.209 274.243 220.304 274.294C220.398 274.345 220.347 274.439 220.347 274.439C220.347 274.439 220.442 274.49 220.536 274.541L222.71 275.716C222.805 275.767 222.9 275.819 222.9 275.819C222.9 275.819 222.994 275.87 223.045 275.776C223.139 275.827 223.19 275.733 223.19 275.733C223.19 275.733 223.241 275.639 223.292 275.545L223.952 274.324C224.002 274.23 224.053 274.136 224.053 274.136L224.009 273.991L223.922 273.701C223.878 273.556 223.878 273.556 223.784 273.505C223.878 273.556 223.784 273.505 223.689 273.454ZM225.205 270.876L223.22 269.803C223.125 269.752 223.031 269.7 223.031 269.7C223.031 269.7 222.936 269.649 222.886 269.743C222.791 269.692 222.74 269.786 222.74 269.786C222.74 269.786 222.69 269.88 222.639 269.974L222.03 271.101C221.979 271.195 221.928 271.289 221.928 271.289L221.972 271.434L222.059 271.724C222.154 271.775 222.103 271.869 222.103 271.869C222.103 271.869 222.198 271.92 222.292 271.971L223.71 272.737C223.805 272.788 223.899 272.84 223.899 272.84C223.899 272.84 223.994 272.891 224.044 272.797L224.335 272.711C224.48 272.668 224.48 272.668 224.48 272.668C224.48 272.668 224.531 272.574 224.582 272.481L225.191 271.354C225.242 271.26 225.293 271.166 225.293 271.166C225.293 271.166 225.343 271.072 225.249 271.021C225.154 270.97 225.205 270.876 225.205 270.876C225.394 270.978 225.394 270.978 225.205 270.876Z" fill="#D6D6D6"/>
<path d="M229.247 272.211L232.65 274.051C232.745 274.102 232.883 274.298 232.927 274.443L233.014 274.733C233.058 274.878 233.051 275.117 232.95 275.305L230.564 279.719C230.462 279.907 230.317 279.949 230.121 280.086L229.83 280.172C229.685 280.215 229.445 280.206 229.35 280.155L225.947 278.316C225.853 278.264 225.715 278.068 225.671 277.923L225.583 277.633C225.54 277.488 225.547 277.249 225.648 277.062L228.034 272.648C228.136 272.46 228.281 272.417 228.477 272.28L228.768 272.195C228.913 272.152 229.153 272.16 229.247 272.211ZM230.003 279.173L232.237 275.041C232.288 274.947 232.339 274.853 232.339 274.853C232.339 274.853 232.389 274.759 232.295 274.708C232.2 274.657 232.251 274.563 232.251 274.563C232.251 274.563 232.157 274.512 232.062 274.461L229.321 272.979C229.226 272.928 229.132 272.877 229.132 272.877C229.132 272.877 229.037 272.826 228.986 272.92C228.892 272.869 228.841 272.963 228.841 272.963C228.841 272.963 228.79 273.056 228.74 273.15L226.506 277.283C226.455 277.376 226.404 277.47 226.404 277.47C226.404 277.47 226.354 277.564 226.448 277.615C226.543 277.666 226.492 277.76 226.492 277.76C226.492 277.76 226.586 277.811 226.681 277.863L229.422 279.344C229.517 279.396 229.611 279.447 229.611 279.447C229.611 279.447 229.706 279.498 229.757 279.404C229.851 279.455 229.902 279.361 229.902 279.361C229.953 279.267 229.953 279.267 230.003 279.173Z" fill="#D6D6D6"/>
<path d="M191.612 253.93L193.587 252.084L193.871 252.238L191.649 254.313L191.271 254.109L191.791 251.114L192.075 251.267L191.612 253.93Z" fill="#D6D6D6"/>
<path d="M192.739 254.782L194.961 252.706L195.339 252.911L194.819 255.906L194.535 255.753L194.651 255.087L193.422 254.423L192.928 254.884L192.739 254.782ZM195.092 253.141L195.041 253.235L193.807 254.388L194.847 254.95L195.136 253.286C195.041 253.235 195.092 253.141 195.092 253.141Z" fill="#D6D6D6"/>
<path d="M197.095 256.894L196.942 257.175L195.43 256.358L196.801 253.822L197.084 253.976L195.866 256.229L197.095 256.894Z" fill="#D6D6D6"/>
<path d="M198.691 254.844L198.975 254.998L197.604 257.533L197.32 257.38L198.691 254.844Z" fill="#D6D6D6"/>
<path d="M198.411 257.848L199.731 255.406L201.054 256.122C201.149 256.173 201.149 256.173 201.193 256.318L201.419 256.804C201.462 256.949 201.462 256.949 201.412 257.043L200.599 258.545C200.548 258.639 200.548 258.639 200.403 258.682L199.873 258.759C199.727 258.802 199.727 258.802 199.633 258.751L198.309 258.036L198.411 257.848ZM200.323 258.153L201.033 256.838C201.084 256.745 201.084 256.745 201.04 256.6L200.953 256.309C200.909 256.164 200.909 256.164 200.815 256.113L199.869 255.602L198.803 257.574L199.748 258.086C199.843 258.137 199.843 258.137 199.988 258.094L200.279 258.008C200.272 258.247 200.323 258.153 200.323 258.153Z" fill="#D6D6D6"/>
<path d="M190.073 255.646L191.964 256.668L191.812 256.95L190.961 256.49L189.743 258.744L189.459 258.591L190.677 256.337L189.921 255.928L190.073 255.646Z" fill="#D6D6D6"/>
<path d="M193.949 257.742L194.233 257.895L192.862 260.431L192.578 260.277L193.188 259.15L191.864 258.435L191.255 259.562L190.971 259.409L192.342 256.873L192.626 257.026L192.016 258.153L193.34 258.869L193.949 257.742Z" fill="#D6D6D6"/>
<path d="M194.895 258.253L196.218 258.968C196.312 259.019 196.312 259.019 196.356 259.164L196.4 259.309C196.444 259.454 196.444 259.454 196.393 259.548L195.936 260.393C195.885 260.487 195.885 260.487 195.74 260.53L195.595 260.573C195.5 260.522 195.449 260.616 195.355 260.565L195.166 260.462L195.239 261.23C195.239 261.23 195.189 261.324 195.283 261.375C195.283 261.375 195.283 261.375 195.327 261.52C195.327 261.52 195.421 261.571 195.371 261.665L195.32 261.759L195.269 261.853L195.175 261.802L195.08 261.751C195.08 261.751 195.08 261.751 194.986 261.7L194.891 261.649C194.796 261.598 194.847 261.504 194.847 261.504L194.781 260.497L194.308 260.241L193.75 261.274L193.372 261.07L194.895 258.253ZM195.12 258.739L194.562 259.772L195.413 260.232L195.507 260.283C195.507 260.283 195.507 260.283 195.602 260.334C195.602 260.334 195.602 260.334 195.652 260.24L196.059 259.489L196.109 259.395C196.109 259.395 196.109 259.395 196.015 259.344C196.015 259.344 196.015 259.344 195.92 259.293L195.07 258.833L195.12 258.739Z" fill="#D6D6D6"/>
<path d="M198.959 260.45L199.243 260.603L198.075 262.763C198.024 262.857 198.024 262.857 197.879 262.9L197.734 262.943C197.588 262.986 197.588 262.986 197.494 262.935L196.359 262.321C196.265 262.27 196.265 262.27 196.221 262.125L196.177 261.98C196.134 261.835 196.134 261.835 196.184 261.741L197.352 259.581L197.636 259.735L196.519 261.801L196.468 261.895C196.468 261.895 196.468 261.895 196.563 261.946C196.563 261.946 196.563 261.946 196.657 261.997L197.602 262.508L197.697 262.559C197.697 262.559 197.697 262.559 197.791 262.61C197.791 262.61 197.791 262.61 197.842 262.516L198.959 260.45Z" fill="#D6D6D6"/>
<path fill-rule="evenodd" clip-rule="evenodd" d="M202.308 259.227L200.684 262.232L203.859 262.007L202.308 259.227Z" fill="#D6D6D6"/>
</g>
</g>
<defs>
<filter id="filter0_d_0_1" x="42.1138" y="97.1782" width="287.262" height="254.822" filterUnits="userSpaceOnUse" color-interpolation-filters="sRGB">
<feFlood flood-opacity="0" result="BackgroundImageFix"/>
<feColorMatrix in="SourceAlpha" type="matrix" values="0 0 0 0 0 0 0 0 0 0 0 0 0 0 0 0 0 0 127 0" result="hardAlpha"/>
<feOffset dx="10" dy="10"/>
<feGaussianBlur stdDeviation="10"/>
<feComposite in2="hardAlpha" operator="out"/>
<feColorMatrix type="matrix" values="0 0 0 0 0 0 0 0 0 0 0 0 0 0 0 0 0 0 0.25 0"/>
<feBlend mode="normal" in2="BackgroundImageFix" result="effect1_dropShadow_0_1"/>
<feBlend mode="normal" in="SourceGraphic" in2="effect1_dropShadow_0_1" result="shape"/>
</filter>
<linearGradient id="paint0_linear_0_1" x1="94.3456" y1="283.034" x2="260.762" y2="141.831" gradientUnits="userSpaceOnUse">
<stop stop-color="#070707"/>
<stop offset="1" stop-color="#404040"/>
</linearGradient>
<linearGradient id="paint1_linear_0_1" x1="268.25" y1="261.565" x2="-15.2863" y2="120.367" gradientUnits="userSpaceOnUse">
<stop/>
<stop offset="0.258" stop-color="#020202"/>
<stop offset="0.38" stop-color="#0A0A0A"/>
<stop offset="0.4735" stop-color="#171717"/>
<stop offset="0.5526" stop-color="#292929"/>
<stop offset="0.6224" stop-color="#414141"/>
<stop offset="0.6858" stop-color="#5E5E5E"/>
<stop offset="0.7443" stop-color="#818181"/>
<stop offset="0.799" stop-color="#AAAAAA"/>
<stop offset="0.8486" stop-color="#D7D7D7"/>
<stop offset="0.8871" stop-color="white"/>
</linearGradient>
<linearGradient id="paint2_linear_0_1" x1="130.684" y1="148.308" x2="104.224" y2="197.256" gradientUnits="userSpaceOnUse">
<stop stop-color="#FFCA3F"/>
<stop offset="0.0969388" stop-color="#CA7C22"/>
<stop offset="0.1888" stop-color="#FDDB7A"/>
<stop offset="0.4201" stop-color="#FFAD45"/>
<stop offset="0.5538" stop-color="#A95F0D"/>
<stop offset="0.6562" stop-color="#FFAD45"/>
<stop offset="0.7903" stop-color="#FFFF9B"/>
<stop offset="0.868" stop-color="#FFED7C"/>
<stop offset="1" stop-color="#FFCA3F"/>
</linearGradient>
<linearGradient id="paint3_linear_0_1" x1="137.097" y1="136.444" x2="103.967" y2="197.73" gradientUnits="userSpaceOnUse">
<stop stop-color="#FFCA3F"/>
<stop offset="0.0969388" stop-color="#CA7C22"/>
<stop offset="0.1888" stop-color="#FDDB7A"/>
<stop offset="0.4201" stop-color="#FFAD45"/>
<stop offset="0.5538" stop-color="#A95F0D"/>
<stop offset="0.6562" stop-color="#FFAD45"/>
<stop offset="0.7903" stop-color="#FFFF9B"/>
<stop offset="0.868" stop-color="#FFED7C"/>
<stop offset="1" stop-color="#FFCA3F"/>
</linearGradient>
<clipPath id="clip0_0_1">
<rect width="90.4623" height="114.061" fill="white" transform="translate(56.0474 42.7729)"/>
</clipPath>
<clipPath id="clip1_0_1">
<rect x="114.1" y="107.178" width="210.614" height="130.348" rx="19" transform="rotate(28.3946 114.1 107.178)" fill="white"/>
</clipPath>
</defs>
</svg>
