<svg width="36" height="17" viewBox="0 0 36 17" fill="none" xmlns="http://www.w3.org/2000/svg">
<g clip-path="url(#clip0_2_1946)">
<path fill-rule="evenodd" clip-rule="evenodd" d="M7.17075 2.11499C7.64123 1.55419 7.94948 0.769086 7.86836 0C7.18697 0.0320452 6.3758 0.448633 5.88909 1.00943C5.45105 1.50613 5.07791 2.29123 5.17525 3.06032C5.93776 3.10839 6.70027 2.67578 7.17075 2.11499Z" fill="white"/>
<path fill-rule="evenodd" clip-rule="evenodd" d="M9.11761 7.03373C9.10138 5.35135 10.4966 4.55022 10.5615 4.50215C9.78277 3.38057 8.54978 3.22034 8.11175 3.20432C7.07344 3.10819 6.06758 3.81318 5.54843 3.81318C5.01306 3.81318 4.20188 3.22034 3.34203 3.23637C2.20639 3.25239 1.15186 3.89329 0.567809 4.90272C-0.616508 6.92157 0.259562 9.93382 1.41143 11.5681C1.97926 12.3693 2.64442 13.2826 3.53671 13.2505C4.38034 13.2185 4.70481 12.7057 5.72689 12.7057C6.74897 12.7057 7.041 13.2505 7.93329 13.2345C8.84181 13.2185 9.42585 12.4173 9.99368 11.6002C10.6426 10.6709 10.9022 9.75758 10.9184 9.72553C10.9022 9.70951 9.13383 9.03656 9.11761 7.03373Z" fill="white"/>
<path fill-rule="evenodd" clip-rule="evenodd" d="M20.6688 3.14025C20.5065 2.75571 20.2794 2.40321 19.9874 2.09878C19.6467 1.77833 19.2086 1.52197 18.6895 1.34572C18.1703 1.16947 17.5376 1.08936 16.8238 1.08936C16.3695 1.08936 15.9153 1.10538 15.461 1.15345C15.0879 1.20151 14.6985 1.24958 14.3254 1.31367L14.2118 1.32969V13.1384H15.2988V8.17135C15.6719 8.23544 16.0937 8.26749 16.548 8.26749C17.1645 8.26749 17.7485 8.18737 18.2677 8.04317C18.7706 7.89897 19.2411 7.65863 19.6467 7.33818C20.036 7.01772 20.3443 6.61716 20.5714 6.1525C20.7985 5.68785 20.9121 5.14308 20.9121 4.5182C20.9121 4.00547 20.831 3.54082 20.6688 3.14025ZM18.9977 6.61716C18.4461 7.08181 17.6512 7.32215 16.6453 7.32215C16.3695 7.32215 16.1099 7.30613 15.8666 7.29011C15.6881 7.27409 15.4935 7.24204 15.315 7.19397V2.17889C15.461 2.14685 15.6395 2.13083 15.8504 2.09878C16.1099 2.06674 16.4344 2.05071 16.8076 2.05071C17.2294 2.05071 17.6512 2.09878 18.0568 2.21094C18.3975 2.30707 18.7219 2.4673 19.014 2.67559C19.2735 2.88389 19.4844 3.14025 19.6305 3.44468C19.7765 3.76513 19.8414 4.13365 19.8414 4.56626C19.8251 5.47955 19.5493 6.1525 18.9977 6.61716Z" fill="white"/>
<path fill-rule="evenodd" clip-rule="evenodd" d="M27.5313 12.9942C27.4664 12.6737 27.434 12.3693 27.434 12.0489C27.4178 11.7124 27.4178 11.3759 27.4178 11.0394V7.7548C27.4178 7.37025 27.3853 6.96969 27.3042 6.56912C27.2231 6.18458 27.0771 5.80004 26.8499 5.47958C26.6228 5.15913 26.3146 4.88675 25.9252 4.67845C25.5358 4.47016 25.0329 4.37402 24.4326 4.37402C23.9946 4.37402 23.5566 4.43811 23.151 4.55027C22.7292 4.67845 22.3074 4.87072 21.9504 5.11106L21.8693 5.17515L22.2425 6.02435L22.3723 5.92822C22.6643 5.73595 22.9887 5.59174 23.3132 5.47958C23.6539 5.36743 24.0108 5.31936 24.3515 5.31936C24.8058 5.31936 25.1627 5.39947 25.4223 5.5597C25.6819 5.71992 25.8765 5.92822 26.0063 6.15253C26.1361 6.39287 26.2335 6.64924 26.2659 6.92162C26.3146 7.19401 26.3308 7.45037 26.3308 7.65866V7.7548C24.7084 7.7548 23.4592 8.01116 22.6156 8.53991C21.7395 9.1007 21.2853 9.90183 21.2853 10.9113C21.2853 11.1997 21.3339 11.4881 21.4475 11.7925C21.5449 12.0809 21.7071 12.3533 21.918 12.5776C22.1289 12.8019 22.4047 12.9942 22.7292 13.1224C23.0536 13.2666 23.443 13.3307 23.8648 13.3307C24.4651 13.3467 25.0654 13.1865 25.5845 12.866C25.8116 12.7218 26.0063 12.5776 26.1848 12.4014C26.2497 12.3373 26.3308 12.2572 26.3957 12.177H26.4444L26.5417 13.1384H27.5962L27.5313 12.9942ZM26.3308 10.3665C26.3308 10.4786 26.2984 10.6389 26.2497 10.8311C26.1848 11.0394 26.0874 11.2317 25.9577 11.408C25.6819 11.8085 25.2763 12.1129 24.822 12.2572C24.5462 12.3533 24.238 12.3853 23.9459 12.3853C23.7513 12.3853 23.5566 12.3533 23.3781 12.2892C23.1997 12.2251 23.0374 12.129 22.8914 12.0008C22.7454 11.8566 22.6318 11.6964 22.5507 11.5201C22.4696 11.3278 22.4209 11.0875 22.4209 10.7991C22.4209 10.3344 22.5507 9.96592 22.7941 9.69353C23.0536 9.40513 23.3943 9.18081 23.7675 9.03661C24.1893 8.87638 24.6273 8.78024 25.0816 8.7482C25.5034 8.71615 25.9252 8.68411 26.347 8.70013V10.3665H26.3308Z" fill="white"/>
<path fill-rule="evenodd" clip-rule="evenodd" d="M34.8319 4.55029L32.8039 10.014C32.6741 10.3505 32.5606 10.6709 32.447 11.0074C32.3983 11.1676 32.3497 11.3279 32.301 11.4721H32.2686C32.2199 11.3118 32.1712 11.1516 32.1063 10.9914C32.009 10.6709 31.8954 10.3505 31.7656 10.0621L29.5917 4.56632H28.4236L31.5385 12.4655C31.6196 12.6577 31.6358 12.7378 31.6358 12.7859C31.6358 12.8019 31.6358 12.866 31.5385 13.1064C31.3763 13.539 31.1491 13.9395 30.8733 14.3241C30.63 14.6606 30.4029 14.9329 30.1919 15.1252C29.9486 15.3656 29.7052 15.5578 29.4619 15.702C29.2023 15.8462 28.9752 15.9744 28.7643 16.0545L28.6507 16.1026L29.0239 17.0159L29.1374 16.9678C29.2348 16.9358 29.4294 16.8396 29.7052 16.7115C29.9973 16.5673 30.3055 16.359 30.6462 16.0545C30.9382 15.7982 31.214 15.5098 31.4249 15.1733C31.6521 14.8528 31.8792 14.4683 32.1063 14.0357C32.3335 13.6191 32.5444 13.1224 32.7715 12.6097C32.9824 12.0809 33.2257 11.4881 33.4691 10.8472L35.9837 4.56632L34.8319 4.55029Z" fill="white"/>
</g>
<defs>
<clipPath id="clip0_2_1946">
<rect width="36" height="17" fill="white"/>
</clipPath>
</defs>
</svg>
