<svg width="576" height="591" viewBox="0 0 576 591" fill="none" xmlns="http://www.w3.org/2000/svg">
<rect x="-0.000610352" y="0.391846" width="575.999" height="589.632" rx="52" fill="#0157FF"/>
<g clip-path="url(#clip0_2_1713)">
<path fill-rule="evenodd" clip-rule="evenodd" d="M361.299 451.213C356.668 448.915 352.038 442.021 349.722 437.425C349.722 432.83 349.722 430.532 354.353 421.34C377.506 377.681 386.767 338.617 386.767 290.362C386.767 244.404 377.506 207.638 356.668 163.979C354.353 152.489 349.722 145.596 349.722 143.298C349.722 138.702 354.353 131.808 358.984 129.511C363.614 124.915 372.875 127.213 377.506 131.808C379.821 134.106 384.452 141 386.767 147.893C402.975 177.766 412.236 209.936 416.866 244.404C419.182 265.085 421.497 306.447 419.182 324.83C414.551 361.596 405.29 391.468 389.083 423.638C379.821 442.021 375.191 451.213 368.245 451.213C368.245 451.213 365.93 451.213 363.614 451.213C365.93 451.213 363.614 451.213 361.299 451.213ZM298.785 419.042C291.839 416.745 284.893 407.553 287.209 400.659C287.209 398.362 291.839 391.468 296.47 382.276C312.677 347.808 321.939 311.042 317.308 274.276C314.993 242.106 308.047 223.723 294.155 193.851C284.893 175.468 284.893 173.17 291.839 166.276C296.47 159.383 310.362 157.085 317.308 163.979C321.939 168.574 335.83 198.447 342.776 214.532C361.299 269.681 358.984 329.425 335.83 384.574C319.623 412.149 310.362 421.34 298.785 419.042ZM233.957 384.574C229.326 382.276 224.695 377.681 224.695 370.787C224.695 368.489 224.695 363.893 231.641 352.404C252.479 308.745 252.479 267.383 231.641 223.723C222.38 207.638 222.38 203.042 229.326 196.149C233.957 191.553 236.272 191.553 240.902 191.553C250.164 191.553 254.794 196.149 264.056 212.234C275.632 239.808 280.263 260.489 280.263 290.362C280.263 320.234 275.632 338.617 261.74 366.191C254.794 382.276 250.164 386.872 243.218 386.872C240.902 386.872 236.272 386.872 233.957 384.574ZM173.758 354.702C171.443 352.404 166.812 347.808 164.497 343.213C164.497 338.617 164.497 334.021 171.443 324.83C178.389 311.042 180.704 304.149 180.704 288.064C180.704 271.979 178.389 265.085 171.443 253.596C169.128 249 164.497 244.404 164.497 242.106C162.182 232.915 169.128 223.723 178.389 221.425C185.335 219.128 192.281 223.723 199.227 235.213C220.065 267.383 220.065 311.042 199.227 343.213C192.281 354.702 183.02 357 173.758 354.702Z" fill="white"/>
</g>
<defs>
<clipPath id="clip0_2_1713">
<rect width="257" height="324" fill="white" transform="translate(164.5 127.208)"/>
</clipPath>
</defs>
</svg>
