<svg width="533" height="467" viewBox="0 0 533 467" fill="none" xmlns="http://www.w3.org/2000/svg">
<g filter="url(#filter0_d_2_1042)">
<g clip-path="url(#clip0_2_1042)">
<path fill-rule="evenodd" clip-rule="evenodd" d="M389.596 427.621C385.362 435.453 375.314 438.413 367.431 434.152L19.4206 246.026C11.5375 241.764 8.51107 231.736 12.7447 223.904L123.335 19.3262C127.568 11.4945 137.616 8.53386 145.499 12.7953L493.51 200.922C501.393 205.183 504.419 215.211 500.186 223.043L389.596 427.621Z" fill="url(#paint0_linear_2_1042)"/>
<path d="M493.51 200.922L228.561 57.6963L242.071 366.385L367.624 434.256C375.507 438.517 385.555 435.557 389.788 427.725L500.378 223.147C504.42 215.212 501.393 205.183 493.51 200.922Z" fill="url(#paint1_linear_2_1042)"/>
<path fill-rule="evenodd" clip-rule="evenodd" d="M166.62 145.162C164.452 149.173 159.531 150.463 155.685 148.384L119.923 129.052C115.885 126.869 114.564 121.959 116.63 118.138L130.26 92.9242C132.428 88.9128 137.349 87.6235 141.194 89.7022L176.957 109.035C180.994 111.217 182.315 116.128 180.25 119.948L166.62 145.162Z" fill="url(#paint2_linear_2_1042)"/>
<path d="M177.359 125.296L177.875 124.341L168.646 119.352L174.842 107.891L173.88 107.371L167.685 118.832L160.186 114.779C160.877 111.203 159.424 107.455 156.17 105.203L159.371 99.2811L158.41 98.7614L155.312 104.492C151.659 102.517 147.24 103.337 144.523 106.065L137.986 102.531L144.182 91.0701L143.22 90.5504L137.025 102.011L127.796 97.0223L127.279 97.9774L136.508 102.966L129.487 115.955L120.258 110.966L119.742 111.922L128.971 116.911L121.846 130.091L122.807 130.61L129.932 117.43L136.469 120.964C135.276 125.009 137.099 129.45 140.945 131.529L137.227 138.406L138.189 138.925L141.906 132.049C145.766 133.642 149.992 132.717 152.62 129.695L159.926 133.644L152.801 146.825L153.57 147.24L160.695 134.06L169.924 139.049L170.441 138.094L165.057 135.184L172.079 122.195L177.462 125.105L177.359 125.296ZM136.985 120.009L130.448 116.475L137.47 103.486L144.007 107.02C143.697 107.593 143.298 107.871 142.989 108.444C141.956 110.354 141.693 112.68 142.123 114.641C139.951 115.442 138.445 116.849 137.413 118.759C137.103 119.332 137.089 119.818 136.985 120.009ZM141.55 130.869C137.512 128.686 135.999 123.672 138.167 119.661C139.2 117.751 140.899 116.447 142.775 115.734L143.174 115.456L143.085 115.161C142.462 113.096 142.814 111.065 143.847 109.155C146.015 105.144 151.039 103.663 155.077 105.846C159.115 108.029 160.628 113.043 158.459 117.054C157.427 118.964 155.728 120.268 153.852 120.981L153.261 121.155L153.439 121.745C154.062 123.81 153.709 125.841 152.677 127.751C150.612 131.571 145.588 133.052 141.55 130.869ZM164.096 134.664L153.328 128.844C153.535 128.462 153.638 128.271 153.845 127.889C154.877 125.978 155.141 123.653 154.71 121.692C156.882 120.891 158.388 119.484 159.421 117.574C159.73 117.001 159.937 116.619 160.054 115.942L171.014 121.866L164.096 134.664Z" fill="url(#paint3_linear_2_1042)"/>
<path d="M99.9655 153.561L99.4314 151.791L104.957 149.842L107.842 151.401L98.445 168.783L96.5223 167.744L104.783 152.462C104.989 152.08 105.093 151.889 105.093 151.889L99.9655 153.561Z" fill="#D6D6D6"/>
<path d="M102.29 170.861L103.736 168.187C103.943 167.805 104.046 167.614 104.046 167.614C104.046 167.614 104.341 167.527 104.637 167.44L116.932 164.46C117.227 164.373 117.523 164.286 117.626 164.094C117.729 163.903 117.833 163.712 118.039 163.33L119.278 161.038C119.381 160.847 119.485 160.656 119.588 160.465L119.499 160.17C119.41 159.875 119.41 159.875 119.218 159.771C119.218 159.771 119.025 159.667 118.641 159.46L114.219 157.069C113.834 156.861 113.642 156.757 113.642 156.757C113.642 156.757 113.449 156.653 113.154 156.74C112.858 156.827 112.858 156.827 112.858 156.827C112.858 156.827 112.755 157.018 112.549 157.4L112.342 157.782L110.227 156.639L110.743 155.684C111.053 155.111 111.452 154.833 112.043 154.659L112.93 154.398C113.521 154.223 114.009 154.24 114.393 154.448L120.738 157.878C121.123 158.086 121.404 158.485 121.582 159.075L121.849 159.96C122.027 160.549 122.013 161.035 121.703 161.608L119.844 165.047C119.638 165.429 119.534 165.62 119.431 165.811C119.328 166.002 119.032 166.089 118.737 166.176L106.531 169.451C106.236 169.538 105.94 169.625 105.837 169.816C105.734 170.007 105.63 170.198 105.527 170.39L105.424 170.581L114.653 175.57L113.723 177.289L102.187 171.052L102.29 170.861Z" fill="#D6D6D6"/>
<path d="M132.228 175.691L132.777 176.975C132.866 177.27 132.955 177.564 132.955 177.564C132.851 177.756 132.748 177.947 132.541 178.329L130.063 182.913C129.857 183.295 129.754 183.486 129.65 183.677C129.547 183.868 129.251 183.955 128.956 184.042L128.365 184.216C127.774 184.39 127.286 184.374 126.901 184.166L119.787 180.32C119.403 180.112 119.122 179.713 118.944 179.123L118.573 178.43C118.395 177.84 118.41 177.354 118.616 176.972L119.132 176.017L121.247 177.16L121.041 177.542C120.938 177.733 120.834 177.924 120.731 178.115L120.82 178.41C120.909 178.705 120.909 178.705 121.101 178.809C121.101 178.809 121.294 178.913 121.678 179.121L126.677 181.823C127.062 182.031 127.254 182.135 127.254 182.135C127.254 182.135 127.446 182.239 127.742 182.152C128.037 182.065 128.037 182.065 128.037 182.065C128.037 182.065 128.141 181.874 128.347 181.492L130.412 177.671C130.619 177.289 130.633 176.803 130.544 176.508L130.366 175.918C130.277 175.623 130.188 175.328 129.996 175.225C129.803 175.121 129.611 175.017 129.419 174.913L125.381 172.73L126.207 171.202L129.86 173.177C130.245 173.385 130.437 173.489 130.437 173.489C130.629 173.592 130.733 173.401 131.221 173.418L131.812 173.244C132.107 173.157 132.403 173.07 132.403 173.07C132.403 173.07 132.609 172.688 132.712 172.497L134.365 169.441C134.468 169.25 134.571 169.059 134.674 168.868L134.585 168.573C134.496 168.278 134.496 168.278 134.304 168.174C134.304 168.174 134.112 168.07 133.727 167.862L129.69 165.679C129.305 165.471 129.113 165.367 129.113 165.367C129.113 165.367 128.92 165.264 128.625 165.351C128.329 165.438 128.329 165.438 128.329 165.438C128.329 165.438 128.226 165.629 128.02 166.011L127.813 166.393L125.698 165.249L126.214 164.294C126.524 163.721 126.923 163.443 127.514 163.269L128.401 163.008C128.992 162.834 129.48 162.851 129.864 163.058L135.824 166.281C136.209 166.488 136.49 166.887 136.668 167.477L136.935 168.362C137.113 168.952 137.099 169.438 136.789 170.011L134.621 174.022C134.518 174.213 134.414 174.404 134.311 174.595C134.311 174.595 134.016 174.682 133.72 174.769L132.641 174.927C132.346 175.014 131.858 174.997 131.666 174.893L131.562 175.084C132.05 175.101 132.139 175.396 132.228 175.691Z" fill="#D6D6D6"/>
<path d="M147.104 181.264L149.219 182.407L146.534 187.374L148.842 188.621L147.912 190.34L145.605 189.093L143.437 193.104L141.322 191.961L143.49 187.95L134.646 183.168L135.782 181.067L150.437 174.18L152.744 175.427L138.488 182.036C138.192 182.123 137.897 182.211 137.897 182.211L137.793 182.402L144.523 186.039L147.104 181.264Z" fill="#D6D6D6"/>
<path d="M178.473 197.234L184.049 200.248C184.433 200.456 184.715 200.855 184.893 201.444L185.16 202.329C185.338 202.919 185.324 203.405 185.117 203.787L181.4 210.664C181.09 211.237 180.691 211.515 180.203 211.498L179.317 211.759C178.726 211.933 178.238 211.917 177.853 211.709L170.547 207.759C170.163 207.551 169.881 207.152 169.703 206.562L169.141 205.765C168.963 205.175 168.977 204.689 169.183 204.307L169.7 203.352L171.815 204.495L171.608 204.877C171.505 205.068 171.402 205.259 171.298 205.45L171.387 205.745C171.476 206.04 171.476 206.04 171.669 206.144C171.669 206.144 171.861 206.248 172.245 206.456L177.821 209.47C178.206 209.678 178.398 209.782 178.398 209.782C178.398 209.782 178.59 209.886 178.886 209.799C179.181 209.712 179.181 209.712 179.181 209.712C179.181 209.712 179.285 209.521 179.491 209.138L182.692 203.217C182.796 203.026 182.899 202.835 183.002 202.644L182.913 202.349C182.824 202.054 182.824 202.054 182.632 201.95C182.632 201.95 182.439 201.846 182.055 201.638L177.248 199.04C176.864 198.832 176.376 198.815 175.785 198.989C175.194 199.163 174.898 199.251 174.692 199.633L172.577 198.489L177.533 189.32L189.454 195.765L188.525 197.484L178.911 192.287L176.02 197.635C176.123 197.444 176.419 197.357 177.01 197.183C177.793 197.113 178.281 197.13 178.473 197.234Z" fill="#D6D6D6"/>
<path d="M204.914 208.072L202.799 206.928L203.005 206.546C203.109 206.355 203.212 206.164 203.315 205.973L203.226 205.678C203.137 205.383 203.137 205.383 202.945 205.279C202.945 205.279 202.752 205.175 202.368 204.968L196.408 201.745C196.023 201.538 195.831 201.434 195.831 201.434C195.831 201.434 195.638 201.33 195.343 201.417C195.047 201.504 195.047 201.504 195.047 201.504C195.047 201.504 194.944 201.695 194.738 202.077L192.053 207.043L192.245 207.147L192.541 207.06C193.427 206.799 194.018 206.625 194.403 206.833L201.132 210.47C201.517 210.678 201.798 211.077 201.976 211.667L202.243 212.552C202.421 213.142 202.407 213.628 202.097 214.201L198.69 220.504C198.38 221.078 197.981 221.356 197.493 221.339L196.607 221.6C196.016 221.774 195.528 221.757 195.143 221.549L187.068 217.184C186.683 216.976 186.402 216.577 186.224 215.987L185.676 214.704C185.498 214.114 185.512 213.628 185.719 213.246L192.74 200.257C193.05 199.684 193.449 199.405 194.04 199.231L194.926 198.97C195.517 198.796 196.005 198.813 196.39 199.021L204.273 203.282C204.657 203.49 204.939 203.889 205.117 204.479L205.384 205.364C205.562 205.954 205.548 206.44 205.238 207.013L204.721 207.968L204.914 208.072ZM196.988 218.597L199.776 213.44C199.879 213.249 199.982 213.058 200.086 212.867L199.997 212.572C199.908 212.277 199.908 212.277 199.715 212.173C199.715 212.173 199.523 212.069 199.138 211.861L193.563 208.847C193.178 208.639 192.986 208.535 192.986 208.535C192.793 208.431 192.498 208.518 192.202 208.605C191.715 208.588 191.419 208.675 191.316 208.866L188.528 214.024C188.425 214.215 188.321 214.406 188.218 214.597L188.307 214.892C188.396 215.187 188.396 215.187 188.588 215.291C188.588 215.291 188.781 215.395 189.165 215.603L195.51 219.032C195.895 219.24 196.087 219.344 196.087 219.344C196.087 219.344 196.279 219.448 196.575 219.361C196.87 219.274 196.87 219.274 196.87 219.274C196.589 218.875 196.885 218.788 196.988 218.597Z" fill="#D6D6D6"/>
<path d="M202.464 225.013L218.889 214.392C219.184 214.305 219.48 214.218 219.583 214.027L208.816 208.206L209.745 206.487L222.627 213.451L221.595 215.361L204.963 226.364L202.464 225.013Z" fill="#D6D6D6"/>
<path d="M221.399 225.375L223.069 225.044C223.364 224.957 223.852 224.974 224.044 225.078L224.148 224.887C223.955 224.783 223.866 224.488 223.585 224.089L223.126 223.1C223.037 222.805 223.051 222.319 223.154 222.128L225.426 217.926C225.736 217.353 226.134 217.075 226.726 216.901L227.612 216.639C228.203 216.465 228.691 216.482 229.076 216.69L236.766 220.847C237.151 221.055 237.432 221.454 237.61 222.044L237.877 222.929C238.055 223.519 238.041 224.005 237.731 224.578L235.46 228.78C235.253 229.162 234.957 229.249 234.662 229.336L233.583 229.494C233.288 229.581 232.8 229.564 232.607 229.46L232.504 229.651C232.696 229.755 232.786 230.05 233.067 230.449L233.704 232.027C233.793 232.322 233.779 232.808 233.572 233.19L231.197 237.584C230.888 238.157 230.489 238.435 230.001 238.418C229.706 238.505 229.513 238.401 229.114 238.679C228.523 238.853 228.036 238.837 227.651 238.629L219.383 234.159C218.999 233.952 218.718 233.553 218.54 232.963C218.451 232.668 218.362 232.373 218.273 232.078C218.095 231.488 218.109 231.002 218.315 230.62L220.69 226.227C220.704 225.741 221.103 225.463 221.399 225.375ZM230.154 229.862L225.155 227.159C224.963 227.055 224.771 226.951 224.578 226.847C224.578 226.847 224.283 226.935 224.091 226.831L223.307 226.901C223.012 226.988 222.716 227.075 222.716 227.075C222.716 227.075 222.613 227.266 222.406 227.648L220.548 231.086C220.445 231.277 220.341 231.468 220.238 231.659L220.327 231.954C220.416 232.249 220.416 232.249 220.608 232.353C220.608 232.353 220.801 232.457 221.185 232.665L227.53 236.095C227.915 236.303 228.107 236.407 228.107 236.407C228.107 236.407 228.299 236.511 228.595 236.424C228.89 236.336 228.89 236.336 228.89 236.336C228.89 236.336 228.993 236.145 229.2 235.763L231.059 232.325C231.162 232.134 231.265 231.943 231.368 231.752C231.368 231.752 231.279 231.457 231.19 231.162L230.82 230.468C230.731 230.173 230.539 230.069 230.539 230.069C230.539 230.069 230.347 229.966 230.154 229.862ZM234.772 222.238L229.004 219.12C228.62 218.912 228.427 218.808 228.427 218.808C228.427 218.808 228.235 218.704 227.94 218.791C227.644 218.878 227.644 218.878 227.644 218.878C227.644 218.878 227.541 219.069 227.334 219.451L225.579 222.698C225.476 222.889 225.372 223.08 225.269 223.272C225.269 223.272 225.358 223.566 225.447 223.861L225.714 224.746C225.803 225.041 225.996 225.145 225.996 225.145C225.996 225.145 226.38 225.353 226.572 225.457L230.802 227.744C231.187 227.951 231.379 228.055 231.379 228.055C231.379 228.055 231.675 227.968 231.867 228.072L232.753 227.811C233.049 227.724 233.345 227.637 233.345 227.637C233.345 227.637 233.448 227.446 233.654 227.064L235.41 223.817C235.513 223.626 235.616 223.435 235.719 223.243L235.63 222.949C235.541 222.654 235.541 222.654 235.349 222.55C235.157 222.446 234.965 222.342 234.772 222.238Z" fill="#D6D6D6"/>
<path d="M254.979 249.205L257.094 250.348L256.887 250.73C256.784 250.921 256.681 251.112 256.577 251.303L256.666 251.598C256.755 251.893 256.755 251.893 256.948 251.997C256.948 251.997 257.14 252.101 257.525 252.309L263.485 255.531C263.87 255.739 264.062 255.843 264.062 255.843C264.062 255.843 264.254 255.947 264.55 255.86C264.845 255.773 264.845 255.773 264.845 255.773C264.845 255.773 264.948 255.582 265.155 255.2L267.84 250.233L267.647 250.129L267.352 250.216C266.465 250.478 265.874 250.652 265.49 250.444L258.76 246.806C258.376 246.598 258.094 246.199 257.916 245.609L257.649 244.724C257.471 244.135 257.485 243.649 257.692 243.267L261.1 236.963C261.409 236.39 261.808 236.112 262.399 235.938L263.286 235.677C263.877 235.502 264.365 235.519 264.749 235.727L272.825 240.092C273.209 240.3 273.49 240.699 273.668 241.289L273.935 242.174C274.113 242.764 274.099 243.25 273.789 243.823L266.768 256.812C266.458 257.385 266.059 257.663 265.571 257.646L264.685 257.908C264.094 258.082 263.606 258.065 263.221 257.857L255.338 253.596C254.954 253.388 254.673 252.989 254.495 252.399L254.227 251.514C254.049 250.924 254.064 250.438 254.27 250.056L254.786 249.101L254.979 249.205ZM262.801 238.87L260.013 244.028C259.91 244.219 259.807 244.41 259.704 244.601C259.6 244.792 259.793 244.896 259.793 244.896C259.882 245.191 259.882 245.191 260.074 245.295C260.074 245.295 260.266 245.399 260.651 245.607L266.227 248.621C266.611 248.829 266.804 248.933 266.804 248.933C266.996 249.037 267.291 248.949 267.587 248.862C268.075 248.879 268.37 248.792 268.473 248.601L271.261 243.444C271.365 243.253 271.468 243.062 271.571 242.871L271.482 242.576C271.393 242.281 271.393 242.281 271.201 242.177C271.201 242.177 271.009 242.073 270.624 241.865L264.279 238.435C263.895 238.227 263.702 238.123 263.702 238.123C263.702 238.123 263.51 238.019 263.215 238.106C262.919 238.193 262.919 238.193 262.919 238.193C263.111 238.297 263.008 238.488 262.801 238.87Z" fill="#D6D6D6"/>
<path d="M282.039 245.568L291.845 250.869C292.23 251.077 292.511 251.475 292.689 252.065L292.956 252.95C293.134 253.54 293.12 254.026 292.81 254.599L285.789 267.588C285.479 268.161 285.08 268.439 284.592 268.422L283.706 268.684C283.115 268.858 282.627 268.841 282.242 268.633L272.436 263.332C272.052 263.124 271.771 262.726 271.593 262.136L271.326 261.251C271.147 260.661 271.162 260.175 271.368 259.793L278.39 246.804C278.7 246.231 279.098 245.953 279.689 245.779L280.576 245.517C281.167 245.343 281.655 245.36 282.039 245.568ZM284.279 265.785L290.681 253.942C290.784 253.751 290.887 253.56 290.991 253.369L290.902 253.074C290.813 252.779 290.813 252.779 290.62 252.675C290.62 252.675 290.428 252.571 290.044 252.363L281.968 247.998C281.584 247.79 281.391 247.686 281.391 247.686C281.391 247.686 281.199 247.582 280.904 247.669C280.608 247.756 280.608 247.756 280.608 247.756C280.608 247.756 280.505 247.947 280.298 248.329L273.896 260.172C273.793 260.363 273.69 260.554 273.586 260.745L273.675 261.04C273.765 261.335 273.765 261.335 273.957 261.439C273.957 261.439 274.149 261.543 274.534 261.751L282.609 266.116C282.994 266.324 283.186 266.428 283.186 266.428C283.186 266.428 283.378 266.532 283.674 266.445C283.969 266.358 283.969 266.358 283.969 266.358C284.072 266.167 284.176 265.976 284.279 265.785Z" fill="#D6D6D6"/>
<path d="M296.467 259.785L295.933 258.015L301.459 256.066L304.343 257.625L294.946 275.007L293.023 273.968L301.284 258.686C301.491 258.304 301.594 258.113 301.594 258.113L296.467 259.785Z" fill="#D6D6D6"/>
<path d="M298.791 277.085L300.237 274.411C300.444 274.029 300.547 273.838 300.547 273.838C300.547 273.838 300.842 273.751 301.138 273.664L313.433 270.684C313.728 270.596 314.024 270.509 314.127 270.318C314.23 270.127 314.334 269.936 314.54 269.554L315.779 267.262C315.882 267.071 315.986 266.88 316.089 266.689L316 266.394C315.911 266.099 315.911 266.099 315.719 265.995C315.719 265.995 315.526 265.891 315.142 265.683L310.72 263.293C310.335 263.085 310.143 262.981 310.143 262.981C310.143 262.981 309.951 262.877 309.655 262.964C309.359 263.051 309.359 263.051 309.359 263.051C309.359 263.051 309.256 263.242 309.05 263.624L308.843 264.006L306.728 262.863L307.244 261.908C307.554 261.335 307.953 261.057 308.544 260.883L309.431 260.621C310.022 260.447 310.51 260.464 310.894 260.672L317.239 264.102C317.624 264.31 317.905 264.709 318.083 265.299L318.35 266.183C318.528 266.773 318.514 267.259 318.204 267.832L316.345 271.271C316.139 271.653 316.036 271.844 315.932 272.035C315.829 272.226 315.533 272.313 315.238 272.4L302.943 275.38C302.648 275.467 302.352 275.554 302.249 275.745C302.146 275.936 302.042 276.127 301.939 276.318L301.836 276.509L311.065 281.498L310.136 283.218L298.791 277.085Z" fill="#D6D6D6"/>
<path d="M347.572 292.1L348.12 293.384C348.209 293.679 348.298 293.974 348.298 293.974C348.195 294.165 348.092 294.356 347.885 294.738L345.407 299.322C345.2 299.704 345.097 299.895 344.994 300.086C344.891 300.277 344.595 300.365 344.299 300.452L343.708 300.626C343.117 300.8 342.63 300.783 342.245 300.575L335.131 296.73C334.746 296.522 334.465 296.123 334.287 295.533L334.02 294.648C333.842 294.058 333.856 293.572 334.063 293.19L334.579 292.235L336.694 293.378L336.488 293.76C336.384 293.951 336.281 294.142 336.178 294.333L336.267 294.628C336.356 294.923 336.356 294.923 336.548 295.027C336.548 295.027 336.74 295.131 337.125 295.339L342.124 298.041C342.508 298.249 342.701 298.353 342.701 298.353C342.701 298.353 342.893 298.457 343.189 298.37C343.484 298.283 343.484 298.283 343.484 298.283C343.484 298.283 343.587 298.092 343.794 297.71L345.859 293.89C346.066 293.508 346.08 293.022 345.991 292.727L345.813 292.137C345.724 291.842 345.635 291.547 345.442 291.443C345.25 291.339 345.058 291.235 344.866 291.131L340.828 288.948L341.654 287.42L345.307 289.395C345.692 289.603 345.884 289.707 345.884 289.707C346.076 289.811 346.18 289.62 346.667 289.637L347.258 289.463C347.554 289.375 347.849 289.288 347.849 289.288C347.849 289.288 348.056 288.906 348.159 288.715L349.811 285.659C349.915 285.468 350.018 285.277 350.121 285.086L350.032 284.791C349.943 284.496 349.943 284.496 349.751 284.392C349.751 284.392 349.559 284.288 349.174 284.08L345.136 281.898C344.752 281.69 344.56 281.586 344.56 281.586C344.56 281.586 344.367 281.482 344.072 281.569C343.776 281.656 343.776 281.656 343.776 281.656C343.776 281.656 343.673 281.847 343.466 282.229L343.26 282.611L341.145 281.468L341.661 280.513C341.971 279.94 342.37 279.662 342.961 279.488L343.847 279.226C344.438 279.052 344.926 279.069 345.311 279.277L351.271 282.499C351.656 282.707 351.937 283.106 352.115 283.696L352.382 284.58C352.56 285.17 352.546 285.656 352.236 286.229L350.068 290.241C349.964 290.432 349.861 290.623 349.758 290.814C349.655 291.005 349.462 290.901 349.167 290.988L348.088 291.145C347.792 291.232 347.305 291.215 347.112 291.111L347.009 291.302C347.201 291.406 347.483 291.805 347.572 292.1Z" fill="#D6D6D6"/>
<path d="M362.448 297.674L364.562 298.817L361.878 303.783L364.185 305.031L363.256 306.75L360.948 305.503L358.78 309.514L356.665 308.371L358.833 304.359L349.989 299.578L351.125 297.477L365.78 290.589L368.088 291.836L353.831 298.446C353.535 298.533 353.24 298.62 353.24 298.62L353.137 298.811L359.866 302.449L362.448 297.674Z" fill="#D6D6D6"/>
<path d="M375.166 303.561L380.742 306.575C381.126 306.783 381.408 307.182 381.586 307.772L381.853 308.657C382.031 309.247 382.016 309.733 381.81 310.115L378.093 316.991C377.783 317.564 377.384 317.842 376.896 317.826L376.01 318.087C375.419 318.261 374.931 318.244 374.546 318.036L367.048 313.983C366.663 313.775 366.382 313.376 366.204 312.786L365.937 311.901C365.759 311.311 365.773 310.825 365.98 310.443L366.496 309.488L368.611 310.632L368.404 311.014C368.301 311.205 368.198 311.396 368.094 311.587L368.183 311.882C368.273 312.177 368.272 312.176 368.465 312.28C368.465 312.28 368.657 312.384 369.042 312.592L374.617 315.606C375.002 315.814 375.194 315.918 375.194 315.918C375.194 315.918 375.387 316.022 375.682 315.935C375.978 315.848 375.978 315.848 375.978 315.848C375.978 315.848 376.081 315.657 376.287 315.275L379.385 309.544C379.488 309.353 379.592 309.162 379.695 308.971L379.606 308.676C379.517 308.382 379.517 308.382 379.325 308.278C379.325 308.278 379.132 308.174 378.748 307.966L373.941 305.367C373.556 305.159 373.069 305.143 372.478 305.317C371.887 305.491 371.591 305.578 371.385 305.96L369.27 304.817L374.226 295.648L385.954 301.988L385.025 303.707L375.412 298.51L372.52 303.859L372.713 303.963C372.816 303.772 373.111 303.685 373.702 303.511C374.294 303.336 374.781 303.353 375.166 303.561Z" fill="#D6D6D6"/>
<path d="M401.415 314.295L399.3 313.152L399.506 312.77C399.609 312.579 399.713 312.388 399.816 312.197L399.727 311.902C399.638 311.607 399.638 311.607 399.446 311.503C399.446 311.503 399.253 311.399 398.869 311.191L392.908 307.969C392.524 307.761 392.331 307.657 392.331 307.657C392.331 307.657 392.139 307.554 391.844 307.641C391.548 307.728 391.548 307.728 391.548 307.728C391.548 307.728 391.445 307.919 391.238 308.301L388.554 313.267L388.746 313.371L389.041 313.284C389.928 313.023 390.519 312.849 390.904 313.056L397.633 316.694C398.018 316.902 398.299 317.301 398.477 317.891L398.744 318.776C398.922 319.366 398.908 319.852 398.598 320.425L395.191 326.728C394.881 327.301 394.482 327.579 393.994 327.563L393.108 327.824C392.516 327.998 392.029 327.981 391.644 327.773L383.569 323.408C383.184 323.2 382.903 322.801 382.725 322.211L382.458 321.326C382.28 320.736 382.294 320.25 382.501 319.868L389.522 306.879C389.832 306.306 390.231 306.028 390.822 305.854L391.708 305.593C392.299 305.419 392.787 305.435 393.172 305.643L401.055 309.905C401.439 310.113 401.721 310.512 401.899 311.101L402.166 311.986C402.344 312.576 402.33 313.062 402.02 313.635L401.607 314.399L401.415 314.295ZM393.489 324.821L396.277 319.663C396.38 319.472 396.483 319.281 396.586 319.09L396.497 318.795C396.408 318.5 396.408 318.5 396.216 318.397C396.216 318.397 396.024 318.293 395.639 318.085L390.063 315.071C389.679 314.863 389.486 314.759 389.486 314.759C389.294 314.655 388.999 314.742 388.703 314.829C388.215 314.812 387.92 314.899 387.817 315.09L385.029 320.248C384.925 320.439 384.822 320.63 384.719 320.821L384.808 321.116C384.897 321.411 384.897 321.411 385.089 321.514C385.089 321.514 385.281 321.618 385.666 321.826L392.011 325.256C392.395 325.464 392.588 325.568 392.588 325.568C392.588 325.568 392.78 325.672 393.076 325.585C393.371 325.498 393.371 325.498 393.371 325.498C393.282 325.203 393.385 325.012 393.489 324.821Z" fill="#D6D6D6"/>
<path d="M72.9651 225.11C73.1717 224.728 73.3782 224.346 73.4814 224.154L79.2639 213.458L80.9944 214.393L73.1467 228.91L71.4163 227.975L70.0242 212.165C70.01 212.651 69.9067 212.842 69.7002 213.224L63.9177 223.921L62.1873 222.986L70.0349 208.469L71.7653 209.404L72.9651 225.11Z" fill="#D6D6D6"/>
<path d="M84.3413 233.481C84.238 233.672 83.9425 233.759 83.4547 233.742C83.1591 233.829 82.9669 233.725 82.7746 233.621C82.7746 233.621 82.5823 233.517 82.1978 233.31L78.5446 231.335C78.1601 231.127 78.0711 230.832 77.7898 230.433L77.4195 229.739C77.1382 229.34 77.1525 228.854 77.359 228.472L78.7013 225.989C78.9079 225.607 79.3066 225.329 79.7944 225.346L80.5778 225.276C81.0656 225.292 81.3611 225.205 81.7457 225.413L85.3988 227.388C85.5911 227.492 85.7833 227.596 85.9756 227.7C85.9756 227.7 86.1679 227.804 86.0646 227.995C86.1536 228.29 86.1536 228.29 86.0504 228.481L87.3927 225.998C87.496 225.807 87.5993 225.616 87.5993 225.616C87.5993 225.616 87.7025 225.425 87.5102 225.321C87.318 225.217 87.4212 225.026 87.229 224.922C87.229 224.922 87.0367 224.818 86.6521 224.61L83.1913 222.739C82.999 222.635 82.8067 222.531 82.6145 222.427C82.6145 222.427 82.3189 222.514 81.8311 222.497L81.0015 220.815L81.7849 220.745C82.0804 220.658 82.3759 220.57 82.5682 220.674C82.5682 220.674 82.7605 220.778 83.145 220.986L87.9518 223.585C88.3363 223.793 88.4253 224.087 88.7066 224.486L89.0769 225.18C89.3582 225.579 89.3439 226.065 89.1374 226.447L85.8332 232.56C85.7299 232.751 85.6266 232.942 85.6266 232.942C85.6266 232.942 85.5234 233.133 85.7156 233.237C85.8047 233.532 85.8047 233.532 85.8047 233.532C85.8047 233.532 85.7014 233.723 85.5982 233.914L85.0819 234.869L84.3128 234.453C84.1205 234.349 83.9282 234.245 83.736 234.141C83.736 234.141 83.6469 233.846 83.4547 233.742C84.327 233.967 84.238 233.672 84.3413 233.481ZM80.6098 227.514L79.7837 229.043C79.6805 229.234 79.5772 229.425 79.5772 229.425C79.5772 229.425 79.474 229.616 79.6662 229.72C79.7553 230.015 79.7552 230.015 79.9475 230.118C79.9475 230.118 80.1398 230.222 80.5243 230.43L83.0239 231.781C83.2161 231.885 83.4084 231.989 83.6007 232.093C83.6007 232.093 83.8962 232.006 84.2807 232.214C84.5763 232.127 84.7685 232.231 84.8718 232.04C84.8718 232.04 84.9751 231.849 85.0783 231.658L85.8011 230.321C85.9044 230.13 86.0076 229.939 86.0076 229.939C86.0076 229.939 86.1109 229.748 85.9186 229.644C85.8296 229.349 85.8296 229.349 85.6373 229.245C85.6373 229.245 85.4451 229.141 85.0605 228.933L81.9842 227.27C81.7919 227.166 81.5997 227.062 81.4074 226.958C81.4074 226.958 81.2151 226.854 80.9196 226.941C80.6241 227.028 80.6241 227.028 80.6241 227.028C80.9053 227.427 80.7131 227.323 80.6098 227.514Z" fill="#D6D6D6"/>
<path d="M101.575 231.936C101.87 231.849 101.87 231.849 102.358 231.866L102.846 231.883C103.141 231.796 103.333 231.9 103.526 232.004C103.526 232.004 103.718 232.108 104.103 232.315L107.371 234.082C107.756 234.29 107.845 234.585 108.126 234.984L108.496 235.678C108.778 236.077 108.763 236.563 108.557 236.945L104.013 245.35L102.283 244.414L106.62 236.391C106.723 236.2 106.826 236.009 106.826 236.009C106.826 236.009 106.93 235.818 106.737 235.715C106.545 235.611 106.648 235.42 106.456 235.316C106.456 235.316 106.264 235.212 105.879 235.004L103.572 233.757C103.38 233.653 103.188 233.549 102.995 233.445C102.995 233.445 102.7 233.532 102.315 233.324C101.827 233.307 101.532 233.394 101.429 233.585L97.0917 241.608L95.3613 240.672L99.6981 232.65C99.8014 232.459 99.9046 232.268 99.9046 232.268C99.9046 232.268 100.008 232.077 99.8156 231.973C99.6234 231.869 99.7266 231.678 99.5344 231.574C99.5344 231.574 99.3421 231.47 99.1498 231.366L97.0348 230.223C96.8426 230.119 96.6503 230.015 96.458 229.911C96.458 229.911 96.1625 229.998 95.7779 229.79C95.4824 229.877 95.2901 229.773 95.1869 229.964C95.1869 229.964 95.0836 230.155 94.9804 230.346L90.7468 238.178L89.0163 237.242L93.3532 229.22C93.4564 229.029 93.5597 228.838 93.5597 228.838C93.5597 228.838 93.663 228.647 93.4707 228.543C93.2784 228.439 93.3817 228.248 93.3817 228.248C93.3817 228.248 93.4849 228.057 93.5882 227.866L94.1045 226.911L94.8736 227.327C95.0658 227.43 95.2581 227.534 95.4504 227.638C95.4504 227.638 95.5394 227.933 95.7317 228.037C95.8207 228.332 95.9097 228.627 95.8064 228.818C95.9097 228.627 96.2052 228.54 96.5008 228.453C96.7963 228.366 96.9886 228.47 97.1808 228.574C97.1808 228.574 97.3731 228.678 97.7576 228.886L100.834 230.549C101.219 230.756 101.308 231.051 101.589 231.45C101.589 231.45 101.678 231.745 101.575 231.936Z" fill="#D6D6D6"/>
<path d="M115.044 248.844L115.874 250.527L115.09 250.597C114.795 250.684 114.499 250.771 114.307 250.667C114.307 250.667 114.115 250.563 113.73 250.355L108.154 247.341C107.77 247.133 107.681 246.838 107.4 246.439L107.029 245.745C106.748 245.347 106.762 244.861 106.969 244.479L110.583 237.793C110.789 237.411 111.188 237.133 111.676 237.15L112.459 237.079C112.947 237.096 113.243 237.009 113.627 237.217L118.434 239.816C118.626 239.92 118.908 240.318 119.189 240.717L119.559 241.411C119.84 241.81 119.826 242.296 119.62 242.678L117.348 246.88L110.234 243.035L109.201 244.945C109.098 245.136 108.995 245.327 108.995 245.327C108.995 245.327 108.892 245.518 109.084 245.622C109.173 245.917 109.173 245.917 109.365 246.021C109.365 246.021 109.557 246.125 109.942 246.333L113.787 248.411C113.98 248.515 114.172 248.619 114.364 248.723C114.261 248.914 114.556 248.827 115.044 248.844ZM116.237 244.799L117.579 242.316C117.683 242.125 117.786 241.934 117.786 241.934C117.786 241.934 117.889 241.743 117.697 241.639C117.505 241.535 117.608 241.344 117.416 241.24C117.416 241.24 117.223 241.136 117.031 241.032L113.762 239.265C113.57 239.161 113.378 239.057 113.186 238.953C113.186 238.953 112.993 238.849 112.698 238.936C112.402 239.023 112.402 239.023 112.402 239.023C112.402 239.023 112.299 239.214 112.196 239.405L110.853 241.889L116.237 244.799Z" fill="#D6D6D6"/>
<path d="M133.776 252.799L128.777 250.097C128.393 249.889 128.304 249.594 128.022 249.195L127.652 248.501C127.371 248.102 127.577 247.72 127.681 247.529L129.952 243.327C130.159 242.945 130.558 242.667 131.045 242.684L131.829 242.614C132.317 242.63 132.612 242.543 132.997 242.751L138.572 245.765C138.957 245.973 139.046 246.268 139.327 246.667L139.698 247.361C139.979 247.76 139.965 248.246 139.758 248.628L139.345 249.392L137.615 248.456L137.821 248.074C137.924 247.883 138.028 247.692 138.028 247.692C138.028 247.692 138.131 247.501 137.939 247.397C137.746 247.294 137.85 247.103 137.657 246.999C137.657 246.999 137.465 246.895 137.273 246.791L133.235 244.608C133.043 244.504 132.851 244.4 132.851 244.4C132.851 244.4 132.658 244.296 132.363 244.383C132.067 244.47 132.067 244.47 132.067 244.47C132.067 244.47 131.964 244.661 131.861 244.852L130.105 248.1C130.002 248.291 129.899 248.482 129.899 248.482C129.899 248.482 129.796 248.673 129.988 248.777C130.077 249.072 130.077 249.072 130.269 249.176C130.269 249.176 130.461 249.279 130.654 249.383L135.653 252.086C136.037 252.294 136.126 252.589 136.408 252.987L136.778 253.681C137.059 254.08 137.045 254.566 136.838 254.948L134.463 259.342C134.257 259.724 133.858 260.002 133.37 259.985L132.587 260.055C132.099 260.038 131.804 260.125 131.419 259.917L125.459 256.695C125.074 256.487 124.985 256.193 124.704 255.794L124.334 255.1C124.052 254.701 124.067 254.215 124.273 253.833L124.686 253.069L126.417 254.004L126.21 254.386C126.107 254.577 126.003 254.768 126.003 254.768C126.003 254.768 125.9 254.959 126.092 255.063C126.182 255.358 126.182 255.358 126.374 255.462C126.374 255.462 126.566 255.566 126.951 255.774L130.988 257.957C131.181 258.061 131.373 258.165 131.565 258.268C131.565 258.268 131.757 258.372 132.053 258.285C132.348 258.198 132.348 258.198 132.348 258.198C132.348 258.198 132.452 258.007 132.555 257.816L134.414 254.378C134.517 254.187 134.62 253.996 134.62 253.996C134.62 253.996 134.723 253.805 134.531 253.701C134.442 253.406 134.442 253.406 134.25 253.302C134.161 253.007 133.969 252.903 133.776 252.799Z" fill="#D6D6D6"/>
<path d="M141.122 265.409L137.853 263.643C137.469 263.435 137.38 263.14 137.098 262.741L136.728 262.047C136.447 261.648 136.461 261.162 136.668 260.78L141.211 252.375L142.941 253.311L138.605 261.333C138.501 261.524 138.398 261.715 138.398 261.715C138.398 261.715 138.295 261.906 138.487 262.01C138.576 262.305 138.576 262.305 138.768 262.409C138.768 262.409 138.961 262.513 139.345 262.721L141.652 263.968C141.845 264.072 142.037 264.176 142.229 264.28C142.229 264.28 142.525 264.193 142.909 264.401C143.205 264.314 143.397 264.418 143.5 264.227C143.5 264.227 143.604 264.036 143.707 263.845L147.94 256.013L149.671 256.949L145.334 264.971C145.231 265.162 145.127 265.353 145.127 265.353C145.127 265.353 145.024 265.544 145.216 265.648C145.306 265.943 145.306 265.943 145.306 265.943C145.306 265.943 145.202 266.134 145.099 266.325L144.583 267.28L143.814 266.865C143.621 266.761 143.429 266.657 143.237 266.553C143.237 266.553 143.148 266.258 142.956 266.154C142.867 265.859 142.777 265.564 142.881 265.373C142.777 265.564 142.482 265.651 142.186 265.738C141.891 265.825 141.699 265.721 141.506 265.617C141.506 265.617 141.314 265.513 141.122 265.409Z" fill="#D6D6D6"/>
<path d="M152.658 258.316L153.427 258.732C153.619 258.836 153.812 258.94 154.004 259.044C154.004 259.044 154.093 259.339 154.285 259.443C154.374 259.738 154.463 260.033 154.36 260.224C154.463 260.033 154.759 259.946 155.054 259.859C155.35 259.772 155.542 259.875 155.734 259.979C155.734 259.979 155.927 260.083 156.311 260.291L158.234 261.331C158.618 261.538 158.707 261.833 158.989 262.232L159.359 262.926L157.497 263.154L157.408 262.859C157.215 262.755 157.319 262.564 157.126 262.46C157.126 262.46 156.934 262.356 156.55 262.148L155.588 261.628C155.396 261.524 155.204 261.42 155.011 261.317C155.011 261.317 154.716 261.404 154.331 261.196C154.125 261.578 153.933 261.474 153.829 261.665C153.829 261.665 153.726 261.856 153.623 262.047L149.389 269.879L147.659 268.943L151.996 260.92C152.099 260.729 152.202 260.538 152.202 260.538C152.202 260.538 152.305 260.347 152.113 260.243C151.921 260.139 152.024 259.948 152.024 259.948C152.024 259.948 152.127 259.757 152.231 259.566L152.85 258.42L152.658 258.316Z" fill="#D6D6D6"/>
<path d="M161.31 262.994L162.079 263.409C162.272 263.513 162.464 263.617 162.656 263.721C162.656 263.721 162.745 264.016 162.937 264.12C163.026 264.415 163.116 264.71 163.012 264.901C163.116 264.71 163.411 264.623 163.707 264.536C164.002 264.449 164.194 264.553 164.387 264.657C164.387 264.657 164.579 264.76 164.963 264.968L168.617 266.943C169.001 267.151 169.09 267.446 169.371 267.845L169.742 268.539C170.023 268.938 170.009 269.424 169.802 269.806L165.259 278.21L163.528 277.275L167.865 269.252C167.969 269.061 168.072 268.87 168.072 268.87C168.072 268.87 168.175 268.679 167.983 268.575C167.791 268.471 167.894 268.28 167.702 268.176C167.702 268.176 167.509 268.072 167.125 267.864L164.433 266.409C164.241 266.305 164.048 266.201 163.856 266.098C163.856 266.098 163.561 266.185 163.176 265.977C162.88 266.064 162.688 265.96 162.585 266.151C162.585 266.151 162.482 266.342 162.378 266.533L158.145 274.365L156.414 273.429L160.751 265.407C160.855 265.215 160.958 265.024 160.958 265.024C160.958 265.024 161.061 264.833 160.869 264.73C160.677 264.626 160.78 264.435 160.78 264.435C160.78 264.435 160.883 264.244 160.986 264.053L161.503 263.097L161.31 262.994Z" fill="#D6D6D6"/>
<path d="M175.285 282.643C175.182 282.834 174.886 282.921 174.399 282.904C174.103 282.992 173.911 282.888 173.719 282.784C173.719 282.784 173.526 282.68 173.142 282.472L169.489 280.497C169.104 280.289 169.015 279.994 168.734 279.595L168.363 278.901C168.082 278.503 168.096 278.017 168.303 277.635L169.645 275.151C169.852 274.769 170.251 274.491 170.738 274.508L171.522 274.438C172.01 274.455 172.305 274.368 172.69 274.576L176.343 276.55C176.535 276.654 176.727 276.758 176.92 276.862C176.92 276.862 177.112 276.966 177.009 277.157C177.098 277.452 177.098 277.452 176.994 277.643L178.337 275.16C178.44 274.969 178.543 274.778 178.543 274.778C178.543 274.778 178.646 274.587 178.454 274.483C178.262 274.379 178.365 274.188 178.173 274.084C178.173 274.084 177.981 273.98 177.788 273.876L174.328 272.005C174.135 271.901 173.943 271.797 173.751 271.693C173.751 271.693 173.455 271.781 172.967 271.764L172.138 270.081L172.921 270.011C173.217 269.924 173.512 269.837 173.704 269.941C173.704 269.941 173.897 270.045 174.281 270.252L179.088 272.851C179.473 273.059 179.562 273.354 179.843 273.753L180.213 274.446C180.494 274.845 180.48 275.331 180.274 275.713L176.969 281.826C176.866 282.017 176.763 282.208 176.763 282.208C176.763 282.208 176.66 282.399 176.852 282.503C176.941 282.798 176.941 282.798 176.941 282.798C176.941 282.798 176.838 282.989 176.734 283.18L176.218 284.135L175.449 283.719C175.257 283.615 175.064 283.511 174.872 283.407C174.872 283.407 174.783 283.112 174.591 283.008C175.271 283.129 175.182 282.834 175.285 282.643ZM171.554 276.677L170.728 278.205C170.624 278.396 170.521 278.587 170.521 278.587C170.521 278.587 170.418 278.778 170.61 278.882C170.699 279.177 170.699 279.177 170.891 279.281C170.891 279.281 171.084 279.385 171.468 279.593L173.968 280.944C174.16 281.048 174.352 281.152 174.545 281.256C174.545 281.256 174.84 281.168 175.225 281.376C175.52 281.289 175.712 281.393 175.816 281.202C175.816 281.202 175.919 281.011 176.022 280.82L176.745 279.483C176.848 279.292 176.952 279.101 176.952 279.101C176.952 279.101 177.055 278.91 176.863 278.806C176.774 278.511 176.774 278.511 176.581 278.407C176.581 278.407 176.389 278.303 176.197 278.199L173.12 276.536C172.928 276.432 172.736 276.328 172.544 276.225C172.544 276.225 172.351 276.121 172.056 276.208C171.76 276.295 171.76 276.295 171.76 276.295C171.657 276.486 171.657 276.486 171.554 276.677Z" fill="#D6D6D6"/>
<path d="M192.518 281.098C192.814 281.011 192.814 281.011 193.302 281.028L193.789 281.045C194.085 280.958 194.277 281.062 194.47 281.166C194.47 281.166 194.662 281.27 195.046 281.478L198.315 283.244C198.699 283.452 198.788 283.747 199.07 284.146L199.44 284.84C199.721 285.239 199.707 285.725 199.501 286.107L194.957 294.512L193.227 293.576L197.564 285.554C197.667 285.363 197.77 285.172 197.77 285.172C197.77 285.172 197.873 284.98 197.681 284.877C197.489 284.773 197.592 284.582 197.4 284.478C197.4 284.478 197.208 284.374 196.823 284.166L194.516 282.919C194.324 282.815 194.131 282.711 193.939 282.607C193.939 282.607 193.643 282.694 193.259 282.486C192.579 282.365 192.283 282.452 192.18 282.643L187.843 290.666L186.113 289.731L190.45 281.708C190.553 281.517 190.656 281.326 190.656 281.326C190.656 281.326 190.759 281.135 190.567 281.031C190.375 280.927 190.478 280.736 190.286 280.632C190.286 280.632 190.094 280.528 189.901 280.424L187.786 279.281C187.594 279.177 187.402 279.073 187.209 278.969C187.209 278.969 186.914 279.056 186.529 278.848C186.234 278.935 186.042 278.831 185.938 279.022C185.938 279.022 185.835 279.213 185.732 279.404L181.498 287.236L179.768 286.301L184.105 278.278C184.208 278.087 184.311 277.896 184.311 277.896C184.311 277.896 184.414 277.705 184.222 277.601C184.03 277.497 184.133 277.306 184.133 277.306C184.133 277.306 184.236 277.115 184.34 276.924L184.856 275.969L185.625 276.385C185.817 276.489 186.01 276.593 186.202 276.696C186.202 276.696 186.291 276.991 186.483 277.095C186.572 277.39 186.661 277.685 186.558 277.876C186.661 277.685 186.957 277.598 187.252 277.511C187.548 277.424 187.74 277.528 187.932 277.632C187.932 277.632 188.125 277.736 188.509 277.944L191.393 279.503C191.778 279.711 191.867 280.006 192.148 280.404C192.533 280.612 192.622 280.907 192.518 281.098Z" fill="#D6D6D6"/>
<path d="M205.796 297.902L206.625 299.585L205.842 299.655C205.546 299.742 205.251 299.829 205.059 299.725C205.059 299.725 204.866 299.621 204.482 299.413L198.906 296.399C198.521 296.191 198.432 295.896 198.151 295.497L197.781 294.804C197.5 294.405 197.514 293.919 197.72 293.537L201.334 286.851C201.541 286.469 201.94 286.191 202.427 286.208L203.211 286.138C203.699 286.154 203.994 286.067 204.379 286.275L209.185 288.874C209.378 288.978 209.659 289.377 209.94 289.775L210.311 290.469C210.592 290.868 210.578 291.354 210.371 291.736L208.099 295.939L200.985 292.093L199.953 294.003C199.85 294.194 199.746 294.385 199.746 294.385C199.746 294.385 199.643 294.576 199.835 294.68C199.924 294.975 199.924 294.975 200.117 295.079C200.117 295.079 200.309 295.183 200.693 295.391L204.731 297.573C204.923 297.677 205.116 297.781 205.308 297.885C205.205 298.076 205.5 297.989 205.796 297.902ZM207.181 293.961L208.523 291.478C208.626 291.287 208.73 291.096 208.73 291.096C208.73 291.096 208.833 290.905 208.641 290.801C208.448 290.697 208.552 290.506 208.359 290.402C208.359 290.402 208.167 290.298 207.783 290.09L204.514 288.323C204.322 288.219 204.129 288.115 203.937 288.011C203.937 288.011 203.745 287.907 203.449 287.994C203.154 288.081 203.154 288.081 203.154 288.081C203.154 288.081 203.051 288.272 202.947 288.464L201.605 290.947L207.181 293.961Z" fill="#D6D6D6"/>
<path d="M377.591 170.841L380.091 172.193C381.437 172.92 382.192 173.822 382.459 174.707C382.726 175.592 382.491 176.945 381.768 178.283C380.735 180.193 379.243 181.114 377.499 180.665C378.83 181.878 379.172 183.544 377.933 185.836C377.313 186.982 376.413 187.729 375.423 188.182C374.536 188.443 373.561 188.409 372.407 187.786L369.331 186.123L377.591 170.841ZM378.777 173.704L375.886 179.052C376.655 179.468 377.335 179.589 377.926 179.415C378.517 179.24 379.122 178.58 379.535 177.816C380.052 176.861 380.272 175.993 380.287 175.507C380.02 174.622 379.546 174.12 378.777 173.704ZM375.163 180.389L372.272 185.738C373.041 186.153 373.721 186.274 374.312 186.1C374.903 185.926 375.405 185.457 375.921 184.502C376.541 183.356 376.658 182.679 376.48 182.089C376.302 181.499 375.829 180.996 375.163 180.389Z" fill="#D6D6D6"/>
<path d="M384.52 194.333L382.597 193.294L383.32 191.957C382.227 192.6 381.444 192.67 380.675 192.255C379.905 191.839 379.535 191.145 379.46 190.364C379.193 189.479 379.827 187.847 380.963 185.746C381.996 183.836 383.014 182.412 383.812 181.856C384.712 181.108 385.688 181.142 386.649 181.662C387.034 181.87 387.315 182.269 387.596 182.667C387.685 182.962 387.863 183.552 387.849 184.038L388.469 182.892L390.392 183.932L384.712 194.437L384.52 194.333ZM382.077 191.038C382.654 191.35 383.053 191.072 383.555 190.603C384.057 190.134 384.573 189.179 385.4 187.651C386.122 186.314 386.535 185.55 386.653 184.873C386.77 184.196 386.681 183.901 386.105 183.589C385.528 183.277 385.232 183.364 384.73 183.833C384.228 184.302 383.815 185.066 383.092 186.403C382.266 187.932 381.75 188.887 381.632 189.564C381.412 190.432 381.693 190.831 382.077 191.038Z" fill="#D6D6D6"/>
<path d="M394.814 186.322L394.297 187.277C395.287 186.825 396.07 186.755 397.032 187.274C398.57 188.106 398.926 189.286 397.997 191.005L393.557 199.218L391.634 198.179L395.764 190.538C396.28 189.583 396.206 188.802 395.437 188.387C395.052 188.179 394.564 188.162 394.269 188.249C393.973 188.336 393.574 188.614 393.265 189.187L389.134 196.828L387.212 195.788L392.891 185.283L394.814 186.322Z" fill="#D6D6D6"/>
<path d="M403.363 204.519L401.248 203.376L401.358 196.277L398.364 201.817L396.441 200.778L404.908 185.114L406.831 186.154L401.565 195.895L406.439 192.853L408.554 193.997L403.281 197.317L403.363 204.519Z" fill="#D6D6D6"/>
<path d="M417.206 212.003L415.668 211.171L417.502 198.587L411.822 209.093L409.9 208.053L418.16 192.772L419.891 193.708L418.057 206.292L423.736 195.786L425.467 196.722L417.206 212.003Z" fill="#D6D6D6"/>
<path d="M426.435 216.992L424.512 215.952L425.235 214.615C424.142 215.258 423.358 215.329 422.589 214.913C421.82 214.497 421.45 213.803 421.375 213.022C421.108 212.138 421.742 210.506 422.878 208.404C423.91 206.494 424.929 205.07 425.726 204.514C426.627 203.767 427.603 203.8 428.564 204.32C428.949 204.528 429.23 204.927 429.511 205.326C429.6 205.621 429.778 206.211 429.764 206.696L430.384 205.55L432.306 206.59L426.627 217.096L426.435 216.992ZM423.992 213.697C424.569 214.008 424.968 213.73 425.47 213.261C425.972 212.792 426.488 211.837 427.314 210.309C428.037 208.972 428.45 208.208 428.568 207.531C428.685 206.854 428.596 206.559 428.019 206.247C427.443 205.935 427.147 206.022 426.645 206.491C426.143 206.961 425.73 207.725 425.007 209.062C424.181 210.59 423.665 211.545 423.547 212.222C423.326 213.09 423.608 213.489 423.992 213.697Z" fill="#D6D6D6"/>
<path d="M440.086 224.371L438.164 223.332L442.294 215.691C442.81 214.736 442.736 213.955 441.967 213.54C441.197 213.124 440.311 213.385 439.588 214.722L435.664 221.981L433.742 220.942L437.975 213.11C438.182 212.728 438.196 212.242 438.107 211.947C438.018 211.652 437.737 211.253 437.544 211.149C436.583 210.629 435.889 210.995 435.269 212.141L431.242 219.59L429.319 218.551L434.999 208.045L436.921 209.085L436.405 210.04C437.395 209.587 438.37 209.621 439.139 210.037C440.101 210.556 440.471 211.25 440.532 212.517C441.521 212.065 442.793 212.012 443.562 212.427C445.1 213.259 445.456 214.439 444.527 216.158L440.086 224.371Z" fill="#D6D6D6"/>
<path d="M451.705 224.481L447.282 222.09C446.663 223.237 446.25 224.001 446.132 224.678C446.015 225.355 446.193 225.944 446.77 226.256C447.154 226.464 447.642 226.481 448.041 226.203C448.439 225.925 448.749 225.352 449.059 224.779L450.789 225.714C449.447 228.197 447.674 228.72 445.751 227.68C443.636 226.537 443.412 224.194 445.271 220.756C447.336 216.936 449.419 215.84 451.726 217.088C452.495 217.503 453.058 218.301 453.517 219.29C453.784 220.175 453.446 221.72 452.31 223.821L451.897 224.585L451.705 224.481ZM450.608 221.914C451.124 220.958 451.537 220.194 451.655 219.517C451.669 219.031 451.683 218.545 451.106 218.234C450.53 217.922 450.042 217.905 449.732 218.478C449.333 218.756 448.92 219.52 448.301 220.666L450.608 221.914Z" fill="#D6D6D6"/>
<path d="M152.332 69.5582C151.356 69.5245 150.676 69.4037 149.907 68.9879C148.561 68.2603 147.717 67.0637 147.08 65.485C146.738 63.8192 147.297 61.4062 149.156 57.9679C151.118 54.3386 153.037 52.1672 154.721 51.3498C156.405 50.5324 158.061 50.6869 159.407 51.4145C159.983 51.7263 160.56 52.0381 161.226 52.6448L160.09 54.746C159.617 54.2432 159.335 53.8443 158.759 53.5325C157.797 53.0128 156.822 52.9791 155.729 53.6224C154.635 54.2656 153.322 55.7769 151.876 58.4511C151.05 59.9792 150.327 61.3163 150.003 62.3754C149.679 63.4344 149.562 64.1114 149.829 64.9962C150.096 65.8811 150.569 66.3839 151.338 66.7997C151.723 67.0075 152.403 67.1283 153.275 67.3531L152.139 69.4542L152.332 69.5582Z" fill="#D6D6D6"/>
<path d="M165.289 63.9737C164.328 63.454 163.455 63.2293 162.864 63.4035C162.273 63.5776 161.668 64.2378 161.048 65.3838L157.228 72.4514L154.92 71.2042L161.219 59.5522L163.527 60.7995L162.597 62.5186C163.897 61.4933 165.168 61.44 166.322 62.0636L166.514 62.1675L165.481 64.0777L165.289 63.9737Z" fill="#D6D6D6"/>
<path d="M171.847 73.4431L166.848 70.7408C166.125 72.0779 165.609 73.033 165.491 73.7099C165.374 74.3869 165.552 74.9768 166.321 75.3926C166.898 75.7044 167.193 75.6173 167.592 75.3392C167.991 75.0611 168.301 74.4881 168.714 73.724L170.637 74.7634C169.191 77.4376 167.211 78.3421 164.904 77.0949C162.404 75.7437 162.283 73.2099 164.349 69.3896C166.62 65.1872 169.102 63.8136 171.602 65.1648C172.563 65.6845 173.125 66.4823 173.482 67.6621C173.838 68.8419 173.204 70.474 171.965 72.7662L171.655 73.3392L171.847 73.4431ZM170.661 70.5807C171.281 69.4346 171.694 68.6705 171.812 67.9935C171.929 67.3166 171.648 66.9177 171.263 66.7098C170.686 66.398 170.199 66.3811 169.697 66.8502C169.195 67.3193 168.782 68.0834 168.162 69.2295L170.661 70.5807Z" fill="#D6D6D6"/>
<path d="M186.339 65.4793L188.454 66.6227L178.851 84.3871L176.736 83.2438L177.562 81.7157C176.366 82.55 175.287 82.7073 174.325 82.1876C173.749 81.8758 173.275 81.3729 173.097 80.783C172.727 80.0892 172.844 79.4122 172.962 78.7352C173.182 77.8672 173.802 76.7211 174.628 75.193C175.661 73.2828 176.28 72.1368 176.989 71.2856C177.594 70.6255 178.096 70.1564 178.983 69.8951C179.574 69.721 180.254 69.8418 181.023 70.2575C181.984 70.7772 182.444 71.766 182.312 72.929L186.339 65.4793ZM180.04 77.1313C180.866 75.6032 181.382 74.6481 181.5 73.9711C181.617 73.2941 181.439 72.7042 180.863 72.3924C180.286 72.0806 179.695 72.2548 179.193 72.7239C178.691 73.193 177.879 74.2351 177.156 75.5723C176.33 77.1004 175.903 78.3504 175.785 79.0274C175.668 79.7044 175.846 80.2943 176.423 80.6061C176.999 80.9179 177.59 80.7438 178.092 80.2746C178.594 79.8055 179.214 78.6594 180.04 77.1313Z" fill="#D6D6D6"/>
<path d="M189.996 70.6654C190.202 70.2833 190.498 70.1963 190.793 70.1092C191.089 70.0221 191.577 70.039 191.769 70.1429C192.153 70.3508 192.242 70.6457 192.331 70.9407C192.42 71.2356 192.406 71.7216 192.303 71.9126C192.096 72.2947 191.801 72.3817 191.505 72.4688C191.21 72.5559 190.722 72.539 190.53 72.4351C190.145 72.2272 190.056 71.9323 189.967 71.6373C189.878 71.3424 189.892 70.8564 189.996 70.6654ZM188.329 74.2076L190.444 75.3509L184.146 87.0029L182.031 85.8596L188.329 74.2076Z" fill="#D6D6D6"/>
<path d="M196.629 80.9152L195.283 80.1877L189.913 90.1205L187.606 88.8733L192.976 78.9404L191.63 78.2129L192.559 76.4937L193.905 77.2213L195.66 73.974L197.968 75.2213L196.212 78.4685L197.558 79.1961L196.629 80.9152Z" fill="#D6D6D6"/>
<path d="M205.975 98.5566C204.999 98.5229 204.319 98.4021 203.55 97.9863C202.204 97.2588 201.36 96.0621 200.723 94.4834C200.381 92.8176 200.94 90.4046 202.799 86.9663C204.761 83.337 206.68 81.1656 208.364 80.3482C210.048 79.5308 211.704 79.6853 213.05 80.4129C213.627 80.7247 214.204 81.0365 214.869 81.6433L213.734 83.7444C213.26 83.2416 212.979 82.8427 212.402 82.5309C211.441 82.0112 210.465 81.9775 209.372 82.6208C208.279 83.264 206.965 84.7753 205.519 87.4495C204.693 88.9777 203.97 90.3148 203.646 91.3738C203.322 92.4328 203.205 93.1098 203.472 93.9946C203.739 94.8795 204.212 95.3823 204.982 95.7981C205.366 96.006 206.046 96.1267 206.919 96.3515L205.783 98.4527L205.975 98.5566Z" fill="#D6D6D6"/>
<path d="M215.575 104.239L213.267 102.992L213.99 101.655C212.794 102.489 211.818 102.455 211.049 102.04C210.28 101.624 209.91 100.93 209.554 99.7502C209.39 98.6743 209.831 96.9383 211.174 94.4551C212.413 92.1629 213.431 90.7388 214.332 89.9916C215.233 89.2443 216.312 89.087 217.465 89.7107C218.042 90.0225 218.323 90.4214 218.412 90.7163C218.694 91.1152 218.679 91.6012 218.754 92.3821L219.477 91.045L221.784 92.2922L215.382 104.135L215.575 104.239ZM213.043 100.649C213.62 100.961 214.211 100.787 214.713 100.318C215.318 99.6576 215.835 98.7025 216.764 96.9833C217.487 95.6462 218.106 94.5001 218.224 93.8231C218.341 93.1462 218.163 92.5563 217.586 92.2444C217.01 91.9326 216.522 91.9158 216.02 92.3849C215.518 92.854 214.809 93.7051 214.086 95.0422C213.157 96.7614 212.537 97.9075 212.42 98.5845C212.288 99.7474 212.466 100.337 213.043 100.649Z" fill="#D6D6D6"/>
<path d="M229.122 98.4806C228.161 97.9609 227.289 97.7361 226.698 97.9103C226.107 98.0845 225.501 98.7446 224.882 99.8907L221.061 106.958L218.754 105.711L225.053 94.0591L227.36 95.3063L226.431 97.0254C227.73 96.0001 229.001 95.9468 230.155 96.5704L230.347 96.6743L229.315 98.5845L229.122 98.4806Z" fill="#D6D6D6"/>
<path d="M239.982 94.4778L242.097 95.6211L232.494 113.386L230.379 112.242L231.205 110.714C230.009 111.548 228.93 111.706 227.969 111.186C227.392 110.874 226.918 110.371 226.74 109.781C226.562 109.192 226.487 108.411 226.605 107.734C226.826 106.866 227.445 105.72 228.271 104.191C229.304 102.281 229.923 101.135 230.632 100.284C231.237 99.6239 231.739 99.1548 232.626 98.8936C233.217 98.7194 233.897 98.8402 234.666 99.2559C235.628 99.7756 236.087 100.764 235.955 101.927L239.982 94.4778ZM233.683 106.13C234.509 104.602 235.026 103.647 235.143 102.97C235.261 102.293 235.083 101.703 234.506 101.391C233.929 101.079 233.338 101.253 232.836 101.722C232.334 102.191 231.522 103.234 230.799 104.571C229.973 106.099 229.546 107.349 229.429 108.026C229.311 108.703 229.489 109.293 230.066 109.605C230.643 109.916 231.234 109.742 231.736 109.273C232.238 108.804 232.857 107.658 233.683 106.13Z" fill="#D6D6D6"/>
<path d="M92.0607 183.35C91.1314 185.07 90.2163 186.303 89.2265 186.755C88.2366 187.207 87.1578 187.365 86.0042 186.741C84.8505 186.117 84.288 185.32 84.2274 184.053C84.1669 182.786 84.5942 181.536 85.5235 179.817C86.4529 178.097 87.3679 176.864 88.3578 176.412C89.3476 175.96 90.4265 175.802 91.5801 176.426C92.7338 177.05 93.2963 177.848 93.3568 179.114C93.4174 180.381 92.9901 181.631 92.0607 183.35ZM86.8694 180.544C86.1466 181.881 85.8226 182.94 85.7051 183.617C85.5876 184.294 85.9579 184.988 86.5347 185.3C87.1115 185.612 87.8948 185.542 88.3969 185.072C88.8989 184.603 89.6075 183.752 90.3303 182.415C91.0531 181.078 91.3771 180.019 91.4946 179.342C91.6121 178.665 91.2419 177.971 90.665 177.659C90.0882 177.347 89.3049 177.418 88.8029 177.887C88.3008 178.356 87.5922 179.207 86.8694 180.544Z" fill="#D6D6D6"/>
<path d="M95.3361 191.539L93.7979 190.708L97.3087 184.213C97.7218 183.449 98.0315 182.876 98.3413 182.303C98.0458 182.39 98.0458 182.39 97.7503 182.477C97.4547 182.564 96.8637 182.738 95.4893 182.983L95.2365 181.612L99.3597 180.879L100.706 181.606L95.3361 191.539Z" fill="#D6D6D6"/>
<path d="M105.527 197.048L98.7971 193.41L99.4166 192.264L103.259 191.132C104.441 190.783 105.327 190.522 105.726 190.244C106.125 189.966 106.42 189.879 106.819 189.601C107.115 189.514 107.321 189.132 107.528 188.75C107.734 188.368 107.748 187.882 107.763 187.396C107.674 187.101 107.392 186.702 106.816 186.39C106.431 186.182 106.046 185.974 105.559 185.957C105.071 185.94 104.583 185.924 103.992 186.098L103.547 184.623C104.33 184.553 105.114 184.483 105.601 184.499C106.281 184.62 106.962 184.741 107.538 185.053C108.5 185.573 109.166 186.179 109.433 187.064C109.7 187.949 109.582 188.626 109.169 189.39C108.963 189.772 108.653 190.345 108.254 190.623C107.855 190.901 107.456 191.179 106.762 191.545C106.171 191.719 105.284 191.98 104.102 192.328L101.443 193.112L106.249 195.71L105.527 197.048Z" fill="#D6D6D6"/>
<path d="M117.155 193.46C116.846 194.033 116.343 194.503 115.752 194.677C115.161 194.851 114.378 194.921 113.801 194.609C114.467 195.216 114.941 195.719 115.119 196.309C115.297 196.899 115.179 197.576 114.869 198.149C114.353 199.104 113.556 199.66 112.669 199.921C111.59 200.079 110.525 199.75 109.372 199.126C108.218 198.503 107.36 197.792 106.798 196.994L107.52 195.657C107.802 196.056 108.275 196.559 108.556 196.958C108.838 197.357 109.415 197.668 109.799 197.876C110.568 198.292 111.248 198.413 111.736 198.43C112.224 198.446 112.726 197.977 113.036 197.404C113.345 196.831 113.36 196.345 113.078 195.946C112.797 195.548 112.131 194.941 111.362 194.525L110.401 194.005L111.124 192.668L112.085 193.188C113.623 194.019 114.702 193.862 115.322 192.716C115.528 192.334 115.542 191.848 115.453 191.553C115.364 191.258 114.891 190.755 114.506 190.547C114.122 190.34 113.737 190.132 113.249 190.115C112.762 190.098 112.274 190.081 111.786 190.064L111.636 188.502C113.011 188.258 114.075 188.587 115.421 189.314C116.383 189.834 117.049 190.441 117.419 191.135C117.686 192.019 117.568 192.696 117.155 193.46Z" fill="#D6D6D6"/>
<path d="M323.566 318.123L330.487 321.864C330.68 321.968 330.961 322.367 331.05 322.662L331.228 323.252C331.317 323.547 331.303 324.033 331.096 324.415L326.243 333.393C326.036 333.775 325.741 333.862 325.342 334.14L324.751 334.314C324.456 334.401 323.968 334.384 323.775 334.28L316.854 330.539C316.661 330.435 316.38 330.036 316.291 329.741L316.113 329.151C316.024 328.856 316.038 328.37 316.245 327.988L321.098 319.01C321.305 318.628 321.6 318.541 321.999 318.263L322.59 318.089C322.885 318.002 323.373 318.019 323.566 318.123ZM325.104 332.283L329.647 323.878C329.75 323.687 329.853 323.496 329.853 323.496C329.853 323.496 329.957 323.305 329.764 323.201C329.572 323.097 329.675 322.906 329.675 322.906C329.675 322.906 329.483 322.802 329.291 322.699L323.715 319.684C323.523 319.58 323.33 319.476 323.33 319.476C323.33 319.476 323.138 319.373 323.035 319.564C322.843 319.46 322.739 319.651 322.739 319.651C322.739 319.651 322.636 319.842 322.533 320.033L317.99 328.437C317.886 328.628 317.783 328.819 317.783 328.819C317.783 328.819 317.68 329.01 317.872 329.114C318.064 329.218 317.961 329.409 317.961 329.409C317.961 329.409 318.153 329.513 318.346 329.617L323.921 332.631C324.114 332.735 324.306 332.839 324.306 332.839C324.306 332.839 324.498 332.943 324.602 332.752C324.705 332.561 324.897 332.665 324.897 332.665C325 332.474 325 332.474 325.104 332.283Z" fill="#D6D6D6"/>
<path d="M333.524 328.196L333.168 327.016L337.114 325.693L339.229 326.837L332.62 339.062L331.274 338.334L337.057 327.637C337.16 327.446 337.263 327.255 337.263 327.255L333.524 328.196Z" fill="#D6D6D6"/>
<path d="M349.137 331.946L350.483 332.674L333.82 341.438L332.474 340.71L349.137 331.946Z" fill="#D6D6D6"/>
<path d="M347.728 340.07L348.91 339.722C349.205 339.635 349.398 339.739 349.59 339.843C349.398 339.739 349.205 339.635 349.116 339.34L348.746 338.646C348.657 338.351 348.76 338.16 348.864 337.969L350.516 334.913C350.722 334.531 351.018 334.444 351.416 334.165L352.008 333.991C352.303 333.904 352.791 333.921 352.983 334.025L358.367 336.935C358.559 337.039 358.84 337.438 358.929 337.733L359.107 338.323C359.196 338.618 359.182 339.104 358.976 339.486L357.323 342.542C357.22 342.733 357.117 342.924 356.821 343.011L356.038 343.082C355.743 343.169 355.55 343.065 355.358 342.961C355.55 343.065 355.743 343.169 355.832 343.464L356.188 344.643C356.277 344.938 356.173 345.129 355.967 345.511L354.315 348.568C354.108 348.95 353.813 349.037 353.414 349.315C353.414 349.315 353.118 349.402 352.823 349.489C352.527 349.576 352.039 349.559 351.847 349.455L346.079 346.337C345.887 346.233 345.605 345.834 345.516 345.539C345.427 345.244 345.235 345.14 345.338 344.949C345.249 344.654 345.264 344.169 345.47 343.786L347.122 340.73C347.329 340.348 347.624 340.261 347.728 340.07ZM353.984 343.205L350.523 341.334C350.33 341.23 350.138 341.126 350.138 341.126C350.138 341.126 349.946 341.022 349.65 341.109L349.059 341.284C348.764 341.371 348.764 341.371 348.764 341.371C348.764 341.371 348.661 341.562 348.557 341.753L347.215 344.236C347.112 344.427 347.008 344.618 347.008 344.618C347.008 344.618 346.905 344.809 347.097 344.913C347.29 345.017 347.186 345.208 347.186 345.208C347.186 345.208 347.379 345.312 347.571 345.416L351.993 347.806C352.185 347.91 352.378 348.014 352.378 348.014C352.378 348.014 352.57 348.118 352.673 347.927C352.866 348.031 352.969 347.84 352.969 347.84C352.969 347.84 353.072 347.649 353.175 347.458L354.518 344.975C354.621 344.784 354.724 344.593 354.724 344.593L354.635 344.298L354.457 343.708C354.368 343.413 354.368 343.413 354.176 343.309C354.368 343.413 354.176 343.309 353.984 343.205ZM357.067 337.961L353.029 335.778C352.837 335.674 352.645 335.57 352.645 335.57C352.645 335.57 352.453 335.466 352.349 335.657C352.157 335.553 352.054 335.744 352.054 335.744C352.054 335.744 351.951 335.935 351.847 336.126L350.608 338.418C350.505 338.609 350.402 338.8 350.402 338.8L350.491 339.095L350.669 339.685C350.861 339.789 350.758 339.98 350.758 339.98C350.758 339.98 350.95 340.084 351.142 340.188L354.026 341.747C354.219 341.851 354.411 341.955 354.411 341.955C354.411 341.955 354.603 342.059 354.706 341.868L355.297 341.694C355.593 341.607 355.593 341.607 355.593 341.607C355.593 341.607 355.696 341.416 355.799 341.225L357.039 338.933C357.142 338.742 357.245 338.55 357.245 338.55C357.245 338.55 357.348 338.359 357.156 338.256C356.964 338.152 357.067 337.961 357.067 337.961C357.452 338.168 357.452 338.168 357.067 337.961Z" fill="#D6D6D6"/>
<path d="M365.289 340.677L372.21 344.419C372.403 344.523 372.684 344.922 372.773 345.216L372.951 345.806C373.04 346.101 373.026 346.587 372.819 346.969L367.966 355.947C367.76 356.329 367.464 356.416 367.065 356.694L366.474 356.868C366.179 356.956 365.691 356.939 365.499 356.835L358.577 353.093C358.385 352.989 358.103 352.59 358.014 352.295L357.836 351.705C357.747 351.41 357.761 350.924 357.968 350.542L362.821 341.565C363.028 341.183 363.323 341.095 363.722 340.817L364.313 340.643C364.609 340.556 365.096 340.573 365.289 340.677ZM366.827 354.837L371.37 346.433C371.473 346.242 371.577 346.051 371.577 346.051C371.577 346.051 371.68 345.86 371.488 345.756C371.295 345.652 371.399 345.461 371.399 345.461C371.399 345.461 371.206 345.357 371.014 345.253L365.438 342.239C365.246 342.135 365.054 342.031 365.054 342.031C365.054 342.031 364.861 341.927 364.758 342.118C364.566 342.014 364.463 342.205 364.463 342.205C364.463 342.205 364.359 342.396 364.256 342.587L359.713 350.992C359.609 351.183 359.506 351.374 359.506 351.374C359.506 351.374 359.403 351.565 359.595 351.669C359.787 351.773 359.684 351.964 359.684 351.964C359.684 351.964 359.876 352.068 360.069 352.172L365.645 355.186C365.837 355.29 366.029 355.394 366.029 355.394C366.029 355.394 366.221 355.498 366.325 355.307C366.517 355.411 366.62 355.22 366.62 355.22C366.723 355.029 366.723 355.029 366.827 354.837Z" fill="#D6D6D6"/>
<path d="M288.74 303.492L292.756 299.739L293.333 300.051L288.814 304.273L288.045 303.857L289.103 297.764L289.68 298.076L288.74 303.492Z" fill="#D6D6D6"/>
<path d="M291.032 305.226L295.551 301.004L296.32 301.42L295.262 307.513L294.685 307.201L294.92 305.847L292.421 304.496L291.417 305.434L291.032 305.226ZM295.818 301.889L295.714 302.08L293.204 304.425L295.319 305.569L295.907 302.184C295.714 302.08 295.818 301.889 295.818 301.889Z" fill="#D6D6D6"/>
<path d="M299.891 309.521L299.581 310.094L296.505 308.431L299.292 303.274L299.869 303.586L297.391 308.17L299.891 309.521Z" fill="#D6D6D6"/>
<path d="M303.138 305.353L303.715 305.664L300.927 310.822L300.35 310.51L303.138 305.353Z" fill="#D6D6D6"/>
<path d="M302.568 311.462L305.253 306.496L307.945 307.951C308.137 308.055 308.137 308.055 308.226 308.35L308.685 309.339C308.774 309.634 308.774 309.634 308.671 309.825L307.019 312.881C306.916 313.072 306.916 313.072 306.62 313.159L305.541 313.316C305.246 313.403 305.246 313.403 305.054 313.299L302.362 311.844L302.568 311.462ZM306.456 312.083L307.902 309.409C308.005 309.218 308.005 309.218 307.916 308.923L307.738 308.333C307.649 308.038 307.649 308.038 307.457 307.934L305.534 306.895L303.366 310.906L305.289 311.945C305.481 312.049 305.481 312.049 305.776 311.962L306.367 311.788C306.353 312.274 306.456 312.083 306.456 312.083Z" fill="#D6D6D6"/>
<path d="M285.61 306.984L289.455 309.063L289.145 309.636L287.415 308.701L284.937 313.285L284.36 312.973L286.838 308.389L285.3 307.558L285.61 306.984Z" fill="#D6D6D6"/>
<path d="M293.493 311.246L294.069 311.558L291.281 316.715L290.705 316.403L291.944 314.111L289.252 312.656L288.013 314.948L287.436 314.636L290.224 309.479L290.801 309.791L289.562 312.083L292.253 313.538L293.493 311.246Z" fill="#D6D6D6"/>
<path d="M295.416 312.285L298.107 313.741C298.3 313.844 298.3 313.844 298.389 314.139L298.478 314.434C298.567 314.729 298.567 314.729 298.463 314.92L297.534 316.639C297.431 316.831 297.431 316.83 297.135 316.918L296.84 317.005C296.647 316.901 296.544 317.092 296.352 316.988L295.967 316.78L296.117 318.342C296.117 318.342 296.014 318.533 296.206 318.637C296.206 318.637 296.206 318.637 296.295 318.932C296.295 318.932 296.487 319.036 296.384 319.227L296.281 319.418L296.177 319.609L295.985 319.505L295.793 319.401C295.793 319.401 295.793 319.401 295.601 319.297L295.408 319.193C295.216 319.089 295.319 318.898 295.319 318.898L295.184 316.85L294.223 316.33L293.087 318.432L292.318 318.016L295.416 312.285ZM295.875 313.274L294.739 315.375L296.469 316.311L296.662 316.415C296.662 316.415 296.662 316.415 296.854 316.519C296.854 316.519 296.854 316.519 296.957 316.328L297.783 314.8L297.887 314.609C297.887 314.609 297.887 314.609 297.694 314.505C297.694 314.505 297.694 314.505 297.502 314.401L295.772 313.465L295.875 313.274Z" fill="#D6D6D6"/>
<path d="M303.683 316.754L304.26 317.066L301.885 321.46C301.781 321.651 301.781 321.651 301.486 321.738L301.19 321.825C300.895 321.912 300.895 321.912 300.702 321.808L298.395 320.561C298.203 320.457 298.203 320.457 298.114 320.162L298.025 319.867C297.936 319.572 297.936 319.572 298.039 319.381L300.414 314.988L300.991 315.299L298.719 319.502L298.616 319.693C298.616 319.693 298.616 319.693 298.808 319.797C298.808 319.797 298.808 319.797 299 319.901L300.923 320.94L301.115 321.044C301.115 321.044 301.115 321.044 301.308 321.148C301.308 321.148 301.308 321.148 301.411 320.957L303.683 316.754Z" fill="#D6D6D6"/>
<path fill-rule="evenodd" clip-rule="evenodd" d="M310.495 314.266L307.19 320.379L313.649 319.921L310.495 314.266Z" fill="#D6D6D6"/>
</g>
</g>
<defs>
<filter id="filter0_d_2_1042" x="-4.99976" y="-5" width="542.93" height="476.947" filterUnits="userSpaceOnUse" color-interpolation-filters="sRGB">
<feFlood flood-opacity="0" result="BackgroundImageFix"/>
<feColorMatrix in="SourceAlpha" type="matrix" values="0 0 0 0 0 0 0 0 0 0 0 0 0 0 0 0 0 0 127 0" result="hardAlpha"/>
<feOffset dx="10" dy="10"/>
<feGaussianBlur stdDeviation="10"/>
<feComposite in2="hardAlpha" operator="out"/>
<feColorMatrix type="matrix" values="0 0 0 0 0 0 0 0 0 0 0 0 0 0 0 0 0 0 0.25 0"/>
<feBlend mode="normal" in2="BackgroundImageFix" result="effect1_dropShadow_2_1042"/>
<feBlend mode="normal" in="SourceGraphic" in2="effect1_dropShadow_2_1042" result="shape"/>
</filter>
<linearGradient id="paint0_linear_2_1042" x1="90.8995" y1="362.689" x2="429.39" y2="75.484" gradientUnits="userSpaceOnUse">
<stop stop-color="#070707"/>
<stop offset="1" stop-color="#404040"/>
</linearGradient>
<linearGradient id="paint1_linear_2_1042" x1="444.62" y1="319.023" x2="-132.091" y2="31.826" gradientUnits="userSpaceOnUse">
<stop/>
<stop offset="0.258" stop-color="#020202"/>
<stop offset="0.38" stop-color="#0A0A0A"/>
<stop offset="0.4735" stop-color="#171717"/>
<stop offset="0.5526" stop-color="#292929"/>
<stop offset="0.6224" stop-color="#414141"/>
<stop offset="0.6858" stop-color="#5E5E5E"/>
<stop offset="0.7443" stop-color="#818181"/>
<stop offset="0.799" stop-color="#AAAAAA"/>
<stop offset="0.8486" stop-color="#D7D7D7"/>
<stop offset="0.8871" stop-color="white"/>
</linearGradient>
<linearGradient id="paint2_linear_2_1042" x1="164.812" y1="88.6576" x2="110.992" y2="188.218" gradientUnits="userSpaceOnUse">
<stop stop-color="#FFCA3F"/>
<stop offset="0.0969388" stop-color="#CA7C22"/>
<stop offset="0.1888" stop-color="#FDDB7A"/>
<stop offset="0.4201" stop-color="#FFAD45"/>
<stop offset="0.5538" stop-color="#A95F0D"/>
<stop offset="0.6562" stop-color="#FFAD45"/>
<stop offset="0.7903" stop-color="#FFFF9B"/>
<stop offset="0.868" stop-color="#FFED7C"/>
<stop offset="1" stop-color="#FFCA3F"/>
</linearGradient>
<linearGradient id="paint3_linear_2_1042" x1="177.856" y1="64.5261" x2="110.47" y2="189.182" gradientUnits="userSpaceOnUse">
<stop stop-color="#FFCA3F"/>
<stop offset="0.0969388" stop-color="#CA7C22"/>
<stop offset="0.1888" stop-color="#FDDB7A"/>
<stop offset="0.4201" stop-color="#FFAD45"/>
<stop offset="0.5538" stop-color="#A95F0D"/>
<stop offset="0.6562" stop-color="#FFAD45"/>
<stop offset="0.7903" stop-color="#FFFF9B"/>
<stop offset="0.868" stop-color="#FFED7C"/>
<stop offset="1" stop-color="#FFCA3F"/>
</linearGradient>
<clipPath id="clip0_2_1042">
<rect x="131.079" y="5" width="428.389" height="265.127" rx="19" transform="rotate(28.3946 131.079 5)" fill="white"/>
</clipPath>
</defs>
</svg>
