<svg width="68" height="68" viewBox="0 0 68 68" fill="none" xmlns="http://www.w3.org/2000/svg">
<g clip-path="url(#clip0_2_1913)">
<path d="M33.9717 5.6665C18.3317 5.6665 5.66675 18.3598 5.66675 33.9998C5.66675 49.6398 18.3317 62.3332 33.9717 62.3332C49.6401 62.3332 62.3334 49.6398 62.3334 33.9998C62.3334 18.3598 49.6401 5.6665 33.9717 5.6665ZM34.0001 56.6665C21.4767 56.6665 11.3334 46.5232 11.3334 33.9998C11.3334 21.4765 21.4767 11.3332 34.0001 11.3332C46.5234 11.3332 56.6668 21.4765 56.6668 33.9998C56.6668 46.5232 46.5234 56.6665 34.0001 56.6665Z" fill="black"/>
<path d="M35.4167 19.8335H31.1667V36.8335L46.0417 45.7585L48.1667 42.2735L35.4167 34.7085V19.8335Z" fill="black"/>
</g>
<defs>
<clipPath id="clip0_2_1913">
<rect width="68" height="68" fill="white"/>
</clipPath>
</defs>
</svg>
