<svg width="68" height="68" viewBox="0 0 68 68" fill="none" xmlns="http://www.w3.org/2000/svg">
<path d="M39.4117 23.8283L35.4167 19.8333L21.25 34L35.4167 48.1667L39.4117 44.1717L32.1017 36.8333L59.5 36.8333L59.5 31.1667L32.1017 31.1667L39.4117 23.8283ZM14.1667 59.5L53.8333 59.5C56.9783 59.5 59.5 56.95 59.5 53.8333L59.5 42.5L53.8333 42.5L53.8333 53.8333L14.1667 53.8333L14.1667 14.1667L53.8333 14.1667L53.8333 25.5L59.5 25.5L59.5 14.1667C59.5 11.05 56.9783 8.49999 53.8333 8.49999L14.1667 8.49999C11.05 8.49999 8.50001 11.05 8.50001 14.1667L8.50001 53.8333C8.50001 56.95 11.05 59.5 14.1667 59.5Z" fill="white"/>
</svg>
