<svg width="172" height="52" viewBox="0 0 172 52" fill="none" xmlns="http://www.w3.org/2000/svg">
<g clip-path="url(#clip0_324_30)">
<path d="M6.42991 1.26609C3.57217 1.26609 1.25026 3.61739 1.25026 6.5113V44.6748C1.25026 47.5687 3.57217 49.92 6.42991 49.92H165.481C168.339 49.92 170.66 47.5687 170.66 44.6748V6.5113C170.66 3.61739 168.339 1.26609 165.481 1.26609H6.42991ZM165.481 51.2765H6.42991C2.85774 51.2765 0 48.2922 0 44.7652V6.5113C0 2.98435 2.85774 0 6.42991 0H165.481C169.053 0 171.911 2.98435 171.911 6.5113V44.6748C172 48.2922 169.053 51.2765 165.481 51.2765Z" fill="white"/>
<path d="M59.6555 13.3845L59.0304 11.3045C58.8517 10.7618 58.7624 10.2192 58.5838 9.76706C58.4945 10.2192 58.3159 10.8523 58.2266 11.3045L57.6015 13.3845H59.6555ZM57.2443 14.5601L56.5298 16.9114H54.9224L57.6015 8.50098H59.5662L62.2453 16.9114H60.6378L59.9234 14.5601" fill="white"/>
<path d="M64.5669 10.8523L65.5492 13.9271C65.7279 14.4697 65.8172 14.9219 65.9958 15.4645C66.0851 14.9219 66.2637 14.4697 66.4423 13.9271L67.4246 10.8523H69.0321L66.7102 16.9114H65.192L62.8701 10.8523" fill="white"/>
<path d="M73.4975 14.0174C72.4258 14.0174 71.3542 14.1982 71.3542 15.193C71.3542 15.8261 71.7114 16.0974 72.2472 16.0974C72.8723 16.0974 73.3189 15.7356 73.4082 15.2835C73.4082 15.193 73.4082 15.1026 73.4082 14.9217V14.0174H73.4975ZM75.0156 15.4643C75.0156 16.0069 75.0156 16.5495 75.1049 16.9113H73.7654L73.5868 16.2782C73.2296 16.7304 72.6044 17.0922 71.8007 17.0922C70.5504 17.0922 69.9253 16.1878 69.9253 15.2835C69.9253 13.7461 71.2649 12.9322 73.4975 13.0226V12.9322C73.4975 12.5704 73.3189 11.8469 72.2472 11.8469C71.6221 11.8469 70.9969 12.0278 70.6397 12.2991L70.3718 11.3043C70.8183 11.033 71.6221 10.7617 72.5151 10.7617C74.4798 10.7617 75.0156 12.0278 75.0156 13.2939" fill="white"/>
<path d="M77.1586 10.8521H78.6768V16.9113H77.1586V10.8521ZM77.8731 10.0382C77.3372 10.0382 77.0693 9.67649 77.0693 9.22431C77.0693 8.77214 77.4266 8.4104 77.9624 8.4104C78.4982 8.4104 78.7661 8.77214 78.8554 9.22431C78.7661 9.67649 78.4089 10.0382 77.8731 10.0382Z" fill="white"/>
<path d="M80.8203 17.0016H82.3385V8.04858H80.8203V17.0016Z" fill="white"/>
<path d="M87.6967 14.0174C86.625 14.0174 85.5534 14.1982 85.5534 15.193C85.5534 15.8261 85.9106 16.0974 86.4464 16.0974C87.0716 16.0974 87.5181 15.7356 87.6074 15.2835C87.6074 15.193 87.6074 15.1026 87.6074 14.9217V14.0174H87.6967ZM89.2149 15.4643C89.2149 16.0069 89.2149 16.5495 89.3042 16.9113H87.9646L87.786 16.2782C87.4288 16.7304 86.8036 17.0922 85.9999 17.0922C84.7496 17.0922 84.1245 16.1878 84.1245 15.2835C84.1245 13.7461 85.4641 12.9322 87.6967 13.0226V12.9322C87.6967 12.5704 87.5181 11.8469 86.4464 11.8469C85.8213 11.8469 85.1962 12.0278 84.8389 12.2991L84.571 11.3043C85.0176 11.033 85.8213 10.7617 86.7143 10.7617C88.679 10.7617 89.2149 12.0278 89.2149 13.2939" fill="white"/>
<path d="M92.8765 14.4695C92.8765 14.5599 92.8765 14.7408 92.8765 14.8312C93.0551 15.4642 93.591 15.9164 94.2161 15.9164C95.1984 15.9164 95.7343 15.1929 95.7343 13.9268C95.7343 12.8416 95.1984 11.9373 94.2161 11.9373C93.591 11.9373 93.0551 12.3895 92.8765 13.0225C92.8765 13.1129 92.7872 13.2938 92.7872 13.3842V14.4695H92.8765ZM91.3584 8.04858H92.8765V11.666C93.2337 11.1234 93.8589 10.6712 94.8412 10.6712C96.2701 10.6712 97.3417 11.9373 97.3417 13.746C97.3417 15.9164 96.0022 17.0016 94.5733 17.0016C93.7696 17.0016 93.1444 16.7303 92.6979 15.9164L92.6086 16.8208H91.269C91.269 16.3686 91.3584 15.7355 91.3584 15.1025" fill="white"/>
<path d="M99.1279 17.0016H100.646V8.04858H99.1279V17.0016Z" fill="white"/>
<path d="M106.54 13.2939C106.54 12.7513 106.272 11.8469 105.29 11.8469C104.308 11.8469 103.95 12.7513 103.861 13.2939H106.54ZM103.861 14.3791C103.861 15.4643 104.754 15.9165 105.736 15.9165C106.451 15.9165 106.897 15.8261 107.433 15.6452L107.612 16.7304C107.076 17.0017 106.362 17.0922 105.558 17.0922C103.593 17.0922 102.432 15.9165 102.432 14.0174C102.432 12.2991 103.414 10.7617 105.379 10.7617C107.344 10.7617 107.969 12.3895 107.969 13.7461C107.969 14.0174 107.969 14.2887 107.88 14.3791" fill="white"/>
<path d="M115.47 16.007C116.363 16.007 116.899 15.1931 116.899 13.927C116.899 12.9323 116.453 11.847 115.47 11.847C114.399 11.847 113.952 12.9323 113.952 13.927C114.042 15.1027 114.577 16.007 115.47 16.007ZM115.47 17.0923C113.774 17.0923 112.434 15.9166 112.434 13.927C112.434 11.9375 113.684 10.6714 115.56 10.6714C117.346 10.6714 118.507 11.9375 118.507 13.8366C118.507 16.0975 116.989 17.0923 115.47 17.0923Z" fill="white"/>
<path d="M120.293 12.661C120.293 11.9375 120.293 11.3949 120.204 10.8523H121.543L121.632 11.7566C121.9 11.3044 122.526 10.6714 123.597 10.6714C124.669 10.6714 125.74 11.3949 125.74 13.294V16.9114H124.222V13.5653C124.222 12.661 123.865 12.0279 123.061 12.0279C122.436 12.0279 122.079 12.4801 121.9 12.9323C121.811 13.0227 121.811 13.2036 121.811 13.3844V17.0018H120.293" fill="white"/>
<path d="M132.796 9.3147V10.8521H134.224V12.0277H132.796V14.7408C132.796 15.4643 132.974 15.826 133.599 15.826C133.867 15.826 134.046 15.826 134.224 15.7356V16.9112C134.046 17.0017 133.599 17.0921 133.153 17.0921C132.617 17.0921 132.17 16.9112 131.813 16.6399C131.456 16.2782 131.367 15.7356 131.367 14.9217V12.1182H130.474V10.8521H131.367V9.67644" fill="white"/>
<path d="M135.921 8.04858H137.439V11.666C137.618 11.3947 137.886 11.1234 138.153 10.9425C138.421 10.7616 138.779 10.6712 139.225 10.6712C140.207 10.6712 141.279 11.3947 141.279 13.2938V16.9112H139.761V13.5651C139.761 12.6608 139.404 12.0277 138.6 12.0277C137.975 12.0277 137.618 12.3895 137.439 12.9321C137.35 13.1129 137.35 13.2034 137.35 13.3842V17.0016H135.832" fill="white"/>
<path d="M147.173 13.2939C147.173 12.7513 146.906 11.8469 145.923 11.8469C144.941 11.8469 144.584 12.7513 144.494 13.2939H147.173ZM144.584 14.3791C144.584 15.4643 145.477 15.9165 146.459 15.9165C147.173 15.9165 147.62 15.8261 148.156 15.6452L148.424 16.7304C147.888 17.0017 147.173 17.0922 146.28 17.0922C144.316 17.0922 143.155 15.9165 143.155 14.0174C143.155 12.2991 144.137 10.7617 146.102 10.7617C148.067 10.7617 148.692 12.3895 148.692 13.7461C148.692 14.0174 148.692 14.2887 148.602 14.3791" fill="white"/>
<path d="M38.4009 25.1409C38.4009 20.9809 41.7945 18.9009 41.8838 18.8105C39.9191 15.9166 36.9721 15.5548 35.9004 15.5548C33.3999 15.2835 30.9887 17.0922 29.6491 17.0922C28.3096 17.0922 26.3449 15.5548 24.2909 15.6453C21.5224 15.6453 19.0219 17.2731 17.593 19.8053C14.7353 24.8696 16.8786 32.3757 19.647 36.4453C21.0759 38.4348 22.6834 40.6957 24.7374 40.6053C26.7914 40.5148 27.5951 39.2487 30.0956 39.2487C32.5962 39.2487 33.3106 40.6053 35.4539 40.5148C37.6865 40.5148 39.1154 38.5253 40.4549 36.4453C42.0624 34.1844 42.6875 31.8331 42.6875 31.7427C42.6875 31.7427 38.4009 30.1148 38.4009 25.1409Z" fill="white"/>
<path d="M34.2928 12.8417C35.3645 11.3947 36.1682 9.49557 35.9896 7.59644C34.3821 7.68687 32.3281 8.77209 31.1671 10.1286C30.0955 11.3043 29.2025 13.3843 29.4704 15.193C31.2565 15.3738 33.1318 14.2886 34.2928 12.8417Z" fill="white"/>
<path d="M63.4062 33.099L61.9774 28.5773C61.7988 28.1251 61.5309 27.0399 61.0843 25.3217H60.995C60.8164 26.0451 60.5485 27.1304 60.1913 28.5773L58.7624 33.099H63.4062ZM68.4073 40.2434H65.5495L63.9421 35.1791H58.4052L56.887 40.2434H54.0293L59.4769 23.0608H62.8704" fill="white"/>
<path d="M79.6594 34.0034C79.6594 32.8277 79.3915 31.833 78.8556 31.019C78.2305 30.2051 77.5161 29.753 76.5337 29.753C75.8193 29.753 75.2835 30.0243 74.7476 30.386C74.2118 30.8382 73.8546 31.4712 73.676 32.1947C73.5867 32.5564 73.5867 32.8277 73.5867 33.0086V35.0886C73.5867 35.993 73.8546 36.7164 74.3904 37.3495C74.9263 37.9825 75.6407 38.2538 76.5337 38.2538C77.5161 38.2538 78.3198 37.8921 78.9449 37.0782C79.3915 36.3547 79.6594 35.3599 79.6594 34.0034ZM82.4278 33.913C82.4278 35.993 81.892 37.7112 80.731 38.8869C79.7487 39.9721 78.4984 40.5147 76.9802 40.5147C75.3728 40.5147 74.2118 39.9721 73.4974 38.7964H73.4081V45.3077H70.729V31.9234C70.729 30.5669 70.729 29.2103 70.6396 27.8538H73.0509L73.2295 29.8434C74.1225 28.3964 75.5514 27.5825 77.3375 27.5825C78.7663 27.5825 80.0166 28.1251 80.9096 29.3008C81.892 30.4764 82.4278 32.0138 82.4278 33.913Z" fill="white"/>
<path d="M93.6799 34.0034C93.6799 32.8277 93.412 31.833 92.8762 31.019C92.2511 30.2051 91.5366 29.753 90.5543 29.753C89.8399 29.753 89.304 30.0243 88.7682 30.386C88.2324 30.8382 87.8752 31.4712 87.6965 32.1947C87.5179 32.5564 87.5179 32.8277 87.5179 33.099V35.179C87.5179 36.0834 87.7859 36.8069 88.3217 37.4399C88.8575 38.073 89.5719 38.3443 90.465 38.3443C91.4473 38.3443 92.2511 37.9825 92.8762 37.1686C93.412 36.3547 93.6799 35.3599 93.6799 34.0034ZM96.4484 33.913C96.4484 35.993 95.9125 37.7112 94.7516 38.8869C93.7692 39.9721 92.519 40.5147 91.0008 40.5147C89.3933 40.5147 88.2324 39.9721 87.5179 38.7964V45.3077H84.8388V31.9234C84.8388 30.5669 84.8388 29.2103 84.7495 27.8538H87.1607L87.3393 29.8434H87.4286C88.3217 28.3964 89.6612 27.5825 91.5366 27.5825C92.9655 27.5825 94.2158 28.1251 95.1088 29.3008C96.0019 30.4764 96.4484 32.0138 96.4484 33.913Z" fill="white"/>
<path d="M112.166 35.4503C112.166 36.8973 111.63 38.0729 110.648 38.9773C109.576 39.9721 107.969 40.5147 106.004 40.5147C104.218 40.5147 102.7 40.1529 101.628 39.4294L102.254 37.1686C103.414 37.8921 104.754 38.2538 106.183 38.2538C107.165 38.2538 107.969 37.9825 108.594 37.5303C109.13 37.0781 109.487 36.4451 109.487 35.6312C109.487 34.9077 109.219 34.3651 108.773 33.9129C108.326 33.4608 107.522 33.0086 106.451 32.5564C103.504 31.4712 101.986 29.7529 101.986 27.6729C101.986 26.226 102.521 25.1408 103.504 24.2364C104.575 23.3321 105.915 22.8799 107.612 22.8799C109.13 22.8799 110.47 23.1512 111.452 23.6938L110.737 25.9547C109.755 25.4121 108.683 25.1408 107.522 25.1408C106.54 25.1408 105.826 25.4121 105.29 25.8642C104.843 26.3164 104.575 26.7686 104.575 27.4016C104.575 28.1251 104.843 28.6677 105.379 29.1199C105.826 29.4816 106.629 29.9338 107.88 30.4764C109.309 31.1094 110.38 31.7425 111.095 32.5564C111.809 33.2799 112.166 34.2747 112.166 35.4503Z" fill="white"/>
<path d="M121.096 29.9339H118.149V35.9026C118.149 37.44 118.685 38.1635 119.757 38.1635C120.203 38.1635 120.65 38.1635 120.918 38.0731L121.007 40.1531C120.471 40.3339 119.757 40.4244 118.864 40.4244C117.792 40.4244 116.988 40.0626 116.363 39.4296C115.738 38.7965 115.47 37.6209 115.47 36.0835V29.8435H113.684V27.7635H115.47V25.5026L118.149 24.6887V27.7635H121.096" fill="white"/>
<path d="M131.813 34.0034C131.813 32.8278 131.545 31.9234 131.099 31.1095C130.563 30.1147 129.759 29.6626 128.688 29.6626C127.616 29.6626 126.723 30.1147 126.187 31.1095C125.74 31.9234 125.473 32.9182 125.473 34.0939C125.473 35.2695 125.74 36.1739 126.187 36.9878C126.812 37.9826 127.616 38.4347 128.688 38.4347C129.759 38.4347 130.563 37.8921 131.099 36.8973C131.545 36.1739 131.813 35.1791 131.813 34.0034ZM134.671 34.0034C134.671 35.9026 134.135 37.44 133.063 38.706C131.902 39.9721 130.474 40.6052 128.598 40.6052C126.812 40.6052 125.383 39.9721 124.312 38.7965C123.24 37.6208 122.704 36.0834 122.704 34.2747C122.704 32.3756 123.24 30.7478 124.312 29.5721C125.383 28.306 126.901 27.7634 128.777 27.7634C130.563 27.7634 131.992 28.3965 133.063 29.5721C134.135 30.5669 134.671 32.1043 134.671 34.0034Z" fill="white"/>
<path d="M143.422 30.2956C143.155 30.2051 142.887 30.2051 142.529 30.2051C141.547 30.2051 140.833 30.5669 140.297 31.2903C139.85 31.9234 139.582 32.7373 139.582 33.7321V40.2434H136.903V31.7425C136.903 30.2956 136.903 29.0295 136.814 27.8538H139.136L139.225 30.2051H139.314C139.582 29.3912 140.029 28.7582 140.654 28.2156C141.279 27.7634 141.904 27.5825 142.619 27.5825C142.887 27.5825 143.065 27.5825 143.333 27.673" fill="white"/>
<path d="M152.978 32.7373C152.978 31.9234 152.8 31.1999 152.442 30.6573C151.996 29.9338 151.281 29.4816 150.299 29.4816C149.406 29.4816 148.692 29.8434 148.156 30.5669C147.709 31.1999 147.441 31.833 147.352 32.7373H152.978ZM155.568 33.4608C155.568 33.913 155.568 34.3651 155.479 34.7269H147.352C147.352 35.993 147.799 36.8973 148.513 37.5303C149.227 38.073 150.12 38.4347 151.192 38.4347C152.353 38.4347 153.514 38.2538 154.496 37.8921L154.943 39.7912C153.782 40.3338 152.442 40.5147 150.835 40.5147C148.96 40.5147 147.441 39.9721 146.37 38.7964C145.298 37.7112 144.762 36.1738 144.762 34.2747C144.762 32.3756 145.298 30.8382 146.28 29.5721C147.352 28.2156 148.781 27.5825 150.567 27.5825C152.353 27.5825 153.693 28.2156 154.586 29.5721C155.211 30.6573 155.568 31.9234 155.568 33.4608Z" fill="white"/>
</g>
<defs>
<clipPath id="clip0_324_30">
<rect width="172" height="52" fill="white"/>
</clipPath>
</defs>
</svg>
