<svg width="172" height="52" viewBox="0 0 172 52" fill="none" xmlns="http://www.w3.org/2000/svg">
<g clip-path="url(#clip0_2_1641)">
<path d="M6.49897 1.89572C3.56108 1.89572 1.24638 4.33323 1.24638 7.22211V45.4096C1.24638 48.2985 3.56108 50.6457 6.40994 50.6457H165.412C168.261 50.6457 170.576 48.2985 170.576 45.4096V7.22211C170.576 4.33323 168.261 1.986 165.412 1.986H6.49897V1.89572ZM165.501 51.9999H6.49897C2.93789 51.9999 0 49.0207 0 45.4096V7.22211C0 3.611 2.93789 0.631836 6.49897 0.631836H165.501C169.062 0.631836 172 3.611 172 7.22211V45.4096C172 49.0207 169.062 51.9999 165.501 51.9999Z" fill="white"/>
<path d="M136.033 39.361H138.437V23.2013H136.033V39.361ZM157.4 28.9791L154.64 35.9304H154.551L151.702 28.9791H149.12L153.393 38.7291L150.99 44.1457H153.482L159.981 28.9791H157.4ZM143.956 37.4652C143.155 37.4652 142.087 37.1041 142.087 36.111C142.087 34.8471 143.422 34.3957 144.58 34.3957C145.648 34.3957 146.093 34.6666 146.716 34.9374C146.627 36.4721 145.381 37.4652 143.956 37.4652ZM144.224 28.7082C142.532 28.7082 140.752 29.4304 139.95 31.1457L142.087 32.0485C142.532 31.1457 143.333 30.8749 144.224 30.8749C145.47 30.8749 146.716 31.5971 146.716 32.9513V33.1318C146.271 32.861 145.381 32.4999 144.224 32.4999C141.998 32.4999 139.683 33.7638 139.683 36.111C139.683 38.2777 141.553 39.6318 143.6 39.6318C145.203 39.6318 146.093 38.9096 146.627 38.0971H146.716V39.361H149.031V33.2221C149.12 30.2429 146.983 28.7082 144.224 28.7082ZM129.623 30.9652H126.24V25.4582H129.623C131.404 25.4582 132.383 26.9929 132.383 28.2568C132.383 29.4304 131.404 30.9652 129.623 30.9652ZM129.534 23.2013H123.836V39.2707H126.24V33.1318H129.534C132.205 33.1318 134.787 31.236 134.787 28.1666C134.787 25.0971 132.205 23.2013 129.534 23.2013ZM98.5528 37.4652C96.9503 37.4652 95.5258 36.111 95.5258 34.1249C95.5258 32.2291 96.8612 30.7846 98.5528 30.7846C100.155 30.7846 101.402 32.2291 101.402 34.1249C101.402 36.111 100.155 37.4652 98.5528 37.4652ZM101.313 29.8818C100.689 29.2499 99.7101 28.6179 98.3747 28.6179C95.7039 28.6179 93.2111 31.0554 93.2111 34.1249C93.2111 37.1943 95.7039 39.6318 98.3747 39.6318C99.6211 39.6318 100.689 39.0902 101.224 38.3679H101.313V39.1805C101.313 41.2568 100.244 42.4304 98.4637 42.4304C97.0393 42.4304 96.149 41.3471 95.7039 40.4443L93.6563 41.3471C94.2795 42.7916 95.7929 44.5971 98.4637 44.5971C101.224 44.5971 103.627 42.9721 103.627 38.9096V29.0693H101.402V29.8818H101.313ZM105.141 39.361H107.544V23.2013H105.141V39.361ZM111.017 34.0346C110.927 31.9582 112.619 30.8749 113.865 30.8749C114.845 30.8749 115.646 31.3263 115.913 32.0485L111.017 34.0346ZM118.406 32.2291C117.961 30.9652 116.625 28.7082 113.776 28.7082C111.017 28.7082 108.702 30.9652 108.702 34.2152C108.702 37.2846 111.017 39.7221 114.043 39.7221C116.536 39.7221 117.961 38.1874 118.584 37.2846L116.714 36.0207C116.091 36.9235 115.29 37.5554 114.043 37.5554C112.797 37.5554 111.996 37.0138 111.462 35.9304L118.673 32.861L118.406 32.2291ZM60.8054 30.4235V32.7707H66.325C66.147 34.0346 65.7018 35.0277 65.0786 35.6596C64.2774 36.4721 63.031 37.3749 60.8054 37.3749C57.4223 37.3749 54.7515 34.5763 54.7515 31.1457C54.7515 27.7152 57.4223 24.9166 60.8054 24.9166C62.5859 24.9166 63.9213 25.6388 64.9006 26.5416L66.5031 24.9166C65.1677 23.5624 63.2981 22.5693 60.7163 22.5693C56.0869 22.5693 52.1697 26.361 52.1697 31.0554C52.1697 35.7499 56.0869 39.5416 60.7163 39.5416C63.2091 39.5416 65.0786 38.7291 66.5921 37.1943C68.1056 35.6596 68.5507 33.4929 68.5507 31.7777C68.5507 31.236 68.5507 30.6943 68.4617 30.3332H60.8054V30.4235ZM74.8716 37.4652C73.2691 37.4652 71.8447 36.111 71.8447 34.1249C71.8447 32.1388 73.2691 30.7846 74.8716 30.7846C76.4741 30.7846 77.8985 32.1388 77.8985 34.1249C77.9875 36.111 76.5631 37.4652 74.8716 37.4652ZM74.8716 28.7082C71.8447 28.7082 69.441 31.0554 69.441 34.2152C69.441 37.3749 71.8447 39.7221 74.8716 39.7221C77.8985 39.7221 80.3022 37.3749 80.3022 34.2152C80.3022 30.9652 77.8985 28.7082 74.8716 28.7082ZM86.7122 37.4652C85.1097 37.4652 83.6853 36.111 83.6853 34.1249C83.6853 32.1388 85.1097 30.7846 86.7122 30.7846C88.3147 30.7846 89.7391 32.1388 89.7391 34.1249C89.8281 36.111 88.4037 37.4652 86.7122 37.4652ZM86.7122 28.7082C83.6853 28.7082 81.2815 31.0554 81.2815 34.2152C81.2815 37.3749 83.6853 39.7221 86.7122 39.7221C89.7391 39.7221 92.1428 37.3749 92.1428 34.2152C92.1428 30.9652 89.7391 28.7082 86.7122 28.7082Z" fill="white"/>
<path d="M58.4016 11.2846C57.9565 10.8332 57.3333 10.5623 56.6211 10.5623C55.0186 10.5623 53.8613 11.8262 53.8613 13.4512C53.8613 15.0762 55.1076 16.3401 56.6211 16.3401C57.9565 16.3401 58.9358 15.5276 59.0248 14.2637H56.8882V13.3609H60.1822C60.1822 16.0693 58.7577 17.2429 56.6211 17.2429C54.4844 17.2429 52.882 15.5276 52.882 13.3609C52.882 11.1943 54.5735 9.479 56.6211 9.479C57.6004 9.479 58.4907 9.84012 59.1138 10.4721" fill="white"/>
<path d="M65.9689 9.75V10.7431H62.5859V13.1806H65.6128V14.1736H62.5859V16.4306H66.147V17.4236H61.6066V9.84028" fill="white"/>
<path d="M72.4679 9.75V10.7431H70.2423V17.3333H69.263V10.7431H67.0373V9.75" fill="white"/>
<path d="M76.2961 17.3333H77.2754V9.75H76.2961V17.3333Z" fill="white"/>
<path d="M84.2195 9.75V10.7431H81.9938V17.3333H81.0145V10.7431H78.7888V9.75" fill="white"/>
<path d="M91.3416 16.4305C92.9441 16.4305 94.1014 15.1666 94.1014 13.5416C94.1014 11.9166 92.8551 10.6527 91.3416 10.6527C89.7391 10.6527 88.5818 11.9166 88.5818 13.5416C88.5818 15.1666 89.7391 16.4305 91.3416 16.4305ZM91.3416 9.65967C93.4782 9.65967 95.1698 11.3749 95.1698 13.5416C95.1698 15.7083 93.4782 17.4236 91.3416 17.4236C89.205 17.4236 87.6025 15.7083 87.6025 13.5416C87.6025 11.3749 89.205 9.65967 91.3416 9.65967Z" fill="white"/>
<path d="M101.135 17.3333L97.7516 11.6458V17.3333H96.7723V9.75H97.7516L101.135 15.4375V9.75H102.114V17.3333" fill="white"/>
<path d="M40.7743 24.5554L34.5424 20.9443L16.0248 10.2915C15.4907 10.0206 15.0455 9.84009 14.6004 9.84009C14.1553 9.84009 13.7992 10.0206 13.4431 10.2915L13.354 10.3818C12.9979 10.7429 12.7308 11.3748 12.7308 12.1873V40.6248C12.7308 41.4373 12.9089 42.0693 13.354 42.4304L13.4431 42.5206C14.0662 43.0623 14.9565 43.0623 16.0248 42.5206L34.4534 31.8679L34.5424 31.7776L40.7743 28.1665C42.5549 27.2637 42.5549 25.6387 40.7743 24.5554Z" fill="white"/>
</g>
<defs>
<clipPath id="clip0_2_1641">
<rect width="172" height="52" fill="white"/>
</clipPath>
</defs>
</svg>
