<svg width="34" height="14" viewBox="0 0 34 14" fill="none" xmlns="http://www.w3.org/2000/svg">
<g clip-path="url(#clip0_2_1952)">
<path d="M16.0807 6.84052V10.9431H14.8246V0.809301H18.1544C18.9576 0.791579 19.7338 1.10761 20.3106 1.68652C20.8945 2.23145 21.2235 3.0112 21.2107 3.82491C21.2278 4.64453 20.8988 5.43019 20.3106 5.9766C19.7281 6.55255 19.0089 6.84052 18.1544 6.83905L16.0807 6.84052ZM16.0807 2.05719V5.59559H18.1857C18.6528 5.61035 19.1029 5.41985 19.4276 5.07133C20.087 4.40677 20.1027 3.31247 19.4604 2.62871C19.449 2.6169 19.439 2.60508 19.4276 2.59474C19.1072 2.23884 18.6543 2.0439 18.1857 2.05719H16.0807ZM24.1047 3.78356C25.0333 3.78356 25.7653 4.04052 26.3022 4.55445C26.8392 5.06837 27.1069 5.77428 27.1069 6.66922V10.9431H25.9063V9.98019H25.8522C25.3324 10.7732 24.6402 11.169 23.7771 11.169C23.0408 11.169 22.4241 10.9431 21.9285 10.4897C21.4471 10.0688 21.1737 9.44559 21.1851 8.79137C21.1851 8.07365 21.4471 7.5036 21.9698 7.07976C22.4925 6.65592 23.1904 6.44327 24.0648 6.44327C24.8097 6.44327 25.4249 6.58504 25.9063 6.86711V6.56879C25.9092 6.1228 25.7183 5.70044 25.3879 5.41689C25.0561 5.10677 24.6231 4.93694 24.1759 4.94284C23.4752 4.94284 22.9198 5.25002 22.511 5.86289L21.4058 5.14073C22.0125 4.23546 22.9126 3.78356 24.1047 3.78356ZM22.4797 8.8209C22.4783 9.15761 22.6335 9.47365 22.8955 9.67006C23.1733 9.89601 23.5179 10.0171 23.8711 10.0097C24.4009 10.0082 24.9094 9.78968 25.2839 9.40128C25.6998 8.99516 25.9077 8.51964 25.9077 7.97175C25.5161 7.64833 24.9706 7.48588 24.2699 7.48588C23.76 7.48588 23.3342 7.61289 22.9938 7.86837C22.6506 8.12829 22.4797 8.44284 22.4797 8.8209ZM34.0001 4.00951L29.8086 14H28.5126L30.0678 10.5044L27.3106 4.00951H28.675L30.6674 8.99073H30.6945L32.6328 4.00951H34.0001Z" fill="white"/>
<path d="M11.0063 5.95441C11.0063 5.55715 10.975 5.16137 10.9094 4.77002H5.61426V7.01179H8.64639C8.52106 7.73542 8.11658 8.37487 7.52554 8.78099V10.2371H9.3357C10.3953 9.22551 11.0063 7.72656 11.0063 5.95441Z" fill="white"/>
<path d="M5.61419 11.6445C7.12954 11.6445 8.40562 11.1291 9.33563 10.2386L7.52547 8.78252C7.0213 9.13695 6.37329 9.33927 5.61419 9.33927C4.15011 9.33927 2.90678 8.31585 2.46243 6.93652H0.598145V8.43695C1.55094 10.404 3.49212 11.6445 5.61419 11.6445Z" fill="white"/>
<path d="M2.46245 6.93642C2.22745 6.21427 2.22745 5.43009 2.46245 4.70794V3.20752H0.598165C-0.199388 4.85267 -0.199388 6.7917 0.598165 8.43685L2.46245 6.93642Z" fill="white"/>
<path d="M5.61419 2.30514C6.41459 2.29185 7.18793 2.60493 7.76758 3.17792L9.37123 1.51653C8.35435 0.527081 7.00848 -0.016379 5.61419 -0.000134321C3.49213 -0.000134321 1.55094 1.24185 0.598145 3.20746L2.46243 4.70788C2.90678 3.32856 4.15011 2.30514 5.61419 2.30514Z" fill="white"/>
</g>
<defs>
<clipPath id="clip0_2_1952">
<rect width="34" height="14" fill="white"/>
</clipPath>
</defs>
</svg>
