<svg width="448" height="375" viewBox="0 0 448 375" fill="none" xmlns="http://www.w3.org/2000/svg">
<path d="M20.5563 294.693C57.005 239.951 56.23 177.256 84.3768 118.142C120.767 41.7123 200.215 -9.57951 287.19 2.74878C331.98 9.09491 373.928 32.072 404.776 68.8182C411.869 77.2725 416.696 84.0671 422.199 93.5736C446.189 135.002 453.24 181.88 443.551 225.567C423.953 313.91 342.937 369.699 254.202 373.209C191.764 375.681 133.676 356.43 72.9016 370.271C51.1726 375.214 22.9282 381.13 7.83217 359.14C-8.76385 334.96 7.08291 314.934 20.5563 294.693ZM48.137 312.615C43.8075 319.116 37.1773 327.855 35.0036 334.745C33.5507 339.352 36.5649 342.809 41.3236 342.804C48.7658 342.793 58.043 340.09 65.5208 338.398C133.454 322.928 187.19 343.555 253.693 340.243C327.324 336.575 394.759 292.7 411.178 218.655C419.148 182.734 413.288 144.087 393.455 109.829C389.163 102.413 384.921 96.2721 379.396 89.6826C353.902 59.3228 319.354 40.3521 282.527 35.1335C208.495 24.6431 143.263 69.7956 113.338 134.701C85.2344 195.653 87.5977 253.349 48.137 312.615Z" fill="#00A0E3"/>
</svg>
